<?xml version="1.0" encoding="UTF-8" standalone="no"?>
<!DOCTYPE svg PUBLIC "-//W3C//DTD SVG 1.1//EN"
 "http://www.w3.org/Graphics/SVG/1.1/DTD/svg11.dtd">
<!-- Generated by graphviz version 2.43.20190912.0211 (20190912.0211)
 -->
<!-- Title: counter_tff_async Pages: 1 -->
<svg width="1438pt" height="375pt"
 viewBox="0.00 0.00 1438.22 374.90" xmlns="http://www.w3.org/2000/svg" xmlns:xlink="http://www.w3.org/1999/xlink">
<g id="graph0" class="graph" transform="scale(1 1) rotate(0) translate(4 370.9)">
<title>counter_tff_async</title>
<polygon fill="white" stroke="transparent" points="-4,4 -4,-370.9 1434.22,-370.9 1434.22,4 -4,4"/>
<text text-anchor="middle" x="715.11" y="-7.8" font-family="Times,serif" font-size="14.00">counter_tff_async</text>
<!-- n1 -->
<g id="node1" class="node">
<title>n1</title>
<polygon fill="none" stroke="black" points="65.69,-226.54 65.69,-241.46 49.88,-252 27.51,-252 11.69,-241.46 11.69,-226.54 27.51,-216 49.88,-216 65.69,-226.54"/>
<text text-anchor="middle" x="38.69" y="-230.3" font-family="Times,serif" font-size="14.00">clk</text>
</g>
<!-- c12 -->
<g id="node12" class="node">
<title>c12</title>
<polygon fill="none" stroke="black" points="113.38,-165.5 113.38,-234.5 238.38,-234.5 238.38,-165.5 113.38,-165.5"/>
<text text-anchor="middle" x="140.88" y="-219.3" font-family="Times,serif" font-size="14.00">T</text>
<polyline fill="none" stroke="black" points="113.38,-211.5 168.38,-211.5 "/>
<text text-anchor="middle" x="140.88" y="-196.3" font-family="Times,serif" font-size="14.00">clk</text>
<polyline fill="none" stroke="black" points="113.38,-188.5 168.38,-188.5 "/>
<text text-anchor="middle" x="140.88" y="-173.3" font-family="Times,serif" font-size="14.00">res_n</text>
<polyline fill="none" stroke="black" points="168.38,-165.5 168.38,-234.5 "/>
<text text-anchor="middle" x="189.38" y="-203.8" font-family="Times,serif" font-size="14.00">ff_0</text>
<text text-anchor="middle" x="189.38" y="-188.8" font-family="Times,serif" font-size="14.00">ff_t</text>
<polyline fill="none" stroke="black" points="210.38,-165.5 210.38,-234.5 "/>
<text text-anchor="middle" x="224.38" y="-196.3" font-family="Times,serif" font-size="14.00">Q</text>
</g>
<!-- n1&#45;&gt;c12 -->
<g id="edge10" class="edge">
<title>n1:e&#45;&gt;c12:w</title>
<path fill="none" stroke="black" d="M66.69,-234C88.35,-234 88.43,-209.79 103.34,-202.23"/>
<polygon fill="black" stroke="black" points="104.38,-205.59 113.38,-200 102.86,-198.75 104.38,-205.59"/>
</g>
<!-- x9 -->
<g id="node20" class="node">
<title>x9</title>
<path fill="none" stroke="black" d="M286.38,-253C286.38,-253 337.38,-253 337.38,-253 343.38,-253 349.38,-259 349.38,-265 349.38,-265 349.38,-277 349.38,-277 349.38,-283 343.38,-289 337.38,-289 337.38,-289 286.38,-289 286.38,-289 280.38,-289 274.38,-283 274.38,-277 274.38,-277 274.38,-265 274.38,-265 274.38,-259 280.38,-253 286.38,-253"/>
<text text-anchor="middle" x="311.88" y="-267.3" font-family="Times,serif" font-size="14.00">0:0 &#45; 0:0</text>
</g>
<!-- n1&#45;&gt;x9 -->
<g id="edge11" class="edge">
<title>n1:e&#45;&gt;x9:w</title>
<path fill="none" stroke="black" d="M66.69,-234C87.91,-234 92.54,-240.02 113.38,-244 181.17,-256.94 200.02,-269.69 264.14,-270.91"/>
<polygon fill="black" stroke="black" points="264.35,-274.41 274.38,-271 264.42,-267.41 264.35,-274.41"/>
</g>
<!-- n2 -->
<g id="node2" class="node">
<title>n2</title>
<polygon fill="none" stroke="black" points="464.07,-177.54 464.07,-192.46 441.05,-203 408.5,-203 385.49,-192.46 385.49,-177.54 408.5,-167 441.05,-167 464.07,-177.54"/>
<text text-anchor="middle" x="424.78" y="-181.3" font-family="Times,serif" font-size="14.00">count</text>
</g>
<!-- x0 -->
<g id="node7" class="node">
<title>x0</title>
<path fill="none" stroke="black" d="M512.18,-167C512.18,-167 563.18,-167 563.18,-167 569.18,-167 575.18,-173 575.18,-179 575.18,-179 575.18,-191 575.18,-191 575.18,-197 569.18,-203 563.18,-203 563.18,-203 512.18,-203 512.18,-203 506.18,-203 500.18,-197 500.18,-191 500.18,-191 500.18,-179 500.18,-179 500.18,-173 506.18,-167 512.18,-167"/>
<text text-anchor="middle" x="537.68" y="-181.3" font-family="Times,serif" font-size="14.00">0:0 &#45; 0:0</text>
</g>
<!-- n2&#45;&gt;x0 -->
<g id="edge15" class="edge">
<title>n2:e&#45;&gt;x0:w</title>
<path fill="none" stroke="black" d="M464.18,-185C476.18,-185 481.43,-185 490.05,-185"/>
<polygon fill="black" stroke="black" points="490.18,-188.5 500.18,-185 490.18,-181.5 490.18,-188.5"/>
</g>
<!-- x2 -->
<g id="node10" class="node">
<title>x2</title>
<path fill="none" stroke="black" d="M512.18,-223C512.18,-223 563.18,-223 563.18,-223 569.18,-223 575.18,-229 575.18,-235 575.18,-235 575.18,-247 575.18,-247 575.18,-253 569.18,-259 563.18,-259 563.18,-259 512.18,-259 512.18,-259 506.18,-259 500.18,-253 500.18,-247 500.18,-247 500.18,-235 500.18,-235 500.18,-229 506.18,-223 512.18,-223"/>
<text text-anchor="middle" x="537.68" y="-237.3" font-family="Times,serif" font-size="14.00">1:1 &#45; 0:0</text>
</g>
<!-- n2&#45;&gt;x2 -->
<g id="edge16" class="edge">
<title>n2:e&#45;&gt;x2:w</title>
<path fill="none" stroke="black" d="M464.18,-185C489.6,-185 476.06,-226.36 490.53,-237.99"/>
<polygon fill="black" stroke="black" points="489.59,-241.36 500.18,-241 491.67,-234.68 489.59,-241.36"/>
</g>
<!-- n3 -->
<g id="node3" class="node">
<title>n3</title>
<polygon fill="none" stroke="black" points="65.69,-320.54 65.69,-335.46 49.88,-346 27.51,-346 11.69,-335.46 11.69,-320.54 27.51,-310 49.88,-310 65.69,-320.54"/>
<text text-anchor="middle" x="38.69" y="-324.3" font-family="Times,serif" font-size="14.00">en</text>
</g>
<!-- n3&#45;&gt;c12 -->
<g id="edge17" class="edge">
<title>n3:e&#45;&gt;c12:w</title>
<path fill="none" stroke="black" d="M66.69,-328C113.77,-328 70.33,-238.77 103.26,-224.82"/>
<polygon fill="black" stroke="black" points="104.16,-228.22 113.38,-223 102.92,-221.33 104.16,-228.22"/>
</g>
<!-- c13 -->
<g id="node14" class="node">
<title>c13</title>
<polygon fill="none" stroke="black" points="1103.61,-268.5 1103.61,-337.5 1305.61,-337.5 1305.61,-268.5 1103.61,-268.5"/>
<text text-anchor="middle" x="1131.11" y="-322.3" font-family="Times,serif" font-size="14.00">T</text>
<polyline fill="none" stroke="black" points="1103.61,-314.5 1158.61,-314.5 "/>
<text text-anchor="middle" x="1131.11" y="-299.3" font-family="Times,serif" font-size="14.00">clk</text>
<polyline fill="none" stroke="black" points="1103.61,-291.5 1158.61,-291.5 "/>
<text text-anchor="middle" x="1131.11" y="-276.3" font-family="Times,serif" font-size="14.00">res_n</text>
<polyline fill="none" stroke="black" points="1158.61,-268.5 1158.61,-337.5 "/>
<text text-anchor="middle" x="1218.11" y="-306.8" font-family="Times,serif" font-size="14.00">genblk1[1].ff_i</text>
<text text-anchor="middle" x="1218.11" y="-291.8" font-family="Times,serif" font-size="14.00">ff_t</text>
<polyline fill="none" stroke="black" points="1277.61,-268.5 1277.61,-337.5 "/>
<text text-anchor="middle" x="1291.61" y="-299.3" font-family="Times,serif" font-size="14.00">Q</text>
</g>
<!-- n3&#45;&gt;c13 -->
<g id="edge18" class="edge">
<title>n3:e&#45;&gt;c13:w</title>
<path fill="none" stroke="black" d="M66.69,-328C88.36,-328 92.18,-337.57 113.38,-342 199.94,-360.1 222.46,-366 310.88,-366 310.88,-366 310.88,-366 908.89,-366 979.93,-366 1000.25,-369.59 1067.61,-347 1081.33,-342.4 1084.28,-332.17 1093.74,-327.91"/>
<polygon fill="black" stroke="black" points="1094.46,-331.34 1103.61,-326 1093.12,-324.47 1094.46,-331.34"/>
</g>
<!-- c14 -->
<g id="node17" class="node">
<title>c14</title>
<polygon fill="none" stroke="black" points="1103.61,-127.5 1103.61,-196.5 1305.61,-196.5 1305.61,-127.5 1103.61,-127.5"/>
<text text-anchor="middle" x="1131.11" y="-181.3" font-family="Times,serif" font-size="14.00">T</text>
<polyline fill="none" stroke="black" points="1103.61,-173.5 1158.61,-173.5 "/>
<text text-anchor="middle" x="1131.11" y="-158.3" font-family="Times,serif" font-size="14.00">clk</text>
<polyline fill="none" stroke="black" points="1103.61,-150.5 1158.61,-150.5 "/>
<text text-anchor="middle" x="1131.11" y="-135.3" font-family="Times,serif" font-size="14.00">res_n</text>
<polyline fill="none" stroke="black" points="1158.61,-127.5 1158.61,-196.5 "/>
<text text-anchor="middle" x="1218.11" y="-165.8" font-family="Times,serif" font-size="14.00">genblk1[2].ff_i</text>
<text text-anchor="middle" x="1218.11" y="-150.8" font-family="Times,serif" font-size="14.00">ff_t</text>
<polyline fill="none" stroke="black" points="1277.61,-127.5 1277.61,-196.5 "/>
<text text-anchor="middle" x="1291.61" y="-158.3" font-family="Times,serif" font-size="14.00">Q</text>
</g>
<!-- n3&#45;&gt;c14 -->
<g id="edge19" class="edge">
<title>n3:e&#45;&gt;c14:w</title>
<path fill="none" stroke="black" d="M66.69,-328C175.22,-328 202.35,-328 310.88,-328 310.88,-328 310.88,-328 662.68,-328 795.92,-328 830.98,-313.41 956.61,-269 1009.09,-250.45 1020.25,-240.26 1067.61,-211 1080.85,-202.81 1083.32,-191.36 1093.47,-186.89"/>
<polygon fill="black" stroke="black" points="1094.42,-190.27 1103.61,-185 1093.13,-183.39 1094.42,-190.27"/>
</g>
<!-- n4 -->
<g id="node4" class="node">
<title>n4</title>
<polygon fill="none" stroke="black" points="907.89,-260 858.96,-242 907.89,-224 956.82,-242 907.89,-260"/>
<text text-anchor="middle" x="907.89" y="-238.3" font-family="Times,serif" font-size="14.00">ff_clk</text>
</g>
<!-- x6 -->
<g id="node16" class="node">
<title>x6</title>
<path fill="none" stroke="black" d="M1004.61,-301C1004.61,-301 1055.61,-301 1055.61,-301 1061.61,-301 1067.61,-307 1067.61,-313 1067.61,-313 1067.61,-325 1067.61,-325 1067.61,-331 1061.61,-337 1055.61,-337 1055.61,-337 1004.61,-337 1004.61,-337 998.61,-337 992.61,-331 992.61,-325 992.61,-325 992.61,-313 992.61,-313 992.61,-307 998.61,-301 1004.61,-301"/>
<text text-anchor="middle" x="1030.11" y="-315.3" font-family="Times,serif" font-size="14.00">1:1 &#45; 0:0</text>
</g>
<!-- n4&#45;&gt;x6 -->
<g id="edge23" class="edge">
<title>n4:e&#45;&gt;x6:w</title>
<path fill="none" stroke="black" d="M956.61,-242C990.25,-242 962.56,-303.08 982.78,-316.44"/>
<polygon fill="black" stroke="black" points="982.05,-319.86 992.61,-319 983.81,-313.09 982.05,-319.86"/>
</g>
<!-- x8 -->
<g id="node19" class="node">
<title>x8</title>
<path fill="none" stroke="black" d="M1004.61,-166C1004.61,-166 1055.61,-166 1055.61,-166 1061.61,-166 1067.61,-172 1067.61,-178 1067.61,-178 1067.61,-190 1067.61,-190 1067.61,-196 1061.61,-202 1055.61,-202 1055.61,-202 1004.61,-202 1004.61,-202 998.61,-202 992.61,-196 992.61,-190 992.61,-190 992.61,-178 992.61,-178 992.61,-172 998.61,-166 1004.61,-166"/>
<text text-anchor="middle" x="1030.11" y="-180.3" font-family="Times,serif" font-size="14.00">2:2 &#45; 0:0</text>
</g>
<!-- n4&#45;&gt;x8 -->
<g id="edge24" class="edge">
<title>n4:e&#45;&gt;x8:w</title>
<path fill="none" stroke="black" d="M956.61,-242C982.68,-242 968.12,-199.17 982.76,-187.12"/>
<polygon fill="black" stroke="black" points="984.13,-190.36 992.61,-184 982.02,-183.68 984.13,-190.36"/>
</g>
<!-- n5 -->
<g id="node5" class="node">
<title>n5</title>
<polygon fill="none" stroke="black" points="77.58,-53.54 77.58,-68.46 54.8,-79 22.59,-79 -0.19,-68.46 -0.19,-53.54 22.59,-43 54.8,-43 77.58,-53.54"/>
<text text-anchor="middle" x="38.69" y="-57.3" font-family="Times,serif" font-size="14.00">res_n</text>
</g>
<!-- n5&#45;&gt;c12 -->
<g id="edge25" class="edge">
<title>n5:e&#45;&gt;c12:w</title>
<path fill="none" stroke="black" d="M77.38,-61C127.36,-61 69.39,-160.42 103.34,-175.18"/>
<polygon fill="black" stroke="black" points="102.92,-178.66 113.38,-177 104.17,-171.77 102.92,-178.66"/>
</g>
<!-- n5&#45;&gt;c13 -->
<g id="edge26" class="edge">
<title>n5:e&#45;&gt;c13:w</title>
<path fill="none" stroke="black" d="M77.38,-61C181.16,-61 207.11,-61 310.88,-61 310.88,-61 310.88,-61 786.68,-61 954.38,-61 933.35,-271.11 1093.32,-279.73"/>
<polygon fill="black" stroke="black" points="1093.52,-283.23 1103.61,-280 1093.7,-276.24 1093.52,-283.23"/>
</g>
<!-- n5&#45;&gt;c14 -->
<g id="edge27" class="edge">
<title>n5:e&#45;&gt;c14:w</title>
<path fill="none" stroke="black" d="M77.38,-61C94.55,-61 96.73,-51.18 113.38,-47 199.15,-25.47 222.46,-23 310.88,-23 310.88,-23 310.88,-23 908.89,-23 956.11,-23 1041.66,-124.95 1093.67,-137.7"/>
<polygon fill="black" stroke="black" points="1093.24,-141.17 1103.61,-139 1094.15,-134.23 1093.24,-141.17"/>
</g>
<!-- c8 -->
<g id="node6" class="node">
<title>c8</title>
<polygon fill="none" stroke="black" points="611.18,-166 611.18,-204 712.18,-204 712.18,-166 611.18,-166"/>
<text text-anchor="middle" x="624.18" y="-181.3" font-family="Times,serif" font-size="14.00">A</text>
<polyline fill="none" stroke="black" points="637.18,-166 637.18,-204 "/>
<text text-anchor="middle" x="661.68" y="-188.8" font-family="Times,serif" font-size="14.00">$12</text>
<text text-anchor="middle" x="661.68" y="-173.8" font-family="Times,serif" font-size="14.00">$not</text>
<polyline fill="none" stroke="black" points="686.18,-166 686.18,-204 "/>
<text text-anchor="middle" x="699.18" y="-181.3" font-family="Times,serif" font-size="14.00">Y</text>
</g>
<!-- x1 -->
<g id="node8" class="node">
<title>x1</title>
<path fill="none" stroke="black" d="M760.18,-168C760.18,-168 811.18,-168 811.18,-168 817.18,-168 823.18,-174 823.18,-180 823.18,-180 823.18,-192 823.18,-192 823.18,-198 817.18,-204 811.18,-204 811.18,-204 760.18,-204 760.18,-204 754.18,-204 748.18,-198 748.18,-192 748.18,-192 748.18,-180 748.18,-180 748.18,-174 754.18,-168 760.18,-168"/>
<text text-anchor="middle" x="785.68" y="-182.3" font-family="Times,serif" font-size="14.00">0:0 &#45; 1:1</text>
</g>
<!-- c8&#45;&gt;x1 -->
<g id="edge2" class="edge">
<title>c8:e&#45;&gt;x1:w</title>
<path fill="none" stroke="black" d="M724.39,-185.23C728.47,-185.39 731.91,-185.61 735.99,-185.77"/>
<polygon fill="none" stroke="black" points="724.17,-185.23 718.1,-189.11 712.18,-185 718.25,-181.11 724.17,-185.23"/>
<polygon fill="none" stroke="black" points="736.18,-185.77 742.25,-181.89 748.18,-186 742.1,-189.89 736.18,-185.77"/>
</g>
<!-- x0&#45;&gt;c8 -->
<g id="edge1" class="edge">
<title>x0:e&#45;&gt;c8:w</title>
<path fill="none" stroke="black" d="M587.39,-185C591.47,-185 594.91,-185 598.99,-185"/>
<polygon fill="none" stroke="black" points="587.18,-185 581.18,-189 575.18,-185 581.18,-181 587.18,-185"/>
<polygon fill="none" stroke="black" points="599.18,-185 605.18,-181 611.18,-185 605.18,-189 599.18,-185"/>
</g>
<!-- x1&#45;&gt;n4 -->
<g id="edge20" class="edge">
<title>x1:e&#45;&gt;n4:w</title>
<path fill="none" stroke="black" d="M823.18,-186C848.6,-186 835.06,-227.36 849.53,-238.99"/>
<polygon fill="black" stroke="black" points="848.59,-242.36 859.18,-242 850.67,-235.68 848.59,-242.36"/>
</g>
<!-- c9 -->
<g id="node9" class="node">
<title>c9</title>
<polygon fill="none" stroke="black" points="611.18,-223 611.18,-261 712.18,-261 712.18,-223 611.18,-223"/>
<text text-anchor="middle" x="624.18" y="-238.3" font-family="Times,serif" font-size="14.00">A</text>
<polyline fill="none" stroke="black" points="637.18,-223 637.18,-261 "/>
<text text-anchor="middle" x="661.68" y="-245.8" font-family="Times,serif" font-size="14.00">$13</text>
<text text-anchor="middle" x="661.68" y="-230.8" font-family="Times,serif" font-size="14.00">$not</text>
<polyline fill="none" stroke="black" points="686.18,-223 686.18,-261 "/>
<text text-anchor="middle" x="699.18" y="-238.3" font-family="Times,serif" font-size="14.00">Y</text>
</g>
<!-- x3 -->
<g id="node11" class="node">
<title>x3</title>
<path fill="none" stroke="black" d="M760.18,-224C760.18,-224 811.18,-224 811.18,-224 817.18,-224 823.18,-230 823.18,-236 823.18,-236 823.18,-248 823.18,-248 823.18,-254 817.18,-260 811.18,-260 811.18,-260 760.18,-260 760.18,-260 754.18,-260 748.18,-254 748.18,-248 748.18,-248 748.18,-236 748.18,-236 748.18,-230 754.18,-224 760.18,-224"/>
<text text-anchor="middle" x="785.68" y="-238.3" font-family="Times,serif" font-size="14.00">0:0 &#45; 2:2</text>
</g>
<!-- c9&#45;&gt;x3 -->
<g id="edge4" class="edge">
<title>c9:e&#45;&gt;x3:w</title>
<path fill="none" stroke="black" d="M724.39,-242C728.47,-242 731.91,-242 735.99,-242"/>
<polygon fill="none" stroke="black" points="724.18,-242 718.18,-246 712.18,-242 718.18,-238 724.18,-242"/>
<polygon fill="none" stroke="black" points="736.18,-242 742.18,-238 748.18,-242 742.18,-246 736.18,-242"/>
</g>
<!-- x2&#45;&gt;c9 -->
<g id="edge3" class="edge">
<title>x2:e&#45;&gt;c9:w</title>
<path fill="none" stroke="black" d="M587.39,-241.23C591.47,-241.39 594.91,-241.61 598.99,-241.77"/>
<polygon fill="none" stroke="black" points="587.17,-241.23 581.1,-245.11 575.18,-241 581.25,-237.11 587.17,-241.23"/>
<polygon fill="none" stroke="black" points="599.18,-241.77 605.25,-237.89 611.18,-242 605.1,-245.89 599.18,-241.77"/>
</g>
<!-- x3&#45;&gt;n4 -->
<g id="edge21" class="edge">
<title>x3:e&#45;&gt;n4:w</title>
<path fill="none" stroke="black" d="M823.18,-242C835.18,-242 840.43,-242 849.05,-242"/>
<polygon fill="black" stroke="black" points="849.18,-245.5 859.18,-242 849.18,-238.5 849.18,-245.5"/>
</g>
<!-- x4 -->
<g id="node13" class="node">
<title>x4</title>
<path fill="none" stroke="black" d="M286.38,-180C286.38,-180 337.38,-180 337.38,-180 343.38,-180 349.38,-186 349.38,-192 349.38,-192 349.38,-204 349.38,-204 349.38,-210 343.38,-216 337.38,-216 337.38,-216 286.38,-216 286.38,-216 280.38,-216 274.38,-210 274.38,-204 274.38,-204 274.38,-192 274.38,-192 274.38,-186 280.38,-180 286.38,-180"/>
<text text-anchor="middle" x="311.88" y="-194.3" font-family="Times,serif" font-size="14.00">0:0 &#45; 0:0</text>
</g>
<!-- c12&#45;&gt;x4 -->
<g id="edge5" class="edge">
<title>c12:e&#45;&gt;x4:w</title>
<path fill="none" stroke="black" d="M250.61,-199.54C254.68,-199.21 258.12,-198.78 262.19,-198.46"/>
<polygon fill="none" stroke="black" points="250.38,-199.54 244.53,-203.77 238.38,-200 244.23,-195.78 250.38,-199.54"/>
<polygon fill="none" stroke="black" points="262.39,-198.45 268.24,-194.23 274.38,-198 268.54,-202.22 262.39,-198.45"/>
</g>
<!-- x4&#45;&gt;n2 -->
<g id="edge12" class="edge">
<title>x4:e&#45;&gt;n2:w</title>
<path fill="none" stroke="black" d="M349.38,-198C362.41,-198 366.62,-190.38 375.51,-186.81"/>
<polygon fill="black" stroke="black" points="376.18,-190.24 385.38,-185 374.92,-183.36 376.18,-190.24"/>
</g>
<!-- x5 -->
<g id="node15" class="node">
<title>x5</title>
<path fill="none" stroke="black" d="M1353.61,-246C1353.61,-246 1404.61,-246 1404.61,-246 1410.61,-246 1416.61,-252 1416.61,-258 1416.61,-258 1416.61,-270 1416.61,-270 1416.61,-276 1410.61,-282 1404.61,-282 1404.61,-282 1353.61,-282 1353.61,-282 1347.61,-282 1341.61,-276 1341.61,-270 1341.61,-270 1341.61,-258 1341.61,-258 1341.61,-252 1347.61,-246 1353.61,-246"/>
<text text-anchor="middle" x="1379.11" y="-260.3" font-family="Times,serif" font-size="14.00">0:0 &#45; 1:1</text>
</g>
<!-- c13&#45;&gt;x5 -->
<g id="edge6" class="edge">
<title>c13:e&#45;&gt;x5:w</title>
<path fill="none" stroke="black" d="M1316.82,-298.22C1323.4,-290.73 1323.8,-276.33 1330.35,-268.82"/>
<polygon fill="none" stroke="black" points="1316.64,-298.29 1312.69,-304.33 1305.61,-303 1309.56,-296.97 1316.64,-298.29"/>
<polygon fill="none" stroke="black" points="1330.58,-268.73 1334.52,-262.69 1341.61,-264 1337.67,-270.04 1330.58,-268.73"/>
</g>
<!-- x5&#45;&gt;n2 -->
<g id="edge13" class="edge">
<title>x5:e&#45;&gt;n2:w</title>
<path fill="none" stroke="black" d="M1418.11,-264C1439.6,-264 1441.21,-312.13 1341.61,-282.5 1323.29,-277.05 1323.07,-266.75 1305.61,-259 1220.76,-221.37 1180.12,-258.54 1103.61,-206 1081.03,-190.5 1091.19,-169.91 1067.61,-156 1006.42,-119.9 979.93,-137 908.89,-137 660.68,-137 660.68,-137 660.68,-137 588.79,-137 562.72,-121.57 500.18,-157 477.59,-169.79 487.51,-191.63 464.18,-203 432.85,-218.26 411.09,-226.94 385.78,-203 383.42,-200.76 381.48,-197.37 380.56,-194.14"/>
<polygon fill="black" stroke="black" points="383.77,-195.55 384.78,-185 377.41,-192.61 383.77,-195.55"/>
</g>
<!-- x6&#45;&gt;c13 -->
<g id="edge7" class="edge">
<title>x6:e&#45;&gt;c13:w</title>
<path fill="none" stroke="black" d="M1079.45,-315.76C1083.97,-312.99 1087.25,-309.01 1091.77,-306.23"/>
<polygon fill="none" stroke="black" points="1079.18,-315.83 1074.45,-321.28 1067.61,-319 1072.34,-313.56 1079.18,-315.83"/>
<polygon fill="none" stroke="black" points="1092.03,-306.16 1096.76,-300.72 1103.61,-303 1098.87,-308.44 1092.03,-306.16"/>
</g>
<!-- x7 -->
<g id="node18" class="node">
<title>x7</title>
<path fill="none" stroke="black" d="M1353.61,-112C1353.61,-112 1404.61,-112 1404.61,-112 1410.61,-112 1416.61,-118 1416.61,-124 1416.61,-124 1416.61,-136 1416.61,-136 1416.61,-142 1410.61,-148 1404.61,-148 1404.61,-148 1353.61,-148 1353.61,-148 1347.61,-148 1341.61,-142 1341.61,-136 1341.61,-136 1341.61,-124 1341.61,-124 1341.61,-118 1347.61,-112 1353.61,-112"/>
<text text-anchor="middle" x="1379.11" y="-126.3" font-family="Times,serif" font-size="14.00">0:0 &#45; 2:2</text>
</g>
<!-- c14&#45;&gt;x7 -->
<g id="edge8" class="edge">
<title>c14:e&#45;&gt;x7:w</title>
<path fill="none" stroke="black" d="M1317,-157.28C1322.75,-151.16 1324.56,-140.56 1330.4,-134.53"/>
<polygon fill="none" stroke="black" points="1316.69,-157.4 1312.68,-163.4 1305.61,-162 1309.62,-156.01 1316.69,-157.4"/>
<polygon fill="none" stroke="black" points="1330.48,-134.5 1334.54,-128.54 1341.61,-130 1337.54,-135.96 1330.48,-134.5"/>
</g>
<!-- x7&#45;&gt;n2 -->
<g id="edge14" class="edge">
<title>x7:e&#45;&gt;n2:w</title>
<path fill="none" stroke="black" d="M1418.11,-130C1434.99,-130 1422.42,-178.13 1341.61,-148.5 1321.92,-141.28 1325.03,-125.89 1305.61,-118 1192.31,-71.96 1153.4,-99 1031.11,-99 660.68,-99 660.68,-99 660.68,-99 588.55,-99 557.67,-79.45 500.18,-123 469.09,-146.54 496.92,-181.83 464.18,-203 434.92,-221.92 411.09,-226.94 385.78,-203 383.42,-200.76 381.48,-197.37 380.56,-194.14"/>
<polygon fill="black" stroke="black" points="383.77,-195.55 384.78,-185 377.41,-192.61 383.77,-195.55"/>
</g>
<!-- x8&#45;&gt;c14 -->
<g id="edge9" class="edge">
<title>x8:e&#45;&gt;c14:w</title>
<path fill="none" stroke="black" d="M1079.02,-180.17C1084,-176.23 1086.98,-170.12 1091.88,-166.09"/>
<polygon fill="none" stroke="black" points="1078.98,-180.18 1074.57,-185.88 1067.61,-184 1072.02,-178.3 1078.98,-180.18"/>
<polygon fill="none" stroke="black" points="1092.27,-165.95 1096.62,-160.2 1103.61,-162 1099.26,-167.75 1092.27,-165.95"/>
</g>
<!-- x9&#45;&gt;n4 -->
<g id="edge22" class="edge">
<title>x9:e&#45;&gt;n4:w</title>
<path fill="none" stroke="black" d="M349.38,-271C433.05,-271 453.01,-290 536.68,-290 536.68,-290 536.68,-290 662.68,-290 734.56,-290 756.76,-297.5 823.18,-270 838.1,-263.82 839.23,-249.71 849.33,-244.23"/>
<polygon fill="black" stroke="black" points="850.2,-247.62 859.18,-242 848.65,-240.8 850.2,-247.62"/>
</g>
</g>
</svg>
