<?xml version="1.0" encoding="UTF-8" standalone="no"?>
<!DOCTYPE svg PUBLIC "-//W3C//DTD SVG 1.1//EN"
 "http://www.w3.org/Graphics/SVG/1.1/DTD/svg11.dtd">
<!-- Generated by graphviz version 2.43.20190912.0211 (20190912.0211)
 -->
<!-- Title: shift_right Pages: 1 -->
<svg width="2096pt" height="987pt"
 viewBox="0.00 0.00 2096.48 986.59" xmlns="http://www.w3.org/2000/svg" xmlns:xlink="http://www.w3.org/1999/xlink">
<g id="graph0" class="graph" transform="scale(1 1) rotate(0) translate(4 982.59)">
<title>shift_right</title>
<polygon fill="white" stroke="transparent" points="-4,4 -4,-982.59 2092.48,-982.59 2092.48,4 -4,4"/>
<text text-anchor="middle" x="1044.24" y="-7.8" font-family="Times,serif" font-size="14.00">shift_right</text>
<!-- n1 -->
<g id="node1" class="node">
<title>n1</title>
<polygon fill="none" stroke="black" points="73.1,-209.54 73.1,-224.46 57.07,-235 34.39,-235 18.35,-224.46 18.35,-209.54 34.39,-199 57.07,-199 73.1,-209.54"/>
<text text-anchor="middle" x="45.73" y="-213.3" font-family="Times,serif" font-size="14.00">din</text>
</g>
<!-- x3 -->
<g id="node12" class="node">
<title>x3</title>
<path fill="none" stroke="black" d="M139.45,-116C139.45,-116 190.45,-116 190.45,-116 196.45,-116 202.45,-122 202.45,-128 202.45,-128 202.45,-140 202.45,-140 202.45,-146 196.45,-152 190.45,-152 190.45,-152 139.45,-152 139.45,-152 133.45,-152 127.45,-146 127.45,-140 127.45,-140 127.45,-128 127.45,-128 127.45,-122 133.45,-116 139.45,-116"/>
<text text-anchor="middle" x="164.95" y="-130.3" font-family="Times,serif" font-size="14.00">0:0 &#45; 0:0</text>
</g>
<!-- n1&#45;&gt;x3 -->
<g id="edge35" class="edge">
<title>n1:e&#45;&gt;x3:w</title>
<path fill="none" stroke="black" d="M73.73,-217C113.72,-217 89.02,-148.24 117.39,-135.89"/>
<polygon fill="black" stroke="black" points="118.27,-139.28 127.45,-134 116.98,-132.41 118.27,-139.28"/>
</g>
<!-- x4 -->
<g id="node13" class="node">
<title>x4</title>
<path fill="none" stroke="black" d="M139.45,-61C139.45,-61 190.45,-61 190.45,-61 196.45,-61 202.45,-67 202.45,-73 202.45,-73 202.45,-85 202.45,-85 202.45,-91 196.45,-97 190.45,-97 190.45,-97 139.45,-97 139.45,-97 133.45,-97 127.45,-91 127.45,-85 127.45,-85 127.45,-73 127.45,-73 127.45,-67 133.45,-61 139.45,-61"/>
<text text-anchor="middle" x="164.95" y="-75.3" font-family="Times,serif" font-size="14.00">1:1 &#45; 0:0</text>
</g>
<!-- n1&#45;&gt;x4 -->
<g id="edge36" class="edge">
<title>n1:e&#45;&gt;x4:w</title>
<path fill="none" stroke="black" d="M73.73,-217C135.69,-217 70.27,-94.7 117.31,-80.37"/>
<polygon fill="black" stroke="black" points="118.01,-83.8 127.45,-79 117.08,-76.87 118.01,-83.8"/>
</g>
<!-- x7 -->
<g id="node17" class="node">
<title>x7</title>
<path fill="none" stroke="black" d="M139.45,-336C139.45,-336 190.45,-336 190.45,-336 196.45,-336 202.45,-342 202.45,-348 202.45,-348 202.45,-360 202.45,-360 202.45,-366 196.45,-372 190.45,-372 190.45,-372 139.45,-372 139.45,-372 133.45,-372 127.45,-366 127.45,-360 127.45,-360 127.45,-348 127.45,-348 127.45,-342 133.45,-336 139.45,-336"/>
<text text-anchor="middle" x="164.95" y="-350.3" font-family="Times,serif" font-size="14.00">1:1 &#45; 0:0</text>
</g>
<!-- n1&#45;&gt;x7 -->
<g id="edge37" class="edge">
<title>n1:e&#45;&gt;x7:w</title>
<path fill="none" stroke="black" d="M73.73,-217C135.3,-217 70.59,-338.42 117.37,-352.64"/>
<polygon fill="black" stroke="black" points="117.08,-356.14 127.45,-354 118.01,-349.2 117.08,-356.14"/>
</g>
<!-- x8 -->
<g id="node18" class="node">
<title>x8</title>
<path fill="none" stroke="black" d="M139.45,-281C139.45,-281 190.45,-281 190.45,-281 196.45,-281 202.45,-287 202.45,-293 202.45,-293 202.45,-305 202.45,-305 202.45,-311 196.45,-317 190.45,-317 190.45,-317 139.45,-317 139.45,-317 133.45,-317 127.45,-311 127.45,-305 127.45,-305 127.45,-293 127.45,-293 127.45,-287 133.45,-281 139.45,-281"/>
<text text-anchor="middle" x="164.95" y="-295.3" font-family="Times,serif" font-size="14.00">2:2 &#45; 0:0</text>
</g>
<!-- n1&#45;&gt;x8 -->
<g id="edge38" class="edge">
<title>n1:e&#45;&gt;x8:w</title>
<path fill="none" stroke="black" d="M73.73,-217C113.38,-217 89.27,-284.93 117.46,-297.13"/>
<polygon fill="black" stroke="black" points="116.98,-300.6 127.45,-299 118.27,-293.72 116.98,-300.6"/>
</g>
<!-- x11 -->
<g id="node22" class="node">
<title>x11</title>
<path fill="none" stroke="black" d="M139.45,-226C139.45,-226 190.45,-226 190.45,-226 196.45,-226 202.45,-232 202.45,-238 202.45,-238 202.45,-250 202.45,-250 202.45,-256 196.45,-262 190.45,-262 190.45,-262 139.45,-262 139.45,-262 133.45,-262 127.45,-256 127.45,-250 127.45,-250 127.45,-238 127.45,-238 127.45,-232 133.45,-226 139.45,-226"/>
<text text-anchor="middle" x="164.95" y="-240.3" font-family="Times,serif" font-size="14.00">2:2 &#45; 0:0</text>
</g>
<!-- n1&#45;&gt;x11 -->
<g id="edge31" class="edge">
<title>n1:e&#45;&gt;x11:w</title>
<path fill="none" stroke="black" d="M73.73,-217C96.48,-217 100.06,-236.58 117.13,-242.39"/>
<polygon fill="black" stroke="black" points="117.03,-245.92 127.45,-244 118.11,-239 117.03,-245.92"/>
</g>
<!-- x12 -->
<g id="node23" class="node">
<title>x12</title>
<path fill="none" stroke="black" d="M139.45,-171C139.45,-171 190.45,-171 190.45,-171 196.45,-171 202.45,-177 202.45,-183 202.45,-183 202.45,-195 202.45,-195 202.45,-201 196.45,-207 190.45,-207 190.45,-207 139.45,-207 139.45,-207 133.45,-207 127.45,-201 127.45,-195 127.45,-195 127.45,-183 127.45,-183 127.45,-177 133.45,-171 139.45,-171"/>
<text text-anchor="middle" x="164.95" y="-185.3" font-family="Times,serif" font-size="14.00">3:3 &#45; 0:0</text>
</g>
<!-- n1&#45;&gt;x12 -->
<g id="edge32" class="edge">
<title>n1:e&#45;&gt;x12:w</title>
<path fill="none" stroke="black" d="M73.73,-217C96.87,-217 100.03,-196.32 117.55,-190.51"/>
<polygon fill="black" stroke="black" points="118.09,-193.96 127.45,-189 117.04,-187.04 118.09,-193.96"/>
</g>
<!-- x15 -->
<g id="node28" class="node">
<title>x15</title>
<path fill="none" stroke="black" d="M139.45,-687C139.45,-687 190.45,-687 190.45,-687 196.45,-687 202.45,-693 202.45,-699 202.45,-699 202.45,-711 202.45,-711 202.45,-717 196.45,-723 190.45,-723 190.45,-723 139.45,-723 139.45,-723 133.45,-723 127.45,-717 127.45,-711 127.45,-711 127.45,-699 127.45,-699 127.45,-693 133.45,-687 139.45,-687"/>
<text text-anchor="middle" x="164.95" y="-701.3" font-family="Times,serif" font-size="14.00">3:3 &#45; 0:0</text>
</g>
<!-- n1&#45;&gt;x15 -->
<g id="edge33" class="edge">
<title>n1:e&#45;&gt;x15:w</title>
<path fill="none" stroke="black" d="M73.73,-217C124.97,-217 79.21,-647.7 118.71,-699.85"/>
<polygon fill="black" stroke="black" points="117.06,-702.94 127.45,-705 120.61,-696.91 117.06,-702.94"/>
</g>
<!-- x34 -->
<g id="node50" class="node">
<title>x34</title>
<ellipse fill="black" stroke="black" cx="164.95" cy="-41" rx="1.8" ry="1.8"/>
</g>
<!-- n1&#45;&gt;x34 -->
<g id="edge34" class="edge">
<title>n1:e&#45;&gt;x34:w</title>
<path fill="none" stroke="black" stroke-width="3" d="M73.73,-217C151.27,-217 71.78,-104.98 127.45,-51 136.14,-42.58 142.31,-41.18 151.73,-40.99"/>
<polygon fill="black" stroke="black" stroke-width="3" points="151.95,-44.49 161.95,-41 151.96,-37.49 151.95,-44.49"/>
</g>
<!-- n2 -->
<g id="node2" class="node">
<title>n2</title>
<polygon fill="none" stroke="black" points="91.68,-596.54 91.68,-611.46 64.76,-622 26.69,-622 -0.23,-611.46 -0.23,-596.54 26.69,-586 64.76,-586 91.68,-596.54"/>
<text text-anchor="middle" x="45.73" y="-600.3" font-family="Times,serif" font-size="14.00">shift_n</text>
</g>
<!-- x1 -->
<g id="node9" class="node">
<title>x1</title>
<path fill="none" stroke="black" d="M851.24,-381C851.24,-381 902.24,-381 902.24,-381 908.24,-381 914.24,-387 914.24,-393 914.24,-393 914.24,-405 914.24,-405 914.24,-411 908.24,-417 902.24,-417 902.24,-417 851.24,-417 851.24,-417 845.24,-417 839.24,-411 839.24,-405 839.24,-405 839.24,-393 839.24,-393 839.24,-387 845.24,-381 851.24,-381"/>
<text text-anchor="middle" x="876.74" y="-395.3" font-family="Times,serif" font-size="14.00">2:2 &#45; 0:0</text>
</g>
<!-- n2&#45;&gt;x1 -->
<g id="edge42" class="edge">
<title>n2:e&#45;&gt;x1:w</title>
<path fill="none" stroke="black" d="M91.45,-604C107.25,-604 641.22,-526.99 653.45,-517 689.08,-487.92 653.64,-448.84 689.45,-420 738.56,-380.45 767.97,-396.98 827.51,-398.84"/>
<polygon fill="black" stroke="black" points="827.69,-402.34 837.74,-399 827.8,-395.34 827.69,-402.34"/>
</g>
<!-- x2 -->
<g id="node11" class="node">
<title>x2</title>
<path fill="none" stroke="black" d="M139.45,-391C139.45,-391 190.45,-391 190.45,-391 196.45,-391 202.45,-397 202.45,-403 202.45,-403 202.45,-415 202.45,-415 202.45,-421 196.45,-427 190.45,-427 190.45,-427 139.45,-427 139.45,-427 133.45,-427 127.45,-421 127.45,-415 127.45,-415 127.45,-403 127.45,-403 127.45,-397 133.45,-391 139.45,-391"/>
<text text-anchor="middle" x="164.95" y="-405.3" font-family="Times,serif" font-size="14.00">0:0 &#45; 0:0</text>
</g>
<!-- n2&#45;&gt;x2 -->
<g id="edge45" class="edge">
<title>n2:e&#45;&gt;x2:w</title>
<path fill="none" stroke="black" d="M91.45,-604C175.8,-604 50.95,-425.4 117.32,-410.05"/>
<polygon fill="black" stroke="black" points="117.87,-413.51 127.45,-409 117.15,-406.55 117.87,-413.51"/>
</g>
<!-- x6 -->
<g id="node16" class="node">
<title>x6</title>
<path fill="none" stroke="black" d="M139.45,-501C139.45,-501 190.45,-501 190.45,-501 196.45,-501 202.45,-507 202.45,-513 202.45,-513 202.45,-525 202.45,-525 202.45,-531 196.45,-537 190.45,-537 190.45,-537 139.45,-537 139.45,-537 133.45,-537 127.45,-531 127.45,-525 127.45,-525 127.45,-513 127.45,-513 127.45,-507 133.45,-501 139.45,-501"/>
<text text-anchor="middle" x="164.95" y="-515.3" font-family="Times,serif" font-size="14.00">0:0 &#45; 0:0</text>
</g>
<!-- n2&#45;&gt;x6 -->
<g id="edge47" class="edge">
<title>n2:e&#45;&gt;x6:w</title>
<path fill="none" stroke="black" d="M91.45,-604C128.31,-604 94.88,-535.39 117.47,-521.45"/>
<polygon fill="black" stroke="black" points="118.58,-524.78 127.45,-519 116.91,-517.99 118.58,-524.78"/>
</g>
<!-- x10 -->
<g id="node21" class="node">
<title>x10</title>
<path fill="none" stroke="black" d="M139.45,-446C139.45,-446 190.45,-446 190.45,-446 196.45,-446 202.45,-452 202.45,-458 202.45,-458 202.45,-470 202.45,-470 202.45,-476 196.45,-482 190.45,-482 190.45,-482 139.45,-482 139.45,-482 133.45,-482 127.45,-476 127.45,-470 127.45,-470 127.45,-458 127.45,-458 127.45,-452 133.45,-446 139.45,-446"/>
<text text-anchor="middle" x="164.95" y="-460.3" font-family="Times,serif" font-size="14.00">0:0 &#45; 0:0</text>
</g>
<!-- n2&#45;&gt;x10 -->
<g id="edge39" class="edge">
<title>n2:e&#45;&gt;x10:w</title>
<path fill="none" stroke="black" d="M91.45,-604C151.81,-604 73.83,-480.44 117.44,-465.48"/>
<polygon fill="black" stroke="black" points="118.07,-468.92 127.45,-464 117.05,-462 118.07,-468.92"/>
</g>
<!-- x14 -->
<g id="node27" class="node">
<title>x14</title>
<path fill="none" stroke="black" d="M139.45,-742C139.45,-742 190.45,-742 190.45,-742 196.45,-742 202.45,-748 202.45,-754 202.45,-754 202.45,-766 202.45,-766 202.45,-772 196.45,-778 190.45,-778 190.45,-778 139.45,-778 139.45,-778 133.45,-778 127.45,-772 127.45,-766 127.45,-766 127.45,-754 127.45,-754 127.45,-748 133.45,-742 139.45,-742"/>
<text text-anchor="middle" x="164.95" y="-756.3" font-family="Times,serif" font-size="14.00">0:0 &#45; 0:0</text>
</g>
<!-- n2&#45;&gt;x14 -->
<g id="edge40" class="edge">
<title>n2:e&#45;&gt;x14:w</title>
<path fill="none" stroke="black" d="M91.45,-604C158.72,-604 67.4,-743.4 117.31,-758.65"/>
<polygon fill="black" stroke="black" points="117.08,-762.15 127.45,-760 118,-755.21 117.08,-762.15"/>
</g>
<!-- x18 -->
<g id="node31" class="node">
<title>x18</title>
<path fill="none" stroke="black" d="M851.24,-725C851.24,-725 902.24,-725 902.24,-725 908.24,-725 914.24,-731 914.24,-737 914.24,-737 914.24,-749 914.24,-749 914.24,-755 908.24,-761 902.24,-761 902.24,-761 851.24,-761 851.24,-761 845.24,-761 839.24,-755 839.24,-749 839.24,-749 839.24,-737 839.24,-737 839.24,-731 845.24,-725 851.24,-725"/>
<text text-anchor="middle" x="876.74" y="-739.3" font-family="Times,serif" font-size="14.00">1:1 &#45; 0:0</text>
</g>
<!-- n2&#45;&gt;x18 -->
<g id="edge41" class="edge">
<title>n2:e&#45;&gt;x18:w</title>
<path fill="none" stroke="black" d="M91.45,-604C174.78,-604 63.12,-735.04 127.45,-788 153.19,-809.19 169.14,-789.18 202.45,-788 481.88,-778.12 552.96,-743.85 827.47,-743.02"/>
<polygon fill="black" stroke="black" points="827.75,-746.52 837.74,-743 827.74,-739.52 827.75,-746.52"/>
</g>
<!-- x22 -->
<g id="node36" class="node">
<title>x22</title>
<path fill="none" stroke="black" d="M851.24,-590C851.24,-590 902.24,-590 902.24,-590 908.24,-590 914.24,-596 914.24,-602 914.24,-602 914.24,-614 914.24,-614 914.24,-620 908.24,-626 902.24,-626 902.24,-626 851.24,-626 851.24,-626 845.24,-626 839.24,-620 839.24,-614 839.24,-614 839.24,-602 839.24,-602 839.24,-596 845.24,-590 851.24,-590"/>
<text text-anchor="middle" x="876.74" y="-604.3" font-family="Times,serif" font-size="14.00">1:1 &#45; 0:0</text>
</g>
<!-- n2&#45;&gt;x22 -->
<g id="edge43" class="edge">
<title>n2:e&#45;&gt;x22:w</title>
<path fill="none" stroke="black" d="M91.45,-604C419.74,-604 504.33,-607.92 827.62,-608"/>
<polygon fill="black" stroke="black" points="827.74,-611.5 837.74,-608 827.74,-604.5 827.74,-611.5"/>
</g>
<!-- x26 -->
<g id="node42" class="node">
<title>x26</title>
<path fill="none" stroke="black" d="M701.45,-924C701.45,-924 752.45,-924 752.45,-924 758.45,-924 764.45,-930 764.45,-936 764.45,-936 764.45,-948 764.45,-948 764.45,-954 758.45,-960 752.45,-960 752.45,-960 701.45,-960 701.45,-960 695.45,-960 689.45,-954 689.45,-948 689.45,-948 689.45,-936 689.45,-936 689.45,-930 695.45,-924 701.45,-924"/>
<text text-anchor="middle" x="726.95" y="-938.3" font-family="Times,serif" font-size="14.00">1:1 &#45; 0:0</text>
</g>
<!-- n2&#45;&gt;x26 -->
<g id="edge44" class="edge">
<title>n2:e&#45;&gt;x26:w</title>
<path fill="none" stroke="black" d="M91.45,-604C148.68,-604 87.12,-818.4 127.45,-859 302.99,-1035.66 433.36,-944.58 679.17,-942.05"/>
<polygon fill="black" stroke="black" points="679.47,-945.55 689.45,-942 679.44,-938.55 679.47,-945.55"/>
</g>
<!-- x30 -->
<g id="node47" class="node">
<title>x30</title>
<path fill="none" stroke="black" d="M851.24,-827C851.24,-827 902.24,-827 902.24,-827 908.24,-827 914.24,-833 914.24,-839 914.24,-839 914.24,-851 914.24,-851 914.24,-857 908.24,-863 902.24,-863 902.24,-863 851.24,-863 851.24,-863 845.24,-863 839.24,-857 839.24,-851 839.24,-851 839.24,-839 839.24,-839 839.24,-833 845.24,-827 851.24,-827"/>
<text text-anchor="middle" x="876.74" y="-841.3" font-family="Times,serif" font-size="14.00">1:1 &#45; 0:0</text>
</g>
<!-- n2&#45;&gt;x30 -->
<g id="edge46" class="edge">
<title>n2:e&#45;&gt;x30:w</title>
<path fill="none" stroke="black" d="M91.45,-604C182.65,-604 59.17,-745.55 127.45,-806 243.39,-908.64 662,-847.63 827.68,-845.08"/>
<polygon fill="black" stroke="black" points="827.77,-848.58 837.74,-845 827.72,-841.58 827.77,-848.58"/>
</g>
<!-- n3 -->
<g id="node3" class="node">
<title>n3</title>
<polygon fill="none" stroke="black" points="2088.41,-512.54 2088.41,-527.46 2061.25,-538 2022.84,-538 1995.68,-527.46 1995.68,-512.54 2022.84,-502 2061.25,-502 2088.41,-512.54"/>
<text text-anchor="middle" x="2042.04" y="-516.3" font-family="Times,serif" font-size="14.00">shifted</text>
</g>
<!-- n4 -->
<g id="node4" class="node">
<title>n4</title>
<polygon fill="none" stroke="black" points="445.95,-59 369.87,-41 445.95,-23 522.03,-41 445.95,-59"/>
<text text-anchor="middle" x="445.95" y="-37.3" font-family="Times,serif" font-size="14.00">stages[0]</text>
</g>
<!-- n5 -->
<g id="node5" class="node">
<title>n5</title>
<polygon fill="none" stroke="black" points="876.74,-571 800.66,-553 876.74,-535 952.82,-553 876.74,-571"/>
<text text-anchor="middle" x="876.74" y="-549.3" font-family="Times,serif" font-size="14.00">stages[1]</text>
</g>
<!-- x19 -->
<g id="node32" class="node">
<title>x19</title>
<path fill="none" stroke="black" d="M1001.03,-632C1001.03,-632 1052.03,-632 1052.03,-632 1058.03,-632 1064.03,-638 1064.03,-644 1064.03,-644 1064.03,-656 1064.03,-656 1064.03,-662 1058.03,-668 1052.03,-668 1052.03,-668 1001.03,-668 1001.03,-668 995.03,-668 989.03,-662 989.03,-656 989.03,-656 989.03,-644 989.03,-644 989.03,-638 995.03,-632 1001.03,-632"/>
<text text-anchor="middle" x="1026.53" y="-646.3" font-family="Times,serif" font-size="14.00">0:0 &#45; 0:0</text>
</g>
<!-- n5&#45;&gt;x19 -->
<g id="edge54" class="edge">
<title>n5:e&#45;&gt;x19:w</title>
<path fill="none" stroke="black" d="M953.03,-553C994.89,-553 952.28,-633.35 978.96,-647.79"/>
<polygon fill="black" stroke="black" points="978.52,-651.28 989.03,-650 980.02,-644.44 978.52,-651.28"/>
</g>
<!-- x20 -->
<g id="node33" class="node">
<title>x20</title>
<path fill="none" stroke="black" d="M1001.03,-577C1001.03,-577 1052.03,-577 1052.03,-577 1058.03,-577 1064.03,-583 1064.03,-589 1064.03,-589 1064.03,-601 1064.03,-601 1064.03,-607 1058.03,-613 1052.03,-613 1052.03,-613 1001.03,-613 1001.03,-613 995.03,-613 989.03,-607 989.03,-601 989.03,-601 989.03,-589 989.03,-589 989.03,-583 995.03,-577 1001.03,-577"/>
<text text-anchor="middle" x="1026.53" y="-591.3" font-family="Times,serif" font-size="14.00">2:2 &#45; 0:0</text>
</g>
<!-- n5&#45;&gt;x20 -->
<g id="edge55" class="edge">
<title>n5:e&#45;&gt;x20:w</title>
<path fill="none" stroke="black" d="M953.03,-553C973.39,-553 967.86,-581.8 979.32,-591.7"/>
<polygon fill="black" stroke="black" points="978.44,-595.1 989.03,-595 980.69,-588.47 978.44,-595.1"/>
</g>
<!-- x23 -->
<g id="node37" class="node">
<title>x23</title>
<path fill="none" stroke="black" d="M1001.03,-483C1001.03,-483 1052.03,-483 1052.03,-483 1058.03,-483 1064.03,-489 1064.03,-495 1064.03,-495 1064.03,-507 1064.03,-507 1064.03,-513 1058.03,-519 1052.03,-519 1052.03,-519 1001.03,-519 1001.03,-519 995.03,-519 989.03,-513 989.03,-507 989.03,-507 989.03,-495 989.03,-495 989.03,-489 995.03,-483 1001.03,-483"/>
<text text-anchor="middle" x="1026.53" y="-497.3" font-family="Times,serif" font-size="14.00">1:1 &#45; 0:0</text>
</g>
<!-- n5&#45;&gt;x23 -->
<g id="edge56" class="edge">
<title>n5:e&#45;&gt;x23:w</title>
<path fill="none" stroke="black" d="M953.03,-553C976.97,-553 965.86,-515.29 979.4,-504.1"/>
<polygon fill="black" stroke="black" points="980.58,-507.39 989.03,-501 978.44,-500.73 980.58,-507.39"/>
</g>
<!-- x24 -->
<g id="node38" class="node">
<title>x24</title>
<path fill="none" stroke="black" d="M1001.03,-428C1001.03,-428 1052.03,-428 1052.03,-428 1058.03,-428 1064.03,-434 1064.03,-440 1064.03,-440 1064.03,-452 1064.03,-452 1064.03,-458 1058.03,-464 1052.03,-464 1052.03,-464 1001.03,-464 1001.03,-464 995.03,-464 989.03,-458 989.03,-452 989.03,-452 989.03,-440 989.03,-440 989.03,-434 995.03,-428 1001.03,-428"/>
<text text-anchor="middle" x="1026.53" y="-442.3" font-family="Times,serif" font-size="14.00">3:3 &#45; 0:0</text>
</g>
<!-- n5&#45;&gt;x24 -->
<g id="edge57" class="edge">
<title>n5:e&#45;&gt;x24:w</title>
<path fill="none" stroke="black" d="M953.03,-553C999.09,-553 948.65,-462.83 978.87,-448.04"/>
<polygon fill="black" stroke="black" points="979.92,-451.4 989.03,-446 978.54,-444.54 979.92,-451.4"/>
</g>
<!-- x27 -->
<g id="node43" class="node">
<title>x27</title>
<path fill="none" stroke="black" d="M1001.03,-928C1001.03,-928 1052.03,-928 1052.03,-928 1058.03,-928 1064.03,-934 1064.03,-940 1064.03,-940 1064.03,-952 1064.03,-952 1064.03,-958 1058.03,-964 1052.03,-964 1052.03,-964 1001.03,-964 1001.03,-964 995.03,-964 989.03,-958 989.03,-952 989.03,-952 989.03,-940 989.03,-940 989.03,-934 995.03,-928 1001.03,-928"/>
<text text-anchor="middle" x="1026.53" y="-942.3" font-family="Times,serif" font-size="14.00">2:2 &#45; 0:0</text>
</g>
<!-- n5&#45;&gt;x27 -->
<g id="edge58" class="edge">
<title>n5:e&#45;&gt;x27:w</title>
<path fill="none" stroke="black" d="M953.03,-553C1036.96,-553 912.9,-912.95 978.95,-943.89"/>
<polygon fill="black" stroke="black" points="978.53,-947.37 989.03,-946 979.97,-940.52 978.53,-947.37"/>
</g>
<!-- x31 -->
<g id="node48" class="node">
<title>x31</title>
<path fill="none" stroke="black" d="M1001.03,-780C1001.03,-780 1052.03,-780 1052.03,-780 1058.03,-780 1064.03,-786 1064.03,-792 1064.03,-792 1064.03,-804 1064.03,-804 1064.03,-810 1058.03,-816 1052.03,-816 1052.03,-816 1001.03,-816 1001.03,-816 995.03,-816 989.03,-810 989.03,-804 989.03,-804 989.03,-792 989.03,-792 989.03,-786 995.03,-780 1001.03,-780"/>
<text text-anchor="middle" x="1026.53" y="-794.3" font-family="Times,serif" font-size="14.00">3:3 &#45; 0:0</text>
</g>
<!-- n5&#45;&gt;x31 -->
<g id="edge59" class="edge">
<title>n5:e&#45;&gt;x31:w</title>
<path fill="none" stroke="black" d="M953.03,-553C1004.19,-553 943.78,-764.76 979.25,-794.54"/>
<polygon fill="black" stroke="black" points="978.44,-797.96 989.03,-798 980.78,-791.36 978.44,-797.96"/>
</g>
<!-- n6 -->
<g id="node6" class="node">
<title>n6</title>
<polygon fill="none" stroke="black" points="1738.32,-668 1662.24,-650 1738.32,-632 1814.4,-650 1738.32,-668"/>
<text text-anchor="middle" x="1738.32" y="-646.3" font-family="Times,serif" font-size="14.00">stages[2]</text>
</g>
<!-- c11 -->
<g id="node8" class="node">
<title>c11</title>
<polygon fill="none" stroke="black" points="1850.61,-485.5 1850.61,-554.5 1959.61,-554.5 1959.61,-485.5 1850.61,-485.5"/>
<text text-anchor="middle" x="1864.11" y="-539.3" font-family="Times,serif" font-size="14.00">A</text>
<polyline fill="none" stroke="black" points="1850.61,-531.5 1877.61,-531.5 "/>
<text text-anchor="middle" x="1864.11" y="-516.3" font-family="Times,serif" font-size="14.00">B</text>
<polyline fill="none" stroke="black" points="1850.61,-508.5 1877.61,-508.5 "/>
<text text-anchor="middle" x="1864.11" y="-493.3" font-family="Times,serif" font-size="14.00">S</text>
<polyline fill="none" stroke="black" points="1877.61,-485.5 1877.61,-554.5 "/>
<text text-anchor="middle" x="1905.61" y="-523.8" font-family="Times,serif" font-size="14.00">$107</text>
<text text-anchor="middle" x="1905.61" y="-508.8" font-family="Times,serif" font-size="14.00">$mux</text>
<polyline fill="none" stroke="black" points="1933.61,-485.5 1933.61,-554.5 "/>
<text text-anchor="middle" x="1946.61" y="-516.3" font-family="Times,serif" font-size="14.00">Y</text>
</g>
<!-- n6&#45;&gt;c11 -->
<g id="edge64" class="edge">
<title>n6:e&#45;&gt;c11:w</title>
<path fill="none" stroke="black" stroke-width="3" d="M1814.61,-650C1860.67,-650 1810.23,-559.83 1840.45,-545.04"/>
<polygon fill="black" stroke="black" stroke-width="3" points="1841.5,-548.4 1850.61,-543 1840.12,-541.54 1841.5,-548.4"/>
</g>
<!-- v0 -->
<g id="node7" class="node">
<title>v0</title>
<ellipse fill="none" stroke="black" cx="1738.32" cy="-520" rx="42.49" ry="18"/>
<text text-anchor="middle" x="1738.32" y="-516.3" font-family="Times,serif" font-size="14.00">4&#39;0000</text>
</g>
<!-- v0&#45;&gt;c11 -->
<g id="edge65" class="edge">
<title>v0:e&#45;&gt;c11:w</title>
<path fill="none" stroke="black" stroke-width="3" d="M1782.32,-520C1809,-520 1818.09,-520 1840.51,-520"/>
<polygon fill="black" stroke="black" stroke-width="3" points="1840.61,-523.5 1850.61,-520 1840.61,-516.5 1840.61,-523.5"/>
</g>
<!-- c11&#45;&gt;n3 -->
<g id="edge48" class="edge">
<title>c11:e&#45;&gt;n3:w</title>
<path fill="none" stroke="black" stroke-width="3" d="M1959.61,-520C1971.61,-520 1976.86,-520 1985.49,-520"/>
<polygon fill="black" stroke="black" stroke-width="3" points="1985.61,-523.5 1995.61,-520 1985.61,-516.5 1985.61,-523.5"/>
</g>
<!-- x1&#45;&gt;c11 -->
<g id="edge1" class="edge">
<title>x1:e&#45;&gt;c11:w</title>
<path fill="none" stroke="black" d="M927.74,-399C1091.54,-399 1136.92,-399 1306.53,-399 1306.53,-399 1306.53,-399 1589.53,-399 1647.75,-399 1772.31,-485.49 1838.56,-495.97"/>
<polygon fill="none" stroke="black" points="927.74,-399 921.74,-403 915.74,-399 921.74,-395 927.74,-399"/>
<polygon fill="none" stroke="black" points="1838.66,-495.97 1844.98,-492.5 1850.61,-497 1844.29,-500.47 1838.66,-495.97"/>
</g>
<!-- c15 -->
<g id="node10" class="node">
<title>c15</title>
<polygon fill="none" stroke="black" points="238.45,-123.5 238.45,-192.5 653.45,-192.5 653.45,-123.5 238.45,-123.5"/>
<text text-anchor="middle" x="261.45" y="-177.3" font-family="Times,serif" font-size="14.00">SEL</text>
<polyline fill="none" stroke="black" points="238.45,-169.5 284.45,-169.5 "/>
<text text-anchor="middle" x="261.45" y="-154.3" font-family="Times,serif" font-size="14.00">W0</text>
<polyline fill="none" stroke="black" points="238.45,-146.5 284.45,-146.5 "/>
<text text-anchor="middle" x="261.45" y="-131.3" font-family="Times,serif" font-size="14.00">W1</text>
<polyline fill="none" stroke="black" points="284.45,-123.5 284.45,-192.5 "/>
<text text-anchor="middle" x="455.95" y="-161.8" font-family="Times,serif" font-size="14.00">genblk1[0].genblk1[0].genblk1.mux_stage_bit</text>
<text text-anchor="middle" x="455.95" y="-146.8" font-family="Times,serif" font-size="14.00">mux_2to1</text>
<polyline fill="none" stroke="black" points="627.45,-123.5 627.45,-192.5 "/>
<text text-anchor="middle" x="640.45" y="-154.3" font-family="Times,serif" font-size="14.00">Y</text>
</g>
<!-- x5 -->
<g id="node14" class="node">
<title>x5</title>
<path fill="none" stroke="black" d="M701.45,-429C701.45,-429 752.45,-429 752.45,-429 758.45,-429 764.45,-435 764.45,-441 764.45,-441 764.45,-453 764.45,-453 764.45,-459 758.45,-465 752.45,-465 752.45,-465 701.45,-465 701.45,-465 695.45,-465 689.45,-459 689.45,-453 689.45,-453 689.45,-441 689.45,-441 689.45,-435 695.45,-429 701.45,-429"/>
<text text-anchor="middle" x="726.95" y="-443.3" font-family="Times,serif" font-size="14.00">0:0 &#45; 0:0</text>
</g>
<!-- c15&#45;&gt;x5 -->
<g id="edge5" class="edge">
<title>c15:e&#45;&gt;x5:w</title>
<path fill="none" stroke="black" d="M664.87,-162.09C702.62,-194.47 640.53,-409.28 677.73,-442.65"/>
<polygon fill="none" stroke="black" points="664.75,-162.04 657.76,-163.79 653.45,-158 660.45,-156.26 664.75,-162.04"/>
<polygon fill="none" stroke="black" points="678.2,-442.82 685.22,-441.16 689.45,-447 682.44,-448.66 678.2,-442.82"/>
</g>
<!-- x2&#45;&gt;c15 -->
<g id="edge2" class="edge">
<title>x2:e&#45;&gt;c15:w</title>
<path fill="none" stroke="black" d="M214.68,-407.66C286.84,-389.85 154.03,-200.08 226.26,-182.33"/>
<polygon fill="none" stroke="black" points="214.38,-407.69 208.85,-412.32 202.45,-409 207.98,-404.37 214.38,-407.69"/>
<polygon fill="none" stroke="black" points="226.52,-182.3 232.06,-177.67 238.45,-181 232.92,-185.63 226.52,-182.3"/>
</g>
<!-- x3&#45;&gt;c15 -->
<g id="edge3" class="edge">
<title>x3:e&#45;&gt;c15:w</title>
<path fill="none" stroke="black" d="M214,-138.18C219.07,-142.59 221.88,-149.48 226.96,-153.87"/>
<polygon fill="none" stroke="black" points="213.74,-138.09 206.73,-139.8 202.45,-134 209.46,-132.28 213.74,-138.09"/>
<polygon fill="none" stroke="black" points="227.16,-153.94 234.16,-152.21 238.45,-158 231.45,-159.73 227.16,-153.94"/>
</g>
<!-- x4&#45;&gt;c15 -->
<g id="edge4" class="edge">
<title>x4:e&#45;&gt;c15:w</title>
<path fill="none" stroke="black" d="M213.91,-83.77C222.99,-94.46 217.91,-120.18 227.29,-130.55"/>
<polygon fill="none" stroke="black" points="213.53,-83.62 206.45,-85 202.45,-79 209.53,-77.62 213.53,-83.62"/>
<polygon fill="none" stroke="black" points="227.31,-130.56 234.36,-129.06 238.45,-135 231.4,-136.49 227.31,-130.56"/>
</g>
<!-- x5&#45;&gt;n5 -->
<g id="edge52" class="edge">
<title>x5:e&#45;&gt;n5:w</title>
<path fill="none" stroke="black" d="M764.45,-447C810.13,-447 760.36,-536.32 790.37,-550.98"/>
<polygon fill="black" stroke="black" points="789.96,-554.46 800.45,-553 791.34,-547.6 789.96,-554.46"/>
</g>
<!-- c16 -->
<g id="node15" class="node">
<title>c16</title>
<polygon fill="none" stroke="black" points="238.45,-438.5 238.45,-507.5 653.45,-507.5 653.45,-438.5 238.45,-438.5"/>
<text text-anchor="middle" x="261.45" y="-492.3" font-family="Times,serif" font-size="14.00">SEL</text>
<polyline fill="none" stroke="black" points="238.45,-484.5 284.45,-484.5 "/>
<text text-anchor="middle" x="261.45" y="-469.3" font-family="Times,serif" font-size="14.00">W0</text>
<polyline fill="none" stroke="black" points="238.45,-461.5 284.45,-461.5 "/>
<text text-anchor="middle" x="261.45" y="-446.3" font-family="Times,serif" font-size="14.00">W1</text>
<polyline fill="none" stroke="black" points="284.45,-438.5 284.45,-507.5 "/>
<text text-anchor="middle" x="455.95" y="-476.8" font-family="Times,serif" font-size="14.00">genblk1[0].genblk1[1].genblk1.mux_stage_bit</text>
<text text-anchor="middle" x="455.95" y="-461.8" font-family="Times,serif" font-size="14.00">mux_2to1</text>
<polyline fill="none" stroke="black" points="627.45,-438.5 627.45,-507.5 "/>
<text text-anchor="middle" x="640.45" y="-469.3" font-family="Times,serif" font-size="14.00">Y</text>
</g>
<!-- x9 -->
<g id="node19" class="node">
<title>x9</title>
<path fill="none" stroke="black" d="M701.45,-539C701.45,-539 752.45,-539 752.45,-539 758.45,-539 764.45,-545 764.45,-551 764.45,-551 764.45,-563 764.45,-563 764.45,-569 758.45,-575 752.45,-575 752.45,-575 701.45,-575 701.45,-575 695.45,-575 689.45,-569 689.45,-563 689.45,-563 689.45,-551 689.45,-551 689.45,-545 695.45,-539 701.45,-539"/>
<text text-anchor="middle" x="726.95" y="-553.3" font-family="Times,serif" font-size="14.00">0:0 &#45; 1:1</text>
</g>
<!-- c16&#45;&gt;x9 -->
<g id="edge9" class="edge">
<title>c16:e&#45;&gt;x9:w</title>
<path fill="none" stroke="black" d="M665,-476.61C681.27,-490.3 661.79,-538.97 677.6,-553.12"/>
<polygon fill="none" stroke="black" points="664.91,-476.58 657.99,-478.61 653.45,-473 660.37,-470.97 664.91,-476.58"/>
<polygon fill="none" stroke="black" points="678.05,-553.27 685,-551.33 689.45,-557 682.51,-558.93 678.05,-553.27"/>
</g>
<!-- x6&#45;&gt;c16 -->
<g id="edge6" class="edge">
<title>x6:e&#45;&gt;c16:w</title>
<path fill="none" stroke="black" d="M213.93,-514.99C219.02,-510.77 221.93,-504.16 227.03,-499.96"/>
<polygon fill="none" stroke="black" points="213.78,-515.05 209.44,-520.8 202.45,-519 206.8,-513.25 213.78,-515.05"/>
<polygon fill="none" stroke="black" points="227.12,-499.93 231.47,-494.19 238.45,-496 234.1,-501.74 227.12,-499.93"/>
</g>
<!-- x7&#45;&gt;c16 -->
<g id="edge7" class="edge">
<title>x7:e&#45;&gt;c16:w</title>
<path fill="none" stroke="black" d="M214.39,-356.71C242.34,-372.69 198.49,-454.52 226.61,-470.35"/>
<polygon fill="none" stroke="black" points="214.16,-356.66 207.42,-359.23 202.45,-354 209.19,-351.43 214.16,-356.66"/>
<polygon fill="none" stroke="black" points="226.74,-470.38 233.47,-467.78 238.45,-473 231.72,-475.59 226.74,-470.38"/>
</g>
<!-- x8&#45;&gt;c16 -->
<g id="edge8" class="edge">
<title>x8:e&#45;&gt;c16:w</title>
<path fill="none" stroke="black" d="M214.32,-301.02C255.04,-317.61 185.96,-431.17 226.48,-447.93"/>
<polygon fill="none" stroke="black" points="214.28,-301.02 207.7,-303.95 202.45,-299 209.04,-296.06 214.28,-301.02"/>
<polygon fill="none" stroke="black" points="226.63,-447.96 233.22,-445.04 238.45,-450 231.86,-452.92 226.63,-447.96"/>
</g>
<!-- x9&#45;&gt;n5 -->
<g id="edge53" class="edge">
<title>x9:e&#45;&gt;n5:w</title>
<path fill="none" stroke="black" d="M764.45,-557C776.53,-557 781.69,-554.75 790.3,-553.62"/>
<polygon fill="black" stroke="black" points="790.69,-557.11 800.45,-553 790.26,-550.12 790.69,-557.11"/>
</g>
<!-- c17 -->
<g id="node20" class="node">
<title>c17</title>
<polygon fill="none" stroke="black" points="238.45,-304.5 238.45,-373.5 653.45,-373.5 653.45,-304.5 238.45,-304.5"/>
<text text-anchor="middle" x="261.45" y="-358.3" font-family="Times,serif" font-size="14.00">SEL</text>
<polyline fill="none" stroke="black" points="238.45,-350.5 284.45,-350.5 "/>
<text text-anchor="middle" x="261.45" y="-335.3" font-family="Times,serif" font-size="14.00">W0</text>
<polyline fill="none" stroke="black" points="238.45,-327.5 284.45,-327.5 "/>
<text text-anchor="middle" x="261.45" y="-312.3" font-family="Times,serif" font-size="14.00">W1</text>
<polyline fill="none" stroke="black" points="284.45,-304.5 284.45,-373.5 "/>
<text text-anchor="middle" x="455.95" y="-342.8" font-family="Times,serif" font-size="14.00">genblk1[0].genblk1[2].genblk1.mux_stage_bit</text>
<text text-anchor="middle" x="455.95" y="-327.8" font-family="Times,serif" font-size="14.00">mux_2to1</text>
<polyline fill="none" stroke="black" points="627.45,-304.5 627.45,-373.5 "/>
<text text-anchor="middle" x="640.45" y="-335.3" font-family="Times,serif" font-size="14.00">Y</text>
</g>
<!-- x13 -->
<g id="node24" class="node">
<title>x13</title>
<path fill="none" stroke="black" d="M701.45,-484C701.45,-484 752.45,-484 752.45,-484 758.45,-484 764.45,-490 764.45,-496 764.45,-496 764.45,-508 764.45,-508 764.45,-514 758.45,-520 752.45,-520 752.45,-520 701.45,-520 701.45,-520 695.45,-520 689.45,-514 689.45,-508 689.45,-508 689.45,-496 689.45,-496 689.45,-490 695.45,-484 701.45,-484"/>
<text text-anchor="middle" x="726.95" y="-498.3" font-family="Times,serif" font-size="14.00">0:0 &#45; 2:2</text>
</g>
<!-- c17&#45;&gt;x13 -->
<g id="edge13" class="edge">
<title>c17:e&#45;&gt;x13:w</title>
<path fill="none" stroke="black" d="M665.57,-340.94C710.63,-358.08 632.22,-483.08 677.41,-500.09"/>
<polygon fill="none" stroke="black" points="665.3,-340.9 658.74,-343.9 653.45,-339 660.01,-336 665.3,-340.9"/>
<polygon fill="none" stroke="black" points="677.6,-500.12 684.16,-497.11 689.45,-502 682.9,-505.01 677.6,-500.12"/>
</g>
<!-- x10&#45;&gt;c17 -->
<g id="edge10" class="edge">
<title>x10:e&#45;&gt;c17:w</title>
<path fill="none" stroke="black" d="M214.31,-460.84C236.15,-445.64 204.73,-380.25 226.65,-365.13"/>
<polygon fill="none" stroke="black" points="214.05,-460.9 209.28,-466.32 202.45,-464 207.22,-458.59 214.05,-460.9"/>
<polygon fill="none" stroke="black" points="226.85,-365.07 231.63,-359.67 238.45,-362 233.68,-367.4 226.85,-365.07"/>
</g>
<!-- x11&#45;&gt;c17 -->
<g id="edge11" class="edge">
<title>x11:e&#45;&gt;c17:w</title>
<path fill="none" stroke="black" d="M214.26,-247.38C233.79,-262.19 207.01,-321.23 226.83,-335.76"/>
<polygon fill="none" stroke="black" points="213.99,-247.3 207.12,-249.5 202.45,-244 209.32,-241.81 213.99,-247.3"/>
<polygon fill="none" stroke="black" points="226.9,-335.77 233.75,-333.53 238.45,-339 231.6,-341.24 226.9,-335.77"/>
</g>
<!-- x12&#45;&gt;c17 -->
<g id="edge12" class="edge">
<title>x12:e&#45;&gt;c17:w</title>
<path fill="none" stroke="black" d="M214.22,-191.42C245.62,-207.4 195.32,-297.49 226.64,-313.55"/>
<polygon fill="none" stroke="black" points="214.21,-191.42 207.52,-194.13 202.45,-189 209.14,-186.29 214.21,-191.42"/>
<polygon fill="none" stroke="black" points="226.7,-313.56 233.39,-310.87 238.45,-316 231.77,-318.7 226.7,-313.56"/>
</g>
<!-- x13&#45;&gt;n5 -->
<g id="edge50" class="edge">
<title>x13:e&#45;&gt;n5:w</title>
<path fill="none" stroke="black" d="M764.45,-502C788.08,-502 777.45,-538.98 790.91,-549.96"/>
<polygon fill="black" stroke="black" points="789.86,-553.3 800.45,-553 791.99,-546.63 789.86,-553.3"/>
</g>
<!-- v16 -->
<g id="node25" class="node">
<title>v16</title>
<ellipse fill="none" stroke="black" cx="164.95" cy="-650" rx="27" ry="18"/>
<text text-anchor="middle" x="164.95" y="-646.3" font-family="Times,serif" font-size="14.00">1&#39;0</text>
</g>
<!-- c18 -->
<g id="node26" class="node">
<title>c18</title>
<polygon fill="none" stroke="black" points="238.45,-657.5 238.45,-726.5 653.45,-726.5 653.45,-657.5 238.45,-657.5"/>
<text text-anchor="middle" x="261.45" y="-711.3" font-family="Times,serif" font-size="14.00">SEL</text>
<polyline fill="none" stroke="black" points="238.45,-703.5 284.45,-703.5 "/>
<text text-anchor="middle" x="261.45" y="-688.3" font-family="Times,serif" font-size="14.00">W0</text>
<polyline fill="none" stroke="black" points="238.45,-680.5 284.45,-680.5 "/>
<text text-anchor="middle" x="261.45" y="-665.3" font-family="Times,serif" font-size="14.00">W1</text>
<polyline fill="none" stroke="black" points="284.45,-657.5 284.45,-726.5 "/>
<text text-anchor="middle" x="455.95" y="-695.8" font-family="Times,serif" font-size="14.00">genblk1[0].genblk1[3].genblk1.mux_stage_bit</text>
<text text-anchor="middle" x="455.95" y="-680.8" font-family="Times,serif" font-size="14.00">mux_2to1</text>
<polyline fill="none" stroke="black" points="627.45,-657.5 627.45,-726.5 "/>
<text text-anchor="middle" x="640.45" y="-688.3" font-family="Times,serif" font-size="14.00">Y</text>
</g>
<!-- v16&#45;&gt;c18 -->
<g id="edge66" class="edge">
<title>v16:e&#45;&gt;c18:w</title>
<path fill="none" stroke="black" d="M192.95,-650C210.93,-650 215.29,-662.79 228.37,-667.38"/>
<polygon fill="black" stroke="black" points="228.03,-670.87 238.45,-669 229.14,-663.96 228.03,-670.87"/>
</g>
<!-- x17 -->
<g id="node29" class="node">
<title>x17</title>
<path fill="none" stroke="black" d="M701.45,-647C701.45,-647 752.45,-647 752.45,-647 758.45,-647 764.45,-653 764.45,-659 764.45,-659 764.45,-671 764.45,-671 764.45,-677 758.45,-683 752.45,-683 752.45,-683 701.45,-683 701.45,-683 695.45,-683 689.45,-677 689.45,-671 689.45,-671 689.45,-659 689.45,-659 689.45,-653 695.45,-647 701.45,-647"/>
<text text-anchor="middle" x="726.95" y="-661.3" font-family="Times,serif" font-size="14.00">0:0 &#45; 3:3</text>
</g>
<!-- c18&#45;&gt;x17 -->
<g id="edge16" class="edge">
<title>c18:e&#45;&gt;x17:w</title>
<path fill="none" stroke="black" d="M664.7,-687.78C670.12,-682.8 672.63,-674.54 677.95,-669.46"/>
<polygon fill="none" stroke="black" points="664.69,-687.79 660.48,-693.64 653.45,-692 657.67,-686.15 664.69,-687.79"/>
<polygon fill="none" stroke="black" points="678.26,-669.34 682.41,-663.44 689.45,-665 685.3,-670.9 678.26,-669.34"/>
</g>
<!-- x14&#45;&gt;c18 -->
<g id="edge14" class="edge">
<title>x14:e&#45;&gt;c18:w</title>
<path fill="none" stroke="black" d="M213.69,-755.18C221.1,-746.48 219.84,-728.23 227.36,-719.65"/>
<polygon fill="none" stroke="black" points="213.48,-755.27 209.54,-761.31 202.45,-760 206.39,-753.96 213.48,-755.27"/>
<polygon fill="none" stroke="black" points="227.39,-719.64 231.37,-713.63 238.45,-715 234.47,-721.01 227.39,-719.64"/>
</g>
<!-- x15&#45;&gt;c18 -->
<g id="edge15" class="edge">
<title>x15:e&#45;&gt;c18:w</title>
<path fill="none" stroke="black" d="M214.16,-702.37C218.62,-700.17 222,-697.05 226.39,-694.81"/>
<polygon fill="none" stroke="black" points="214.16,-702.37 209.18,-707.59 202.45,-705 207.43,-699.78 214.16,-702.37"/>
<polygon fill="none" stroke="black" points="226.77,-694.72 231.7,-689.46 238.45,-692 233.52,-697.26 226.77,-694.72"/>
</g>
<!-- x17&#45;&gt;n5 -->
<g id="edge51" class="edge">
<title>x17:e&#45;&gt;n5:w</title>
<path fill="none" stroke="black" d="M764.45,-665C812.66,-665 758.14,-569.82 790.3,-554.94"/>
<polygon fill="black" stroke="black" points="791.29,-558.32 800.45,-553 789.97,-551.44 791.29,-558.32"/>
</g>
<!-- c19 -->
<g id="node30" class="node">
<title>c19</title>
<polygon fill="none" stroke="black" points="1100.03,-615.5 1100.03,-684.5 1515.03,-684.5 1515.03,-615.5 1100.03,-615.5"/>
<text text-anchor="middle" x="1123.03" y="-669.3" font-family="Times,serif" font-size="14.00">SEL</text>
<polyline fill="none" stroke="black" points="1100.03,-661.5 1146.03,-661.5 "/>
<text text-anchor="middle" x="1123.03" y="-646.3" font-family="Times,serif" font-size="14.00">W0</text>
<polyline fill="none" stroke="black" points="1100.03,-638.5 1146.03,-638.5 "/>
<text text-anchor="middle" x="1123.03" y="-623.3" font-family="Times,serif" font-size="14.00">W1</text>
<polyline fill="none" stroke="black" points="1146.03,-615.5 1146.03,-684.5 "/>
<text text-anchor="middle" x="1317.53" y="-653.8" font-family="Times,serif" font-size="14.00">genblk1[1].genblk1[0].genblk1.mux_stage_bit</text>
<text text-anchor="middle" x="1317.53" y="-638.8" font-family="Times,serif" font-size="14.00">mux_2to1</text>
<polyline fill="none" stroke="black" points="1489.03,-615.5 1489.03,-684.5 "/>
<text text-anchor="middle" x="1502.03" y="-646.3" font-family="Times,serif" font-size="14.00">Y</text>
</g>
<!-- x21 -->
<g id="node34" class="node">
<title>x21</title>
<path fill="none" stroke="black" d="M1563.03,-632C1563.03,-632 1614.03,-632 1614.03,-632 1620.03,-632 1626.03,-638 1626.03,-644 1626.03,-644 1626.03,-656 1626.03,-656 1626.03,-662 1620.03,-668 1614.03,-668 1614.03,-668 1563.03,-668 1563.03,-668 1557.03,-668 1551.03,-662 1551.03,-656 1551.03,-656 1551.03,-644 1551.03,-644 1551.03,-638 1557.03,-632 1563.03,-632"/>
<text text-anchor="middle" x="1588.53" y="-646.3" font-family="Times,serif" font-size="14.00">0:0 &#45; 0:0</text>
</g>
<!-- c19&#45;&gt;x21 -->
<g id="edge20" class="edge">
<title>c19:e&#45;&gt;x21:w</title>
<path fill="none" stroke="black" d="M1527.25,-650C1531.33,-650 1534.77,-650 1538.85,-650"/>
<polygon fill="none" stroke="black" points="1527.03,-650 1521.03,-654 1515.03,-650 1521.03,-646 1527.03,-650"/>
<polygon fill="none" stroke="black" points="1539.03,-650 1545.03,-646 1551.03,-650 1545.03,-654 1539.03,-650"/>
</g>
<!-- x18&#45;&gt;c19 -->
<g id="edge17" class="edge">
<title>x18:e&#45;&gt;c19:w</title>
<path fill="none" stroke="black" d="M927.41,-739.62C961.1,-727.77 1054.89,-688.14 1088.46,-676.34"/>
<polygon fill="none" stroke="black" points="927.27,-739.66 922.62,-745.17 915.74,-743 920.4,-737.49 927.27,-739.66"/>
<polygon fill="none" stroke="black" points="1088.51,-676.33 1093.16,-670.82 1100.03,-673 1095.38,-678.51 1088.51,-676.33"/>
</g>
<!-- x19&#45;&gt;c19 -->
<g id="edge18" class="edge">
<title>x19:e&#45;&gt;c19:w</title>
<path fill="none" stroke="black" d="M1076.25,-650C1080.33,-650 1083.77,-650 1087.85,-650"/>
<polygon fill="none" stroke="black" points="1076.03,-650 1070.03,-654 1064.03,-650 1070.03,-646 1076.03,-650"/>
<polygon fill="none" stroke="black" points="1088.03,-650 1094.03,-646 1100.03,-650 1094.03,-654 1088.03,-650"/>
</g>
<!-- x20&#45;&gt;c19 -->
<g id="edge19" class="edge">
<title>x20:e&#45;&gt;c19:w</title>
<path fill="none" stroke="black" d="M1075.42,-599.72C1081.18,-605.84 1082.99,-616.44 1088.82,-622.47"/>
<polygon fill="none" stroke="black" points="1075.12,-599.6 1068.04,-600.99 1064.03,-595 1071.11,-593.6 1075.12,-599.6"/>
<polygon fill="none" stroke="black" points="1088.91,-622.5 1095.97,-621.04 1100.03,-627 1092.97,-628.46 1088.91,-622.5"/>
</g>
<!-- x21&#45;&gt;n6 -->
<g id="edge60" class="edge">
<title>x21:e&#45;&gt;n6:w</title>
<path fill="none" stroke="black" d="M1626.03,-650C1638.03,-650 1643.28,-650 1651.91,-650"/>
<polygon fill="black" stroke="black" points="1652.03,-653.5 1662.03,-650 1652.03,-646.5 1652.03,-653.5"/>
</g>
<!-- c20 -->
<g id="node35" class="node">
<title>c20</title>
<polygon fill="none" stroke="black" points="1100.03,-478.5 1100.03,-547.5 1515.03,-547.5 1515.03,-478.5 1100.03,-478.5"/>
<text text-anchor="middle" x="1123.03" y="-532.3" font-family="Times,serif" font-size="14.00">SEL</text>
<polyline fill="none" stroke="black" points="1100.03,-524.5 1146.03,-524.5 "/>
<text text-anchor="middle" x="1123.03" y="-509.3" font-family="Times,serif" font-size="14.00">W0</text>
<polyline fill="none" stroke="black" points="1100.03,-501.5 1146.03,-501.5 "/>
<text text-anchor="middle" x="1123.03" y="-486.3" font-family="Times,serif" font-size="14.00">W1</text>
<polyline fill="none" stroke="black" points="1146.03,-478.5 1146.03,-547.5 "/>
<text text-anchor="middle" x="1317.53" y="-516.8" font-family="Times,serif" font-size="14.00">genblk1[1].genblk1[1].genblk1.mux_stage_bit</text>
<text text-anchor="middle" x="1317.53" y="-501.8" font-family="Times,serif" font-size="14.00">mux_2to1</text>
<polyline fill="none" stroke="black" points="1489.03,-478.5 1489.03,-547.5 "/>
<text text-anchor="middle" x="1502.03" y="-509.3" font-family="Times,serif" font-size="14.00">Y</text>
</g>
<!-- x25 -->
<g id="node39" class="node">
<title>x25</title>
<path fill="none" stroke="black" d="M1563.03,-530C1563.03,-530 1614.03,-530 1614.03,-530 1620.03,-530 1626.03,-536 1626.03,-542 1626.03,-542 1626.03,-554 1626.03,-554 1626.03,-560 1620.03,-566 1614.03,-566 1614.03,-566 1563.03,-566 1563.03,-566 1557.03,-566 1551.03,-560 1551.03,-554 1551.03,-554 1551.03,-542 1551.03,-542 1551.03,-536 1557.03,-530 1563.03,-530"/>
<text text-anchor="middle" x="1588.53" y="-544.3" font-family="Times,serif" font-size="14.00">0:0 &#45; 1:1</text>
</g>
<!-- c20&#45;&gt;x25 -->
<g id="edge24" class="edge">
<title>c20:e&#45;&gt;x25:w</title>
<path fill="none" stroke="black" d="M1526.16,-517.58C1532.39,-524.25 1533.63,-536.58 1539.81,-543.31"/>
<polygon fill="none" stroke="black" points="1526.13,-517.57 1519.06,-518.98 1515.03,-513 1522.1,-511.58 1526.13,-517.57"/>
<polygon fill="none" stroke="black" points="1539.96,-543.38 1547.04,-542 1551.03,-548 1543.96,-549.38 1539.96,-543.38"/>
</g>
<!-- x22&#45;&gt;c20 -->
<g id="edge21" class="edge">
<title>x22:e&#45;&gt;c20:w</title>
<path fill="none" stroke="black" d="M927.79,-606.93C953.78,-601.9 958.87,-580.4 989.03,-568 1032.53,-550.11 1046.4,-538.14 1087.88,-536.26"/>
<polygon fill="none" stroke="black" points="927.7,-606.94 922.07,-611.45 915.74,-608 921.37,-603.48 927.7,-606.94"/>
<polygon fill="none" stroke="black" points="1088.04,-536.26 1093.95,-532.13 1100.03,-536 1094.12,-540.13 1088.04,-536.26"/>
</g>
<!-- x23&#45;&gt;c20 -->
<g id="edge22" class="edge">
<title>x23:e&#45;&gt;c20:w</title>
<path fill="none" stroke="black" d="M1075.96,-503.54C1080.34,-505.58 1083.74,-508.42 1088.12,-510.46"/>
<polygon fill="none" stroke="black" points="1075.77,-503.5 1069.07,-506.16 1064.03,-501 1070.74,-498.34 1075.77,-503.5"/>
<polygon fill="none" stroke="black" points="1088.3,-510.5 1095,-507.84 1100.03,-513 1093.33,-515.66 1088.3,-510.5"/>
</g>
<!-- x24&#45;&gt;c20 -->
<g id="edge23" class="edge">
<title>x24:e&#45;&gt;c20:w</title>
<path fill="none" stroke="black" d="M1075.17,-450.71C1082.5,-459.13 1081.55,-476.7 1088.81,-485.19"/>
<polygon fill="none" stroke="black" points="1075.09,-450.67 1068,-452.02 1064.03,-446 1071.12,-444.65 1075.09,-450.67"/>
<polygon fill="none" stroke="black" points="1089,-485.27 1096.09,-483.96 1100.03,-490 1092.94,-491.31 1089,-485.27"/>
</g>
<!-- x25&#45;&gt;n6 -->
<g id="edge61" class="edge">
<title>x25:e&#45;&gt;n6:w</title>
<path fill="none" stroke="black" d="M1626.03,-548C1669.98,-548 1623.5,-633.22 1651.9,-647.87"/>
<polygon fill="black" stroke="black" points="1651.53,-651.37 1662.03,-650 1652.97,-644.52 1651.53,-651.37"/>
</g>
<!-- v28 -->
<g id="node40" class="node">
<title>v28</title>
<ellipse fill="none" stroke="black" cx="1026.53" cy="-891" rx="27" ry="18"/>
<text text-anchor="middle" x="1026.53" y="-887.3" font-family="Times,serif" font-size="14.00">1&#39;0</text>
</g>
<!-- c21 -->
<g id="node41" class="node">
<title>c21</title>
<polygon fill="none" stroke="black" points="1100.03,-895.5 1100.03,-964.5 1515.03,-964.5 1515.03,-895.5 1100.03,-895.5"/>
<text text-anchor="middle" x="1123.03" y="-949.3" font-family="Times,serif" font-size="14.00">SEL</text>
<polyline fill="none" stroke="black" points="1100.03,-941.5 1146.03,-941.5 "/>
<text text-anchor="middle" x="1123.03" y="-926.3" font-family="Times,serif" font-size="14.00">W0</text>
<polyline fill="none" stroke="black" points="1100.03,-918.5 1146.03,-918.5 "/>
<text text-anchor="middle" x="1123.03" y="-903.3" font-family="Times,serif" font-size="14.00">W1</text>
<polyline fill="none" stroke="black" points="1146.03,-895.5 1146.03,-964.5 "/>
<text text-anchor="middle" x="1317.53" y="-933.8" font-family="Times,serif" font-size="14.00">genblk1[1].genblk1[2].genblk1.mux_stage_bit</text>
<text text-anchor="middle" x="1317.53" y="-918.8" font-family="Times,serif" font-size="14.00">mux_2to1</text>
<polyline fill="none" stroke="black" points="1489.03,-895.5 1489.03,-964.5 "/>
<text text-anchor="middle" x="1502.03" y="-926.3" font-family="Times,serif" font-size="14.00">Y</text>
</g>
<!-- v28&#45;&gt;c21 -->
<g id="edge67" class="edge">
<title>v28:e&#45;&gt;c21:w</title>
<path fill="none" stroke="black" d="M1054.53,-891C1072.12,-891 1077.05,-901.77 1090.08,-905.64"/>
<polygon fill="black" stroke="black" points="1089.65,-909.11 1100.03,-907 1090.6,-902.17 1089.65,-909.11"/>
</g>
<!-- x29 -->
<g id="node44" class="node">
<title>x29</title>
<path fill="none" stroke="black" d="M1563.03,-842C1563.03,-842 1614.03,-842 1614.03,-842 1620.03,-842 1626.03,-848 1626.03,-854 1626.03,-854 1626.03,-866 1626.03,-866 1626.03,-872 1620.03,-878 1614.03,-878 1614.03,-878 1563.03,-878 1563.03,-878 1557.03,-878 1551.03,-872 1551.03,-866 1551.03,-866 1551.03,-854 1551.03,-854 1551.03,-848 1557.03,-842 1563.03,-842"/>
<text text-anchor="middle" x="1588.53" y="-856.3" font-family="Times,serif" font-size="14.00">0:0 &#45; 2:2</text>
</g>
<!-- c21&#45;&gt;x29 -->
<g id="edge27" class="edge">
<title>c21:e&#45;&gt;x29:w</title>
<path fill="none" stroke="black" d="M1526.51,-925.83C1538.88,-913.35 1527.15,-876.39 1539.67,-864.06"/>
<polygon fill="none" stroke="black" points="1526.31,-925.9 1522.04,-931.71 1515.03,-930 1519.31,-924.19 1526.31,-925.9"/>
<polygon fill="none" stroke="black" points="1539.73,-864.04 1544.04,-858.25 1551.03,-860 1546.73,-865.79 1539.73,-864.04"/>
</g>
<!-- x26&#45;&gt;c21 -->
<g id="edge25" class="edge">
<title>x26:e&#45;&gt;c21:w</title>
<path fill="none" stroke="black" d="M776.48,-942.12C867.31,-944.01 892.59,-967.16 989.03,-974 1022.28,-976.36 1031.86,-982.7 1064.03,-974 1077.03,-970.49 1080.36,-960.99 1088.32,-956.06"/>
<polygon fill="none" stroke="black" points="776.45,-942.12 770.41,-946.06 764.45,-942 770.49,-938.06 776.45,-942.12"/>
<polygon fill="none" stroke="black" points="1088.42,-956.04 1093.22,-950.65 1100.03,-953 1095.24,-958.39 1088.42,-956.04"/>
</g>
<!-- x27&#45;&gt;c21 -->
<g id="edge26" class="edge">
<title>x27:e&#45;&gt;c21:w</title>
<path fill="none" stroke="black" d="M1075.87,-942.76C1080.4,-939.99 1083.68,-936.01 1088.2,-933.23"/>
<polygon fill="none" stroke="black" points="1075.61,-942.83 1070.88,-948.28 1064.03,-946 1068.77,-940.56 1075.61,-942.83"/>
<polygon fill="none" stroke="black" points="1088.46,-933.16 1093.19,-927.72 1100.03,-930 1095.3,-935.44 1088.46,-933.16"/>
</g>
<!-- x29&#45;&gt;n6 -->
<g id="edge62" class="edge">
<title>x29:e&#45;&gt;n6:w</title>
<path fill="none" stroke="black" d="M1626.03,-860C1717.03,-860 1578.94,-666.09 1652.04,-650.94"/>
<polygon fill="black" stroke="black" points="1652.4,-654.42 1662.03,-650 1651.75,-647.45 1652.4,-654.42"/>
</g>
<!-- v32 -->
<g id="node45" class="node">
<title>v32</title>
<ellipse fill="none" stroke="black" cx="1026.53" cy="-743" rx="27" ry="18"/>
<text text-anchor="middle" x="1026.53" y="-739.3" font-family="Times,serif" font-size="14.00">1&#39;0</text>
</g>
<!-- c22 -->
<g id="node46" class="node">
<title>c22</title>
<polygon fill="none" stroke="black" points="1100.03,-747.5 1100.03,-816.5 1515.03,-816.5 1515.03,-747.5 1100.03,-747.5"/>
<text text-anchor="middle" x="1123.03" y="-801.3" font-family="Times,serif" font-size="14.00">SEL</text>
<polyline fill="none" stroke="black" points="1100.03,-793.5 1146.03,-793.5 "/>
<text text-anchor="middle" x="1123.03" y="-778.3" font-family="Times,serif" font-size="14.00">W0</text>
<polyline fill="none" stroke="black" points="1100.03,-770.5 1146.03,-770.5 "/>
<text text-anchor="middle" x="1123.03" y="-755.3" font-family="Times,serif" font-size="14.00">W1</text>
<polyline fill="none" stroke="black" points="1146.03,-747.5 1146.03,-816.5 "/>
<text text-anchor="middle" x="1317.53" y="-785.8" font-family="Times,serif" font-size="14.00">genblk1[1].genblk1[3].genblk1.mux_stage_bit</text>
<text text-anchor="middle" x="1317.53" y="-770.8" font-family="Times,serif" font-size="14.00">mux_2to1</text>
<polyline fill="none" stroke="black" points="1489.03,-747.5 1489.03,-816.5 "/>
<text text-anchor="middle" x="1502.03" y="-778.3" font-family="Times,serif" font-size="14.00">Y</text>
</g>
<!-- v32&#45;&gt;c22 -->
<g id="edge68" class="edge">
<title>v32:e&#45;&gt;c22:w</title>
<path fill="none" stroke="black" d="M1054.53,-743C1072.12,-743 1077.05,-753.77 1090.08,-757.64"/>
<polygon fill="black" stroke="black" points="1089.65,-761.11 1100.03,-759 1090.6,-754.17 1089.65,-761.11"/>
</g>
<!-- x33 -->
<g id="node49" class="node">
<title>x33</title>
<path fill="none" stroke="black" d="M1563.03,-733C1563.03,-733 1614.03,-733 1614.03,-733 1620.03,-733 1626.03,-739 1626.03,-745 1626.03,-745 1626.03,-757 1626.03,-757 1626.03,-763 1620.03,-769 1614.03,-769 1614.03,-769 1563.03,-769 1563.03,-769 1557.03,-769 1551.03,-763 1551.03,-757 1551.03,-757 1551.03,-745 1551.03,-745 1551.03,-739 1557.03,-733 1563.03,-733"/>
<text text-anchor="middle" x="1588.53" y="-747.3" font-family="Times,serif" font-size="14.00">0:0 &#45; 3:3</text>
</g>
<!-- c22&#45;&gt;x33 -->
<g id="edge30" class="edge">
<title>c22:e&#45;&gt;x33:w</title>
<path fill="none" stroke="black" d="M1526.34,-777.43C1531.98,-771.63 1533.97,-761.69 1539.51,-755.8"/>
<polygon fill="none" stroke="black" points="1526.16,-777.5 1522.1,-783.46 1515.03,-782 1519.1,-776.04 1526.16,-777.5"/>
<polygon fill="none" stroke="black" points="1539.96,-755.61 1543.96,-749.61 1551.03,-751 1547.03,-757 1539.96,-755.61"/>
</g>
<!-- x30&#45;&gt;c22 -->
<g id="edge28" class="edge">
<title>x30:e&#45;&gt;c22:w</title>
<path fill="none" stroke="black" d="M928.02,-845.02C984.81,-845.21 1005.18,-846.01 1064.03,-826 1076.78,-821.67 1080.23,-812.54 1088.27,-807.88"/>
<polygon fill="none" stroke="black" points="927.74,-845.02 921.74,-849.01 915.74,-845 921.75,-841.01 927.74,-845.02"/>
<polygon fill="none" stroke="black" points="1088.38,-807.85 1093.26,-802.54 1100.03,-805 1095.16,-810.31 1088.38,-807.85"/>
</g>
<!-- x31&#45;&gt;c22 -->
<g id="edge29" class="edge">
<title>x31:e&#45;&gt;c22:w</title>
<path fill="none" stroke="black" d="M1075.87,-794.76C1080.4,-791.99 1083.68,-788.01 1088.2,-785.23"/>
<polygon fill="none" stroke="black" points="1075.61,-794.83 1070.88,-800.28 1064.03,-798 1068.77,-792.56 1075.61,-794.83"/>
<polygon fill="none" stroke="black" points="1088.46,-785.16 1093.19,-779.72 1100.03,-782 1095.3,-787.44 1088.46,-785.16"/>
</g>
<!-- x33&#45;&gt;n6 -->
<g id="edge63" class="edge">
<title>x33:e&#45;&gt;n6:w</title>
<path fill="none" stroke="black" d="M1626.03,-751C1669.59,-751 1623.78,-666.61 1651.98,-652.11"/>
<polygon fill="black" stroke="black" points="1652.97,-655.48 1662.03,-650 1651.53,-648.63 1652.97,-655.48"/>
</g>
<!-- x34&#45;&gt;n4 -->
<g id="edge49" class="edge">
<title>x34:e&#45;&gt;n4:w</title>
<path fill="none" stroke="black" stroke-width="3" d="M167.95,-41C253.8,-41 277.77,-41 358.78,-41"/>
<polygon fill="black" stroke="black" stroke-width="3" points="358.95,-44.5 368.95,-41 358.95,-37.5 358.95,-44.5"/>
</g>
</g>
</svg>
