<?xml version="1.0" encoding="UTF-8" standalone="no"?>
<!DOCTYPE svg PUBLIC "-//W3C//DTD SVG 1.1//EN"
 "http://www.w3.org/Graphics/SVG/1.1/DTD/svg11.dtd">
<!-- Generated by graphviz version 2.43.20190912.0211 (20190912.0211)
 -->
<!-- Title: adder Pages: 1 -->
<svg width="3445pt" height="842pt"
 viewBox="0.00 0.00 3445.03 841.90" xmlns="http://www.w3.org/2000/svg" xmlns:xlink="http://www.w3.org/1999/xlink">
<g id="graph0" class="graph" transform="scale(1 1) rotate(0) translate(4 837.9)">
<title>adder</title>
<polygon fill="white" stroke="transparent" points="-4,4 -4,-837.9 3441.03,-837.9 3441.03,4 -4,4"/>
<text text-anchor="middle" x="1718.52" y="-7.8" font-family="Times,serif" font-size="14.00">adder</text>
<!-- n14 -->
<g id="node1" class="node">
<title>n14</title>
<polygon fill="none" stroke="black" points="810.91,-563.5 783.91,-545.5 810.91,-527.5 837.91,-545.5 810.91,-563.5"/>
<text text-anchor="middle" x="810.91" y="-541.8" font-family="Times,serif" font-size="14.00">C</text>
</g>
<!-- x6 -->
<g id="node32" class="node">
<title>x6</title>
<path fill="none" stroke="black" d="M1078.91,-560.5C1078.91,-560.5 1129.91,-560.5 1129.91,-560.5 1135.91,-560.5 1141.91,-566.5 1141.91,-572.5 1141.91,-572.5 1141.91,-584.5 1141.91,-584.5 1141.91,-590.5 1135.91,-596.5 1129.91,-596.5 1129.91,-596.5 1078.91,-596.5 1078.91,-596.5 1072.91,-596.5 1066.91,-590.5 1066.91,-584.5 1066.91,-584.5 1066.91,-572.5 1066.91,-572.5 1066.91,-566.5 1072.91,-560.5 1078.91,-560.5"/>
<text text-anchor="middle" x="1104.41" y="-574.8" font-family="Times,serif" font-size="14.00">3:3 &#45; 0:0</text>
</g>
<!-- n14&#45;&gt;x6 -->
<g id="edge44" class="edge">
<title>n14:e&#45;&gt;x6:w</title>
<path fill="none" stroke="black" d="M838.91,-545.5C850.26,-545.5 1011.67,-571.79 1055.26,-577.44"/>
<polygon fill="black" stroke="black" points="1055.1,-580.94 1065.41,-578.5 1055.83,-573.98 1055.1,-580.94"/>
</g>
<!-- x20 -->
<g id="node55" class="node">
<title>x20</title>
<path fill="none" stroke="black" d="M896.41,-340.5C896.41,-340.5 947.41,-340.5 947.41,-340.5 953.41,-340.5 959.41,-346.5 959.41,-352.5 959.41,-352.5 959.41,-364.5 959.41,-364.5 959.41,-370.5 953.41,-376.5 947.41,-376.5 947.41,-376.5 896.41,-376.5 896.41,-376.5 890.41,-376.5 884.41,-370.5 884.41,-364.5 884.41,-364.5 884.41,-352.5 884.41,-352.5 884.41,-346.5 890.41,-340.5 896.41,-340.5"/>
<text text-anchor="middle" x="921.91" y="-354.8" font-family="Times,serif" font-size="14.00">1:1 &#45; 0:0</text>
</g>
<!-- n14&#45;&gt;x20 -->
<g id="edge41" class="edge">
<title>n14:e&#45;&gt;x20:w</title>
<path fill="none" stroke="black" d="M838.91,-545.5C920.6,-545.5 809.73,-374.92 874.12,-359.6"/>
<polygon fill="black" stroke="black" points="874.84,-363.04 884.41,-358.5 874.09,-356.08 874.84,-363.04"/>
</g>
<!-- x24 -->
<g id="node60" class="node">
<title>x24</title>
<path fill="none" stroke="black" d="M896.41,-434.5C896.41,-434.5 947.41,-434.5 947.41,-434.5 953.41,-434.5 959.41,-440.5 959.41,-446.5 959.41,-446.5 959.41,-458.5 959.41,-458.5 959.41,-464.5 953.41,-470.5 947.41,-470.5 947.41,-470.5 896.41,-470.5 896.41,-470.5 890.41,-470.5 884.41,-464.5 884.41,-458.5 884.41,-458.5 884.41,-446.5 884.41,-446.5 884.41,-440.5 890.41,-434.5 896.41,-434.5"/>
<text text-anchor="middle" x="921.91" y="-448.8" font-family="Times,serif" font-size="14.00">2:2 &#45; 0:0</text>
</g>
<!-- n14&#45;&gt;x24 -->
<g id="edge42" class="edge">
<title>n14:e&#45;&gt;x24:w</title>
<path fill="none" stroke="black" d="M838.91,-545.5C880.97,-545.5 845.71,-467.8 874.48,-454.44"/>
<polygon fill="black" stroke="black" points="875.27,-457.85 884.41,-452.5 873.92,-450.98 875.27,-457.85"/>
</g>
<!-- x27 -->
<g id="node64" class="node">
<title>x27</title>
<path fill="none" stroke="black" d="M896.41,-285.5C896.41,-285.5 947.41,-285.5 947.41,-285.5 953.41,-285.5 959.41,-291.5 959.41,-297.5 959.41,-297.5 959.41,-309.5 959.41,-309.5 959.41,-315.5 953.41,-321.5 947.41,-321.5 947.41,-321.5 896.41,-321.5 896.41,-321.5 890.41,-321.5 884.41,-315.5 884.41,-309.5 884.41,-309.5 884.41,-297.5 884.41,-297.5 884.41,-291.5 890.41,-285.5 896.41,-285.5"/>
<text text-anchor="middle" x="921.91" y="-299.8" font-family="Times,serif" font-size="14.00">3:3 &#45; 0:0</text>
</g>
<!-- n14&#45;&gt;x27 -->
<g id="edge43" class="edge">
<title>n14:e&#45;&gt;x27:w</title>
<path fill="none" stroke="black" d="M838.91,-545.5C944.71,-545.5 786.17,-319.3 874.42,-304.28"/>
<polygon fill="black" stroke="black" points="874.71,-307.77 884.41,-303.5 874.16,-300.79 874.71,-307.77"/>
</g>
<!-- n15 -->
<g id="node2" class="node">
<title>n15</title>
<polygon fill="none" stroke="black" points="212.61,-640.04 212.61,-654.96 176.64,-665.5 125.77,-665.5 89.8,-654.96 89.8,-640.04 125.77,-629.5 176.64,-629.5 212.61,-640.04"/>
<text text-anchor="middle" x="151.2" y="-643.8" font-family="Times,serif" font-size="14.00">Nadd_sub</text>
</g>
<!-- c28 -->
<g id="node13" class="node">
<title>c28</title>
<polygon fill="none" stroke="black" points="2528.63,-685.5 2528.63,-731.5 2653.63,-731.5 2653.63,-685.5 2528.63,-685.5"/>
<text text-anchor="middle" x="2542.13" y="-716.3" font-family="Times,serif" font-size="14.00">A</text>
<polyline fill="none" stroke="black" points="2528.63,-708.5 2555.63,-708.5 "/>
<text text-anchor="middle" x="2542.13" y="-693.3" font-family="Times,serif" font-size="14.00">B</text>
<polyline fill="none" stroke="black" points="2555.63,-685.5 2555.63,-731.5 "/>
<text text-anchor="middle" x="2591.63" y="-712.3" font-family="Times,serif" font-size="14.00">$106</text>
<text text-anchor="middle" x="2591.63" y="-697.3" font-family="Times,serif" font-size="14.00">$_AND_</text>
<polyline fill="none" stroke="black" points="2627.63,-685.5 2627.63,-731.5 "/>
<text text-anchor="middle" x="2640.63" y="-704.8" font-family="Times,serif" font-size="14.00">Y</text>
</g>
<!-- n15&#45;&gt;c28 -->
<g id="edge45" class="edge">
<title>n15:e&#45;&gt;c28:w</title>
<path fill="none" stroke="black" d="M212.41,-647.5C264.27,-647.5 207.56,-726.54 248.41,-758.5 342.45,-832.09 397,-777.5 516.41,-777.5 516.41,-777.5 516.41,-777.5 2277.63,-777.5 2388.56,-777.5 2412.81,-723.9 2518.49,-720.65"/>
<polygon fill="black" stroke="black" points="2518.69,-724.15 2528.63,-720.5 2518.58,-717.15 2518.69,-724.15"/>
</g>
<!-- c29 -->
<g id="node14" class="node">
<title>c29</title>
<polygon fill="none" stroke="black" points="2938.63,-697.5 2938.63,-743.5 3063.63,-743.5 3063.63,-697.5 2938.63,-697.5"/>
<text text-anchor="middle" x="2952.13" y="-728.3" font-family="Times,serif" font-size="14.00">A</text>
<polyline fill="none" stroke="black" points="2938.63,-720.5 2965.63,-720.5 "/>
<text text-anchor="middle" x="2952.13" y="-705.3" font-family="Times,serif" font-size="14.00">B</text>
<polyline fill="none" stroke="black" points="2965.63,-697.5 2965.63,-743.5 "/>
<text text-anchor="middle" x="3001.63" y="-724.3" font-family="Times,serif" font-size="14.00">$108</text>
<text text-anchor="middle" x="3001.63" y="-709.3" font-family="Times,serif" font-size="14.00">$_AND_</text>
<polyline fill="none" stroke="black" points="3037.63,-697.5 3037.63,-743.5 "/>
<text text-anchor="middle" x="3050.63" y="-716.8" font-family="Times,serif" font-size="14.00">Y</text>
</g>
<!-- n15&#45;&gt;c29 -->
<g id="edge46" class="edge">
<title>n15:e&#45;&gt;c29:w</title>
<path fill="none" stroke="black" d="M212.41,-647.5C278.38,-647.5 198.27,-748.62 248.41,-791.5 339.29,-869.23 396.82,-815.5 516.41,-815.5 516.41,-815.5 516.41,-815.5 2717.63,-815.5 2766.92,-815.5 2872.35,-742.25 2928.43,-733.38"/>
<polygon fill="black" stroke="black" points="2928.97,-736.84 2938.63,-732.5 2928.37,-729.87 2928.97,-736.84"/>
</g>
<!-- c35 -->
<g id="node20" class="node">
<title>c35</title>
<polygon fill="none" stroke="black" points="248.41,-702.5 248.41,-748.5 372.41,-748.5 372.41,-702.5 248.41,-702.5"/>
<text text-anchor="middle" x="261.91" y="-733.3" font-family="Times,serif" font-size="14.00">A</text>
<polyline fill="none" stroke="black" points="248.41,-725.5 275.41,-725.5 "/>
<text text-anchor="middle" x="261.91" y="-710.3" font-family="Times,serif" font-size="14.00">B</text>
<polyline fill="none" stroke="black" points="275.41,-702.5 275.41,-748.5 "/>
<text text-anchor="middle" x="310.91" y="-729.3" font-family="Times,serif" font-size="14.00">$117</text>
<text text-anchor="middle" x="310.91" y="-714.3" font-family="Times,serif" font-size="14.00">$_XOR_</text>
<polyline fill="none" stroke="black" points="346.41,-702.5 346.41,-748.5 "/>
<text text-anchor="middle" x="359.41" y="-721.8" font-family="Times,serif" font-size="14.00">Y</text>
</g>
<!-- n15&#45;&gt;c35 -->
<g id="edge47" class="edge">
<title>n15:e&#45;&gt;c35:w</title>
<path fill="none" stroke="black" d="M212.41,-647.5C241.64,-647.5 221.7,-698.03 238.64,-710.66"/>
<polygon fill="black" stroke="black" points="237.83,-714.07 248.41,-713.5 239.78,-707.35 237.83,-714.07"/>
</g>
<!-- c36 -->
<g id="node22" class="node">
<title>c36</title>
<polygon fill="none" stroke="black" points="248.41,-393.5 248.41,-439.5 372.41,-439.5 372.41,-393.5 248.41,-393.5"/>
<text text-anchor="middle" x="261.91" y="-424.3" font-family="Times,serif" font-size="14.00">A</text>
<polyline fill="none" stroke="black" points="248.41,-416.5 275.41,-416.5 "/>
<text text-anchor="middle" x="261.91" y="-401.3" font-family="Times,serif" font-size="14.00">B</text>
<polyline fill="none" stroke="black" points="275.41,-393.5 275.41,-439.5 "/>
<text text-anchor="middle" x="310.91" y="-420.3" font-family="Times,serif" font-size="14.00">$118</text>
<text text-anchor="middle" x="310.91" y="-405.3" font-family="Times,serif" font-size="14.00">$_XOR_</text>
<polyline fill="none" stroke="black" points="346.41,-393.5 346.41,-439.5 "/>
<text text-anchor="middle" x="359.41" y="-412.8" font-family="Times,serif" font-size="14.00">Y</text>
</g>
<!-- n15&#45;&gt;c36 -->
<g id="edge48" class="edge">
<title>n15:e&#45;&gt;c36:w</title>
<path fill="none" stroke="black" d="M212.41,-647.5C263.16,-647.5 203.48,-437.47 238.7,-407.94"/>
<polygon fill="black" stroke="black" points="240.15,-411.14 248.41,-404.5 237.81,-404.54 240.15,-411.14"/>
</g>
<!-- c37 -->
<g id="node24" class="node">
<title>c37</title>
<polygon fill="none" stroke="black" points="248.41,-476.5 248.41,-522.5 372.41,-522.5 372.41,-476.5 248.41,-476.5"/>
<text text-anchor="middle" x="261.91" y="-507.3" font-family="Times,serif" font-size="14.00">A</text>
<polyline fill="none" stroke="black" points="248.41,-499.5 275.41,-499.5 "/>
<text text-anchor="middle" x="261.91" y="-484.3" font-family="Times,serif" font-size="14.00">B</text>
<polyline fill="none" stroke="black" points="275.41,-476.5 275.41,-522.5 "/>
<text text-anchor="middle" x="310.91" y="-503.3" font-family="Times,serif" font-size="14.00">$119</text>
<text text-anchor="middle" x="310.91" y="-488.3" font-family="Times,serif" font-size="14.00">$_XOR_</text>
<polyline fill="none" stroke="black" points="346.41,-476.5 346.41,-522.5 "/>
<text text-anchor="middle" x="359.41" y="-495.8" font-family="Times,serif" font-size="14.00">Y</text>
</g>
<!-- n15&#45;&gt;c37 -->
<g id="edge49" class="edge">
<title>n15:e&#45;&gt;c37:w</title>
<path fill="none" stroke="black" d="M212.41,-647.5C281.45,-647.5 186.59,-503.93 238.35,-488.79"/>
<polygon fill="black" stroke="black" points="238.93,-492.24 248.41,-487.5 238.04,-485.3 238.93,-492.24"/>
</g>
<!-- c38 -->
<g id="node26" class="node">
<title>c38</title>
<polygon fill="none" stroke="black" points="248.41,-95.5 248.41,-141.5 372.41,-141.5 372.41,-95.5 248.41,-95.5"/>
<text text-anchor="middle" x="261.91" y="-126.3" font-family="Times,serif" font-size="14.00">A</text>
<polyline fill="none" stroke="black" points="248.41,-118.5 275.41,-118.5 "/>
<text text-anchor="middle" x="261.91" y="-103.3" font-family="Times,serif" font-size="14.00">B</text>
<polyline fill="none" stroke="black" points="275.41,-95.5 275.41,-141.5 "/>
<text text-anchor="middle" x="310.91" y="-122.3" font-family="Times,serif" font-size="14.00">$120</text>
<text text-anchor="middle" x="310.91" y="-107.3" font-family="Times,serif" font-size="14.00">$_XOR_</text>
<polyline fill="none" stroke="black" points="346.41,-95.5 346.41,-141.5 "/>
<text text-anchor="middle" x="359.41" y="-114.8" font-family="Times,serif" font-size="14.00">Y</text>
</g>
<!-- n15&#45;&gt;c38 -->
<g id="edge50" class="edge">
<title>n15:e&#45;&gt;c38:w</title>
<path fill="none" stroke="black" d="M212.41,-647.5C269.24,-647.5 197.27,-166.05 239.51,-111.51"/>
<polygon fill="black" stroke="black" points="241.41,-114.46 248.41,-106.5 237.98,-108.36 241.41,-114.46"/>
</g>
<!-- c51 -->
<g id="node48" class="node">
<title>c51</title>
<polygon fill="none" stroke="black" points="408.41,-624 408.41,-693 626.41,-693 626.41,-624 408.41,-624"/>
<text text-anchor="middle" x="427.41" y="-677.8" font-family="Times,serif" font-size="14.00">a</text>
<polyline fill="none" stroke="black" points="408.41,-670 446.41,-670 "/>
<text text-anchor="middle" x="427.41" y="-654.8" font-family="Times,serif" font-size="14.00">b</text>
<polyline fill="none" stroke="black" points="408.41,-647 446.41,-647 "/>
<text text-anchor="middle" x="427.41" y="-631.8" font-family="Times,serif" font-size="14.00">cin</text>
<polyline fill="none" stroke="black" points="446.41,-624 446.41,-693 "/>
<text text-anchor="middle" x="509.41" y="-662.3" font-family="Times,serif" font-size="14.00">genblk1[0].fa_k</text>
<text text-anchor="middle" x="509.41" y="-647.3" font-family="Times,serif" font-size="14.00">full_adder</text>
<polyline fill="none" stroke="black" points="572.41,-624 572.41,-693 "/>
<text text-anchor="middle" x="599.41" y="-672.3" font-family="Times,serif" font-size="14.00">carry</text>
<polyline fill="none" stroke="black" points="572.41,-659 626.41,-659 "/>
<text text-anchor="middle" x="599.41" y="-637.8" font-family="Times,serif" font-size="14.00">sum</text>
</g>
<!-- n15&#45;&gt;c51 -->
<g id="edge51" class="edge">
<title>n15:e&#45;&gt;c51:w</title>
<path fill="none" stroke="black" d="M212.41,-647.5C296.1,-647.5 319.26,-636.46 397.99,-635.56"/>
<polygon fill="black" stroke="black" points="398.43,-639.06 408.41,-635.5 398.39,-632.06 398.43,-639.06"/>
</g>
<!-- x29 -->
<g id="node66" class="node">
<title>x29</title>
<path fill="none" stroke="black" d="M1489.69,-661.5C1489.69,-661.5 1540.69,-661.5 1540.69,-661.5 1546.69,-661.5 1552.69,-667.5 1552.69,-673.5 1552.69,-673.5 1552.69,-695.5 1552.69,-695.5 1552.69,-701.5 1546.69,-707.5 1540.69,-707.5 1540.69,-707.5 1489.69,-707.5 1489.69,-707.5 1483.69,-707.5 1477.69,-701.5 1477.69,-695.5 1477.69,-695.5 1477.69,-673.5 1477.69,-673.5 1477.69,-667.5 1483.69,-661.5 1489.69,-661.5"/>
<text text-anchor="middle" x="1515.19" y="-692.3" font-family="Times,serif" font-size="14.00">0:0 &#45; 1:1</text>
<polyline fill="none" stroke="black" points="1477.69,-684.5 1552.69,-684.5 "/>
<text text-anchor="middle" x="1515.19" y="-669.3" font-family="Times,serif" font-size="14.00">0:0 &#45; 0:0</text>
</g>
<!-- n15&#45;&gt;x29 -->
<g id="edge52" class="edge">
<title>n15:e&#45;&gt;x29:w</title>
<path fill="none" stroke="black" d="M212.41,-647.5C223.72,-647.5 397.21,-700.89 408.41,-702.5 875.01,-769.54 999.67,-673.87 1466.16,-672.51"/>
<polygon fill="black" stroke="black" points="1466.2,-676.01 1476.19,-672.5 1466.19,-669.01 1466.2,-676.01"/>
</g>
<!-- n16 -->
<g id="node3" class="node">
<title>n16</title>
<polygon fill="none" stroke="black" points="178.2,-201.04 178.2,-215.96 162.39,-226.5 140.02,-226.5 124.2,-215.96 124.2,-201.04 140.02,-190.5 162.39,-190.5 178.2,-201.04"/>
<text text-anchor="middle" x="151.2" y="-204.8" font-family="Times,serif" font-size="14.00">X</text>
</g>
<!-- x4 -->
<g id="node29" class="node">
<title>x4</title>
<path fill="none" stroke="black" d="M284.91,-40.5C284.91,-40.5 335.91,-40.5 335.91,-40.5 341.91,-40.5 347.91,-46.5 347.91,-52.5 347.91,-52.5 347.91,-64.5 347.91,-64.5 347.91,-70.5 341.91,-76.5 335.91,-76.5 335.91,-76.5 284.91,-76.5 284.91,-76.5 278.91,-76.5 272.91,-70.5 272.91,-64.5 272.91,-64.5 272.91,-52.5 272.91,-52.5 272.91,-46.5 278.91,-40.5 284.91,-40.5"/>
<text text-anchor="middle" x="310.41" y="-54.8" font-family="Times,serif" font-size="14.00">3:3 &#45; 0:0</text>
</g>
<!-- n16&#45;&gt;x4 -->
<g id="edge57" class="edge">
<title>n16:e&#45;&gt;x4:w</title>
<path fill="none" stroke="black" d="M179.2,-208.5C253.79,-208.5 198.87,-72.23 261.31,-59.46"/>
<polygon fill="black" stroke="black" points="261.78,-62.93 271.41,-58.5 261.12,-55.96 261.78,-62.93"/>
</g>
<!-- x15 -->
<g id="node49" class="node">
<title>x15</title>
<path fill="none" stroke="black" d="M284.91,-303.5C284.91,-303.5 335.91,-303.5 335.91,-303.5 341.91,-303.5 347.91,-309.5 347.91,-315.5 347.91,-315.5 347.91,-327.5 347.91,-327.5 347.91,-333.5 341.91,-339.5 335.91,-339.5 335.91,-339.5 284.91,-339.5 284.91,-339.5 278.91,-339.5 272.91,-333.5 272.91,-327.5 272.91,-327.5 272.91,-315.5 272.91,-315.5 272.91,-309.5 278.91,-303.5 284.91,-303.5"/>
<text text-anchor="middle" x="310.41" y="-317.8" font-family="Times,serif" font-size="14.00">0:0 &#45; 0:0</text>
</g>
<!-- n16&#45;&gt;x15 -->
<g id="edge53" class="edge">
<title>n16:e&#45;&gt;x15:w</title>
<path fill="none" stroke="black" d="M179.2,-208.5C240.35,-208.5 210.5,-309.06 261.34,-320.45"/>
<polygon fill="black" stroke="black" points="261.1,-323.95 271.41,-321.5 261.82,-316.98 261.1,-323.95"/>
</g>
<!-- x18 -->
<g id="node53" class="node">
<title>x18</title>
<path fill="none" stroke="black" d="M785.41,-180.5C785.41,-180.5 836.41,-180.5 836.41,-180.5 842.41,-180.5 848.41,-186.5 848.41,-192.5 848.41,-192.5 848.41,-204.5 848.41,-204.5 848.41,-210.5 842.41,-216.5 836.41,-216.5 836.41,-216.5 785.41,-216.5 785.41,-216.5 779.41,-216.5 773.41,-210.5 773.41,-204.5 773.41,-204.5 773.41,-192.5 773.41,-192.5 773.41,-186.5 779.41,-180.5 785.41,-180.5"/>
<text text-anchor="middle" x="810.91" y="-194.8" font-family="Times,serif" font-size="14.00">1:1 &#45; 0:0</text>
</g>
<!-- n16&#45;&gt;x18 -->
<g id="edge54" class="edge">
<title>n16:e&#45;&gt;x18:w</title>
<path fill="none" stroke="black" d="M179.2,-208.5C439.85,-208.5 507.51,-198.76 763.06,-198.51"/>
<polygon fill="black" stroke="black" points="763.41,-202.01 773.41,-198.5 763.41,-195.01 763.41,-202.01"/>
</g>
<!-- x22 -->
<g id="node58" class="node">
<title>x22</title>
<path fill="none" stroke="black" d="M491.91,-237.5C491.91,-237.5 542.91,-237.5 542.91,-237.5 548.91,-237.5 554.91,-243.5 554.91,-249.5 554.91,-249.5 554.91,-261.5 554.91,-261.5 554.91,-267.5 548.91,-273.5 542.91,-273.5 542.91,-273.5 491.91,-273.5 491.91,-273.5 485.91,-273.5 479.91,-267.5 479.91,-261.5 479.91,-261.5 479.91,-249.5 479.91,-249.5 479.91,-243.5 485.91,-237.5 491.91,-237.5"/>
<text text-anchor="middle" x="517.41" y="-251.8" font-family="Times,serif" font-size="14.00">2:2 &#45; 0:0</text>
</g>
<!-- n16&#45;&gt;x22 -->
<g id="edge55" class="edge">
<title>n16:e&#45;&gt;x22:w</title>
<path fill="none" stroke="black" d="M179.2,-208.5C210.58,-208.5 217.49,-217.16 248.41,-222.5 346.79,-239.5 373.4,-254.47 468.37,-255.45"/>
<polygon fill="black" stroke="black" points="468.39,-258.95 478.41,-255.5 468.43,-251.95 468.39,-258.95"/>
</g>
<!-- x26 -->
<g id="node63" class="node">
<title>x26</title>
<path fill="none" stroke="black" d="M674.41,-138.5C674.41,-138.5 725.41,-138.5 725.41,-138.5 731.41,-138.5 737.41,-144.5 737.41,-150.5 737.41,-150.5 737.41,-162.5 737.41,-162.5 737.41,-168.5 731.41,-174.5 725.41,-174.5 725.41,-174.5 674.41,-174.5 674.41,-174.5 668.41,-174.5 662.41,-168.5 662.41,-162.5 662.41,-162.5 662.41,-150.5 662.41,-150.5 662.41,-144.5 668.41,-138.5 674.41,-138.5"/>
<text text-anchor="middle" x="699.91" y="-152.8" font-family="Times,serif" font-size="14.00">3:3 &#45; 0:0</text>
</g>
<!-- n16&#45;&gt;x26 -->
<g id="edge56" class="edge">
<title>n16:e&#45;&gt;x26:w</title>
<path fill="none" stroke="black" d="M179.2,-208.5C210.58,-208.5 217.36,-199.05 248.41,-194.5 427.83,-168.19 475.87,-156.92 652.26,-156.51"/>
<polygon fill="black" stroke="black" points="652.41,-160.01 662.41,-156.5 652.4,-153.01 652.41,-160.01"/>
</g>
<!-- n17 -->
<g id="node4" class="node">
<title>n17</title>
<polygon fill="none" stroke="black" points="54,-421.04 54,-435.96 38.18,-446.5 15.82,-446.5 0,-435.96 0,-421.04 15.82,-410.5 38.18,-410.5 54,-421.04"/>
<text text-anchor="middle" x="27" y="-424.8" font-family="Times,serif" font-size="14.00">Y</text>
</g>
<!-- x0 -->
<g id="node21" class="node">
<title>x0</title>
<path fill="none" stroke="black" d="M125.7,-707.5C125.7,-707.5 176.7,-707.5 176.7,-707.5 182.7,-707.5 188.7,-713.5 188.7,-719.5 188.7,-719.5 188.7,-731.5 188.7,-731.5 188.7,-737.5 182.7,-743.5 176.7,-743.5 176.7,-743.5 125.7,-743.5 125.7,-743.5 119.7,-743.5 113.7,-737.5 113.7,-731.5 113.7,-731.5 113.7,-719.5 113.7,-719.5 113.7,-713.5 119.7,-707.5 125.7,-707.5"/>
<text text-anchor="middle" x="151.2" y="-721.8" font-family="Times,serif" font-size="14.00">0:0 &#45; 0:0</text>
</g>
<!-- n17&#45;&gt;x0 -->
<g id="edge58" class="edge">
<title>n17:e&#45;&gt;x0:w</title>
<path fill="none" stroke="black" d="M54,-428.5C117.58,-428.5 52.87,-693.9 102.41,-722.93"/>
<polygon fill="black" stroke="black" points="101.64,-726.35 112.2,-725.5 103.42,-719.58 101.64,-726.35"/>
</g>
<!-- x1 -->
<g id="node23" class="node">
<title>x1</title>
<path fill="none" stroke="black" d="M125.7,-410.5C125.7,-410.5 176.7,-410.5 176.7,-410.5 182.7,-410.5 188.7,-416.5 188.7,-422.5 188.7,-422.5 188.7,-434.5 188.7,-434.5 188.7,-440.5 182.7,-446.5 176.7,-446.5 176.7,-446.5 125.7,-446.5 125.7,-446.5 119.7,-446.5 113.7,-440.5 113.7,-434.5 113.7,-434.5 113.7,-422.5 113.7,-422.5 113.7,-416.5 119.7,-410.5 125.7,-410.5"/>
<text text-anchor="middle" x="151.2" y="-424.8" font-family="Times,serif" font-size="14.00">1:1 &#45; 0:0</text>
</g>
<!-- n17&#45;&gt;x1 -->
<g id="edge59" class="edge">
<title>n17:e&#45;&gt;x1:w</title>
<path fill="none" stroke="black" d="M54,-428.5C76.03,-428.5 83.99,-428.5 101.84,-428.5"/>
<polygon fill="black" stroke="black" points="102.2,-432 112.2,-428.5 102.2,-425 102.2,-432"/>
</g>
<!-- x2 -->
<g id="node25" class="node">
<title>x2</title>
<path fill="none" stroke="black" d="M125.7,-488.5C125.7,-488.5 176.7,-488.5 176.7,-488.5 182.7,-488.5 188.7,-494.5 188.7,-500.5 188.7,-500.5 188.7,-512.5 188.7,-512.5 188.7,-518.5 182.7,-524.5 176.7,-524.5 176.7,-524.5 125.7,-524.5 125.7,-524.5 119.7,-524.5 113.7,-518.5 113.7,-512.5 113.7,-512.5 113.7,-500.5 113.7,-500.5 113.7,-494.5 119.7,-488.5 125.7,-488.5"/>
<text text-anchor="middle" x="151.2" y="-502.8" font-family="Times,serif" font-size="14.00">2:2 &#45; 0:0</text>
</g>
<!-- n17&#45;&gt;x2 -->
<g id="edge60" class="edge">
<title>n17:e&#45;&gt;x2:w</title>
<path fill="none" stroke="black" d="M54,-428.5C93.37,-428.5 73.46,-493.11 102.17,-504.72"/>
<polygon fill="black" stroke="black" points="101.75,-508.2 112.2,-506.5 102.97,-501.31 101.75,-508.2"/>
</g>
<!-- x3 -->
<g id="node27" class="node">
<title>x3</title>
<path fill="none" stroke="black" d="M125.7,-124.5C125.7,-124.5 176.7,-124.5 176.7,-124.5 182.7,-124.5 188.7,-130.5 188.7,-136.5 188.7,-136.5 188.7,-148.5 188.7,-148.5 188.7,-154.5 182.7,-160.5 176.7,-160.5 176.7,-160.5 125.7,-160.5 125.7,-160.5 119.7,-160.5 113.7,-154.5 113.7,-148.5 113.7,-148.5 113.7,-136.5 113.7,-136.5 113.7,-130.5 119.7,-124.5 125.7,-124.5"/>
<text text-anchor="middle" x="151.2" y="-138.8" font-family="Times,serif" font-size="14.00">3:3 &#45; 0:0</text>
</g>
<!-- n17&#45;&gt;x3 -->
<g id="edge61" class="edge">
<title>n17:e&#45;&gt;x3:w</title>
<path fill="none" stroke="black" d="M54,-428.5C115.18,-428.5 55.01,-173.98 102.45,-145.15"/>
<polygon fill="black" stroke="black" points="103.47,-148.5 112.2,-142.5 101.64,-141.74 103.47,-148.5"/>
</g>
<!-- x5 -->
<g id="node30" class="node">
<title>x5</title>
<path fill="none" stroke="black" d="M125.7,-26.5C125.7,-26.5 176.7,-26.5 176.7,-26.5 182.7,-26.5 188.7,-32.5 188.7,-38.5 188.7,-38.5 188.7,-50.5 188.7,-50.5 188.7,-56.5 182.7,-62.5 176.7,-62.5 176.7,-62.5 125.7,-62.5 125.7,-62.5 119.7,-62.5 113.7,-56.5 113.7,-50.5 113.7,-50.5 113.7,-38.5 113.7,-38.5 113.7,-32.5 119.7,-26.5 125.7,-26.5"/>
<text text-anchor="middle" x="151.2" y="-40.8" font-family="Times,serif" font-size="14.00">3:3 &#45; 0:0</text>
</g>
<!-- n17&#45;&gt;x5 -->
<g id="edge62" class="edge">
<title>n17:e&#45;&gt;x5:w</title>
<path fill="none" stroke="black" d="M54,-428.5C136.6,-428.5 35.36,-76.79 102.16,-46.57"/>
<polygon fill="black" stroke="black" points="103.11,-49.94 112.2,-44.5 101.7,-43.09 103.11,-49.94"/>
</g>
<!-- n18 -->
<g id="node5" class="node">
<title>n18</title>
<polygon fill="none" stroke="black" points="1371.03,-279.04 1371.03,-293.96 1348.78,-304.5 1317.32,-304.5 1295.07,-293.96 1295.07,-279.04 1317.32,-268.5 1348.78,-268.5 1371.03,-279.04"/>
<text text-anchor="middle" x="1333.05" y="-282.8" font-family="Times,serif" font-size="14.00">carry</text>
</g>
<!-- c32 -->
<g id="node17" class="node">
<title>c32</title>
<polygon fill="none" stroke="black" points="1452.69,-208.5 1452.69,-254.5 1577.69,-254.5 1577.69,-208.5 1452.69,-208.5"/>
<text text-anchor="middle" x="1466.19" y="-239.3" font-family="Times,serif" font-size="14.00">A</text>
<polyline fill="none" stroke="black" points="1452.69,-231.5 1479.69,-231.5 "/>
<text text-anchor="middle" x="1466.19" y="-216.3" font-family="Times,serif" font-size="14.00">B</text>
<polyline fill="none" stroke="black" points="1479.69,-208.5 1479.69,-254.5 "/>
<text text-anchor="middle" x="1515.69" y="-235.3" font-family="Times,serif" font-size="14.00">$114</text>
<text text-anchor="middle" x="1515.69" y="-220.3" font-family="Times,serif" font-size="14.00">$_AND_</text>
<polyline fill="none" stroke="black" points="1551.69,-208.5 1551.69,-254.5 "/>
<text text-anchor="middle" x="1564.69" y="-227.8" font-family="Times,serif" font-size="14.00">Y</text>
</g>
<!-- n18&#45;&gt;c32 -->
<g id="edge64" class="edge">
<title>n18:e&#45;&gt;c32:w</title>
<path fill="none" stroke="black" d="M1372.05,-286.5C1395.47,-286.5 1398.67,-273.46 1416.69,-258.5 1431.73,-246.02 1430.37,-227.47 1442.86,-221.45"/>
<polygon fill="black" stroke="black" points="1443.57,-224.88 1452.69,-219.5 1442.2,-218.02 1443.57,-224.88"/>
</g>
<!-- c40 -->
<g id="node31" class="node">
<title>c40</title>
<polygon fill="none" stroke="black" points="1453.19,-554.5 1453.19,-600.5 1577.19,-600.5 1577.19,-554.5 1453.19,-554.5"/>
<text text-anchor="middle" x="1466.69" y="-585.3" font-family="Times,serif" font-size="14.00">A</text>
<polyline fill="none" stroke="black" points="1453.19,-577.5 1480.19,-577.5 "/>
<text text-anchor="middle" x="1466.69" y="-562.3" font-family="Times,serif" font-size="14.00">B</text>
<polyline fill="none" stroke="black" points="1480.19,-554.5 1480.19,-600.5 "/>
<text text-anchor="middle" x="1515.69" y="-581.3" font-family="Times,serif" font-size="14.00">$99</text>
<text text-anchor="middle" x="1515.69" y="-566.3" font-family="Times,serif" font-size="14.00">$_XOR_</text>
<polyline fill="none" stroke="black" points="1551.19,-554.5 1551.19,-600.5 "/>
<text text-anchor="middle" x="1564.19" y="-573.8" font-family="Times,serif" font-size="14.00">Y</text>
</g>
<!-- n18&#45;&gt;c40 -->
<g id="edge65" class="edge">
<title>n18:e&#45;&gt;c40:w</title>
<path fill="none" stroke="black" d="M1372.05,-286.5C1395.24,-286.5 1403.9,-294.16 1416.69,-313.5 1445.83,-357.55 1402.64,-538.99 1442.8,-562.9"/>
<polygon fill="black" stroke="black" points="1442.13,-566.34 1452.69,-565.5 1443.91,-559.57 1442.13,-566.34"/>
</g>
<!-- c46 -->
<g id="node46" class="node">
<title>c46</title>
<polygon fill="none" stroke="black" points="1453.69,-273.5 1453.69,-311.5 1576.69,-311.5 1576.69,-273.5 1453.69,-273.5"/>
<text text-anchor="middle" x="1466.69" y="-288.8" font-family="Times,serif" font-size="14.00">A</text>
<polyline fill="none" stroke="black" points="1479.69,-273.5 1479.69,-311.5 "/>
<text text-anchor="middle" x="1515.19" y="-296.3" font-family="Times,serif" font-size="14.00">$109</text>
<text text-anchor="middle" x="1515.19" y="-281.3" font-family="Times,serif" font-size="14.00">$_NOT_</text>
<polyline fill="none" stroke="black" points="1550.69,-273.5 1550.69,-311.5 "/>
<text text-anchor="middle" x="1563.69" y="-288.8" font-family="Times,serif" font-size="14.00">Y</text>
</g>
<!-- n18&#45;&gt;c46 -->
<g id="edge66" class="edge">
<title>n18:e&#45;&gt;c46:w</title>
<path fill="none" stroke="black" d="M1372.05,-286.5C1404.34,-286.5 1414.69,-291.34 1442.53,-292.33"/>
<polygon fill="black" stroke="black" points="1442.64,-295.83 1452.69,-292.5 1442.76,-288.83 1442.64,-295.83"/>
</g>
<!-- n18&#45;&gt;x29 -->
<g id="edge67" class="edge">
<title>n18:e&#45;&gt;x29:w</title>
<path fill="none" stroke="black" d="M1372.05,-286.5C1395.24,-286.5 1404.11,-294.02 1416.69,-313.5 1452.78,-369.34 1439.9,-545.26 1452.69,-610.5 1459.55,-645.43 1441.07,-687.01 1465.98,-695.1"/>
<polygon fill="black" stroke="black" points="1465.81,-698.61 1476.19,-696.5 1466.76,-691.67 1465.81,-698.61"/>
</g>
<!-- n19 -->
<g id="node6" class="node">
<title>n19</title>
<polygon fill="none" stroke="black" points="3142.83,-399.5 3099.43,-381.5 3142.83,-363.5 3186.23,-381.5 3142.83,-399.5"/>
<text text-anchor="middle" x="3142.83" y="-377.8" font-family="Times,serif" font-size="14.00">cmp</text>
</g>
<!-- c30 -->
<g id="node15" class="node">
<title>c30</title>
<polygon fill="none" stroke="black" points="3222.03,-343.5 3222.03,-389.5 3347.03,-389.5 3347.03,-343.5 3222.03,-343.5"/>
<text text-anchor="middle" x="3235.53" y="-374.3" font-family="Times,serif" font-size="14.00">A</text>
<polyline fill="none" stroke="black" points="3222.03,-366.5 3249.03,-366.5 "/>
<text text-anchor="middle" x="3235.53" y="-351.3" font-family="Times,serif" font-size="14.00">B</text>
<polyline fill="none" stroke="black" points="3249.03,-343.5 3249.03,-389.5 "/>
<text text-anchor="middle" x="3285.03" y="-370.3" font-family="Times,serif" font-size="14.00">$110</text>
<text text-anchor="middle" x="3285.03" y="-355.3" font-family="Times,serif" font-size="14.00">$_AND_</text>
<polyline fill="none" stroke="black" points="3321.03,-343.5 3321.03,-389.5 "/>
<text text-anchor="middle" x="3334.03" y="-362.8" font-family="Times,serif" font-size="14.00">Y</text>
</g>
<!-- n19&#45;&gt;c30 -->
<g id="edge69" class="edge">
<title>n19:e&#45;&gt;c30:w</title>
<path fill="none" stroke="black" d="M3186.03,-381.5C3198.07,-381.5 3203.27,-379.81 3211.89,-378.97"/>
<polygon fill="black" stroke="black" points="3212.21,-382.46 3222.03,-378.5 3211.88,-375.47 3212.21,-382.46"/>
</g>
<!-- c34 -->
<g id="node19" class="node">
<title>c34</title>
<polygon fill="none" stroke="black" points="3222.03,-273.5 3222.03,-319.5 3347.03,-319.5 3347.03,-273.5 3222.03,-273.5"/>
<text text-anchor="middle" x="3235.53" y="-304.3" font-family="Times,serif" font-size="14.00">A</text>
<polyline fill="none" stroke="black" points="3222.03,-296.5 3249.03,-296.5 "/>
<text text-anchor="middle" x="3235.53" y="-281.3" font-family="Times,serif" font-size="14.00">B</text>
<polyline fill="none" stroke="black" points="3249.03,-273.5 3249.03,-319.5 "/>
<text text-anchor="middle" x="3285.03" y="-300.3" font-family="Times,serif" font-size="14.00">$116</text>
<text text-anchor="middle" x="3285.03" y="-285.3" font-family="Times,serif" font-size="14.00">$_AND_</text>
<polyline fill="none" stroke="black" points="3321.03,-273.5 3321.03,-319.5 "/>
<text text-anchor="middle" x="3334.03" y="-292.8" font-family="Times,serif" font-size="14.00">Y</text>
</g>
<!-- n19&#45;&gt;c34 -->
<g id="edge70" class="edge">
<title>n19:e&#45;&gt;c34:w</title>
<path fill="none" stroke="black" d="M3186.03,-381.5C3218.11,-381.5 3193.16,-324.1 3212.32,-311.1"/>
<polygon fill="black" stroke="black" points="3213.28,-314.47 3222.03,-308.5 3211.47,-307.7 3213.28,-314.47"/>
</g>
<!-- n20 -->
<g id="node7" class="node">
<title>n20</title>
<polygon fill="none" stroke="black" points="2743.63,-701.04 2743.63,-715.96 2727.82,-726.5 2705.45,-726.5 2689.63,-715.96 2689.63,-701.04 2705.45,-690.5 2727.82,-690.5 2743.63,-701.04"/>
<text text-anchor="middle" x="2716.63" y="-704.8" font-family="Times,serif" font-size="14.00">eq</text>
</g>
<!-- c45 -->
<g id="node45" class="node">
<title>c45</title>
<polygon fill="none" stroke="black" points="2779.63,-689.5 2779.63,-727.5 2902.63,-727.5 2902.63,-689.5 2779.63,-689.5"/>
<text text-anchor="middle" x="2792.63" y="-704.8" font-family="Times,serif" font-size="14.00">A</text>
<polyline fill="none" stroke="black" points="2805.63,-689.5 2805.63,-727.5 "/>
<text text-anchor="middle" x="2841.13" y="-712.3" font-family="Times,serif" font-size="14.00">$107</text>
<text text-anchor="middle" x="2841.13" y="-697.3" font-family="Times,serif" font-size="14.00">$_NOT_</text>
<polyline fill="none" stroke="black" points="2876.63,-689.5 2876.63,-727.5 "/>
<text text-anchor="middle" x="2889.63" y="-704.8" font-family="Times,serif" font-size="14.00">Y</text>
</g>
<!-- n20&#45;&gt;c45 -->
<g id="edge73" class="edge">
<title>n20:e&#45;&gt;c45:w</title>
<path fill="none" stroke="black" d="M2743.63,-708.5C2755.63,-708.5 2760.88,-708.5 2769.51,-708.5"/>
<polygon fill="black" stroke="black" points="2769.63,-712 2779.63,-708.5 2769.63,-705 2769.63,-712"/>
</g>
<!-- n21 -->
<g id="node8" class="node">
<title>n21</title>
<polygon fill="none" stroke="black" points="3437.03,-289.04 3437.03,-303.96 3421.22,-314.5 3398.85,-314.5 3383.03,-303.96 3383.03,-289.04 3398.85,-278.5 3421.22,-278.5 3437.03,-289.04"/>
<text text-anchor="middle" x="3410.03" y="-292.8" font-family="Times,serif" font-size="14.00">lt</text>
</g>
<!-- n22 -->
<g id="node9" class="node">
<title>n22</title>
<polygon fill="none" stroke="black" points="3437.03,-359.04 3437.03,-373.96 3421.22,-384.5 3398.85,-384.5 3383.03,-373.96 3383.03,-359.04 3398.85,-348.5 3421.22,-348.5 3437.03,-359.04"/>
<text text-anchor="middle" x="3410.03" y="-362.8" font-family="Times,serif" font-size="14.00">ltu</text>
</g>
<!-- n23 -->
<g id="node10" class="node">
<title>n23</title>
<polygon fill="none" stroke="black" points="1722.2,-589.04 1722.2,-603.96 1690.37,-614.5 1645.36,-614.5 1613.52,-603.96 1613.52,-589.04 1645.36,-578.5 1690.37,-578.5 1722.2,-589.04"/>
<text text-anchor="middle" x="1667.86" y="-592.8" font-family="Times,serif" font-size="14.00">overflow</text>
</g>
<!-- n24 -->
<g id="node11" class="node">
<title>n24</title>
<polygon fill="none" stroke="black" points="1333.05,-188.5 1249.26,-170.5 1333.05,-152.5 1416.84,-170.5 1333.05,-188.5"/>
<text text-anchor="middle" x="1333.05" y="-166.8" font-family="Times,serif" font-size="14.00">same_sign</text>
</g>
<!-- n24&#45;&gt;c32 -->
<g id="edge78" class="edge">
<title>n24:e&#45;&gt;c32:w</title>
<path fill="none" stroke="black" d="M1416.69,-170.5C1448.77,-170.5 1423.82,-227.9 1442.98,-240.9"/>
<polygon fill="black" stroke="black" points="1442.13,-244.3 1452.69,-243.5 1443.94,-237.53 1442.13,-244.3"/>
</g>
<!-- c47 -->
<g id="node47" class="node">
<title>c47</title>
<polygon fill="none" stroke="black" points="1453.69,-151.5 1453.69,-189.5 1576.69,-189.5 1576.69,-151.5 1453.69,-151.5"/>
<text text-anchor="middle" x="1466.69" y="-166.8" font-family="Times,serif" font-size="14.00">A</text>
<polyline fill="none" stroke="black" points="1479.69,-151.5 1479.69,-189.5 "/>
<text text-anchor="middle" x="1515.19" y="-174.3" font-family="Times,serif" font-size="14.00">$111</text>
<text text-anchor="middle" x="1515.19" y="-159.3" font-family="Times,serif" font-size="14.00">$_NOT_</text>
<polyline fill="none" stroke="black" points="1550.69,-151.5 1550.69,-189.5 "/>
<text text-anchor="middle" x="1563.69" y="-166.8" font-family="Times,serif" font-size="14.00">Y</text>
</g>
<!-- n24&#45;&gt;c47 -->
<g id="edge79" class="edge">
<title>n24:e&#45;&gt;c47:w</title>
<path fill="none" stroke="black" d="M1416.69,-170.5C1428.69,-170.5 1433.94,-170.5 1442.57,-170.5"/>
<polygon fill="black" stroke="black" points="1442.69,-174 1452.69,-170.5 1442.69,-167 1442.69,-174"/>
</g>
<!-- n25 -->
<g id="node12" class="node">
<title>n25</title>
<polygon fill="none" stroke="black" points="1548.32,-434.04 1548.32,-448.96 1528.92,-459.5 1501.47,-459.5 1482.07,-448.96 1482.07,-434.04 1501.47,-423.5 1528.92,-423.5 1548.32,-434.04"/>
<text text-anchor="middle" x="1515.19" y="-437.8" font-family="Times,serif" font-size="14.00">sum</text>
</g>
<!-- x7 -->
<g id="node34" class="node">
<title>x7</title>
<path fill="none" stroke="black" d="M1642.36,-413.5C1642.36,-413.5 1693.36,-413.5 1693.36,-413.5 1699.36,-413.5 1705.36,-419.5 1705.36,-425.5 1705.36,-425.5 1705.36,-437.5 1705.36,-437.5 1705.36,-443.5 1699.36,-449.5 1693.36,-449.5 1693.36,-449.5 1642.36,-449.5 1642.36,-449.5 1636.36,-449.5 1630.36,-443.5 1630.36,-437.5 1630.36,-437.5 1630.36,-425.5 1630.36,-425.5 1630.36,-419.5 1636.36,-413.5 1642.36,-413.5"/>
<text text-anchor="middle" x="1667.86" y="-427.8" font-family="Times,serif" font-size="14.00">0:0 &#45; 0:0</text>
</g>
<!-- n25&#45;&gt;x7 -->
<g id="edge86" class="edge">
<title>n25:e&#45;&gt;x7:w</title>
<path fill="none" stroke="black" d="M1549.19,-441.5C1581.26,-441.5 1591.21,-433.43 1618.78,-431.79"/>
<polygon fill="black" stroke="black" points="1618.97,-435.28 1628.86,-431.5 1618.77,-428.29 1618.97,-435.28"/>
</g>
<!-- x8 -->
<g id="node35" class="node">
<title>x8</title>
<path fill="none" stroke="black" d="M1642.36,-358.5C1642.36,-358.5 1693.36,-358.5 1693.36,-358.5 1699.36,-358.5 1705.36,-364.5 1705.36,-370.5 1705.36,-370.5 1705.36,-382.5 1705.36,-382.5 1705.36,-388.5 1699.36,-394.5 1693.36,-394.5 1693.36,-394.5 1642.36,-394.5 1642.36,-394.5 1636.36,-394.5 1630.36,-388.5 1630.36,-382.5 1630.36,-382.5 1630.36,-370.5 1630.36,-370.5 1630.36,-364.5 1636.36,-358.5 1642.36,-358.5"/>
<text text-anchor="middle" x="1667.86" y="-372.8" font-family="Times,serif" font-size="14.00">1:1 &#45; 0:0</text>
</g>
<!-- n25&#45;&gt;x8 -->
<g id="edge87" class="edge">
<title>n25:e&#45;&gt;x8:w</title>
<path fill="none" stroke="black" d="M1549.19,-441.5C1591.14,-441.5 1584.7,-386.73 1618.71,-377.74"/>
<polygon fill="black" stroke="black" points="1619.36,-381.19 1628.86,-376.5 1618.51,-374.24 1619.36,-381.19"/>
</g>
<!-- x10 -->
<g id="node38" class="node">
<title>x10</title>
<path fill="none" stroke="black" d="M1642.36,-523.5C1642.36,-523.5 1693.36,-523.5 1693.36,-523.5 1699.36,-523.5 1705.36,-529.5 1705.36,-535.5 1705.36,-535.5 1705.36,-547.5 1705.36,-547.5 1705.36,-553.5 1699.36,-559.5 1693.36,-559.5 1693.36,-559.5 1642.36,-559.5 1642.36,-559.5 1636.36,-559.5 1630.36,-553.5 1630.36,-547.5 1630.36,-547.5 1630.36,-535.5 1630.36,-535.5 1630.36,-529.5 1636.36,-523.5 1642.36,-523.5"/>
<text text-anchor="middle" x="1667.86" y="-537.8" font-family="Times,serif" font-size="14.00">2:2 &#45; 0:0</text>
</g>
<!-- n25&#45;&gt;x10 -->
<g id="edge84" class="edge">
<title>n25:e&#45;&gt;x10:w</title>
<path fill="none" stroke="black" d="M1549.19,-441.5C1602.25,-441.5 1576.15,-528.66 1618.69,-540.24"/>
<polygon fill="black" stroke="black" points="1618.51,-543.74 1628.86,-541.5 1619.37,-536.79 1618.51,-543.74"/>
</g>
<!-- x11 -->
<g id="node39" class="node">
<title>x11</title>
<path fill="none" stroke="black" d="M1642.36,-468.5C1642.36,-468.5 1693.36,-468.5 1693.36,-468.5 1699.36,-468.5 1705.36,-474.5 1705.36,-480.5 1705.36,-480.5 1705.36,-492.5 1705.36,-492.5 1705.36,-498.5 1699.36,-504.5 1693.36,-504.5 1693.36,-504.5 1642.36,-504.5 1642.36,-504.5 1636.36,-504.5 1630.36,-498.5 1630.36,-492.5 1630.36,-492.5 1630.36,-480.5 1630.36,-480.5 1630.36,-474.5 1636.36,-468.5 1642.36,-468.5"/>
<text text-anchor="middle" x="1667.86" y="-482.8" font-family="Times,serif" font-size="14.00">3:3 &#45; 0:0</text>
</g>
<!-- n25&#45;&gt;x11 -->
<g id="edge85" class="edge">
<title>n25:e&#45;&gt;x11:w</title>
<path fill="none" stroke="black" d="M1549.19,-441.5C1586.21,-441.5 1588.15,-478.78 1618.87,-485.48"/>
<polygon fill="black" stroke="black" points="1618.56,-488.96 1628.86,-486.5 1619.27,-482 1618.56,-488.96"/>
</g>
<!-- c28&#45;&gt;n20 -->
<g id="edge72" class="edge">
<title>c28:e&#45;&gt;n20:w</title>
<path fill="none" stroke="black" d="M2653.63,-708.5C2665.63,-708.5 2670.88,-708.5 2679.51,-708.5"/>
<polygon fill="black" stroke="black" points="2679.63,-712 2689.63,-708.5 2679.63,-705 2679.63,-712"/>
</g>
<!-- c29&#45;&gt;n19 -->
<g id="edge68" class="edge">
<title>c29:e&#45;&gt;n19:w</title>
<path fill="none" stroke="black" d="M3063.63,-720.5C3211.45,-720.5 2960.91,-397.85 3089.27,-382.1"/>
<polygon fill="black" stroke="black" points="3089.85,-385.57 3099.63,-381.5 3089.45,-378.58 3089.85,-385.57"/>
</g>
<!-- c30&#45;&gt;n22 -->
<g id="edge75" class="edge">
<title>c30:e&#45;&gt;n22:w</title>
<path fill="none" stroke="black" d="M3347.03,-366.5C3359.03,-366.5 3364.28,-366.5 3372.91,-366.5"/>
<polygon fill="black" stroke="black" points="3373.03,-370 3383.03,-366.5 3373.03,-363 3373.03,-370"/>
</g>
<!-- c31 -->
<g id="node16" class="node">
<title>c31</title>
<polygon fill="none" stroke="black" points="1758.03,-260.5 1758.03,-306.5 1883.03,-306.5 1883.03,-260.5 1758.03,-260.5"/>
<text text-anchor="middle" x="1771.53" y="-291.3" font-family="Times,serif" font-size="14.00">A</text>
<polyline fill="none" stroke="black" points="1758.03,-283.5 1785.03,-283.5 "/>
<text text-anchor="middle" x="1771.53" y="-268.3" font-family="Times,serif" font-size="14.00">B</text>
<polyline fill="none" stroke="black" points="1785.03,-260.5 1785.03,-306.5 "/>
<text text-anchor="middle" x="1821.03" y="-287.3" font-family="Times,serif" font-size="14.00">$113</text>
<text text-anchor="middle" x="1821.03" y="-272.3" font-family="Times,serif" font-size="14.00">$_AND_</text>
<polyline fill="none" stroke="black" points="1857.03,-260.5 1857.03,-306.5 "/>
<text text-anchor="middle" x="1870.03" y="-279.8" font-family="Times,serif" font-size="14.00">Y</text>
</g>
<!-- c33 -->
<g id="node18" class="node">
<title>c33</title>
<polygon fill="none" stroke="black" points="1919.03,-248.5 1919.03,-294.5 2033.03,-294.5 2033.03,-248.5 1919.03,-248.5"/>
<text text-anchor="middle" x="1932.53" y="-279.3" font-family="Times,serif" font-size="14.00">A</text>
<polyline fill="none" stroke="black" points="1919.03,-271.5 1946.03,-271.5 "/>
<text text-anchor="middle" x="1932.53" y="-256.3" font-family="Times,serif" font-size="14.00">B</text>
<polyline fill="none" stroke="black" points="1946.03,-248.5 1946.03,-294.5 "/>
<text text-anchor="middle" x="1976.53" y="-275.3" font-family="Times,serif" font-size="14.00">$115</text>
<text text-anchor="middle" x="1976.53" y="-260.3" font-family="Times,serif" font-size="14.00">$_OR_</text>
<polyline fill="none" stroke="black" points="2007.03,-248.5 2007.03,-294.5 "/>
<text text-anchor="middle" x="2020.03" y="-267.8" font-family="Times,serif" font-size="14.00">Y</text>
</g>
<!-- c31&#45;&gt;c33 -->
<g id="edge31" class="edge">
<title>c31:e&#45;&gt;c33:w</title>
<path fill="none" stroke="black" d="M1883.03,-283.5C1895.03,-283.5 1900.28,-283.5 1908.91,-283.5"/>
<polygon fill="black" stroke="black" points="1909.03,-287 1919.03,-283.5 1909.03,-280 1909.03,-287"/>
</g>
<!-- c32&#45;&gt;c33 -->
<g id="edge71" class="edge">
<title>c32:e&#45;&gt;c33:w</title>
<path fill="none" stroke="black" d="M1577.69,-231.5C1713.66,-231.5 1748.66,-229.7 1883.03,-250.5 1895.38,-252.41 1900.22,-256.59 1909.01,-258.51"/>
<polygon fill="black" stroke="black" points="1908.74,-262 1919.03,-259.5 1909.43,-255.03 1908.74,-262"/>
</g>
<!-- c33&#45;&gt;c34 -->
<g id="edge98" class="edge">
<title>c33:e&#45;&gt;c34:w</title>
<path fill="none" stroke="black" d="M2033.03,-271.5C2082.87,-271.5 2095.29,-274.5 2145.13,-274.5 2145.13,-274.5 2145.13,-274.5 3002.13,-274.5 3096.53,-274.5 3122.4,-283.81 3211.98,-284.46"/>
<polygon fill="black" stroke="black" points="3212.02,-287.96 3222.03,-284.5 3212.05,-280.96 3212.02,-287.96"/>
</g>
<!-- c34&#45;&gt;n21 -->
<g id="edge74" class="edge">
<title>c34:e&#45;&gt;n21:w</title>
<path fill="none" stroke="black" d="M3347.03,-296.5C3359.03,-296.5 3364.28,-296.5 3372.91,-296.5"/>
<polygon fill="black" stroke="black" points="3373.03,-300 3383.03,-296.5 3373.03,-293 3373.03,-300"/>
</g>
<!-- c35&#45;&gt;c51 -->
<g id="edge32" class="edge">
<title>c35:e&#45;&gt;c51:w</title>
<path fill="none" stroke="black" d="M372.41,-725.5C401.99,-725.5 381.48,-674.2 398.54,-661.38"/>
<polygon fill="black" stroke="black" points="399.79,-664.66 408.41,-658.5 397.83,-657.94 399.79,-664.66"/>
</g>
<!-- x0&#45;&gt;c35 -->
<g id="edge1" class="edge">
<title>x0:e&#45;&gt;c35:w</title>
<path fill="none" stroke="black" d="M202.17,-726.44C215.52,-728.67 222.97,-734.27 236.27,-736.53"/>
<polygon fill="none" stroke="black" points="202.17,-726.44 195.87,-729.96 190.2,-725.5 196.5,-721.98 202.17,-726.44"/>
<polygon fill="none" stroke="black" points="236.45,-736.54 242.75,-733.03 248.41,-737.5 242.11,-741.01 236.45,-736.54"/>
</g>
<!-- c52 -->
<g id="node52" class="node">
<title>c52</title>
<polygon fill="none" stroke="black" points="995.41,-308 995.41,-377 1213.41,-377 1213.41,-308 995.41,-308"/>
<text text-anchor="middle" x="1014.41" y="-361.8" font-family="Times,serif" font-size="14.00">a</text>
<polyline fill="none" stroke="black" points="995.41,-354 1033.41,-354 "/>
<text text-anchor="middle" x="1014.41" y="-338.8" font-family="Times,serif" font-size="14.00">b</text>
<polyline fill="none" stroke="black" points="995.41,-331 1033.41,-331 "/>
<text text-anchor="middle" x="1014.41" y="-315.8" font-family="Times,serif" font-size="14.00">cin</text>
<polyline fill="none" stroke="black" points="1033.41,-308 1033.41,-377 "/>
<text text-anchor="middle" x="1096.41" y="-346.3" font-family="Times,serif" font-size="14.00">genblk1[1].fa_k</text>
<text text-anchor="middle" x="1096.41" y="-331.3" font-family="Times,serif" font-size="14.00">full_adder</text>
<polyline fill="none" stroke="black" points="1159.41,-308 1159.41,-377 "/>
<text text-anchor="middle" x="1186.41" y="-356.3" font-family="Times,serif" font-size="14.00">carry</text>
<polyline fill="none" stroke="black" points="1159.41,-343 1213.41,-343 "/>
<text text-anchor="middle" x="1186.41" y="-321.8" font-family="Times,serif" font-size="14.00">sum</text>
</g>
<!-- c36&#45;&gt;c52 -->
<g id="edge33" class="edge">
<title>c36:e&#45;&gt;c52:w</title>
<path fill="none" stroke="black" d="M372.41,-416.5C608.43,-416.5 650.51,-307.12 884.41,-275.5 917.44,-271.03 930.8,-258.39 959.41,-275.5 984.91,-290.75 967.28,-330.95 985.59,-340.46"/>
<polygon fill="black" stroke="black" points="984.9,-343.89 995.41,-342.5 986.33,-337.04 984.9,-343.89"/>
</g>
<!-- x1&#45;&gt;c36 -->
<g id="edge2" class="edge">
<title>x1:e&#45;&gt;c36:w</title>
<path fill="none" stroke="black" d="M202.49,-428.5C215.41,-428.5 223.22,-428.5 236.13,-428.5"/>
<polygon fill="none" stroke="black" points="202.2,-428.5 196.2,-432.5 190.2,-428.5 196.2,-424.5 202.2,-428.5"/>
<polygon fill="none" stroke="black" points="236.41,-428.5 242.41,-424.5 248.41,-428.5 242.41,-432.5 236.41,-428.5"/>
</g>
<!-- c53 -->
<g id="node57" class="node">
<title>c53</title>
<polygon fill="none" stroke="black" points="995.41,-434 995.41,-503 1213.41,-503 1213.41,-434 995.41,-434"/>
<text text-anchor="middle" x="1014.41" y="-487.8" font-family="Times,serif" font-size="14.00">a</text>
<polyline fill="none" stroke="black" points="995.41,-480 1033.41,-480 "/>
<text text-anchor="middle" x="1014.41" y="-464.8" font-family="Times,serif" font-size="14.00">b</text>
<polyline fill="none" stroke="black" points="995.41,-457 1033.41,-457 "/>
<text text-anchor="middle" x="1014.41" y="-441.8" font-family="Times,serif" font-size="14.00">cin</text>
<polyline fill="none" stroke="black" points="1033.41,-434 1033.41,-503 "/>
<text text-anchor="middle" x="1096.41" y="-472.3" font-family="Times,serif" font-size="14.00">genblk1[2].fa_k</text>
<text text-anchor="middle" x="1096.41" y="-457.3" font-family="Times,serif" font-size="14.00">full_adder</text>
<polyline fill="none" stroke="black" points="1159.41,-434 1159.41,-503 "/>
<text text-anchor="middle" x="1186.41" y="-482.3" font-family="Times,serif" font-size="14.00">carry</text>
<polyline fill="none" stroke="black" points="1159.41,-469 1213.41,-469 "/>
<text text-anchor="middle" x="1186.41" y="-447.8" font-family="Times,serif" font-size="14.00">sum</text>
</g>
<!-- c37&#45;&gt;c53 -->
<g id="edge34" class="edge">
<title>c37:e&#45;&gt;c53:w</title>
<path fill="none" stroke="black" d="M372.41,-499.5C517.52,-499.5 553.8,-499.5 698.91,-499.5 698.91,-499.5 698.91,-499.5 811.91,-499.5 878,-499.5 894.98,-495.24 959.41,-480.5 971.87,-477.65 976.43,-472.23 985.25,-469.77"/>
<polygon fill="black" stroke="black" points="985.92,-473.21 995.41,-468.5 985.05,-466.27 985.92,-473.21"/>
</g>
<!-- x2&#45;&gt;c37 -->
<g id="edge3" class="edge">
<title>x2:e&#45;&gt;c37:w</title>
<path fill="none" stroke="black" d="M202.52,-506.93C215.44,-507.87 223.18,-510.13 236.1,-511.07"/>
<polygon fill="none" stroke="black" points="202.2,-506.92 196.06,-510.71 190.2,-506.5 196.34,-502.71 202.2,-506.92"/>
<polygon fill="none" stroke="black" points="236.41,-511.09 242.55,-507.3 248.41,-511.5 242.27,-515.29 236.41,-511.09"/>
</g>
<!-- c54 -->
<g id="node62" class="node">
<title>c54</title>
<polygon fill="none" stroke="black" points="995.41,-214 995.41,-283 1213.41,-283 1213.41,-214 995.41,-214"/>
<text text-anchor="middle" x="1014.41" y="-267.8" font-family="Times,serif" font-size="14.00">a</text>
<polyline fill="none" stroke="black" points="995.41,-260 1033.41,-260 "/>
<text text-anchor="middle" x="1014.41" y="-244.8" font-family="Times,serif" font-size="14.00">b</text>
<polyline fill="none" stroke="black" points="995.41,-237 1033.41,-237 "/>
<text text-anchor="middle" x="1014.41" y="-221.8" font-family="Times,serif" font-size="14.00">cin</text>
<polyline fill="none" stroke="black" points="1033.41,-214 1033.41,-283 "/>
<text text-anchor="middle" x="1096.41" y="-252.3" font-family="Times,serif" font-size="14.00">genblk1[3].fa_k</text>
<text text-anchor="middle" x="1096.41" y="-237.3" font-family="Times,serif" font-size="14.00">full_adder</text>
<polyline fill="none" stroke="black" points="1159.41,-214 1159.41,-283 "/>
<text text-anchor="middle" x="1186.41" y="-262.3" font-family="Times,serif" font-size="14.00">carry</text>
<polyline fill="none" stroke="black" points="1159.41,-249 1213.41,-249 "/>
<text text-anchor="middle" x="1186.41" y="-227.8" font-family="Times,serif" font-size="14.00">sum</text>
</g>
<!-- c38&#45;&gt;c54 -->
<g id="edge35" class="edge">
<title>c38:e&#45;&gt;c54:w</title>
<path fill="none" stroke="black" d="M372.41,-118.5C517.65,-118.5 553.66,-104.5 698.91,-104.5 698.91,-104.5 698.91,-104.5 811.91,-104.5 880.19,-104.5 909.73,-100.65 959.41,-147.5 991.24,-177.51 954.81,-237.53 985.48,-247.18"/>
<polygon fill="black" stroke="black" points="985.03,-250.65 995.41,-248.5 985.96,-243.71 985.03,-250.65"/>
</g>
<!-- x3&#45;&gt;c38 -->
<g id="edge4" class="edge">
<title>x3:e&#45;&gt;c38:w</title>
<path fill="none" stroke="black" d="M202.17,-141.56C215.52,-139.33 222.97,-133.73 236.27,-131.47"/>
<polygon fill="none" stroke="black" points="202.17,-141.56 196.5,-146.02 190.2,-142.5 195.87,-138.04 202.17,-141.56"/>
<polygon fill="none" stroke="black" points="236.45,-131.46 242.11,-126.99 248.41,-130.5 242.75,-134.97 236.45,-131.46"/>
</g>
<!-- c39 -->
<g id="node28" class="node">
<title>c39</title>
<polygon fill="none" stroke="black" points="455.41,-23.5 455.41,-69.5 579.41,-69.5 579.41,-23.5 455.41,-23.5"/>
<text text-anchor="middle" x="468.91" y="-54.3" font-family="Times,serif" font-size="14.00">A</text>
<polyline fill="none" stroke="black" points="455.41,-46.5 482.41,-46.5 "/>
<text text-anchor="middle" x="468.91" y="-31.3" font-family="Times,serif" font-size="14.00">B</text>
<polyline fill="none" stroke="black" points="482.41,-23.5 482.41,-69.5 "/>
<text text-anchor="middle" x="517.91" y="-50.3" font-family="Times,serif" font-size="14.00">$98</text>
<text text-anchor="middle" x="517.91" y="-35.3" font-family="Times,serif" font-size="14.00">$_XOR_</text>
<polyline fill="none" stroke="black" points="553.41,-23.5 553.41,-69.5 "/>
<text text-anchor="middle" x="566.41" y="-42.8" font-family="Times,serif" font-size="14.00">Y</text>
</g>
<!-- c39&#45;&gt;n24 -->
<g id="edge77" class="edge">
<title>c39:e&#45;&gt;n24:w</title>
<path fill="none" stroke="black" d="M580.41,-46.5C682.52,-46.5 707.79,-57.5 809.91,-57.5 809.91,-57.5 809.91,-57.5 922.91,-57.5 1073.01,-57.5 1094.91,-165.48 1239.26,-170.33"/>
<polygon fill="black" stroke="black" points="1239.35,-173.83 1249.41,-170.5 1239.47,-166.83 1239.35,-173.83"/>
</g>
<!-- x4&#45;&gt;c39 -->
<g id="edge5" class="edge">
<title>x4:e&#45;&gt;c39:w</title>
<path fill="none" stroke="black" d="M361.67,-58.5C394.82,-58.5 409.12,-58.5 442.36,-58.5"/>
<polygon fill="none" stroke="black" points="361.41,-58.5 355.41,-62.5 349.41,-58.5 355.41,-54.5 361.41,-58.5"/>
<polygon fill="none" stroke="black" points="442.41,-58.5 448.41,-54.5 454.41,-58.5 448.41,-62.5 442.41,-58.5"/>
</g>
<!-- x5&#45;&gt;c39 -->
<g id="edge6" class="edge">
<title>x5:e&#45;&gt;c39:w</title>
<path fill="none" stroke="black" d="M202.24,-43.63C219.22,-40.99 226.53,-33.09 248.41,-30.5 335.17,-20.21 360.54,-33.2 442.22,-34.41"/>
<polygon fill="none" stroke="black" points="202.17,-43.64 196.48,-48.06 190.2,-44.5 195.9,-40.08 202.17,-43.64"/>
<polygon fill="none" stroke="black" points="442.41,-34.41 448.44,-30.46 454.41,-34.5 448.38,-38.46 442.41,-34.41"/>
</g>
<!-- c40&#45;&gt;n23 -->
<g id="edge76" class="edge">
<title>c40:e&#45;&gt;n23:w</title>
<path fill="none" stroke="black" d="M1577.69,-577.5C1591.69,-577.5 1594.75,-588.87 1603.79,-594.02"/>
<polygon fill="black" stroke="black" points="1603.14,-597.46 1613.69,-596.5 1604.85,-590.67 1603.14,-597.46"/>
</g>
<!-- x6&#45;&gt;c40 -->
<g id="edge7" class="edge">
<title>x6:e&#45;&gt;c40:w</title>
<path fill="none" stroke="black" d="M1155.62,-578.53C1279.14,-579.14 1316.96,-588.86 1440.47,-589.47"/>
<polygon fill="none" stroke="black" points="1155.41,-578.53 1149.4,-582.51 1143.41,-578.5 1149.42,-574.51 1155.41,-578.53"/>
<polygon fill="none" stroke="black" points="1440.69,-589.47 1446.7,-585.49 1452.69,-589.5 1446.68,-593.49 1440.69,-589.47"/>
</g>
<!-- c41 -->
<g id="node33" class="node">
<title>c41</title>
<polygon fill="none" stroke="black" points="1763.53,-396.5 1763.53,-442.5 1877.53,-442.5 1877.53,-396.5 1763.53,-396.5"/>
<text text-anchor="middle" x="1777.03" y="-427.3" font-family="Times,serif" font-size="14.00">A</text>
<polyline fill="none" stroke="black" points="1763.53,-419.5 1790.53,-419.5 "/>
<text text-anchor="middle" x="1777.03" y="-404.3" font-family="Times,serif" font-size="14.00">B</text>
<polyline fill="none" stroke="black" points="1790.53,-396.5 1790.53,-442.5 "/>
<text text-anchor="middle" x="1821.03" y="-423.3" font-family="Times,serif" font-size="14.00">$101</text>
<text text-anchor="middle" x="1821.03" y="-408.3" font-family="Times,serif" font-size="14.00">$_OR_</text>
<polyline fill="none" stroke="black" points="1851.53,-396.5 1851.53,-442.5 "/>
<text text-anchor="middle" x="1864.53" y="-415.8" font-family="Times,serif" font-size="14.00">Y</text>
</g>
<!-- x9 -->
<g id="node36" class="node">
<title>x9</title>
<path fill="none" stroke="black" d="M1950.53,-420.5C1950.53,-420.5 2001.53,-420.5 2001.53,-420.5 2007.53,-420.5 2013.53,-426.5 2013.53,-432.5 2013.53,-432.5 2013.53,-444.5 2013.53,-444.5 2013.53,-450.5 2007.53,-456.5 2001.53,-456.5 2001.53,-456.5 1950.53,-456.5 1950.53,-456.5 1944.53,-456.5 1938.53,-450.5 1938.53,-444.5 1938.53,-444.5 1938.53,-432.5 1938.53,-432.5 1938.53,-426.5 1944.53,-420.5 1950.53,-420.5"/>
<text text-anchor="middle" x="1976.03" y="-434.8" font-family="Times,serif" font-size="14.00">0:0 &#45; 0:0</text>
</g>
<!-- c41&#45;&gt;x9 -->
<g id="edge10" class="edge">
<title>c41:e&#45;&gt;x9:w</title>
<path fill="none" stroke="black" d="M1890.78,-420.99C1904.41,-424.56 1911.31,-433.56 1925.01,-437.07"/>
<polygon fill="none" stroke="black" points="1890.44,-420.95 1884,-424.2 1878.53,-419.5 1884.97,-416.25 1890.44,-420.95"/>
<polygon fill="none" stroke="black" points="1925.12,-437.08 1931.55,-433.82 1937.03,-438.5 1930.6,-441.76 1925.12,-437.08"/>
</g>
<!-- x7&#45;&gt;c41 -->
<g id="edge8" class="edge">
<title>x7:e&#45;&gt;c41:w</title>
<path fill="none" stroke="black" d="M1719.07,-431.5C1731.06,-431.5 1738.48,-431.5 1750.52,-431.5"/>
<polygon fill="none" stroke="black" points="1718.86,-431.5 1712.86,-435.5 1706.86,-431.5 1712.86,-427.5 1718.86,-431.5"/>
<polygon fill="none" stroke="black" points="1750.53,-431.5 1756.53,-427.5 1762.53,-431.5 1756.53,-435.5 1750.53,-431.5"/>
</g>
<!-- x8&#45;&gt;c41 -->
<g id="edge9" class="edge">
<title>x8:e&#45;&gt;c41:w</title>
<path fill="none" stroke="black" d="M1718.7,-378.73C1732.21,-384.39 1736.99,-399.3 1750.35,-405.12"/>
<polygon fill="none" stroke="black" points="1718.66,-378.72 1712.02,-381.54 1706.86,-376.5 1713.5,-373.68 1718.66,-378.72"/>
<polygon fill="none" stroke="black" points="1750.75,-405.2 1757.41,-402.42 1762.53,-407.5 1755.88,-410.28 1750.75,-405.2"/>
</g>
<!-- n3 -->
<g id="node68" class="node">
<title>n3</title>
<ellipse fill="black" stroke="black" cx="2070.83" cy="-513.5" rx="1.8" ry="1.8"/>
</g>
<!-- x9&#45;&gt;n3 -->
<g id="edge89" class="edge">
<title>x9:e&#45;&gt;n3:w</title>
<path fill="none" stroke="black" d="M2015.03,-438.5C2052.26,-438.5 2032.63,-500.1 2059.19,-511.65"/>
<polygon fill="black" stroke="black" points="2058.56,-515.09 2069.03,-513.5 2059.85,-508.21 2058.56,-515.09"/>
</g>
<!-- c42 -->
<g id="node37" class="node">
<title>c42</title>
<polygon fill="none" stroke="black" points="1763.53,-490.5 1763.53,-536.5 1877.53,-536.5 1877.53,-490.5 1763.53,-490.5"/>
<text text-anchor="middle" x="1777.03" y="-521.3" font-family="Times,serif" font-size="14.00">A</text>
<polyline fill="none" stroke="black" points="1763.53,-513.5 1790.53,-513.5 "/>
<text text-anchor="middle" x="1777.03" y="-498.3" font-family="Times,serif" font-size="14.00">B</text>
<polyline fill="none" stroke="black" points="1790.53,-490.5 1790.53,-536.5 "/>
<text text-anchor="middle" x="1821.03" y="-517.3" font-family="Times,serif" font-size="14.00">$102</text>
<text text-anchor="middle" x="1821.03" y="-502.3" font-family="Times,serif" font-size="14.00">$_OR_</text>
<polyline fill="none" stroke="black" points="1851.53,-490.5 1851.53,-536.5 "/>
<text text-anchor="middle" x="1864.53" y="-509.8" font-family="Times,serif" font-size="14.00">Y</text>
</g>
<!-- x12 -->
<g id="node40" class="node">
<title>x12</title>
<path fill="none" stroke="black" d="M1950.53,-495.5C1950.53,-495.5 2001.53,-495.5 2001.53,-495.5 2007.53,-495.5 2013.53,-501.5 2013.53,-507.5 2013.53,-507.5 2013.53,-519.5 2013.53,-519.5 2013.53,-525.5 2007.53,-531.5 2001.53,-531.5 2001.53,-531.5 1950.53,-531.5 1950.53,-531.5 1944.53,-531.5 1938.53,-525.5 1938.53,-519.5 1938.53,-519.5 1938.53,-507.5 1938.53,-507.5 1938.53,-501.5 1944.53,-495.5 1950.53,-495.5"/>
<text text-anchor="middle" x="1976.03" y="-509.8" font-family="Times,serif" font-size="14.00">0:0 &#45; 1:1</text>
</g>
<!-- c42&#45;&gt;x12 -->
<g id="edge13" class="edge">
<title>c42:e&#45;&gt;x12:w</title>
<path fill="none" stroke="black" d="M1890.89,-513.5C1903.86,-513.5 1911.71,-513.5 1924.69,-513.5"/>
<polygon fill="none" stroke="black" points="1890.53,-513.5 1884.53,-517.5 1878.53,-513.5 1884.53,-509.5 1890.53,-513.5"/>
<polygon fill="none" stroke="black" points="1925.03,-513.5 1931.03,-509.5 1937.03,-513.5 1931.03,-517.5 1925.03,-513.5"/>
</g>
<!-- x10&#45;&gt;c42 -->
<g id="edge11" class="edge">
<title>x10:e&#45;&gt;c42:w</title>
<path fill="none" stroke="black" d="M1718.9,-540.14C1731.33,-537.11 1738.08,-529.88 1750.51,-526.86"/>
<polygon fill="none" stroke="black" points="1718.79,-540.15 1713.28,-544.8 1706.86,-541.5 1712.37,-536.85 1718.79,-540.15"/>
<polygon fill="none" stroke="black" points="1750.61,-526.85 1756.12,-522.2 1762.53,-525.5 1757.02,-530.15 1750.61,-526.85"/>
</g>
<!-- x11&#45;&gt;c42 -->
<g id="edge12" class="edge">
<title>x11:e&#45;&gt;c42:w</title>
<path fill="none" stroke="black" d="M1718.87,-487.78C1731.28,-490.61 1738.12,-497.39 1750.54,-500.22"/>
<polygon fill="none" stroke="black" points="1718.8,-487.77 1712.41,-491.11 1706.86,-486.5 1713.25,-483.16 1718.8,-487.77"/>
<polygon fill="none" stroke="black" points="1750.6,-500.23 1756.99,-496.89 1762.53,-501.5 1756.14,-504.84 1750.6,-500.23"/>
</g>
<!-- x12&#45;&gt;n3 -->
<g id="edge88" class="edge">
<title>x12:e&#45;&gt;n3:w</title>
<path fill="none" stroke="black" d="M2015.03,-513.5C2035.28,-513.5 2042.72,-513.5 2058.96,-513.5"/>
<polygon fill="black" stroke="black" points="2059.03,-517 2069.03,-513.5 2059.03,-510 2059.03,-517"/>
</g>
<!-- c43 -->
<g id="node41" class="node">
<title>c43</title>
<polygon fill="none" stroke="black" points="2219.63,-533.5 2219.63,-579.5 2333.63,-579.5 2333.63,-533.5 2219.63,-533.5"/>
<text text-anchor="middle" x="2233.13" y="-564.3" font-family="Times,serif" font-size="14.00">A</text>
<polyline fill="none" stroke="black" points="2219.63,-556.5 2246.63,-556.5 "/>
<text text-anchor="middle" x="2233.13" y="-541.3" font-family="Times,serif" font-size="14.00">B</text>
<polyline fill="none" stroke="black" points="2246.63,-533.5 2246.63,-579.5 "/>
<text text-anchor="middle" x="2277.13" y="-560.3" font-family="Times,serif" font-size="14.00">$104</text>
<text text-anchor="middle" x="2277.13" y="-545.3" font-family="Times,serif" font-size="14.00">$_OR_</text>
<polyline fill="none" stroke="black" points="2307.63,-533.5 2307.63,-579.5 "/>
<text text-anchor="middle" x="2320.63" y="-552.8" font-family="Times,serif" font-size="14.00">Y</text>
</g>
<!-- c44 -->
<g id="node44" class="node">
<title>c44</title>
<polygon fill="none" stroke="black" points="2369.63,-623.5 2369.63,-661.5 2492.63,-661.5 2492.63,-623.5 2369.63,-623.5"/>
<text text-anchor="middle" x="2382.63" y="-638.8" font-family="Times,serif" font-size="14.00">A</text>
<polyline fill="none" stroke="black" points="2395.63,-623.5 2395.63,-661.5 "/>
<text text-anchor="middle" x="2431.13" y="-646.3" font-family="Times,serif" font-size="14.00">$105</text>
<text text-anchor="middle" x="2431.13" y="-631.3" font-family="Times,serif" font-size="14.00">$_NOT_</text>
<polyline fill="none" stroke="black" points="2466.63,-623.5 2466.63,-661.5 "/>
<text text-anchor="middle" x="2479.63" y="-638.8" font-family="Times,serif" font-size="14.00">Y</text>
</g>
<!-- c43&#45;&gt;c44 -->
<g id="edge99" class="edge">
<title>c43:e&#45;&gt;c44:w</title>
<path fill="none" stroke="black" d="M2333.63,-556.5C2371.02,-556.5 2336.51,-626.52 2359.85,-640.2"/>
<polygon fill="black" stroke="black" points="2359.1,-643.62 2369.63,-642.5 2360.7,-636.8 2359.1,-643.62"/>
</g>
<!-- x13 -->
<g id="node42" class="node">
<title>x13</title>
<path fill="none" stroke="black" d="M2120.63,-550.5C2120.63,-550.5 2171.63,-550.5 2171.63,-550.5 2177.63,-550.5 2183.63,-556.5 2183.63,-562.5 2183.63,-562.5 2183.63,-574.5 2183.63,-574.5 2183.63,-580.5 2177.63,-586.5 2171.63,-586.5 2171.63,-586.5 2120.63,-586.5 2120.63,-586.5 2114.63,-586.5 2108.63,-580.5 2108.63,-574.5 2108.63,-574.5 2108.63,-562.5 2108.63,-562.5 2108.63,-556.5 2114.63,-550.5 2120.63,-550.5"/>
<text text-anchor="middle" x="2146.13" y="-564.8" font-family="Times,serif" font-size="14.00">0:0 &#45; 0:0</text>
</g>
<!-- x13&#45;&gt;c43 -->
<g id="edge14" class="edge">
<title>x13:e&#45;&gt;c43:w</title>
<path fill="none" stroke="black" d="M2195.85,-568.5C2199.93,-568.5 2203.37,-568.5 2207.45,-568.5"/>
<polygon fill="none" stroke="black" points="2195.63,-568.5 2189.63,-572.5 2183.63,-568.5 2189.63,-564.5 2195.63,-568.5"/>
<polygon fill="none" stroke="black" points="2207.63,-568.5 2213.63,-564.5 2219.63,-568.5 2213.63,-572.5 2207.63,-568.5"/>
</g>
<!-- x14 -->
<g id="node43" class="node">
<title>x14</title>
<path fill="none" stroke="black" d="M2120.63,-495.5C2120.63,-495.5 2171.63,-495.5 2171.63,-495.5 2177.63,-495.5 2183.63,-501.5 2183.63,-507.5 2183.63,-507.5 2183.63,-519.5 2183.63,-519.5 2183.63,-525.5 2177.63,-531.5 2171.63,-531.5 2171.63,-531.5 2120.63,-531.5 2120.63,-531.5 2114.63,-531.5 2108.63,-525.5 2108.63,-519.5 2108.63,-519.5 2108.63,-507.5 2108.63,-507.5 2108.63,-501.5 2114.63,-495.5 2120.63,-495.5"/>
<text text-anchor="middle" x="2146.13" y="-509.8" font-family="Times,serif" font-size="14.00">1:1 &#45; 0:0</text>
</g>
<!-- x14&#45;&gt;c43 -->
<g id="edge15" class="edge">
<title>x14:e&#45;&gt;c43:w</title>
<path fill="none" stroke="black" d="M2194.94,-518.07C2200.58,-523.87 2202.56,-533.81 2208.11,-539.7"/>
<polygon fill="none" stroke="black" points="2194.76,-518 2187.69,-519.46 2183.63,-513.5 2190.69,-512.04 2194.76,-518"/>
<polygon fill="none" stroke="black" points="2208.55,-539.89 2215.63,-538.5 2219.63,-544.5 2212.56,-545.89 2208.55,-539.89"/>
</g>
<!-- c44&#45;&gt;c28 -->
<g id="edge92" class="edge">
<title>c44:e&#45;&gt;c28:w</title>
<path fill="none" stroke="black" d="M2492.63,-642.5C2517.19,-642.5 2505.11,-681.66 2518.8,-693.28"/>
<polygon fill="black" stroke="black" points="2518.04,-696.72 2528.63,-696.5 2520.22,-690.07 2518.04,-696.72"/>
</g>
<!-- c45&#45;&gt;c29 -->
<g id="edge93" class="edge">
<title>c45:e&#45;&gt;c29:w</title>
<path fill="none" stroke="black" d="M2902.63,-708.5C2914.63,-708.5 2919.88,-708.5 2928.51,-708.5"/>
<polygon fill="black" stroke="black" points="2928.63,-712 2938.63,-708.5 2928.63,-705 2928.63,-712"/>
</g>
<!-- n6 -->
<g id="node69" class="node">
<title>n6</title>
<ellipse fill="black" stroke="black" cx="1667.86" cy="-292.5" rx="1.8" ry="1.8"/>
</g>
<!-- c46&#45;&gt;n6 -->
<g id="edge94" class="edge">
<title>c46:e&#45;&gt;n6:w</title>
<path fill="none" stroke="black" d="M1577.69,-292.5C1612.8,-292.5 1624.05,-292.5 1654.69,-292.5"/>
<polygon fill="black" stroke="black" points="1654.86,-296 1664.86,-292.5 1654.86,-289 1654.86,-296"/>
</g>
<!-- c47&#45;&gt;c31 -->
<g id="edge97" class="edge">
<title>c47:e&#45;&gt;c31:w</title>
<path fill="none" stroke="black" d="M1577.69,-170.5C1623.22,-170.5 1698.42,-279.45 1747.89,-293.92"/>
<polygon fill="black" stroke="black" points="1747.61,-297.42 1758.03,-295.5 1748.69,-290.5 1747.61,-297.42"/>
</g>
<!-- x16 -->
<g id="node50" class="node">
<title>x16</title>
<path fill="none" stroke="black" d="M674.41,-659.5C674.41,-659.5 725.41,-659.5 725.41,-659.5 731.41,-659.5 737.41,-665.5 737.41,-671.5 737.41,-671.5 737.41,-683.5 737.41,-683.5 737.41,-689.5 731.41,-695.5 725.41,-695.5 725.41,-695.5 674.41,-695.5 674.41,-695.5 668.41,-695.5 662.41,-689.5 662.41,-683.5 662.41,-683.5 662.41,-671.5 662.41,-671.5 662.41,-665.5 668.41,-659.5 674.41,-659.5"/>
<text text-anchor="middle" x="699.91" y="-673.8" font-family="Times,serif" font-size="14.00">0:0 &#45; 1:1</text>
</g>
<!-- c51&#45;&gt;x16 -->
<g id="edge17" class="edge">
<title>c51:e&#45;&gt;x16:w</title>
<path fill="none" stroke="black" d="M638.63,-676.73C642.7,-676.89 646.14,-677.11 650.22,-677.27"/>
<polygon fill="none" stroke="black" points="638.41,-676.73 632.33,-680.61 626.41,-676.5 632.48,-672.61 638.41,-676.73"/>
<polygon fill="none" stroke="black" points="650.41,-677.27 656.48,-673.39 662.41,-677.5 656.33,-681.39 650.41,-677.27"/>
</g>
<!-- x17 -->
<g id="node51" class="node">
<title>x17</title>
<path fill="none" stroke="black" d="M785.41,-636.5C785.41,-636.5 836.41,-636.5 836.41,-636.5 842.41,-636.5 848.41,-642.5 848.41,-648.5 848.41,-648.5 848.41,-660.5 848.41,-660.5 848.41,-666.5 842.41,-672.5 836.41,-672.5 836.41,-672.5 785.41,-672.5 785.41,-672.5 779.41,-672.5 773.41,-666.5 773.41,-660.5 773.41,-660.5 773.41,-648.5 773.41,-648.5 773.41,-642.5 779.41,-636.5 785.41,-636.5"/>
<text text-anchor="middle" x="810.91" y="-650.8" font-family="Times,serif" font-size="14.00">0:0 &#45; 0:0</text>
</g>
<!-- c51&#45;&gt;x17 -->
<g id="edge18" class="edge">
<title>c51:e&#45;&gt;x17:w</title>
<path fill="none" stroke="black" d="M638.65,-641.6C678.34,-642.25 692.47,-646.18 737.41,-650.5 748.55,-651.57 753.82,-653.09 761.41,-653.91"/>
<polygon fill="none" stroke="black" points="638.41,-641.59 632.38,-645.55 626.41,-641.5 632.44,-637.55 638.41,-641.59"/>
<polygon fill="none" stroke="black" points="761.42,-653.91 767.61,-650.21 773.41,-654.5 767.22,-658.2 761.42,-653.91"/>
</g>
<!-- x15&#45;&gt;c51 -->
<g id="edge16" class="edge">
<title>x15:e&#45;&gt;c51:w</title>
<path fill="none" stroke="black" d="M361.12,-324.61C416.31,-357.74 341.58,-644.78 396.57,-678.31"/>
<polygon fill="none" stroke="black" points="361,-324.58 354.18,-326.91 349.41,-321.5 356.23,-319.18 361,-324.58"/>
<polygon fill="none" stroke="black" points="396.82,-678.38 403.66,-676.08 408.41,-681.5 401.57,-683.8 396.82,-678.38"/>
</g>
<!-- x16&#45;&gt;n14 -->
<g id="edge36" class="edge">
<title>x16:e&#45;&gt;n14:w</title>
<path fill="none" stroke="black" d="M737.41,-677.5C795.58,-677.5 730.13,-561.48 772.85,-546.98"/>
<polygon fill="black" stroke="black" points="773.53,-550.42 782.91,-545.5 772.5,-543.5 773.53,-550.42"/>
</g>
<!-- x17&#45;&gt;n25 -->
<g id="edge80" class="edge">
<title>x17:e&#45;&gt;n25:w</title>
<path fill="none" stroke="black" d="M848.41,-654.5C1106.55,-654.5 1211.57,-691.22 1416.69,-534.5 1453.7,-506.23 1434.36,-450.6 1471.19,-442.49"/>
<polygon fill="black" stroke="black" points="1471.59,-445.97 1481.19,-441.5 1470.9,-439.01 1471.59,-445.97"/>
</g>
<!-- x19 -->
<g id="node54" class="node">
<title>x19</title>
<path fill="none" stroke="black" d="M1307.55,-378.5C1307.55,-378.5 1358.55,-378.5 1358.55,-378.5 1364.55,-378.5 1370.55,-384.5 1370.55,-390.5 1370.55,-390.5 1370.55,-402.5 1370.55,-402.5 1370.55,-408.5 1364.55,-414.5 1358.55,-414.5 1358.55,-414.5 1307.55,-414.5 1307.55,-414.5 1301.55,-414.5 1295.55,-408.5 1295.55,-402.5 1295.55,-402.5 1295.55,-390.5 1295.55,-390.5 1295.55,-384.5 1301.55,-378.5 1307.55,-378.5"/>
<text text-anchor="middle" x="1333.05" y="-392.8" font-family="Times,serif" font-size="14.00">0:0 &#45; 2:2</text>
</g>
<!-- c52&#45;&gt;x19 -->
<g id="edge20" class="edge">
<title>c52:e&#45;&gt;x19:w</title>
<path fill="none" stroke="black" d="M1225.43,-361.78C1249.99,-367.37 1257.42,-389.57 1281.94,-395.2"/>
<polygon fill="none" stroke="black" points="1225.34,-361.77 1218.95,-365.11 1213.41,-360.5 1219.8,-357.16 1225.34,-361.77"/>
<polygon fill="none" stroke="black" points="1282.12,-395.22 1288.51,-391.88 1294.05,-396.5 1287.66,-399.84 1282.12,-395.22"/>
</g>
<!-- x21 -->
<g id="node56" class="node">
<title>x21</title>
<path fill="none" stroke="black" d="M1307.55,-323.5C1307.55,-323.5 1358.55,-323.5 1358.55,-323.5 1364.55,-323.5 1370.55,-329.5 1370.55,-335.5 1370.55,-335.5 1370.55,-347.5 1370.55,-347.5 1370.55,-353.5 1364.55,-359.5 1358.55,-359.5 1358.55,-359.5 1307.55,-359.5 1307.55,-359.5 1301.55,-359.5 1295.55,-353.5 1295.55,-347.5 1295.55,-347.5 1295.55,-335.5 1295.55,-335.5 1295.55,-329.5 1301.55,-323.5 1307.55,-323.5"/>
<text text-anchor="middle" x="1333.05" y="-337.8" font-family="Times,serif" font-size="14.00">0:0 &#45; 1:1</text>
</g>
<!-- c52&#45;&gt;x21 -->
<g id="edge22" class="edge">
<title>c52:e&#45;&gt;x21:w</title>
<path fill="none" stroke="black" d="M1225.51,-326.15C1248.55,-328.73 1258.96,-338.3 1282.03,-340.86"/>
<polygon fill="none" stroke="black" points="1225.39,-326.14 1219.19,-329.81 1213.41,-325.5 1219.61,-321.83 1225.39,-326.14"/>
<polygon fill="none" stroke="black" points="1282.07,-340.86 1288.27,-337.19 1294.05,-341.5 1287.85,-345.18 1282.07,-340.86"/>
</g>
<!-- x18&#45;&gt;c52 -->
<g id="edge19" class="edge">
<title>x18:e&#45;&gt;c52:w</title>
<path fill="none" stroke="black" d="M860.6,-197.98C902.02,-194.47 924.94,-175.32 959.41,-204.5 1011.77,-248.82 933.49,-351.13 983.22,-364.13"/>
<polygon fill="none" stroke="black" points="860.4,-197.99 854.57,-202.24 848.41,-198.5 854.23,-194.25 860.4,-197.99"/>
<polygon fill="none" stroke="black" points="983.48,-364.16 989.89,-360.86 995.41,-365.5 989,-368.81 983.48,-364.16"/>
</g>
<!-- x19&#45;&gt;n14 -->
<g id="edge37" class="edge">
<title>x19:e&#45;&gt;n14:w</title>
<path fill="none" stroke="black" d="M1372.05,-396.5C1380.29,-396.5 1376.97,-409.27 1371.05,-415 1351.62,-433.81 906.2,-409.49 884.41,-425.5 832.25,-463.82 890.47,-525.74 837.91,-563.5 818.42,-577.5 801.34,-579.99 783.91,-563.5 781.54,-561.26 779.61,-557.87 778.69,-554.64"/>
<polygon fill="black" stroke="black" points="781.89,-556.05 782.91,-545.5 775.54,-553.11 781.89,-556.05"/>
</g>
<!-- x20&#45;&gt;c52 -->
<g id="edge21" class="edge">
<title>x20:e&#45;&gt;c52:w</title>
<path fill="none" stroke="black" d="M970.62,-353.72C977.2,-346.23 977.6,-331.83 984.16,-324.32"/>
<polygon fill="none" stroke="black" points="970.45,-353.79 966.5,-359.83 959.41,-358.5 963.36,-352.47 970.45,-353.79"/>
<polygon fill="none" stroke="black" points="984.38,-324.23 988.32,-318.19 995.41,-319.5 991.47,-325.54 984.38,-324.23"/>
</g>
<!-- x21&#45;&gt;n25 -->
<g id="edge81" class="edge">
<title>x21:e&#45;&gt;n25:w</title>
<path fill="none" stroke="black" d="M1372.05,-341.5C1395.47,-341.5 1398.78,-354.41 1416.69,-369.5 1446.6,-394.7 1439.91,-433.67 1470.86,-440.47"/>
<polygon fill="black" stroke="black" points="1470.9,-443.99 1481.19,-441.5 1471.59,-437.03 1470.9,-443.99"/>
</g>
<!-- x23 -->
<g id="node59" class="node">
<title>x23</title>
<path fill="none" stroke="black" d="M1307.55,-488.5C1307.55,-488.5 1358.55,-488.5 1358.55,-488.5 1364.55,-488.5 1370.55,-494.5 1370.55,-500.5 1370.55,-500.5 1370.55,-512.5 1370.55,-512.5 1370.55,-518.5 1364.55,-524.5 1358.55,-524.5 1358.55,-524.5 1307.55,-524.5 1307.55,-524.5 1301.55,-524.5 1295.55,-518.5 1295.55,-512.5 1295.55,-512.5 1295.55,-500.5 1295.55,-500.5 1295.55,-494.5 1301.55,-488.5 1307.55,-488.5"/>
<text text-anchor="middle" x="1333.05" y="-502.8" font-family="Times,serif" font-size="14.00">0:0 &#45; 3:3</text>
</g>
<!-- c53&#45;&gt;x23 -->
<g id="edge24" class="edge">
<title>c53:e&#45;&gt;x23:w</title>
<path fill="none" stroke="black" d="M1225.6,-487.31C1248.75,-490.54 1258.76,-502.49 1281.94,-505.7"/>
<polygon fill="none" stroke="black" points="1225.38,-487.29 1219.13,-490.89 1213.41,-486.5 1219.66,-482.91 1225.38,-487.29"/>
<polygon fill="none" stroke="black" points="1282.08,-505.71 1288.33,-502.11 1294.05,-506.5 1287.8,-510.1 1282.08,-505.71"/>
</g>
<!-- x25 -->
<g id="node61" class="node">
<title>x25</title>
<path fill="none" stroke="black" d="M1307.55,-433.5C1307.55,-433.5 1358.55,-433.5 1358.55,-433.5 1364.55,-433.5 1370.55,-439.5 1370.55,-445.5 1370.55,-445.5 1370.55,-457.5 1370.55,-457.5 1370.55,-463.5 1364.55,-469.5 1358.55,-469.5 1358.55,-469.5 1307.55,-469.5 1307.55,-469.5 1301.55,-469.5 1295.55,-463.5 1295.55,-457.5 1295.55,-457.5 1295.55,-445.5 1295.55,-445.5 1295.55,-439.5 1301.55,-433.5 1307.55,-433.5"/>
<text text-anchor="middle" x="1333.05" y="-447.8" font-family="Times,serif" font-size="14.00">0:0 &#45; 2:2</text>
</g>
<!-- c53&#45;&gt;x25 -->
<g id="edge26" class="edge">
<title>c53:e&#45;&gt;x25:w</title>
<path fill="none" stroke="black" d="M1225.69,-451.5C1248.22,-451.5 1259.35,-451.5 1281.94,-451.5"/>
<polygon fill="none" stroke="black" points="1225.41,-451.5 1219.41,-455.5 1213.41,-451.5 1219.41,-447.5 1225.41,-451.5"/>
<polygon fill="none" stroke="black" points="1282.05,-451.5 1288.05,-447.5 1294.05,-451.5 1288.05,-455.5 1282.05,-451.5"/>
</g>
<!-- x22&#45;&gt;c53 -->
<g id="edge23" class="edge">
<title>x22:e&#45;&gt;c53:w</title>
<path fill="none" stroke="black" d="M568.51,-255.3C666.45,-252.35 895.26,-218.37 959.41,-275.5 992.34,-304.83 955.18,-458.4 984.15,-486.93"/>
<polygon fill="none" stroke="black" points="568.41,-255.3 562.47,-259.4 556.41,-255.5 562.34,-251.4 568.41,-255.3"/>
<polygon fill="none" stroke="black" points="984.29,-486.99 991.35,-485.54 995.41,-491.5 988.34,-492.95 984.29,-486.99"/>
</g>
<!-- x23&#45;&gt;n14 -->
<g id="edge38" class="edge">
<title>x23:e&#45;&gt;n14:w</title>
<path fill="none" stroke="black" d="M1372.05,-506.5C1380.29,-506.5 1376.87,-519.18 1371.05,-525 1351.91,-544.15 911.17,-547.36 884.41,-551.5 839.95,-558.38 816.59,-594.41 783.91,-563.5 781.54,-561.26 779.61,-557.87 778.69,-554.64"/>
<polygon fill="black" stroke="black" points="781.89,-556.05 782.91,-545.5 775.54,-553.11 781.89,-556.05"/>
</g>
<!-- x24&#45;&gt;c53 -->
<g id="edge25" class="edge">
<title>x24:e&#45;&gt;c53:w</title>
<path fill="none" stroke="black" d="M971.44,-450.95C975.68,-449.79 979.15,-448.21 983.39,-447.05"/>
<polygon fill="none" stroke="black" points="971.31,-450.96 965.87,-455.7 959.41,-452.5 964.85,-447.76 971.31,-450.96"/>
<polygon fill="none" stroke="black" points="983.51,-447.03 988.95,-442.3 995.41,-445.5 989.97,-450.23 983.51,-447.03"/>
</g>
<!-- x25&#45;&gt;n25 -->
<g id="edge82" class="edge">
<title>x25:e&#45;&gt;n25:w</title>
<path fill="none" stroke="black" d="M1372.05,-451.5C1417.24,-451.5 1430.6,-442.89 1471.19,-441.65"/>
<polygon fill="black" stroke="black" points="1471.25,-445.15 1481.19,-441.5 1471.14,-438.15 1471.25,-445.15"/>
</g>
<!-- c54&#45;&gt;n18 -->
<g id="edge63" class="edge">
<title>c54:e&#45;&gt;n18:w</title>
<path fill="none" stroke="black" d="M1213.41,-266.5C1246.73,-266.5 1255.51,-282.78 1284.04,-285.97"/>
<polygon fill="black" stroke="black" points="1283.88,-289.46 1294.05,-286.5 1284.25,-282.47 1283.88,-289.46"/>
</g>
<!-- x28 -->
<g id="node65" class="node">
<title>x28</title>
<path fill="none" stroke="black" d="M1307.55,-213.5C1307.55,-213.5 1358.55,-213.5 1358.55,-213.5 1364.55,-213.5 1370.55,-219.5 1370.55,-225.5 1370.55,-225.5 1370.55,-237.5 1370.55,-237.5 1370.55,-243.5 1364.55,-249.5 1358.55,-249.5 1358.55,-249.5 1307.55,-249.5 1307.55,-249.5 1301.55,-249.5 1295.55,-243.5 1295.55,-237.5 1295.55,-237.5 1295.55,-225.5 1295.55,-225.5 1295.55,-219.5 1301.55,-213.5 1307.55,-213.5"/>
<text text-anchor="middle" x="1333.05" y="-227.8" font-family="Times,serif" font-size="14.00">0:0 &#45; 3:3</text>
</g>
<!-- c54&#45;&gt;x28 -->
<g id="edge29" class="edge">
<title>c54:e&#45;&gt;x28:w</title>
<path fill="none" stroke="black" d="M1225.69,-231.5C1248.22,-231.5 1259.35,-231.5 1281.94,-231.5"/>
<polygon fill="none" stroke="black" points="1225.41,-231.5 1219.41,-235.5 1213.41,-231.5 1219.41,-227.5 1225.41,-231.5"/>
<polygon fill="none" stroke="black" points="1282.05,-231.5 1288.05,-227.5 1294.05,-231.5 1288.05,-235.5 1282.05,-231.5"/>
</g>
<!-- x26&#45;&gt;c54 -->
<g id="edge27" class="edge">
<title>x26:e&#45;&gt;c54:w</title>
<path fill="none" stroke="black" d="M749.65,-156.34C840.63,-154.01 883.77,-127.48 959.41,-185.5 988.3,-207.67 962.21,-257.3 983.6,-269"/>
<polygon fill="none" stroke="black" points="749.41,-156.35 743.46,-160.42 737.41,-156.5 743.36,-152.42 749.41,-156.35"/>
<polygon fill="none" stroke="black" points="983.67,-269.01 990.37,-266.34 995.41,-271.5 988.71,-274.17 983.67,-269.01"/>
</g>
<!-- x27&#45;&gt;c54 -->
<g id="edge28" class="edge">
<title>x27:e&#45;&gt;c54:w</title>
<path fill="none" stroke="black" d="M970.83,-299.74C985.53,-286.59 969.35,-242.78 983.82,-229.41"/>
<polygon fill="none" stroke="black" points="970.81,-299.75 966.36,-305.42 959.41,-303.5 963.86,-297.82 970.81,-299.75"/>
<polygon fill="none" stroke="black" points="984.04,-229.34 988.44,-223.63 995.41,-225.5 991,-231.21 984.04,-229.34"/>
</g>
<!-- x28&#45;&gt;n25 -->
<g id="edge83" class="edge">
<title>x28:e&#45;&gt;n25:w</title>
<path fill="none" stroke="black" d="M1372.05,-231.5C1473.64,-231.5 1382.69,-427.39 1471.12,-440.78"/>
<polygon fill="black" stroke="black" points="1470.97,-444.28 1481.19,-441.5 1471.47,-437.3 1470.97,-444.28"/>
</g>
<!-- x30 -->
<g id="node67" class="node">
<title>x30</title>
<path fill="none" stroke="black" d="M1642.36,-661.5C1642.36,-661.5 1693.36,-661.5 1693.36,-661.5 1699.36,-661.5 1705.36,-667.5 1705.36,-673.5 1705.36,-673.5 1705.36,-695.5 1705.36,-695.5 1705.36,-701.5 1699.36,-707.5 1693.36,-707.5 1693.36,-707.5 1642.36,-707.5 1642.36,-707.5 1636.36,-707.5 1630.36,-701.5 1630.36,-695.5 1630.36,-695.5 1630.36,-673.5 1630.36,-673.5 1630.36,-667.5 1636.36,-661.5 1642.36,-661.5"/>
<text text-anchor="middle" x="1667.86" y="-692.3" font-family="Times,serif" font-size="14.00">1:1 &#45; 4:4</text>
<polyline fill="none" stroke="black" points="1630.36,-684.5 1705.36,-684.5 "/>
<text text-anchor="middle" x="1667.86" y="-669.3" font-family="Times,serif" font-size="14.00">0:0 &#45; 0:0</text>
</g>
<!-- x29&#45;&gt;x30 -->
<g id="edge30" class="edge">
<title>x29:e&#45;&gt;x30:w</title>
<path fill="none" stroke="black" stroke-width="3" d="M1566.22,-684.5C1586.3,-684.5 1596.6,-684.5 1616.62,-684.5"/>
<polygon fill="none" stroke="black" stroke-width="3" points="1566.19,-684.5 1560.19,-688.5 1554.19,-684.5 1560.19,-680.5 1566.19,-684.5"/>
<polygon fill="none" stroke="black" stroke-width="3" points="1616.86,-684.5 1622.86,-680.5 1628.86,-684.5 1622.86,-688.5 1616.86,-684.5"/>
</g>
<!-- x30&#45;&gt;n14 -->
<g id="edge39" class="edge">
<title>x30:e&#45;&gt;n14:w</title>
<path fill="none" stroke="black" d="M1706.86,-672.5C1711.99,-672.5 1709.51,-664.61 1705.86,-661 1649.6,-605.3 1073.82,-617.44 995.41,-606.5 900.4,-593.25 846.64,-636.07 783.91,-563.5 781.86,-561.13 780.04,-557.87 779.05,-554.77"/>
<polygon fill="black" stroke="black" points="782.3,-556.08 782.91,-545.5 775.84,-553.39 782.3,-556.08"/>
</g>
<!-- x30&#45;&gt;n14 -->
<g id="edge40" class="edge">
<title>x30:e&#45;&gt;n14:w</title>
<path fill="none" stroke="black" d="M1706.86,-696.5C1711.99,-696.5 1709.51,-704.4 1705.86,-708 1625.74,-787.11 1564.87,-727.2 1452.69,-717.5 1197.27,-695.42 1126.4,-703.18 884.41,-618.5 763.21,-576.09 756.95,-552.97 772.98,-547.04"/>
<polygon fill="black" stroke="black" points="773.56,-550.5 782.91,-545.5 772.49,-543.58 773.56,-550.5"/>
</g>
<!-- n3&#45;&gt;x13 -->
<g id="edge90" class="edge">
<title>n3:e&#45;&gt;x13:w</title>
<path fill="none" stroke="black" d="M2072.63,-513.5C2097.51,-513.5 2084.94,-553.38 2098.7,-565.22"/>
<polygon fill="black" stroke="black" points="2098.04,-568.69 2108.63,-568.5 2100.23,-562.04 2098.04,-568.69"/>
</g>
<!-- n3&#45;&gt;x14 -->
<g id="edge91" class="edge">
<title>n3:e&#45;&gt;x14:w</title>
<path fill="none" stroke="black" d="M2072.63,-513.5C2084.63,-513.5 2089.88,-513.5 2098.51,-513.5"/>
<polygon fill="black" stroke="black" points="2098.63,-517 2108.63,-513.5 2098.63,-510 2098.63,-517"/>
</g>
<!-- n6&#45;&gt;c30 -->
<g id="edge95" class="edge">
<title>n6:e&#45;&gt;c30:w</title>
<path fill="none" stroke="black" d="M1670.86,-292.5C1710.93,-292.5 1718.58,-308.53 1758.03,-315.5 1853.41,-332.36 1878.18,-335.5 1975.03,-335.5 1975.03,-335.5 1975.03,-335.5 3002.13,-335.5 3096.78,-335.5 3122.18,-353.19 3211.96,-354.43"/>
<polygon fill="black" stroke="black" points="3212.01,-357.93 3222.03,-354.5 3212.06,-350.93 3212.01,-357.93"/>
</g>
<!-- n6&#45;&gt;c31 -->
<g id="edge96" class="edge">
<title>n6:e&#45;&gt;c31:w</title>
<path fill="none" stroke="black" d="M1670.86,-292.5C1707.13,-292.5 1716.58,-275.1 1748.03,-271.98"/>
<polygon fill="black" stroke="black" points="1748.21,-275.47 1758.03,-271.5 1747.88,-268.48 1748.21,-275.47"/>
</g>
</g>
</svg>
