<?xml version="1.0" encoding="UTF-8" standalone="no"?>
<!DOCTYPE svg PUBLIC "-//W3C//DTD SVG 1.1//EN"
 "http://www.w3.org/Graphics/SVG/1.1/DTD/svg11.dtd">
<!-- Generated by graphviz version 2.43.20190912.0211 (20190912.0211)
 -->
<!-- Title: adder_half_dataflow Pages: 1 -->
<svg width="335pt" height="143pt"
 viewBox="0.00 0.00 334.98 143.00" xmlns="http://www.w3.org/2000/svg" xmlns:xlink="http://www.w3.org/1999/xlink">
<g id="graph0" class="graph" transform="scale(1 1) rotate(0) translate(4 139)">
<title>adder_half_dataflow</title>
<polygon fill="white" stroke="transparent" points="-4,4 -4,-139 330.98,-139 330.98,4 -4,4"/>
<text text-anchor="middle" x="163.49" y="-7.8" font-family="Times,serif" font-size="14.00">adder_half_dataflow</text>
<!-- n1 -->
<g id="node1" class="node">
<title>n1</title>
<polygon fill="none" stroke="black" points="54,-107.04 54,-121.96 38.18,-132.5 15.82,-132.5 0,-121.96 0,-107.04 15.82,-96.5 38.18,-96.5 54,-107.04"/>
<text text-anchor="middle" x="27" y="-110.8" font-family="Times,serif" font-size="14.00">a</text>
</g>
<!-- c8 -->
<g id="node5" class="node">
<title>c8</title>
<polygon fill="none" stroke="black" points="90,-88.5 90,-134.5 215,-134.5 215,-88.5 90,-88.5"/>
<text text-anchor="middle" x="103.5" y="-119.3" font-family="Times,serif" font-size="14.00">A</text>
<polyline fill="none" stroke="black" points="90,-111.5 117,-111.5 "/>
<text text-anchor="middle" x="103.5" y="-96.3" font-family="Times,serif" font-size="14.00">B</text>
<polyline fill="none" stroke="black" points="117,-88.5 117,-134.5 "/>
<text text-anchor="middle" x="153" y="-115.3" font-family="Times,serif" font-size="14.00">$88</text>
<text text-anchor="middle" x="153" y="-100.3" font-family="Times,serif" font-size="14.00">$_AND_</text>
<polyline fill="none" stroke="black" points="189,-88.5 189,-134.5 "/>
<text text-anchor="middle" x="202" y="-107.8" font-family="Times,serif" font-size="14.00">Y</text>
</g>
<!-- n1&#45;&gt;c8 -->
<g id="edge1" class="edge">
<title>n1:e&#45;&gt;c8:w</title>
<path fill="none" stroke="black" d="M54,-114.5C66.5,-114.5 71.26,-119.67 80.01,-122.17"/>
<polygon fill="black" stroke="black" points="79.63,-125.65 90,-123.5 80.55,-118.71 79.63,-125.65"/>
</g>
<!-- c9 -->
<g id="node6" class="node">
<title>c9</title>
<polygon fill="none" stroke="black" points="90.5,-23.5 90.5,-69.5 214.5,-69.5 214.5,-23.5 90.5,-23.5"/>
<text text-anchor="middle" x="104" y="-54.3" font-family="Times,serif" font-size="14.00">A</text>
<polyline fill="none" stroke="black" points="90.5,-46.5 117.5,-46.5 "/>
<text text-anchor="middle" x="104" y="-31.3" font-family="Times,serif" font-size="14.00">B</text>
<polyline fill="none" stroke="black" points="117.5,-23.5 117.5,-69.5 "/>
<text text-anchor="middle" x="153" y="-50.3" font-family="Times,serif" font-size="14.00">$89</text>
<text text-anchor="middle" x="153" y="-35.3" font-family="Times,serif" font-size="14.00">$_XOR_</text>
<polyline fill="none" stroke="black" points="188.5,-23.5 188.5,-69.5 "/>
<text text-anchor="middle" x="201.5" y="-42.8" font-family="Times,serif" font-size="14.00">Y</text>
</g>
<!-- n1&#45;&gt;c9 -->
<g id="edge2" class="edge">
<title>n1:e&#45;&gt;c9:w</title>
<path fill="none" stroke="black" d="M54,-114.5C79.43,-114.5 65.89,-73.14 80.35,-61.51"/>
<polygon fill="black" stroke="black" points="81.5,-64.82 90,-58.5 79.41,-58.14 81.5,-64.82"/>
</g>
<!-- n2 -->
<g id="node2" class="node">
<title>n2</title>
<polygon fill="none" stroke="black" points="54,-36.04 54,-50.96 38.18,-61.5 15.82,-61.5 0,-50.96 0,-36.04 15.82,-25.5 38.18,-25.5 54,-36.04"/>
<text text-anchor="middle" x="27" y="-39.8" font-family="Times,serif" font-size="14.00">b</text>
</g>
<!-- n2&#45;&gt;c8 -->
<g id="edge3" class="edge">
<title>n2:e&#45;&gt;c8:w</title>
<path fill="none" stroke="black" d="M54,-43.5C79.43,-43.5 65.89,-84.86 80.35,-96.49"/>
<polygon fill="black" stroke="black" points="79.41,-99.86 90,-99.5 81.5,-93.18 79.41,-99.86"/>
</g>
<!-- n2&#45;&gt;c9 -->
<g id="edge4" class="edge">
<title>n2:e&#45;&gt;c9:w</title>
<path fill="none" stroke="black" d="M54,-43.5C66.5,-43.5 71.26,-38.33 80.01,-35.83"/>
<polygon fill="black" stroke="black" points="80.55,-39.29 90,-34.5 79.63,-32.35 80.55,-39.29"/>
</g>
<!-- n3 -->
<g id="node3" class="node">
<title>n3</title>
<polygon fill="none" stroke="black" points="326.97,-104.04 326.97,-118.96 304.72,-129.5 273.26,-129.5 251.01,-118.96 251.01,-104.04 273.26,-93.5 304.72,-93.5 326.97,-104.04"/>
<text text-anchor="middle" x="288.99" y="-107.8" font-family="Times,serif" font-size="14.00">carry</text>
</g>
<!-- n4 -->
<g id="node4" class="node">
<title>n4</title>
<polygon fill="none" stroke="black" points="322.12,-39.04 322.12,-53.96 302.71,-64.5 275.27,-64.5 255.86,-53.96 255.86,-39.04 275.27,-28.5 302.71,-28.5 322.12,-39.04"/>
<text text-anchor="middle" x="288.99" y="-42.8" font-family="Times,serif" font-size="14.00">sum</text>
</g>
<!-- c8&#45;&gt;n3 -->
<g id="edge5" class="edge">
<title>c8:e&#45;&gt;n3:w</title>
<path fill="none" stroke="black" d="M215,-111.5C227,-111.5 232.25,-111.5 240.88,-111.5"/>
<polygon fill="black" stroke="black" points="241,-115 251,-111.5 241,-108 241,-115"/>
</g>
<!-- c9&#45;&gt;n4 -->
<g id="edge6" class="edge">
<title>c9:e&#45;&gt;n4:w</title>
<path fill="none" stroke="black" d="M215,-46.5C228.88,-46.5 234.63,-46.5 244.96,-46.5"/>
<polygon fill="black" stroke="black" points="244.99,-50 254.99,-46.5 244.99,-43 244.99,-50"/>
</g>
</g>
</svg>
