<?xml version="1.0" encoding="UTF-8" standalone="no"?>
<!DOCTYPE svg PUBLIC "-//W3C//DTD SVG 1.1//EN"
 "http://www.w3.org/Graphics/SVG/1.1/DTD/svg11.dtd">
<!-- Generated by graphviz version 2.43.20190912.0211 (20190912.0211)
 -->
<!-- Title: counter_tff_sync Pages: 1 -->
<svg width="1756pt" height="630pt"
 viewBox="0.00 0.00 1755.89 629.50" xmlns="http://www.w3.org/2000/svg" xmlns:xlink="http://www.w3.org/1999/xlink">
<g id="graph0" class="graph" transform="scale(1 1) rotate(0) translate(4 625.5)">
<title>counter_tff_sync</title>
<polygon fill="white" stroke="transparent" points="-4,4 -4,-625.5 1751.89,-625.5 1751.89,4 -4,4"/>
<text text-anchor="middle" x="873.95" y="-7.8" font-family="Times,serif" font-size="14.00">counter_tff_sync</text>
<!-- n5 -->
<g id="node1" class="node">
<title>n5</title>
<polygon fill="none" stroke="black" points="65.69,-91.54 65.69,-106.46 49.88,-117 27.51,-117 11.69,-106.46 11.69,-91.54 27.51,-81 49.88,-81 65.69,-91.54"/>
<text text-anchor="middle" x="38.69" y="-95.3" font-family="Times,serif" font-size="14.00">clk</text>
</g>
<!-- c23 -->
<g id="node20" class="node">
<title>c23</title>
<polygon fill="none" stroke="black" points="113.38,-222.5 113.38,-291.5 238.38,-291.5 238.38,-222.5 113.38,-222.5"/>
<text text-anchor="middle" x="140.88" y="-276.3" font-family="Times,serif" font-size="14.00">T</text>
<polyline fill="none" stroke="black" points="113.38,-268.5 168.38,-268.5 "/>
<text text-anchor="middle" x="140.88" y="-253.3" font-family="Times,serif" font-size="14.00">clk</text>
<polyline fill="none" stroke="black" points="113.38,-245.5 168.38,-245.5 "/>
<text text-anchor="middle" x="140.88" y="-230.3" font-family="Times,serif" font-size="14.00">res_n</text>
<polyline fill="none" stroke="black" points="168.38,-222.5 168.38,-291.5 "/>
<text text-anchor="middle" x="189.38" y="-260.8" font-family="Times,serif" font-size="14.00">ff_0</text>
<text text-anchor="middle" x="189.38" y="-245.8" font-family="Times,serif" font-size="14.00">ff_t</text>
<polyline fill="none" stroke="black" points="210.38,-222.5 210.38,-291.5 "/>
<text text-anchor="middle" x="224.38" y="-253.3" font-family="Times,serif" font-size="14.00">Q</text>
</g>
<!-- n5&#45;&gt;c23 -->
<g id="edge20" class="edge">
<title>n5:e&#45;&gt;c23:w</title>
<path fill="none" stroke="black" d="M66.69,-99C136.06,-99 50.2,-240.78 103.19,-255.73"/>
<polygon fill="black" stroke="black" points="103.03,-259.23 113.38,-257 103.89,-252.29 103.03,-259.23"/>
</g>
<!-- c24 -->
<g id="node22" class="node">
<title>c24</title>
<polygon fill="none" stroke="black" points="1428.31,-33.5 1428.31,-102.5 1630.31,-102.5 1630.31,-33.5 1428.31,-33.5"/>
<text text-anchor="middle" x="1455.81" y="-87.3" font-family="Times,serif" font-size="14.00">T</text>
<polyline fill="none" stroke="black" points="1428.31,-79.5 1483.31,-79.5 "/>
<text text-anchor="middle" x="1455.81" y="-64.3" font-family="Times,serif" font-size="14.00">clk</text>
<polyline fill="none" stroke="black" points="1428.31,-56.5 1483.31,-56.5 "/>
<text text-anchor="middle" x="1455.81" y="-41.3" font-family="Times,serif" font-size="14.00">res_n</text>
<polyline fill="none" stroke="black" points="1483.31,-33.5 1483.31,-102.5 "/>
<text text-anchor="middle" x="1542.81" y="-71.8" font-family="Times,serif" font-size="14.00">genblk1[1].ff_i</text>
<text text-anchor="middle" x="1542.81" y="-56.8" font-family="Times,serif" font-size="14.00">ff_t</text>
<polyline fill="none" stroke="black" points="1602.31,-33.5 1602.31,-102.5 "/>
<text text-anchor="middle" x="1616.31" y="-64.3" font-family="Times,serif" font-size="14.00">Q</text>
</g>
<!-- n5&#45;&gt;c24 -->
<g id="edge21" class="edge">
<title>n5:e&#45;&gt;c24:w</title>
<path fill="none" stroke="black" d="M66.69,-99C70.24,-99 307.33,-23 310.88,-23 310.88,-23 310.88,-23 959.64,-23 1165.42,-23 1217.34,-66.52 1418.02,-67.96"/>
<polygon fill="black" stroke="black" points="1418.3,-71.46 1428.31,-68 1418.32,-64.46 1418.3,-71.46"/>
</g>
<!-- c25 -->
<g id="node25" class="node">
<title>c25</title>
<polygon fill="none" stroke="black" points="1428.31,-171.5 1428.31,-240.5 1630.31,-240.5 1630.31,-171.5 1428.31,-171.5"/>
<text text-anchor="middle" x="1455.81" y="-225.3" font-family="Times,serif" font-size="14.00">T</text>
<polyline fill="none" stroke="black" points="1428.31,-217.5 1483.31,-217.5 "/>
<text text-anchor="middle" x="1455.81" y="-202.3" font-family="Times,serif" font-size="14.00">clk</text>
<polyline fill="none" stroke="black" points="1428.31,-194.5 1483.31,-194.5 "/>
<text text-anchor="middle" x="1455.81" y="-179.3" font-family="Times,serif" font-size="14.00">res_n</text>
<polyline fill="none" stroke="black" points="1483.31,-171.5 1483.31,-240.5 "/>
<text text-anchor="middle" x="1542.81" y="-209.8" font-family="Times,serif" font-size="14.00">genblk1[2].ff_i</text>
<text text-anchor="middle" x="1542.81" y="-194.8" font-family="Times,serif" font-size="14.00">ff_t</text>
<polyline fill="none" stroke="black" points="1602.31,-171.5 1602.31,-240.5 "/>
<text text-anchor="middle" x="1616.31" y="-202.3" font-family="Times,serif" font-size="14.00">Q</text>
</g>
<!-- n5&#45;&gt;c25 -->
<g id="edge22" class="edge">
<title>n5:e&#45;&gt;c25:w</title>
<path fill="none" stroke="black" d="M66.69,-99C175.22,-99 202.35,-99 310.88,-99 310.88,-99 310.88,-99 1220.72,-99 1301.08,-99 1327.56,-108.41 1392.31,-156 1410.93,-169.68 1404.26,-195.87 1418.17,-203.72"/>
<polygon fill="black" stroke="black" points="1417.78,-207.22 1428.31,-206 1419.32,-200.39 1417.78,-207.22"/>
</g>
<!-- n6 -->
<g id="node2" class="node">
<title>n6</title>
<polygon fill="none" stroke="black" points="464.07,-294.54 464.07,-309.46 441.05,-320 408.5,-320 385.49,-309.46 385.49,-294.54 408.5,-284 441.05,-284 464.07,-294.54"/>
<text text-anchor="middle" x="424.78" y="-298.3" font-family="Times,serif" font-size="14.00">count</text>
</g>
<!-- x3 -->
<g id="node13" class="node">
<title>x3</title>
<path fill="none" stroke="black" d="M512.18,-466C512.18,-466 563.18,-466 563.18,-466 569.18,-466 575.18,-472 575.18,-478 575.18,-478 575.18,-490 575.18,-490 575.18,-496 569.18,-502 563.18,-502 563.18,-502 512.18,-502 512.18,-502 506.18,-502 500.18,-496 500.18,-490 500.18,-490 500.18,-478 500.18,-478 500.18,-472 506.18,-466 512.18,-466"/>
<text text-anchor="middle" x="537.68" y="-480.3" font-family="Times,serif" font-size="14.00">0:0 &#45; 0:0</text>
</g>
<!-- n6&#45;&gt;x3 -->
<g id="edge26" class="edge">
<title>n6:e&#45;&gt;x3:w</title>
<path fill="none" stroke="black" d="M464.18,-302C542.77,-302 429.34,-467.34 489.93,-482.84"/>
<polygon fill="black" stroke="black" points="489.84,-486.35 500.18,-484 490.63,-479.4 489.84,-486.35"/>
</g>
<!-- x4 -->
<g id="node15" class="node">
<title>x4</title>
<path fill="none" stroke="black" d="M512.18,-338C512.18,-338 563.18,-338 563.18,-338 569.18,-338 575.18,-344 575.18,-350 575.18,-350 575.18,-362 575.18,-362 575.18,-368 569.18,-374 563.18,-374 563.18,-374 512.18,-374 512.18,-374 506.18,-374 500.18,-368 500.18,-362 500.18,-362 500.18,-350 500.18,-350 500.18,-344 506.18,-338 512.18,-338"/>
<text text-anchor="middle" x="537.68" y="-352.3" font-family="Times,serif" font-size="14.00">1:1 &#45; 0:0</text>
</g>
<!-- n6&#45;&gt;x4 -->
<g id="edge27" class="edge">
<title>n6:e&#45;&gt;x4:w</title>
<path fill="none" stroke="black" d="M464.18,-302C488.74,-302 476.66,-341.16 490.34,-352.78"/>
<polygon fill="black" stroke="black" points="489.58,-356.22 500.18,-356 491.76,-349.57 489.58,-356.22"/>
</g>
<!-- x5 -->
<g id="node17" class="node">
<title>x5</title>
<path fill="none" stroke="black" d="M512.18,-405C512.18,-405 563.18,-405 563.18,-405 569.18,-405 575.18,-411 575.18,-417 575.18,-417 575.18,-429 575.18,-429 575.18,-435 569.18,-441 563.18,-441 563.18,-441 512.18,-441 512.18,-441 506.18,-441 500.18,-435 500.18,-429 500.18,-429 500.18,-417 500.18,-417 500.18,-411 506.18,-405 512.18,-405"/>
<text text-anchor="middle" x="537.68" y="-419.3" font-family="Times,serif" font-size="14.00">0:0 &#45; 0:0</text>
</g>
<!-- n6&#45;&gt;x5 -->
<g id="edge28" class="edge">
<title>n6:e&#45;&gt;x5:w</title>
<path fill="none" stroke="black" d="M464.18,-302C516.34,-302 454.13,-406.58 490.21,-421.29"/>
<polygon fill="black" stroke="black" points="489.73,-424.76 500.18,-423 490.91,-417.86 489.73,-424.76"/>
</g>
<!-- x6 -->
<g id="node19" class="node">
<title>x6</title>
<path fill="none" stroke="black" d="M642.66,-284C642.66,-284 693.66,-284 693.66,-284 699.66,-284 705.66,-290 705.66,-296 705.66,-296 705.66,-308 705.66,-308 705.66,-314 699.66,-320 693.66,-320 693.66,-320 642.66,-320 642.66,-320 636.66,-320 630.66,-314 630.66,-308 630.66,-308 630.66,-296 630.66,-296 630.66,-290 636.66,-284 642.66,-284"/>
<text text-anchor="middle" x="668.16" y="-298.3" font-family="Times,serif" font-size="14.00">1:1 &#45; 0:0</text>
</g>
<!-- n6&#45;&gt;x6 -->
<g id="edge29" class="edge">
<title>n6:e&#45;&gt;x6:w</title>
<path fill="none" stroke="black" d="M464.18,-302C533.92,-302 553.91,-302 618.8,-302"/>
<polygon fill="black" stroke="black" points="619.16,-305.5 629.16,-302 619.16,-298.5 619.16,-305.5"/>
</g>
<!-- n7 -->
<g id="node3" class="node">
<title>n7</title>
<polygon fill="none" stroke="black" points="725.12,-349.54 725.12,-364.46 691.75,-375 644.56,-375 611.19,-364.46 611.19,-349.54 644.56,-339 691.75,-339 725.12,-349.54"/>
<text text-anchor="middle" x="668.16" y="-353.3" font-family="Times,serif" font-size="14.00">count_up</text>
</g>
<!-- c19 -->
<g id="node16" class="node">
<title>c19</title>
<polygon fill="none" stroke="black" points="761.14,-442.5 761.14,-511.5 870.14,-511.5 870.14,-442.5 761.14,-442.5"/>
<text text-anchor="middle" x="774.64" y="-496.3" font-family="Times,serif" font-size="14.00">A</text>
<polyline fill="none" stroke="black" points="761.14,-488.5 788.14,-488.5 "/>
<text text-anchor="middle" x="774.64" y="-473.3" font-family="Times,serif" font-size="14.00">B</text>
<polyline fill="none" stroke="black" points="761.14,-465.5 788.14,-465.5 "/>
<text text-anchor="middle" x="774.64" y="-450.3" font-family="Times,serif" font-size="14.00">S</text>
<polyline fill="none" stroke="black" points="788.14,-442.5 788.14,-511.5 "/>
<text text-anchor="middle" x="816.14" y="-480.8" font-family="Times,serif" font-size="14.00">$19</text>
<text text-anchor="middle" x="816.14" y="-465.8" font-family="Times,serif" font-size="14.00">$mux</text>
<polyline fill="none" stroke="black" points="844.14,-442.5 844.14,-511.5 "/>
<text text-anchor="middle" x="857.14" y="-473.3" font-family="Times,serif" font-size="14.00">Y</text>
</g>
<!-- n7&#45;&gt;c19 -->
<g id="edge30" class="edge">
<title>n7:e&#45;&gt;c19:w</title>
<path fill="none" stroke="black" d="M725.14,-357C766.99,-357 724.39,-437.35 751.07,-451.79"/>
<polygon fill="black" stroke="black" points="750.62,-455.28 761.14,-454 752.12,-448.44 750.62,-455.28"/>
</g>
<!-- c20 -->
<g id="node18" class="node">
<title>c20</title>
<polygon fill="none" stroke="black" points="761.14,-345.5 761.14,-414.5 870.14,-414.5 870.14,-345.5 761.14,-345.5"/>
<text text-anchor="middle" x="774.64" y="-399.3" font-family="Times,serif" font-size="14.00">A</text>
<polyline fill="none" stroke="black" points="761.14,-391.5 788.14,-391.5 "/>
<text text-anchor="middle" x="774.64" y="-376.3" font-family="Times,serif" font-size="14.00">B</text>
<polyline fill="none" stroke="black" points="761.14,-368.5 788.14,-368.5 "/>
<text text-anchor="middle" x="774.64" y="-353.3" font-family="Times,serif" font-size="14.00">S</text>
<polyline fill="none" stroke="black" points="788.14,-345.5 788.14,-414.5 "/>
<text text-anchor="middle" x="816.14" y="-383.8" font-family="Times,serif" font-size="14.00">$22</text>
<text text-anchor="middle" x="816.14" y="-368.8" font-family="Times,serif" font-size="14.00">$mux</text>
<polyline fill="none" stroke="black" points="844.14,-345.5 844.14,-414.5 "/>
<text text-anchor="middle" x="857.14" y="-376.3" font-family="Times,serif" font-size="14.00">Y</text>
</g>
<!-- n7&#45;&gt;c20 -->
<g id="edge31" class="edge">
<title>n7:e&#45;&gt;c20:w</title>
<path fill="none" stroke="black" d="M725.14,-357C737.14,-357 742.39,-357 751.02,-357"/>
<polygon fill="black" stroke="black" points="751.14,-360.5 761.14,-357 751.14,-353.5 751.14,-360.5"/>
</g>
<!-- n8 -->
<g id="node4" class="node">
<title>n8</title>
<polygon fill="none" stroke="black" points="65.69,-549.54 65.69,-564.46 49.88,-575 27.51,-575 11.69,-564.46 11.69,-549.54 27.51,-539 49.88,-539 65.69,-549.54"/>
<text text-anchor="middle" x="38.69" y="-553.3" font-family="Times,serif" font-size="14.00">en</text>
</g>
<!-- c14 -->
<g id="node7" class="node">
<title>c14</title>
<polygon fill="none" stroke="black" points="906.14,-575 906.14,-621 1011.14,-621 1011.14,-575 906.14,-575"/>
<text text-anchor="middle" x="919.64" y="-605.8" font-family="Times,serif" font-size="14.00">A</text>
<polyline fill="none" stroke="black" points="906.14,-598 933.14,-598 "/>
<text text-anchor="middle" x="919.64" y="-582.8" font-family="Times,serif" font-size="14.00">B</text>
<polyline fill="none" stroke="black" points="933.14,-575 933.14,-621 "/>
<text text-anchor="middle" x="959.14" y="-601.8" font-family="Times,serif" font-size="14.00">$20</text>
<text text-anchor="middle" x="959.14" y="-586.8" font-family="Times,serif" font-size="14.00">$and</text>
<polyline fill="none" stroke="black" points="985.14,-575 985.14,-621 "/>
<text text-anchor="middle" x="998.14" y="-594.3" font-family="Times,serif" font-size="14.00">Y</text>
</g>
<!-- n8&#45;&gt;c14 -->
<g id="edge32" class="edge">
<title>n8:e&#45;&gt;c14:w</title>
<path fill="none" stroke="black" d="M66.69,-557C88.36,-557 92.33,-565.89 113.38,-571 200.17,-592.08 221.58,-608 310.88,-608 310.88,-608 310.88,-608 669.16,-608 770.99,-608 798.98,-609.87 895.9,-609.99"/>
<polygon fill="black" stroke="black" points="896.14,-613.49 906.14,-610 896.14,-606.49 896.14,-613.49"/>
</g>
<!-- n8&#45;&gt;c23 -->
<g id="edge33" class="edge">
<title>n8:e&#45;&gt;c23:w</title>
<path fill="none" stroke="black" d="M66.69,-557C187.88,-557 0.15,-295.99 103.24,-280.7"/>
<polygon fill="black" stroke="black" points="103.65,-284.18 113.38,-280 103.17,-277.2 103.65,-284.18"/>
</g>
<!-- x12 -->
<g id="node28" class="node">
<title>x12</title>
<path fill="none" stroke="black" d="M286.38,-539C286.38,-539 337.38,-539 337.38,-539 343.38,-539 349.38,-545 349.38,-551 349.38,-551 349.38,-563 349.38,-563 349.38,-569 343.38,-575 337.38,-575 337.38,-575 286.38,-575 286.38,-575 280.38,-575 274.38,-569 274.38,-563 274.38,-563 274.38,-551 274.38,-551 274.38,-545 280.38,-539 286.38,-539"/>
<text text-anchor="middle" x="311.88" y="-553.3" font-family="Times,serif" font-size="14.00">0:0 &#45; 0:0</text>
</g>
<!-- n8&#45;&gt;x12 -->
<g id="edge34" class="edge">
<title>n8:e&#45;&gt;x12:w</title>
<path fill="none" stroke="black" d="M66.69,-557C155.48,-557 180.22,-557 264.13,-557"/>
<polygon fill="black" stroke="black" points="264.38,-560.5 274.38,-557 264.38,-553.5 264.38,-560.5"/>
</g>
<!-- n9 -->
<g id="node5" class="node">
<title>n9</title>
<polygon fill="none" stroke="black" points="1219.72,-469 1158.06,-451 1219.72,-433 1281.39,-451 1219.72,-469"/>
<text text-anchor="middle" x="1219.72" y="-447.3" font-family="Times,serif" font-size="14.00">en_and</text>
</g>
<!-- x1 -->
<g id="node10" class="node">
<title>x1</title>
<path fill="none" stroke="black" d="M1329.31,-409C1329.31,-409 1380.31,-409 1380.31,-409 1386.31,-409 1392.31,-415 1392.31,-421 1392.31,-421 1392.31,-433 1392.31,-433 1392.31,-439 1386.31,-445 1380.31,-445 1380.31,-445 1329.31,-445 1329.31,-445 1323.31,-445 1317.31,-439 1317.31,-433 1317.31,-433 1317.31,-421 1317.31,-421 1317.31,-415 1323.31,-409 1329.31,-409"/>
<text text-anchor="middle" x="1354.81" y="-423.3" font-family="Times,serif" font-size="14.00">1:1 &#45; 0:0</text>
</g>
<!-- n9&#45;&gt;x1 -->
<g id="edge39" class="edge">
<title>n9:e&#45;&gt;x1:w</title>
<path fill="none" stroke="black" d="M1281.31,-451C1296.48,-451 1298.15,-436.06 1307.63,-429.75"/>
<polygon fill="black" stroke="black" points="1308.65,-433.1 1317.31,-427 1306.73,-426.37 1308.65,-433.1"/>
</g>
<!-- x9 -->
<g id="node24" class="node">
<title>x9</title>
<path fill="none" stroke="black" d="M1329.31,-166C1329.31,-166 1380.31,-166 1380.31,-166 1386.31,-166 1392.31,-172 1392.31,-178 1392.31,-178 1392.31,-190 1392.31,-190 1392.31,-196 1386.31,-202 1380.31,-202 1380.31,-202 1329.31,-202 1329.31,-202 1323.31,-202 1317.31,-196 1317.31,-190 1317.31,-190 1317.31,-178 1317.31,-178 1317.31,-172 1323.31,-166 1329.31,-166"/>
<text text-anchor="middle" x="1354.81" y="-180.3" font-family="Times,serif" font-size="14.00">1:1 &#45; 0:0</text>
</g>
<!-- n9&#45;&gt;x9 -->
<g id="edge40" class="edge">
<title>n9:e&#45;&gt;x9:w</title>
<path fill="none" stroke="black" d="M1281.31,-451C1337.44,-451 1267.34,-216.33 1307.7,-187"/>
<polygon fill="black" stroke="black" points="1308.8,-190.32 1317.31,-184 1306.72,-183.64 1308.8,-190.32"/>
</g>
<!-- x11 -->
<g id="node27" class="node">
<title>x11</title>
<path fill="none" stroke="black" d="M1329.31,-309C1329.31,-309 1380.31,-309 1380.31,-309 1386.31,-309 1392.31,-315 1392.31,-321 1392.31,-321 1392.31,-333 1392.31,-333 1392.31,-339 1386.31,-345 1380.31,-345 1380.31,-345 1329.31,-345 1329.31,-345 1323.31,-345 1317.31,-339 1317.31,-333 1317.31,-333 1317.31,-321 1317.31,-321 1317.31,-315 1323.31,-309 1329.31,-309"/>
<text text-anchor="middle" x="1354.81" y="-323.3" font-family="Times,serif" font-size="14.00">2:2 &#45; 0:0</text>
</g>
<!-- n9&#45;&gt;x11 -->
<g id="edge38" class="edge">
<title>n9:e&#45;&gt;x11:w</title>
<path fill="none" stroke="black" d="M1281.31,-451C1334.66,-451 1270.33,-343.82 1307.13,-328.75"/>
<polygon fill="black" stroke="black" points="1308.05,-332.15 1317.31,-327 1306.86,-325.25 1308.05,-332.15"/>
</g>
<!-- n10 -->
<g id="node6" class="node">
<title>n10</title>
<polygon fill="none" stroke="black" points="77.58,-171.54 77.58,-186.46 54.8,-197 22.59,-197 -0.19,-186.46 -0.19,-171.54 22.59,-161 54.8,-161 77.58,-171.54"/>
<text text-anchor="middle" x="38.69" y="-175.3" font-family="Times,serif" font-size="14.00">res_n</text>
</g>
<!-- n10&#45;&gt;c23 -->
<g id="edge14" class="edge">
<title>n10:e&#45;&gt;c23:w</title>
<path fill="none" stroke="black" d="M77.38,-179C102.26,-179 89.69,-218.88 103.45,-230.72"/>
<polygon fill="black" stroke="black" points="102.79,-234.19 113.38,-234 104.98,-227.54 102.79,-234.19"/>
</g>
<!-- n10&#45;&gt;c24 -->
<g id="edge15" class="edge">
<title>n10:e&#45;&gt;c24:w</title>
<path fill="none" stroke="black" d="M77.38,-179C130.07,-179 483.99,-61 536.68,-61 536.68,-61 536.68,-61 959.64,-61 1164.6,-61 1218.13,-45.53 1418.06,-45.01"/>
<polygon fill="black" stroke="black" points="1418.31,-48.51 1428.31,-45 1418.3,-41.51 1418.31,-48.51"/>
</g>
<!-- n10&#45;&gt;c25 -->
<g id="edge16" class="edge">
<title>n10:e&#45;&gt;c25:w</title>
<path fill="none" stroke="black" d="M77.38,-179C181.16,-179 207.11,-179 310.88,-179 310.88,-179 310.88,-179 959.64,-179 1119.24,-179 1157.87,-203.88 1317.31,-211 1350.61,-212.49 1360.78,-221.82 1392.31,-211 1407.59,-205.76 1408.5,-191.09 1418.5,-185.35"/>
<polygon fill="black" stroke="black" points="1419.4,-188.73 1428.31,-183 1417.77,-181.92 1419.4,-188.73"/>
</g>
<!-- x0 -->
<g id="node8" class="node">
<title>x0</title>
<path fill="none" stroke="black" d="M1059.14,-577C1059.14,-577 1110.14,-577 1110.14,-577 1116.14,-577 1122.14,-583 1122.14,-589 1122.14,-589 1122.14,-601 1122.14,-601 1122.14,-607 1116.14,-613 1110.14,-613 1110.14,-613 1059.14,-613 1059.14,-613 1053.14,-613 1047.14,-607 1047.14,-601 1047.14,-601 1047.14,-589 1047.14,-589 1047.14,-583 1053.14,-577 1059.14,-577"/>
<text text-anchor="middle" x="1084.64" y="-591.3" font-family="Times,serif" font-size="14.00">0:0 &#45; 1:1</text>
</g>
<!-- c14&#45;&gt;x0 -->
<g id="edge1" class="edge">
<title>c14:e&#45;&gt;x0:w</title>
<path fill="none" stroke="black" d="M1023.37,-597.3C1027.44,-596.82 1030.87,-596.18 1034.94,-595.69"/>
<polygon fill="none" stroke="black" points="1023.12,-597.32 1017.36,-601.65 1011.14,-598 1016.9,-593.67 1023.12,-597.32"/>
<polygon fill="none" stroke="black" points="1035.16,-595.68 1040.92,-591.35 1047.14,-595 1041.38,-599.33 1035.16,-595.68"/>
</g>
<!-- x0&#45;&gt;n9 -->
<g id="edge35" class="edge">
<title>x0:e&#45;&gt;n9:w</title>
<path fill="none" stroke="black" d="M1122.14,-595C1184.25,-595 1102.86,-467.38 1148.15,-452.43"/>
<polygon fill="black" stroke="black" points="1148.74,-455.88 1158.14,-451 1147.75,-448.95 1148.74,-455.88"/>
</g>
<!-- c15 -->
<g id="node9" class="node">
<title>c15</title>
<polygon fill="none" stroke="black" points="1476.81,-392 1476.81,-438 1581.81,-438 1581.81,-392 1476.81,-392"/>
<text text-anchor="middle" x="1490.31" y="-422.8" font-family="Times,serif" font-size="14.00">A</text>
<polyline fill="none" stroke="black" points="1476.81,-415 1503.81,-415 "/>
<text text-anchor="middle" x="1490.31" y="-399.8" font-family="Times,serif" font-size="14.00">B</text>
<polyline fill="none" stroke="black" points="1503.81,-392 1503.81,-438 "/>
<text text-anchor="middle" x="1529.81" y="-418.8" font-family="Times,serif" font-size="14.00">$23</text>
<text text-anchor="middle" x="1529.81" y="-403.8" font-family="Times,serif" font-size="14.00">$and</text>
<polyline fill="none" stroke="black" points="1555.81,-392 1555.81,-438 "/>
<text text-anchor="middle" x="1568.81" y="-411.3" font-family="Times,serif" font-size="14.00">Y</text>
</g>
<!-- x2 -->
<g id="node11" class="node">
<title>x2</title>
<path fill="none" stroke="black" d="M1678.31,-426C1678.31,-426 1729.31,-426 1729.31,-426 1735.31,-426 1741.31,-432 1741.31,-438 1741.31,-438 1741.31,-450 1741.31,-450 1741.31,-456 1735.31,-462 1729.31,-462 1729.31,-462 1678.31,-462 1678.31,-462 1672.31,-462 1666.31,-456 1666.31,-450 1666.31,-450 1666.31,-438 1666.31,-438 1666.31,-432 1672.31,-426 1678.31,-426"/>
<text text-anchor="middle" x="1703.81" y="-440.3" font-family="Times,serif" font-size="14.00">0:0 &#45; 2:2</text>
</g>
<!-- c15&#45;&gt;x2 -->
<g id="edge3" class="edge">
<title>c15:e&#45;&gt;x2:w</title>
<path fill="none" stroke="black" d="M1595.37,-416.03C1620.24,-420.53 1629.32,-438.41 1654.15,-442.95"/>
<polygon fill="none" stroke="black" points="1595.26,-416.02 1588.95,-419.5 1583.31,-415 1589.63,-411.53 1595.26,-416.02"/>
<polygon fill="none" stroke="black" points="1654.35,-442.97 1660.67,-439.5 1666.31,-444 1659.99,-447.47 1654.35,-442.97"/>
</g>
<!-- x1&#45;&gt;c15 -->
<g id="edge2" class="edge">
<title>x1:e&#45;&gt;c15:w</title>
<path fill="none" stroke="black" d="M1404.59,-427C1428.11,-427 1439.56,-427 1463.11,-427"/>
<polygon fill="none" stroke="black" points="1404.31,-427 1398.31,-431 1392.31,-427 1398.31,-423 1404.31,-427"/>
<polygon fill="none" stroke="black" points="1463.31,-427 1469.31,-423 1475.31,-427 1469.31,-431 1463.31,-427"/>
</g>
<!-- x2&#45;&gt;n9 -->
<g id="edge37" class="edge">
<title>x2:e&#45;&gt;n9:w</title>
<path fill="none" stroke="black" d="M1742.81,-444C1751.04,-444 1747.75,-456.79 1741.81,-462.5 1594.22,-604.32 1485.99,-467.56 1281.31,-469 1226.38,-469.39 1197.63,-506.75 1157.72,-469 1155.36,-466.76 1153.43,-463.37 1152.51,-460.14"/>
<polygon fill="black" stroke="black" points="1155.71,-461.55 1156.72,-451 1149.36,-458.61 1155.71,-461.55"/>
</g>
<!-- c16 -->
<g id="node12" class="node">
<title>c16</title>
<polygon fill="none" stroke="black" points="617.66,-490 617.66,-528 718.66,-528 718.66,-490 617.66,-490"/>
<text text-anchor="middle" x="630.66" y="-505.3" font-family="Times,serif" font-size="14.00">A</text>
<polyline fill="none" stroke="black" points="643.66,-490 643.66,-528 "/>
<text text-anchor="middle" x="668.16" y="-512.8" font-family="Times,serif" font-size="14.00">$18</text>
<text text-anchor="middle" x="668.16" y="-497.8" font-family="Times,serif" font-size="14.00">$not</text>
<polyline fill="none" stroke="black" points="692.66,-490 692.66,-528 "/>
<text text-anchor="middle" x="705.66" y="-505.3" font-family="Times,serif" font-size="14.00">Y</text>
</g>
<!-- c16&#45;&gt;c19 -->
<g id="edge13" class="edge">
<title>c16:e&#45;&gt;c19:w</title>
<path fill="none" stroke="black" d="M720.16,-509C734.87,-509 740.27,-503.4 751.06,-501.03"/>
<polygon fill="black" stroke="black" points="751.55,-504.5 761.14,-500 750.84,-497.54 751.55,-504.5"/>
</g>
<!-- x3&#45;&gt;c16 -->
<g id="edge4" class="edge">
<title>x3:e&#45;&gt;c16:w</title>
<path fill="none" stroke="black" d="M586.98,-487.48C593.86,-492.2 597.35,-500.6 604.17,-505.39"/>
<polygon fill="none" stroke="black" points="586.69,-487.39 579.8,-489.53 575.18,-484 582.06,-481.86 586.69,-487.39"/>
<polygon fill="none" stroke="black" points="604.67,-505.54 611.57,-503.44 616.16,-509 609.26,-511.1 604.67,-505.54"/>
</g>
<!-- c17 -->
<g id="node14" class="node">
<title>c17</title>
<polygon fill="none" stroke="black" points="617.66,-394 617.66,-432 718.66,-432 718.66,-394 617.66,-394"/>
<text text-anchor="middle" x="630.66" y="-409.3" font-family="Times,serif" font-size="14.00">A</text>
<polyline fill="none" stroke="black" points="643.66,-394 643.66,-432 "/>
<text text-anchor="middle" x="668.16" y="-416.8" font-family="Times,serif" font-size="14.00">$21</text>
<text text-anchor="middle" x="668.16" y="-401.8" font-family="Times,serif" font-size="14.00">$not</text>
<polyline fill="none" stroke="black" points="692.66,-394 692.66,-432 "/>
<text text-anchor="middle" x="705.66" y="-409.3" font-family="Times,serif" font-size="14.00">Y</text>
</g>
<!-- c17&#45;&gt;c20 -->
<g id="edge17" class="edge">
<title>c17:e&#45;&gt;c20:w</title>
<path fill="none" stroke="black" d="M720.16,-413C734.95,-413 740.24,-406.77 751.03,-404.15"/>
<polygon fill="black" stroke="black" points="751.6,-407.6 761.14,-403 750.81,-400.65 751.6,-407.6"/>
</g>
<!-- x4&#45;&gt;c17 -->
<g id="edge5" class="edge">
<title>x4:e&#45;&gt;c17:w</title>
<path fill="none" stroke="black" d="M586.75,-360.1C598.03,-370.62 593.31,-398.46 604.63,-408.94"/>
<polygon fill="none" stroke="black" points="586.49,-360.01 579.5,-361.77 575.18,-356 582.17,-354.23 586.49,-360.01"/>
<polygon fill="none" stroke="black" points="604.84,-409.01 611.83,-407.23 616.16,-413 609.17,-414.78 604.84,-409.01"/>
</g>
<!-- c19&#45;&gt;c14 -->
<g id="edge18" class="edge">
<title>c19:e&#45;&gt;c14:w</title>
<path fill="none" stroke="black" d="M870.14,-477C917.17,-477 864.73,-569.63 896.22,-584.11"/>
<polygon fill="black" stroke="black" points="895.66,-587.57 906.14,-586 896.97,-580.69 895.66,-587.57"/>
</g>
<!-- x5&#45;&gt;c19 -->
<g id="edge6" class="edge">
<title>x5:e&#45;&gt;c19:w</title>
<path fill="none" stroke="black" d="M587.11,-425.58C595.07,-429.63 598.99,-437.45 611.18,-442 671.28,-464.45 690.34,-475.57 748.88,-476.87"/>
<polygon fill="none" stroke="black" points="586.9,-425.54 580.19,-428.18 575.18,-423 581.89,-420.36 586.9,-425.54"/>
<polygon fill="none" stroke="black" points="749.14,-476.87 755.18,-472.94 761.14,-477 755.1,-480.94 749.14,-476.87"/>
</g>
<!-- c20&#45;&gt;c15 -->
<g id="edge19" class="edge">
<title>c20:e&#45;&gt;c15:w</title>
<path fill="none" stroke="black" d="M870.14,-380C965.03,-380 988.75,-380 1083.64,-380 1083.64,-380 1083.64,-380 1220.72,-380 1330.89,-380 1359.96,-401.63 1465.22,-402.94"/>
<polygon fill="black" stroke="black" points="1465.29,-406.44 1475.31,-403 1465.33,-399.44 1465.29,-406.44"/>
</g>
<!-- x6&#45;&gt;c20 -->
<g id="edge7" class="edge">
<title>x6:e&#45;&gt;c20:w</title>
<path fill="none" stroke="black" d="M718.91,-304.78C740.22,-316.88 728.08,-364.98 749.31,-377.18"/>
<polygon fill="none" stroke="black" points="718.84,-304.76 712.08,-307.27 707.16,-302 713.92,-299.49 718.84,-304.76"/>
<polygon fill="none" stroke="black" points="749.47,-377.21 756.23,-374.72 761.14,-380 754.38,-382.5 749.47,-377.21"/>
</g>
<!-- x7 -->
<g id="node21" class="node">
<title>x7</title>
<path fill="none" stroke="black" d="M286.38,-254C286.38,-254 337.38,-254 337.38,-254 343.38,-254 349.38,-260 349.38,-266 349.38,-266 349.38,-278 349.38,-278 349.38,-284 343.38,-290 337.38,-290 337.38,-290 286.38,-290 286.38,-290 280.38,-290 274.38,-284 274.38,-278 274.38,-278 274.38,-266 274.38,-266 274.38,-260 280.38,-254 286.38,-254"/>
<text text-anchor="middle" x="311.88" y="-268.3" font-family="Times,serif" font-size="14.00">0:0 &#45; 0:0</text>
</g>
<!-- c23&#45;&gt;x7 -->
<g id="edge8" class="edge">
<title>c23:e&#45;&gt;x7:w</title>
<path fill="none" stroke="black" d="M250.18,-260.04C254.72,-262.64 258.06,-266.37 262.6,-268.97"/>
<polygon fill="none" stroke="black" points="250.01,-259.99 243.2,-262.37 238.38,-257 245.19,-254.62 250.01,-259.99"/>
<polygon fill="none" stroke="black" points="262.76,-269.01 269.57,-266.63 274.38,-272 267.58,-274.38 262.76,-269.01"/>
</g>
<!-- x7&#45;&gt;n6 -->
<g id="edge24" class="edge">
<title>x7:e&#45;&gt;n6:w</title>
<path fill="none" stroke="black" d="M349.38,-272C366.14,-272 365.76,-291.43 375.82,-299.01"/>
<polygon fill="black" stroke="black" points="374.8,-302.36 385.38,-302 376.88,-295.68 374.8,-302.36"/>
</g>
<!-- x8 -->
<g id="node23" class="node">
<title>x8</title>
<path fill="none" stroke="black" d="M1678.31,-85C1678.31,-85 1729.31,-85 1729.31,-85 1735.31,-85 1741.31,-91 1741.31,-97 1741.31,-97 1741.31,-109 1741.31,-109 1741.31,-115 1735.31,-121 1729.31,-121 1729.31,-121 1678.31,-121 1678.31,-121 1672.31,-121 1666.31,-115 1666.31,-109 1666.31,-109 1666.31,-97 1666.31,-97 1666.31,-91 1672.31,-85 1678.31,-85"/>
<text text-anchor="middle" x="1703.81" y="-99.3" font-family="Times,serif" font-size="14.00">0:0 &#45; 1:1</text>
</g>
<!-- c24&#45;&gt;x8 -->
<g id="edge9" class="edge">
<title>c24:e&#45;&gt;x8:w</title>
<path fill="none" stroke="black" d="M1641.43,-72.58C1647.67,-79.25 1648.9,-91.58 1655.08,-98.31"/>
<polygon fill="none" stroke="black" points="1641.41,-72.57 1634.34,-73.98 1630.31,-68 1637.38,-66.58 1641.41,-72.57"/>
<polygon fill="none" stroke="black" points="1655.24,-98.38 1662.31,-97 1666.31,-103 1659.23,-104.38 1655.24,-98.38"/>
</g>
<!-- x8&#45;&gt;n6 -->
<g id="edge25" class="edge">
<title>x8:e&#45;&gt;n6:w</title>
<path fill="none" stroke="black" d="M1742.81,-103C1751.04,-103 1747.55,-115.6 1741.81,-121.5 1675.8,-189.32 1411.21,-144.2 1317.31,-156 1157.31,-176.11 1120.9,-217 959.64,-217 667.16,-217 667.16,-217 667.16,-217 588.59,-217 564.34,-229.66 500.18,-275 479.26,-289.78 487.26,-308.9 464.18,-320 432.77,-335.09 411.09,-343.94 385.78,-320 383.42,-317.76 381.48,-314.37 380.56,-311.14"/>
<polygon fill="black" stroke="black" points="383.77,-312.55 384.78,-302 377.41,-309.61 383.77,-312.55"/>
</g>
<!-- x9&#45;&gt;c24 -->
<g id="edge10" class="edge">
<title>x9:e&#45;&gt;c24:w</title>
<path fill="none" stroke="black" d="M1403.92,-180.69C1423.02,-166.32 1397.78,-109.43 1416.37,-94.57"/>
<polygon fill="none" stroke="black" points="1403.85,-180.71 1399.17,-186.2 1392.31,-184 1396.98,-178.51 1403.85,-180.71"/>
<polygon fill="none" stroke="black" points="1416.81,-94.43 1421.41,-88.88 1428.31,-91 1423.7,-96.55 1416.81,-94.43"/>
</g>
<!-- x10 -->
<g id="node26" class="node">
<title>x10</title>
<path fill="none" stroke="black" d="M1678.31,-219C1678.31,-219 1729.31,-219 1729.31,-219 1735.31,-219 1741.31,-225 1741.31,-231 1741.31,-231 1741.31,-243 1741.31,-243 1741.31,-249 1735.31,-255 1729.31,-255 1729.31,-255 1678.31,-255 1678.31,-255 1672.31,-255 1666.31,-249 1666.31,-243 1666.31,-243 1666.31,-231 1666.31,-231 1666.31,-225 1672.31,-219 1678.31,-219"/>
<text text-anchor="middle" x="1703.81" y="-233.3" font-family="Times,serif" font-size="14.00">0:0 &#45; 2:2</text>
</g>
<!-- c25&#45;&gt;x10 -->
<g id="edge11" class="edge">
<title>c25:e&#45;&gt;x10:w</title>
<path fill="none" stroke="black" d="M1641.61,-210.57C1647.25,-216.37 1649.24,-226.31 1654.79,-232.2"/>
<polygon fill="none" stroke="black" points="1641.43,-210.5 1634.37,-211.96 1630.31,-206 1637.37,-204.54 1641.43,-210.5"/>
<polygon fill="none" stroke="black" points="1655.23,-232.39 1662.31,-231 1666.31,-237 1659.23,-238.39 1655.23,-232.39"/>
</g>
<!-- x10&#45;&gt;n6 -->
<g id="edge23" class="edge">
<title>x10:e&#45;&gt;n6:w</title>
<path fill="none" stroke="black" d="M1742.81,-237C1751.04,-237 1747.74,-249.79 1741.81,-255.5 1651.31,-342.66 735.99,-259.63 611.18,-274 561.03,-279.77 547.03,-279.24 500.18,-298 482.77,-304.97 482.23,-314.92 464.18,-320 430.64,-329.44 411.09,-343.94 385.78,-320 383.42,-317.76 381.48,-314.37 380.56,-311.14"/>
<polygon fill="black" stroke="black" points="383.77,-312.55 384.78,-302 377.41,-309.61 383.77,-312.55"/>
</g>
<!-- x11&#45;&gt;c25 -->
<g id="edge12" class="edge">
<title>x11:e&#45;&gt;c25:w</title>
<path fill="none" stroke="black" d="M1404.1,-323.74C1424.68,-308.79 1395.86,-246.94 1416.64,-232.17"/>
<polygon fill="none" stroke="black" points="1403.87,-323.8 1399.16,-329.26 1392.31,-327 1397.03,-321.55 1403.87,-323.8"/>
<polygon fill="none" stroke="black" points="1416.73,-232.15 1421.47,-226.71 1428.31,-229 1423.57,-234.43 1416.73,-232.15"/>
</g>
<!-- x12&#45;&gt;n9 -->
<g id="edge36" class="edge">
<title>x12:e&#45;&gt;n9:w</title>
<path fill="none" stroke="black" d="M349.38,-557C581.38,-557 641.79,-561.98 870.14,-521 996.38,-498.35 1024.94,-453.45 1147.94,-451.1"/>
<polygon fill="black" stroke="black" points="1148.17,-454.59 1158.14,-451 1148.11,-447.59 1148.17,-454.59"/>
</g>
</g>
</svg>
