<?xml version="1.0" encoding="UTF-8" standalone="no"?>
<!DOCTYPE svg PUBLIC "-//W3C//DTD SVG 1.1//EN"
 "http://www.w3.org/Graphics/SVG/1.1/DTD/svg11.dtd">
<!-- Generated by graphviz version 2.43.20190912.0211 (20190912.0211)
 -->
<!-- Title: counter_jkff Pages: 1 -->
<svg width="2065pt" height="439pt"
 viewBox="0.00 0.00 2064.63 439.23" xmlns="http://www.w3.org/2000/svg" xmlns:xlink="http://www.w3.org/1999/xlink">
<g id="graph0" class="graph" transform="scale(1 1) rotate(0) translate(4 435.23)">
<title>counter_jkff</title>
<polygon fill="white" stroke="transparent" points="-4,4 -4,-435.23 2060.63,-435.23 2060.63,4 -4,4"/>
<text text-anchor="middle" x="1028.32" y="-7.8" font-family="Times,serif" font-size="14.00">counter_jkff</text>
<!-- n11 -->
<g id="node1" class="node">
<title>n11</title>
<polygon fill="none" stroke="black" points="192.88,-173.19 192.88,-188.1 177.07,-198.65 154.7,-198.65 138.88,-188.1 138.88,-173.19 154.7,-162.65 177.07,-162.65 192.88,-173.19"/>
<text text-anchor="middle" x="165.88" y="-176.95" font-family="Times,serif" font-size="14.00">clk</text>
</g>
<!-- c22 -->
<g id="node9" class="node">
<title>c22</title>
<polygon fill="none" stroke="black" points="254.38,-117.65 254.38,-163.65 359.38,-163.65 359.38,-117.65 254.38,-117.65"/>
<text text-anchor="middle" x="267.88" y="-148.45" font-family="Times,serif" font-size="14.00">A</text>
<polyline fill="none" stroke="black" points="254.38,-140.65 281.38,-140.65 "/>
<text text-anchor="middle" x="267.88" y="-125.45" font-family="Times,serif" font-size="14.00">B</text>
<polyline fill="none" stroke="black" points="281.38,-117.65 281.38,-163.65 "/>
<text text-anchor="middle" x="307.38" y="-144.45" font-family="Times,serif" font-size="14.00">$36</text>
<text text-anchor="middle" x="307.38" y="-129.45" font-family="Times,serif" font-size="14.00">$and</text>
<polyline fill="none" stroke="black" points="333.38,-117.65 333.38,-163.65 "/>
<text text-anchor="middle" x="346.38" y="-136.95" font-family="Times,serif" font-size="14.00">Y</text>
</g>
<!-- n11&#45;&gt;c22 -->
<g id="edge8" class="edge">
<title>n11:e&#45;&gt;c22:w</title>
<path fill="none" stroke="black" d="M193.88,-180.65C219.69,-180.65 223.96,-159.4 244.22,-153.92"/>
<polygon fill="black" stroke="black" points="244.9,-157.36 254.38,-152.65 244.03,-150.42 244.9,-157.36"/>
</g>
<!-- c35 -->
<g id="node21" class="node">
<title>c35</title>
<polygon fill="none" stroke="black" points="665.38,-298.15 665.38,-367.15 910.38,-367.15 910.38,-298.15 665.38,-298.15"/>
<text text-anchor="middle" x="683.88" y="-351.95" font-family="Times,serif" font-size="14.00">J</text>
<polyline fill="none" stroke="black" points="665.38,-344.15 702.38,-344.15 "/>
<text text-anchor="middle" x="683.88" y="-328.95" font-family="Times,serif" font-size="14.00">K</text>
<polyline fill="none" stroke="black" points="665.38,-321.15 702.38,-321.15 "/>
<text text-anchor="middle" x="683.88" y="-305.95" font-family="Times,serif" font-size="14.00">clk</text>
<polyline fill="none" stroke="black" points="702.38,-298.15 702.38,-367.15 "/>
<text text-anchor="middle" x="792.38" y="-336.45" font-family="Times,serif" font-size="14.00">genblk1[0].genblk1.ff_i</text>
<text text-anchor="middle" x="792.38" y="-321.45" font-family="Times,serif" font-size="14.00">ff_jk</text>
<polyline fill="none" stroke="black" points="882.38,-298.15 882.38,-367.15 "/>
<text text-anchor="middle" x="896.38" y="-328.95" font-family="Times,serif" font-size="14.00">Q</text>
</g>
<!-- n11&#45;&gt;c35 -->
<g id="edge9" class="edge">
<title>n11:e&#45;&gt;c35:w</title>
<path fill="none" stroke="black" d="M193.88,-180.65C291.3,-180.65 550.6,-173.35 629.38,-230.65 657.3,-250.95 633.2,-298.14 655.43,-307.87"/>
<polygon fill="black" stroke="black" points="654.93,-311.34 665.38,-309.65 656.15,-304.45 654.93,-311.34"/>
</g>
<!-- n12 -->
<g id="node2" class="node">
<title>n12</title>
<polygon fill="none" stroke="black" points="1136.07,-315.19 1136.07,-330.1 1113.05,-340.65 1080.5,-340.65 1057.49,-330.1 1057.49,-315.19 1080.5,-304.65 1113.05,-304.65 1136.07,-315.19"/>
<text text-anchor="middle" x="1096.78" y="-318.95" font-family="Times,serif" font-size="14.00">count</text>
</g>
<!-- x0 -->
<g id="node13" class="node">
<title>x0</title>
<path fill="none" stroke="black" d="M1184.18,-210.65C1184.18,-210.65 1235.18,-210.65 1235.18,-210.65 1241.18,-210.65 1247.18,-216.65 1247.18,-222.65 1247.18,-222.65 1247.18,-234.65 1247.18,-234.65 1247.18,-240.65 1241.18,-246.65 1235.18,-246.65 1235.18,-246.65 1184.18,-246.65 1184.18,-246.65 1178.18,-246.65 1172.18,-240.65 1172.18,-234.65 1172.18,-234.65 1172.18,-222.65 1172.18,-222.65 1172.18,-216.65 1178.18,-210.65 1184.18,-210.65"/>
<text text-anchor="middle" x="1209.68" y="-224.95" font-family="Times,serif" font-size="14.00">0:0 &#45; 0:0</text>
</g>
<!-- n12&#45;&gt;x0 -->
<g id="edge13" class="edge">
<title>n12:e&#45;&gt;x0:w</title>
<path fill="none" stroke="black" d="M1136.18,-322.65C1176.89,-322.65 1136.25,-244.78 1162.35,-230.79"/>
<polygon fill="black" stroke="black" points="1163.15,-234.19 1172.18,-228.65 1161.66,-227.35 1163.15,-234.19"/>
</g>
<!-- x1 -->
<g id="node15" class="node">
<title>x1</title>
<path fill="none" stroke="black" d="M1184.18,-304.65C1184.18,-304.65 1235.18,-304.65 1235.18,-304.65 1241.18,-304.65 1247.18,-310.65 1247.18,-316.65 1247.18,-316.65 1247.18,-328.65 1247.18,-328.65 1247.18,-334.65 1241.18,-340.65 1235.18,-340.65 1235.18,-340.65 1184.18,-340.65 1184.18,-340.65 1178.18,-340.65 1172.18,-334.65 1172.18,-328.65 1172.18,-328.65 1172.18,-316.65 1172.18,-316.65 1172.18,-310.65 1178.18,-304.65 1184.18,-304.65"/>
<text text-anchor="middle" x="1209.68" y="-318.95" font-family="Times,serif" font-size="14.00">1:1 &#45; 0:0</text>
</g>
<!-- n12&#45;&gt;x1 -->
<g id="edge14" class="edge">
<title>n12:e&#45;&gt;x1:w</title>
<path fill="none" stroke="black" d="M1136.18,-322.65C1148.18,-322.65 1153.43,-322.65 1162.05,-322.65"/>
<polygon fill="black" stroke="black" points="1162.18,-326.15 1172.18,-322.65 1162.18,-319.15 1162.18,-326.15"/>
</g>
<!-- n13 -->
<g id="node3" class="node">
<title>n13</title>
<polygon fill="none" stroke="black" points="65.69,-307.19 65.69,-322.1 49.88,-332.65 27.51,-332.65 11.69,-322.1 11.69,-307.19 27.51,-296.65 49.88,-296.65 65.69,-307.19"/>
<text text-anchor="middle" x="38.69" y="-310.95" font-family="Times,serif" font-size="14.00">en</text>
</g>
<!-- c23 -->
<g id="node10" class="node">
<title>c23</title>
<polygon fill="none" stroke="black" points="113.38,-255.65 113.38,-301.65 218.38,-301.65 218.38,-255.65 113.38,-255.65"/>
<text text-anchor="middle" x="126.88" y="-286.45" font-family="Times,serif" font-size="14.00">A</text>
<polyline fill="none" stroke="black" points="113.38,-278.65 140.38,-278.65 "/>
<text text-anchor="middle" x="126.88" y="-263.45" font-family="Times,serif" font-size="14.00">B</text>
<polyline fill="none" stroke="black" points="140.38,-255.65 140.38,-301.65 "/>
<text text-anchor="middle" x="166.38" y="-282.45" font-family="Times,serif" font-size="14.00">$24</text>
<text text-anchor="middle" x="166.38" y="-267.45" font-family="Times,serif" font-size="14.00">$and</text>
<polyline fill="none" stroke="black" points="192.38,-255.65 192.38,-301.65 "/>
<text text-anchor="middle" x="205.38" y="-274.95" font-family="Times,serif" font-size="14.00">Y</text>
</g>
<!-- n13&#45;&gt;c23 -->
<g id="edge15" class="edge">
<title>n13:e&#45;&gt;c23:w</title>
<path fill="none" stroke="black" d="M66.69,-314.65C86.01,-314.65 89.35,-298.19 103.18,-292.53"/>
<polygon fill="black" stroke="black" points="104.19,-295.9 113.38,-290.65 102.91,-289.02 104.19,-295.9"/>
</g>
<!-- c28 -->
<g id="node17" class="node">
<title>c28</title>
<polygon fill="none" stroke="black" points="115.38,-320.65 115.38,-358.65 216.38,-358.65 216.38,-320.65 115.38,-320.65"/>
<text text-anchor="middle" x="128.38" y="-335.95" font-family="Times,serif" font-size="14.00">A</text>
<polyline fill="none" stroke="black" points="141.38,-320.65 141.38,-358.65 "/>
<text text-anchor="middle" x="165.88" y="-343.45" font-family="Times,serif" font-size="14.00">$25</text>
<text text-anchor="middle" x="165.88" y="-328.45" font-family="Times,serif" font-size="14.00">$not</text>
<polyline fill="none" stroke="black" points="190.38,-320.65 190.38,-358.65 "/>
<text text-anchor="middle" x="203.38" y="-335.95" font-family="Times,serif" font-size="14.00">Y</text>
</g>
<!-- n13&#45;&gt;c28 -->
<g id="edge16" class="edge">
<title>n13:e&#45;&gt;c28:w</title>
<path fill="none" stroke="black" d="M66.69,-314.65C86.53,-314.65 89.59,-332.11 103.93,-337.85"/>
<polygon fill="black" stroke="black" points="103.42,-341.31 113.88,-339.65 104.67,-334.42 103.42,-341.31"/>
</g>
<!-- n14 -->
<g id="node4" class="node">
<title>n14</title>
<polygon fill="none" stroke="black" points="580.88,-362.65 553.88,-344.65 580.88,-326.65 607.88,-344.65 580.88,-362.65"/>
<text text-anchor="middle" x="580.88" y="-340.95" font-family="Times,serif" font-size="14.00">j</text>
</g>
<!-- n14&#45;&gt;c35 -->
<g id="edge18" class="edge">
<title>n14:e&#45;&gt;c35:w</title>
<path fill="none" stroke="black" d="M608.88,-344.65C630.67,-344.65 637.77,-352.62 655.2,-354.99"/>
<polygon fill="black" stroke="black" points="655.18,-358.5 665.38,-355.65 655.63,-351.51 655.18,-358.5"/>
</g>
<!-- c36 -->
<g id="node23" class="node">
<title>c36</title>
<polygon fill="none" stroke="black" points="665.38,-210.15 665.38,-279.15 910.38,-279.15 910.38,-210.15 665.38,-210.15"/>
<text text-anchor="middle" x="683.88" y="-263.95" font-family="Times,serif" font-size="14.00">J</text>
<polyline fill="none" stroke="black" points="665.38,-256.15 702.38,-256.15 "/>
<text text-anchor="middle" x="683.88" y="-240.95" font-family="Times,serif" font-size="14.00">K</text>
<polyline fill="none" stroke="black" points="665.38,-233.15 702.38,-233.15 "/>
<text text-anchor="middle" x="683.88" y="-217.95" font-family="Times,serif" font-size="14.00">clk</text>
<polyline fill="none" stroke="black" points="702.38,-210.15 702.38,-279.15 "/>
<text text-anchor="middle" x="792.38" y="-248.45" font-family="Times,serif" font-size="14.00">genblk1[1].genblk1.ff_i</text>
<text text-anchor="middle" x="792.38" y="-233.45" font-family="Times,serif" font-size="14.00">ff_jk</text>
<polyline fill="none" stroke="black" points="882.38,-210.15 882.38,-279.15 "/>
<text text-anchor="middle" x="896.38" y="-240.95" font-family="Times,serif" font-size="14.00">Q</text>
</g>
<!-- n14&#45;&gt;c36 -->
<g id="edge19" class="edge">
<title>n14:e&#45;&gt;c36:w</title>
<path fill="none" stroke="black" d="M608.88,-344.65C647.35,-344.65 627.64,-281.41 655.2,-269.55"/>
<polygon fill="black" stroke="black" points="656.2,-272.92 665.38,-267.65 654.91,-266.04 656.2,-272.92"/>
</g>
<!-- c37 -->
<g id="node25" class="node">
<title>c37</title>
<polygon fill="none" stroke="black" points="1694.18,-258.15 1694.18,-327.15 1939.18,-327.15 1939.18,-258.15 1694.18,-258.15"/>
<text text-anchor="middle" x="1712.68" y="-311.95" font-family="Times,serif" font-size="14.00">J</text>
<polyline fill="none" stroke="black" points="1694.18,-304.15 1731.18,-304.15 "/>
<text text-anchor="middle" x="1712.68" y="-288.95" font-family="Times,serif" font-size="14.00">K</text>
<polyline fill="none" stroke="black" points="1694.18,-281.15 1731.18,-281.15 "/>
<text text-anchor="middle" x="1712.68" y="-265.95" font-family="Times,serif" font-size="14.00">clk</text>
<polyline fill="none" stroke="black" points="1731.18,-258.15 1731.18,-327.15 "/>
<text text-anchor="middle" x="1821.18" y="-296.45" font-family="Times,serif" font-size="14.00">genblk1[2].genblk1.ff_i</text>
<text text-anchor="middle" x="1821.18" y="-281.45" font-family="Times,serif" font-size="14.00">ff_jk</text>
<polyline fill="none" stroke="black" points="1911.18,-258.15 1911.18,-327.15 "/>
<text text-anchor="middle" x="1925.18" y="-288.95" font-family="Times,serif" font-size="14.00">Q</text>
</g>
<!-- n14&#45;&gt;c37 -->
<g id="edge20" class="edge">
<title>n14:e&#45;&gt;c37:w</title>
<path fill="none" stroke="black" d="M608.88,-344.65C637.74,-344.65 637.87,-367.94 665.38,-376.65 800.57,-419.4 841.1,-407.65 982.88,-407.65 982.88,-407.65 982.88,-407.65 1097.78,-407.65 1362.57,-407.65 1424.42,-317.97 1684.06,-315.69"/>
<polygon fill="black" stroke="black" points="1684.19,-319.19 1694.18,-315.65 1684.16,-312.19 1684.19,-319.19"/>
</g>
<!-- n15 -->
<g id="node5" class="node">
<title>n15</title>
<polygon fill="none" stroke="black" points="580.88,-275.65 553.88,-257.65 580.88,-239.65 607.88,-257.65 580.88,-275.65"/>
<text text-anchor="middle" x="580.88" y="-253.95" font-family="Times,serif" font-size="14.00">k</text>
</g>
<!-- n15&#45;&gt;c35 -->
<g id="edge22" class="edge">
<title>n15:e&#45;&gt;c35:w</title>
<path fill="none" stroke="black" d="M608.88,-257.65C646.71,-257.65 628.1,-319.24 655.34,-330.79"/>
<polygon fill="black" stroke="black" points="654.91,-334.27 665.38,-332.65 656.19,-327.39 654.91,-334.27"/>
</g>
<!-- n15&#45;&gt;c36 -->
<g id="edge23" class="edge">
<title>n15:e&#45;&gt;c36:w</title>
<path fill="none" stroke="black" d="M608.88,-257.65C630.83,-257.65 637.68,-248.22 655.15,-245.42"/>
<polygon fill="black" stroke="black" points="655.68,-248.89 665.38,-244.65 655.15,-241.91 655.68,-248.89"/>
</g>
<!-- n15&#45;&gt;c37 -->
<g id="edge24" class="edge">
<title>n15:e&#45;&gt;c37:w</title>
<path fill="none" stroke="black" d="M608.88,-257.65C644.55,-257.65 632.88,-215.35 665.38,-200.65 794.18,-142.39 841.52,-181.65 982.88,-181.65 982.88,-181.65 982.88,-181.65 1097.78,-181.65 1164.77,-181.65 1182.93,-182.67 1247.18,-201.65 1264.15,-206.66 1266.27,-213.41 1283.18,-218.65 1387.24,-250.89 1418.03,-237.93 1525.18,-257.65 1597.08,-270.88 1615.76,-290.68 1683.77,-292.51"/>
<polygon fill="black" stroke="black" points="1684.13,-296.01 1694.18,-292.65 1684.22,-289.01 1684.13,-296.01"/>
</g>
<!-- n16 -->
<g id="node6" class="node">
<title>n16</title>
<polygon fill="none" stroke="black" points="77.58,-117.19 77.58,-132.1 54.8,-142.65 22.59,-142.65 -0.19,-132.1 -0.19,-117.19 22.59,-106.65 54.8,-106.65 77.58,-117.19"/>
<text text-anchor="middle" x="38.69" y="-120.95" font-family="Times,serif" font-size="14.00">res_n</text>
</g>
<!-- c20 -->
<g id="node7" class="node">
<title>c20</title>
<polygon fill="none" stroke="black" points="1420.18,-118.65 1420.18,-164.65 1525.18,-164.65 1525.18,-118.65 1420.18,-118.65"/>
<text text-anchor="middle" x="1433.68" y="-149.45" font-family="Times,serif" font-size="14.00">A</text>
<polyline fill="none" stroke="black" points="1420.18,-141.65 1447.18,-141.65 "/>
<text text-anchor="middle" x="1433.68" y="-126.45" font-family="Times,serif" font-size="14.00">B</text>
<polyline fill="none" stroke="black" points="1447.18,-118.65 1447.18,-164.65 "/>
<text text-anchor="middle" x="1473.18" y="-145.45" font-family="Times,serif" font-size="14.00">$29</text>
<text text-anchor="middle" x="1473.18" y="-130.45" font-family="Times,serif" font-size="14.00">$and</text>
<polyline fill="none" stroke="black" points="1499.18,-118.65 1499.18,-164.65 "/>
<text text-anchor="middle" x="1512.18" y="-137.95" font-family="Times,serif" font-size="14.00">Y</text>
</g>
<!-- n16&#45;&gt;c20 -->
<g id="edge25" class="edge">
<title>n16:e&#45;&gt;c20:w</title>
<path fill="none" stroke="black" d="M77.38,-124.65C112.76,-124.65 84.44,-73.99 113.38,-53.65 183.91,-4.06 219.67,-29.65 305.88,-29.65 305.88,-29.65 305.88,-29.65 788.88,-29.65 892.77,-29.65 918.6,-38.57 1021.38,-53.65 1196.51,-79.32 1238.18,-127.76 1410.02,-129.59"/>
<polygon fill="black" stroke="black" points="1410.16,-133.09 1420.18,-129.65 1410.19,-126.09 1410.16,-133.09"/>
</g>
<!-- c21 -->
<g id="node8" class="node">
<title>c21</title>
<polygon fill="none" stroke="black" points="1420.18,-266.65 1420.18,-312.65 1525.18,-312.65 1525.18,-266.65 1420.18,-266.65"/>
<text text-anchor="middle" x="1433.68" y="-297.45" font-family="Times,serif" font-size="14.00">A</text>
<polyline fill="none" stroke="black" points="1420.18,-289.65 1447.18,-289.65 "/>
<text text-anchor="middle" x="1433.68" y="-274.45" font-family="Times,serif" font-size="14.00">B</text>
<polyline fill="none" stroke="black" points="1447.18,-266.65 1447.18,-312.65 "/>
<text text-anchor="middle" x="1473.18" y="-293.45" font-family="Times,serif" font-size="14.00">$34</text>
<text text-anchor="middle" x="1473.18" y="-278.45" font-family="Times,serif" font-size="14.00">$and</text>
<polyline fill="none" stroke="black" points="1499.18,-266.65 1499.18,-312.65 "/>
<text text-anchor="middle" x="1512.18" y="-285.95" font-family="Times,serif" font-size="14.00">Y</text>
</g>
<!-- n16&#45;&gt;c21 -->
<g id="edge26" class="edge">
<title>n16:e&#45;&gt;c21:w</title>
<path fill="none" stroke="black" d="M77.38,-124.65C97.93,-124.65 94.55,-103.86 113.38,-95.65 192.63,-61.08 219.43,-67.65 305.88,-67.65 305.88,-67.65 305.88,-67.65 788.88,-67.65 978.82,-67.65 989.19,-205.75 1172.18,-256.65 1275.42,-285.36 1307.56,-278.15 1410.03,-277.67"/>
<polygon fill="black" stroke="black" points="1410.18,-281.17 1420.18,-277.65 1410.17,-274.17 1410.18,-281.17"/>
</g>
<!-- n16&#45;&gt;c23 -->
<g id="edge27" class="edge">
<title>n16:e&#45;&gt;c23:w</title>
<path fill="none" stroke="black" d="M77.38,-124.65C138.55,-124.65 59.1,-249.97 103.24,-265.15"/>
<polygon fill="black" stroke="black" points="102.98,-268.65 113.38,-266.65 104,-261.72 102.98,-268.65"/>
</g>
<!-- c24 -->
<g id="node11" class="node">
<title>c24</title>
<polygon fill="none" stroke="black" points="254.38,-238.65 254.38,-284.65 359.38,-284.65 359.38,-238.65 254.38,-238.65"/>
<text text-anchor="middle" x="267.88" y="-269.45" font-family="Times,serif" font-size="14.00">A</text>
<polyline fill="none" stroke="black" points="254.38,-261.65 281.38,-261.65 "/>
<text text-anchor="middle" x="267.88" y="-246.45" font-family="Times,serif" font-size="14.00">B</text>
<polyline fill="none" stroke="black" points="281.38,-238.65 281.38,-284.65 "/>
<text text-anchor="middle" x="307.38" y="-265.45" font-family="Times,serif" font-size="14.00">$26</text>
<text text-anchor="middle" x="307.38" y="-250.45" font-family="Times,serif" font-size="14.00">$and</text>
<polyline fill="none" stroke="black" points="333.38,-238.65 333.38,-284.65 "/>
<text text-anchor="middle" x="346.38" y="-257.95" font-family="Times,serif" font-size="14.00">Y</text>
</g>
<!-- n16&#45;&gt;c24 -->
<g id="edge28" class="edge">
<title>n16:e&#45;&gt;c24:w</title>
<path fill="none" stroke="black" d="M77.38,-124.65C117.59,-124.65 84.2,-179.99 113.38,-207.65 149.52,-241.89 174.69,-222.8 218.38,-246.65 232.37,-254.28 234.23,-266.89 244.52,-271.7"/>
<polygon fill="black" stroke="black" points="243.9,-275.14 254.38,-273.65 245.25,-268.28 243.9,-275.14"/>
</g>
<!-- c27 -->
<g id="node16" class="node">
<title>c27</title>
<polygon fill="none" stroke="black" points="115.38,-105.65 115.38,-143.65 216.38,-143.65 216.38,-105.65 115.38,-105.65"/>
<text text-anchor="middle" x="128.38" y="-120.95" font-family="Times,serif" font-size="14.00">A</text>
<polyline fill="none" stroke="black" points="141.38,-105.65 141.38,-143.65 "/>
<text text-anchor="middle" x="165.88" y="-128.45" font-family="Times,serif" font-size="14.00">$35</text>
<text text-anchor="middle" x="165.88" y="-113.45" font-family="Times,serif" font-size="14.00">$not</text>
<polyline fill="none" stroke="black" points="190.38,-105.65 190.38,-143.65 "/>
<text text-anchor="middle" x="203.38" y="-120.95" font-family="Times,serif" font-size="14.00">Y</text>
</g>
<!-- n16&#45;&gt;c27 -->
<g id="edge29" class="edge">
<title>n16:e&#45;&gt;c27:w</title>
<path fill="none" stroke="black" d="M77.38,-124.65C89.55,-124.65 94.87,-124.65 103.62,-124.65"/>
<polygon fill="black" stroke="black" points="103.88,-128.15 113.88,-124.65 103.88,-121.15 103.88,-128.15"/>
</g>
<!-- c30 -->
<g id="node19" class="node">
<title>c30</title>
<polygon fill="none" stroke="black" points="532.38,-134.65 532.38,-180.65 629.38,-180.65 629.38,-134.65 532.38,-134.65"/>
<text text-anchor="middle" x="545.88" y="-165.45" font-family="Times,serif" font-size="14.00">A</text>
<polyline fill="none" stroke="black" points="532.38,-157.65 559.38,-157.65 "/>
<text text-anchor="middle" x="545.88" y="-142.45" font-family="Times,serif" font-size="14.00">B</text>
<polyline fill="none" stroke="black" points="559.38,-134.65 559.38,-180.65 "/>
<text text-anchor="middle" x="581.38" y="-161.45" font-family="Times,serif" font-size="14.00">$32</text>
<text text-anchor="middle" x="581.38" y="-146.45" font-family="Times,serif" font-size="14.00">$or</text>
<polyline fill="none" stroke="black" points="603.38,-134.65 603.38,-180.65 "/>
<text text-anchor="middle" x="616.38" y="-153.95" font-family="Times,serif" font-size="14.00">Y</text>
</g>
<!-- c20&#45;&gt;c30 -->
<g id="edge6" class="edge">
<title>c20:e&#45;&gt;c30:w</title>
<path fill="none" stroke="black" d="M1526.68,-141.65C1537.13,-141.65 1533.22,-157.91 1525.68,-165.15 1491.82,-197.59 1467.01,-167.42 1420.18,-165.15 1404.12,-164.37 1400.23,-162.42 1384.18,-161.65 1339.34,-159.47 1328.06,-161.43 1283.18,-161.65 1008.59,-162.98 935.32,-117.34 665.38,-167.65 648.59,-170.78 646.2,-178.1 629.38,-181.15 608.07,-185.01 547.85,-195.79 531.88,-181.15 531.41,-180.71 530.96,-180.21 530.55,-179.66"/>
<polygon fill="black" stroke="black" points="534.04,-179.76 530.88,-169.65 527.05,-179.52 534.04,-179.76"/>
</g>
<!-- c31 -->
<g id="node20" class="node">
<title>c31</title>
<polygon fill="none" stroke="black" points="1561.18,-162.65 1561.18,-208.65 1658.18,-208.65 1658.18,-162.65 1561.18,-162.65"/>
<text text-anchor="middle" x="1574.68" y="-193.45" font-family="Times,serif" font-size="14.00">A</text>
<polyline fill="none" stroke="black" points="1561.18,-185.65 1588.18,-185.65 "/>
<text text-anchor="middle" x="1574.68" y="-170.45" font-family="Times,serif" font-size="14.00">B</text>
<polyline fill="none" stroke="black" points="1588.18,-162.65 1588.18,-208.65 "/>
<text text-anchor="middle" x="1610.18" y="-189.45" font-family="Times,serif" font-size="14.00">$37</text>
<text text-anchor="middle" x="1610.18" y="-174.45" font-family="Times,serif" font-size="14.00">$or</text>
<polyline fill="none" stroke="black" points="1632.18,-162.65 1632.18,-208.65 "/>
<text text-anchor="middle" x="1645.18" y="-181.95" font-family="Times,serif" font-size="14.00">Y</text>
</g>
<!-- c21&#45;&gt;c31 -->
<g id="edge33" class="edge">
<title>c21:e&#45;&gt;c31:w</title>
<path fill="none" stroke="black" d="M1525.18,-289.65C1564.97,-289.65 1526.14,-214.09 1551.19,-199.92"/>
<polygon fill="black" stroke="black" points="1552.2,-203.28 1561.18,-197.65 1550.65,-196.45 1552.2,-203.28"/>
</g>
<!-- n2 -->
<g id="node27" class="node">
<title>n2</title>
<ellipse fill="black" stroke="black" cx="445.88" cy="-140.65" rx="1.8" ry="1.8"/>
</g>
<!-- c22&#45;&gt;n2 -->
<g id="edge30" class="edge">
<title>c22:e&#45;&gt;n2:w</title>
<path fill="none" stroke="black" d="M359.38,-140.65C392.87,-140.65 403.7,-140.65 432.76,-140.65"/>
<polygon fill="black" stroke="black" points="432.88,-144.15 442.88,-140.65 432.88,-137.15 432.88,-144.15"/>
</g>
<!-- c23&#45;&gt;n14 -->
<g id="edge17" class="edge">
<title>c23:e&#45;&gt;n14:w</title>
<path fill="none" stroke="black" d="M218.38,-278.65C235.89,-278.65 237.62,-289.6 254.38,-294.65 379.93,-332.4 416.52,-344.06 542.83,-344.62"/>
<polygon fill="black" stroke="black" points="542.88,-348.12 552.88,-344.65 542.89,-341.12 542.88,-348.12"/>
</g>
<!-- c29 -->
<g id="node18" class="node">
<title>c29</title>
<polygon fill="none" stroke="black" points="395.38,-239.65 395.38,-277.65 496.38,-277.65 496.38,-239.65 395.38,-239.65"/>
<text text-anchor="middle" x="408.38" y="-254.95" font-family="Times,serif" font-size="14.00">A</text>
<polyline fill="none" stroke="black" points="421.38,-239.65 421.38,-277.65 "/>
<text text-anchor="middle" x="445.88" y="-262.45" font-family="Times,serif" font-size="14.00">$27</text>
<text text-anchor="middle" x="445.88" y="-247.45" font-family="Times,serif" font-size="14.00">$not</text>
<polyline fill="none" stroke="black" points="470.38,-239.65 470.38,-277.65 "/>
<text text-anchor="middle" x="483.38" y="-254.95" font-family="Times,serif" font-size="14.00">Y</text>
</g>
<!-- c24&#45;&gt;c29 -->
<g id="edge34" class="edge">
<title>c24:e&#45;&gt;c29:w</title>
<path fill="none" stroke="black" d="M359.38,-261.65C371.43,-261.65 376.62,-259.96 385.24,-259.11"/>
<polygon fill="black" stroke="black" points="385.56,-262.6 395.38,-258.65 385.23,-255.61 385.56,-262.6"/>
</g>
<!-- c25 -->
<g id="node12" class="node">
<title>c25</title>
<polygon fill="none" stroke="black" points="1283.18,-170.65 1283.18,-208.65 1384.18,-208.65 1384.18,-170.65 1283.18,-170.65"/>
<text text-anchor="middle" x="1296.18" y="-185.95" font-family="Times,serif" font-size="14.00">A</text>
<polyline fill="none" stroke="black" points="1309.18,-170.65 1309.18,-208.65 "/>
<text text-anchor="middle" x="1333.68" y="-193.45" font-family="Times,serif" font-size="14.00">$28</text>
<text text-anchor="middle" x="1333.68" y="-178.45" font-family="Times,serif" font-size="14.00">$not</text>
<polyline fill="none" stroke="black" points="1358.18,-170.65 1358.18,-208.65 "/>
<text text-anchor="middle" x="1371.18" y="-185.95" font-family="Times,serif" font-size="14.00">Y</text>
</g>
<!-- c25&#45;&gt;c20 -->
<g id="edge35" class="edge">
<title>c25:e&#45;&gt;c20:w</title>
<path fill="none" stroke="black" d="M1384.18,-189.65C1402.56,-189.65 1399.9,-165.88 1410.39,-156.97"/>
<polygon fill="black" stroke="black" points="1411.83,-160.17 1420.18,-153.65 1409.58,-153.55 1411.83,-160.17"/>
</g>
<!-- x0&#45;&gt;c25 -->
<g id="edge1" class="edge">
<title>x0:e&#45;&gt;c25:w</title>
<path fill="none" stroke="black" d="M1258.39,-223.86C1264.97,-216.38 1265.37,-201.98 1271.92,-194.47"/>
<polygon fill="none" stroke="black" points="1258.21,-223.94 1254.26,-229.97 1247.18,-228.65 1251.13,-222.61 1258.21,-223.94"/>
<polygon fill="none" stroke="black" points="1272.15,-194.37 1276.08,-188.33 1283.18,-189.65 1279.24,-195.68 1272.15,-194.37"/>
</g>
<!-- c26 -->
<g id="node14" class="node">
<title>c26</title>
<polygon fill="none" stroke="black" points="1283.18,-304.65 1283.18,-342.65 1384.18,-342.65 1384.18,-304.65 1283.18,-304.65"/>
<text text-anchor="middle" x="1296.18" y="-319.95" font-family="Times,serif" font-size="14.00">A</text>
<polyline fill="none" stroke="black" points="1309.18,-304.65 1309.18,-342.65 "/>
<text text-anchor="middle" x="1333.68" y="-327.45" font-family="Times,serif" font-size="14.00">$33</text>
<text text-anchor="middle" x="1333.68" y="-312.45" font-family="Times,serif" font-size="14.00">$not</text>
<polyline fill="none" stroke="black" points="1358.18,-304.65 1358.18,-342.65 "/>
<text text-anchor="middle" x="1371.18" y="-319.95" font-family="Times,serif" font-size="14.00">Y</text>
</g>
<!-- c26&#45;&gt;c21 -->
<g id="edge37" class="edge">
<title>c26:e&#45;&gt;c21:w</title>
<path fill="none" stroke="black" d="M1384.18,-323.65C1398.82,-323.65 1401.11,-310.22 1410.35,-304.34"/>
<polygon fill="black" stroke="black" points="1411.46,-307.67 1420.18,-301.65 1409.61,-300.92 1411.46,-307.67"/>
</g>
<!-- x1&#45;&gt;c26 -->
<g id="edge2" class="edge">
<title>x1:e&#45;&gt;c26:w</title>
<path fill="none" stroke="black" d="M1259.39,-322.88C1263.47,-323.04 1266.91,-323.25 1270.99,-323.41"/>
<polygon fill="none" stroke="black" points="1259.17,-322.87 1253.1,-326.76 1247.18,-322.65 1253.25,-318.76 1259.17,-322.87"/>
<polygon fill="none" stroke="black" points="1271.18,-323.42 1277.25,-319.53 1283.18,-323.65 1277.1,-327.53 1271.18,-323.42"/>
</g>
<!-- c27&#45;&gt;c22 -->
<g id="edge36" class="edge">
<title>c27:e&#45;&gt;c22:w</title>
<path fill="none" stroke="black" d="M217.88,-124.65C230.25,-124.65 235.46,-126.94 244.37,-128.05"/>
<polygon fill="black" stroke="black" points="244.2,-131.55 254.38,-128.65 244.61,-124.56 244.2,-131.55"/>
</g>
<!-- c28&#45;&gt;c24 -->
<g id="edge38" class="edge">
<title>c28:e&#45;&gt;c24:w</title>
<path fill="none" stroke="black" d="M217.88,-339.65C257,-339.65 219.75,-265.73 244.54,-251.87"/>
<polygon fill="black" stroke="black" points="245.4,-255.26 254.38,-249.65 243.86,-248.44 245.4,-255.26"/>
</g>
<!-- c29&#45;&gt;n15 -->
<g id="edge21" class="edge">
<title>c29:e&#45;&gt;n15:w</title>
<path fill="none" stroke="black" d="M496.38,-258.65C517.77,-258.65 525.49,-257.92 542.82,-257.7"/>
<polygon fill="black" stroke="black" points="542.91,-261.2 552.88,-257.65 542.86,-254.2 542.91,-261.2"/>
</g>
<!-- c30&#45;&gt;c36 -->
<g id="edge39" class="edge">
<title>c30:e&#45;&gt;c36:w</title>
<path fill="none" stroke="black" d="M629.38,-157.65C657.69,-157.65 639.43,-205.77 655.37,-218.56"/>
<polygon fill="black" stroke="black" points="654.8,-222.04 665.38,-221.65 656.86,-215.36 654.8,-222.04"/>
</g>
<!-- c31&#45;&gt;c37 -->
<g id="edge7" class="edge">
<title>c31:e&#45;&gt;c37:w</title>
<path fill="none" stroke="black" d="M1658.18,-185.65C1694.67,-185.65 1661.86,-253.45 1684.28,-267.22"/>
<polygon fill="black" stroke="black" points="1683.63,-270.67 1694.18,-269.65 1685.29,-263.87 1683.63,-270.67"/>
</g>
<!-- x2 -->
<g id="node22" class="node">
<title>x2</title>
<path fill="none" stroke="black" d="M958.38,-309.65C958.38,-309.65 1009.38,-309.65 1009.38,-309.65 1015.38,-309.65 1021.38,-315.65 1021.38,-321.65 1021.38,-321.65 1021.38,-333.65 1021.38,-333.65 1021.38,-339.65 1015.38,-345.65 1009.38,-345.65 1009.38,-345.65 958.38,-345.65 958.38,-345.65 952.38,-345.65 946.38,-339.65 946.38,-333.65 946.38,-333.65 946.38,-321.65 946.38,-321.65 946.38,-315.65 952.38,-309.65 958.38,-309.65"/>
<text text-anchor="middle" x="983.88" y="-323.95" font-family="Times,serif" font-size="14.00">0:0 &#45; 0:0</text>
</g>
<!-- c35&#45;&gt;x2 -->
<g id="edge3" class="edge">
<title>c35:e&#45;&gt;x2:w</title>
<path fill="none" stroke="black" d="M922.38,-331.54C926.64,-330.71 930.15,-329.58 934.4,-328.75"/>
<polygon fill="none" stroke="black" points="922.33,-331.54 916.73,-336.08 910.38,-332.65 915.99,-328.11 922.33,-331.54"/>
<polygon fill="none" stroke="black" points="934.44,-328.75 940.04,-324.21 946.38,-327.65 940.78,-332.18 934.44,-328.75"/>
</g>
<!-- x2&#45;&gt;n12 -->
<g id="edge10" class="edge">
<title>x2:e&#45;&gt;n12:w</title>
<path fill="none" stroke="black" d="M1021.38,-327.65C1033.5,-327.65 1038.61,-324.83 1047.22,-323.43"/>
<polygon fill="black" stroke="black" points="1047.68,-326.9 1057.38,-322.65 1047.15,-319.92 1047.68,-326.9"/>
</g>
<!-- x3 -->
<g id="node24" class="node">
<title>x3</title>
<path fill="none" stroke="black" d="M958.38,-240.65C958.38,-240.65 1009.38,-240.65 1009.38,-240.65 1015.38,-240.65 1021.38,-246.65 1021.38,-252.65 1021.38,-252.65 1021.38,-264.65 1021.38,-264.65 1021.38,-270.65 1015.38,-276.65 1009.38,-276.65 1009.38,-276.65 958.38,-276.65 958.38,-276.65 952.38,-276.65 946.38,-270.65 946.38,-264.65 946.38,-264.65 946.38,-252.65 946.38,-252.65 946.38,-246.65 952.38,-240.65 958.38,-240.65"/>
<text text-anchor="middle" x="983.88" y="-254.95" font-family="Times,serif" font-size="14.00">0:0 &#45; 1:1</text>
</g>
<!-- c36&#45;&gt;x3 -->
<g id="edge4" class="edge">
<title>c36:e&#45;&gt;x3:w</title>
<path fill="none" stroke="black" d="M922.13,-247.48C926.69,-249.91 930.08,-253.39 934.64,-255.82"/>
<polygon fill="none" stroke="black" points="922.05,-247.46 915.28,-249.94 910.38,-244.65 917.15,-242.16 922.05,-247.46"/>
<polygon fill="none" stroke="black" points="934.72,-255.83 941.49,-253.35 946.38,-258.65 939.61,-261.13 934.72,-255.83"/>
</g>
<!-- x3&#45;&gt;n12 -->
<g id="edge11" class="edge">
<title>x3:e&#45;&gt;n12:w</title>
<path fill="none" stroke="black" d="M1021.38,-258.65C1049.69,-258.65 1031.43,-306.77 1047.37,-319.56"/>
<polygon fill="black" stroke="black" points="1046.8,-323.04 1057.38,-322.65 1048.86,-316.36 1046.8,-323.04"/>
</g>
<!-- x4 -->
<g id="node26" class="node">
<title>x4</title>
<path fill="none" stroke="black" d="M1987.18,-305.65C1987.18,-305.65 2038.18,-305.65 2038.18,-305.65 2044.18,-305.65 2050.18,-311.65 2050.18,-317.65 2050.18,-317.65 2050.18,-329.65 2050.18,-329.65 2050.18,-335.65 2044.18,-341.65 2038.18,-341.65 2038.18,-341.65 1987.18,-341.65 1987.18,-341.65 1981.18,-341.65 1975.18,-335.65 1975.18,-329.65 1975.18,-329.65 1975.18,-317.65 1975.18,-317.65 1975.18,-311.65 1981.18,-305.65 1987.18,-305.65"/>
<text text-anchor="middle" x="2012.68" y="-319.95" font-family="Times,serif" font-size="14.00">0:0 &#45; 2:2</text>
</g>
<!-- c37&#45;&gt;x4 -->
<g id="edge5" class="edge">
<title>c37:e&#45;&gt;x4:w</title>
<path fill="none" stroke="black" d="M1950.48,-297.22C1956.12,-303.01 1958.11,-312.95 1963.66,-318.85"/>
<polygon fill="none" stroke="black" points="1950.3,-297.15 1943.24,-298.6 1939.18,-292.65 1946.24,-291.19 1950.3,-297.15"/>
<polygon fill="none" stroke="black" points="1964.1,-319.03 1971.17,-317.65 1975.18,-323.65 1968.1,-325.03 1964.1,-319.03"/>
</g>
<!-- x4&#45;&gt;n12 -->
<g id="edge12" class="edge">
<title>x4:e&#45;&gt;n12:w</title>
<path fill="none" stroke="black" d="M2051.68,-323.65C2059.91,-323.65 2056.2,-336.04 2050.68,-342.15 1917.82,-488.74 1808.52,-409.65 1610.68,-409.65 1471.68,-409.65 1471.68,-409.65 1471.68,-409.65 1285.18,-409.65 1182.22,-479.55 1057.78,-340.65 1055.69,-338.31 1053.86,-335.06 1052.88,-331.95"/>
<polygon fill="black" stroke="black" points="1056.14,-333.22 1056.78,-322.65 1049.69,-330.52 1056.14,-333.22"/>
</g>
<!-- n2&#45;&gt;c30 -->
<g id="edge31" class="edge">
<title>n2:e&#45;&gt;c30:w</title>
<path fill="none" stroke="black" d="M448.88,-140.65C482.43,-140.65 493.15,-144.72 522.24,-145.51"/>
<polygon fill="black" stroke="black" points="522.34,-149.01 532.38,-145.65 522.43,-142.01 522.34,-149.01"/>
</g>
<!-- n2&#45;&gt;c31 -->
<g id="edge32" class="edge">
<title>n2:e&#45;&gt;c31:w</title>
<path fill="none" stroke="black" d="M448.88,-140.65C486.59,-140.65 494.86,-129.33 532.38,-125.65 925.13,-87.08 1025.55,-113.2 1420.18,-109.65 1466.84,-109.22 1484.89,-86.09 1525.18,-109.65 1549.61,-123.93 1534.19,-161.57 1550.95,-171.31"/>
<polygon fill="black" stroke="black" points="1550.65,-174.83 1561.18,-173.65 1552.2,-168.01 1550.65,-174.83"/>
</g>
</g>
</svg>
