<?xml version="1.0" encoding="UTF-8" standalone="no"?>
<!DOCTYPE svg PUBLIC "-//W3C//DTD SVG 1.1//EN"
 "http://www.w3.org/Graphics/SVG/1.1/DTD/svg11.dtd">
<!-- Generated by graphviz version 2.43.20190912.0211 (20190912.0211)
 -->
<!-- Title: counter_behavioral Pages: 1 -->
<svg width="1203pt" height="490pt"
 viewBox="0.00 0.00 1203.14 490.00" xmlns="http://www.w3.org/2000/svg" xmlns:xlink="http://www.w3.org/1999/xlink">
<g id="graph0" class="graph" transform="scale(1 1) rotate(0) translate(4 486)">
<title>counter_behavioral</title>
<polygon fill="white" stroke="transparent" points="-4,4 -4,-486 1199.14,-486 1199.14,4 -4,4"/>
<text text-anchor="middle" x="597.57" y="-7.8" font-family="Times,serif" font-size="14.00">counter_behavioral</text>
<!-- n6 -->
<g id="node1" class="node">
<title>n6</title>
<polygon fill="none" stroke="black" points="403.47,-364.54 403.47,-379.46 387.65,-390 365.28,-390 349.47,-379.46 349.47,-364.54 365.28,-354 387.65,-354 403.47,-364.54"/>
<text text-anchor="middle" x="376.47" y="-368.3" font-family="Times,serif" font-size="14.00">clk</text>
</g>
<!-- c22 -->
<g id="node10" class="node">
<title>c22</title>
<polygon fill="none" stroke="black" points="493.97,-282 493.97,-374 637.97,-374 637.97,-282 493.97,-282"/>
<text text-anchor="middle" x="521.97" y="-358.8" font-family="Times,serif" font-size="14.00">CLK</text>
<polyline fill="none" stroke="black" points="493.97,-351 549.97,-351 "/>
<text text-anchor="middle" x="521.97" y="-335.8" font-family="Times,serif" font-size="14.00">D</text>
<polyline fill="none" stroke="black" points="493.97,-328 549.97,-328 "/>
<text text-anchor="middle" x="521.97" y="-312.8" font-family="Times,serif" font-size="14.00">EN</text>
<polyline fill="none" stroke="black" points="493.97,-305 549.97,-305 "/>
<text text-anchor="middle" x="521.97" y="-289.8" font-family="Times,serif" font-size="14.00">SRST</text>
<polyline fill="none" stroke="black" points="549.97,-282 549.97,-374 "/>
<text text-anchor="middle" x="579.97" y="-331.8" font-family="Times,serif" font-size="14.00">$48</text>
<text text-anchor="middle" x="579.97" y="-316.8" font-family="Times,serif" font-size="14.00">$sdffe</text>
<polyline fill="none" stroke="black" points="609.97,-282 609.97,-374 "/>
<text text-anchor="middle" x="623.97" y="-324.3" font-family="Times,serif" font-size="14.00">Q</text>
</g>
<!-- n6&#45;&gt;c22 -->
<g id="edge15" class="edge">
<title>n6:e&#45;&gt;c22:w</title>
<path fill="none" stroke="black" d="M404.47,-372C440.85,-372 452.03,-364.54 483.88,-363.2"/>
<polygon fill="black" stroke="black" points="484.04,-366.7 493.97,-363 483.9,-359.7 484.04,-366.7"/>
</g>
<!-- n7 -->
<g id="node2" class="node">
<title>n7</title>
<polygon fill="none" stroke="black" points="752.65,-295.54 752.65,-310.46 729.64,-321 697.09,-321 674.07,-310.46 674.07,-295.54 697.09,-285 729.64,-285 752.65,-295.54"/>
<text text-anchor="middle" x="713.36" y="-299.3" font-family="Times,serif" font-size="14.00">count</text>
</g>
<!-- c16 -->
<g id="node8" class="node">
<title>c16</title>
<polygon fill="none" stroke="black" points="788.76,-268 788.76,-314 893.76,-314 893.76,-268 788.76,-268"/>
<text text-anchor="middle" x="802.26" y="-298.8" font-family="Times,serif" font-size="14.00">A</text>
<polyline fill="none" stroke="black" points="788.76,-291 815.76,-291 "/>
<text text-anchor="middle" x="802.26" y="-275.8" font-family="Times,serif" font-size="14.00">B</text>
<polyline fill="none" stroke="black" points="815.76,-268 815.76,-314 "/>
<text text-anchor="middle" x="841.76" y="-294.8" font-family="Times,serif" font-size="14.00">$13</text>
<text text-anchor="middle" x="841.76" y="-279.8" font-family="Times,serif" font-size="14.00">$add</text>
<polyline fill="none" stroke="black" points="867.76,-268 867.76,-314 "/>
<text text-anchor="middle" x="880.76" y="-287.3" font-family="Times,serif" font-size="14.00">Y</text>
</g>
<!-- n7&#45;&gt;c16 -->
<g id="edge17" class="edge">
<title>n7:e&#45;&gt;c16:w</title>
<path fill="none" stroke="black" stroke-width="3" d="M752.76,-303C764.76,-303 770.01,-303 778.63,-303"/>
<polygon fill="black" stroke="black" stroke-width="3" points="778.76,-306.5 788.76,-303 778.76,-299.5 778.76,-306.5"/>
</g>
<!-- n8 -->
<g id="node3" class="node">
<title>n8</title>
<polygon fill="none" stroke="black" points="113.95,-33.54 113.95,-48.46 80.58,-59 33.39,-59 0.02,-48.46 0.02,-33.54 33.39,-23 80.58,-23 113.95,-33.54"/>
<text text-anchor="middle" x="56.98" y="-37.3" font-family="Times,serif" font-size="14.00">count_up</text>
</g>
<!-- c27 -->
<g id="node18" class="node">
<title>c27</title>
<polygon fill="none" stroke="black" points="149.97,-60.5 149.97,-129.5 258.97,-129.5 258.97,-60.5 149.97,-60.5"/>
<text text-anchor="middle" x="163.47" y="-114.3" font-family="Times,serif" font-size="14.00">A</text>
<polyline fill="none" stroke="black" points="149.97,-106.5 176.97,-106.5 "/>
<text text-anchor="middle" x="163.47" y="-91.3" font-family="Times,serif" font-size="14.00">B</text>
<polyline fill="none" stroke="black" points="149.97,-83.5 176.97,-83.5 "/>
<text text-anchor="middle" x="163.47" y="-68.3" font-family="Times,serif" font-size="14.00">S</text>
<polyline fill="none" stroke="black" points="176.97,-60.5 176.97,-129.5 "/>
<text text-anchor="middle" x="204.97" y="-98.8" font-family="Times,serif" font-size="14.00">$12</text>
<text text-anchor="middle" x="204.97" y="-83.8" font-family="Times,serif" font-size="14.00">$mux</text>
<polyline fill="none" stroke="black" points="232.97,-60.5 232.97,-129.5 "/>
<text text-anchor="middle" x="245.97" y="-91.3" font-family="Times,serif" font-size="14.00">Y</text>
</g>
<!-- n8&#45;&gt;c27 -->
<g id="edge18" class="edge">
<title>n8:e&#45;&gt;c27:w</title>
<path fill="none" stroke="black" d="M113.97,-41C130.96,-41 130.24,-61.07 140.32,-68.91"/>
<polygon fill="black" stroke="black" points="139.37,-72.29 149.97,-72 141.51,-65.62 139.37,-72.29"/>
</g>
<!-- n9 -->
<g id="node4" class="node">
<title>n9</title>
<polygon fill="none" stroke="black" points="83.98,-346.54 83.98,-361.46 68.17,-372 45.8,-372 29.98,-361.46 29.98,-346.54 45.8,-336 68.17,-336 83.98,-346.54"/>
<text text-anchor="middle" x="56.98" y="-350.3" font-family="Times,serif" font-size="14.00">en</text>
</g>
<!-- x1 -->
<g id="node12" class="node">
<title>x1</title>
<path fill="none" stroke="black" d="M178.97,-293C178.97,-293 229.97,-293 229.97,-293 235.97,-293 241.97,-299 241.97,-305 241.97,-305 241.97,-327 241.97,-327 241.97,-333 235.97,-339 229.97,-339 229.97,-339 178.97,-339 178.97,-339 172.97,-339 166.97,-333 166.97,-327 166.97,-327 166.97,-305 166.97,-305 166.97,-299 172.97,-293 178.97,-293"/>
<text text-anchor="middle" x="204.47" y="-323.8" font-family="Times,serif" font-size="14.00">0:0 &#45; 1:1</text>
<polyline fill="none" stroke="black" points="166.97,-316 241.97,-316 "/>
<text text-anchor="middle" x="204.47" y="-300.8" font-family="Times,serif" font-size="14.00">0:0 &#45; 0:0</text>
</g>
<!-- n9&#45;&gt;x1 -->
<g id="edge20" class="edge">
<title>n9:e&#45;&gt;x1:w</title>
<path fill="none" stroke="black" d="M84.98,-354C123.31,-354 123.66,-312.58 155.16,-305.14"/>
<polygon fill="black" stroke="black" points="155.91,-308.58 165.47,-304 155.14,-301.62 155.91,-308.58"/>
</g>
<!-- c25 -->
<g id="node14" class="node">
<title>c25</title>
<polygon fill="none" stroke="black" points="929.76,-396.5 929.76,-465.5 1038.76,-465.5 1038.76,-396.5 929.76,-396.5"/>
<text text-anchor="middle" x="943.26" y="-450.3" font-family="Times,serif" font-size="14.00">A</text>
<polyline fill="none" stroke="black" points="929.76,-442.5 956.76,-442.5 "/>
<text text-anchor="middle" x="943.26" y="-427.3" font-family="Times,serif" font-size="14.00">B</text>
<polyline fill="none" stroke="black" points="929.76,-419.5 956.76,-419.5 "/>
<text text-anchor="middle" x="943.26" y="-404.3" font-family="Times,serif" font-size="14.00">S</text>
<polyline fill="none" stroke="black" points="956.76,-396.5 956.76,-465.5 "/>
<text text-anchor="middle" x="984.76" y="-434.8" font-family="Times,serif" font-size="14.00">$38</text>
<text text-anchor="middle" x="984.76" y="-419.8" font-family="Times,serif" font-size="14.00">$mux</text>
<polyline fill="none" stroke="black" points="1012.76,-396.5 1012.76,-465.5 "/>
<text text-anchor="middle" x="1025.76" y="-427.3" font-family="Times,serif" font-size="14.00">Y</text>
</g>
<!-- n9&#45;&gt;c25 -->
<g id="edge19" class="edge">
<title>n9:e&#45;&gt;c25:w</title>
<path fill="none" stroke="black" d="M84.98,-354C217.18,-354 243.27,-418 375.47,-418 375.47,-418 375.47,-418 714.36,-418 806.73,-418 832.11,-408.71 919.64,-408.04"/>
<polygon fill="black" stroke="black" points="919.77,-411.54 929.76,-408 919.74,-404.54 919.77,-411.54"/>
</g>
<!-- n10 -->
<g id="node5" class="node">
<title>n10</title>
<polygon fill="none" stroke="black" points="90.11,-269.54 90.11,-284.46 70.71,-295 43.26,-295 23.85,-284.46 23.85,-269.54 43.26,-259 70.71,-259 90.11,-269.54"/>
<text text-anchor="middle" x="56.98" y="-273.3" font-family="Times,serif" font-size="14.00">load</text>
</g>
<!-- n10&#45;&gt;x1 -->
<g id="edge6" class="edge">
<title>n10:e&#45;&gt;x1:w</title>
<path fill="none" stroke="black" d="M90.98,-277C127.34,-277 126.02,-318.89 155.32,-326.74"/>
<polygon fill="black" stroke="black" points="155.11,-330.24 165.47,-328 155.97,-323.29 155.11,-330.24"/>
</g>
<!-- c26 -->
<g id="node15" class="node">
<title>c26</title>
<polygon fill="none" stroke="black" points="1074.76,-291.5 1074.76,-360.5 1183.76,-360.5 1183.76,-291.5 1074.76,-291.5"/>
<text text-anchor="middle" x="1088.26" y="-345.3" font-family="Times,serif" font-size="14.00">A</text>
<polyline fill="none" stroke="black" points="1074.76,-337.5 1101.76,-337.5 "/>
<text text-anchor="middle" x="1088.26" y="-322.3" font-family="Times,serif" font-size="14.00">B</text>
<polyline fill="none" stroke="black" points="1074.76,-314.5 1101.76,-314.5 "/>
<text text-anchor="middle" x="1088.26" y="-299.3" font-family="Times,serif" font-size="14.00">S</text>
<polyline fill="none" stroke="black" points="1101.76,-291.5 1101.76,-360.5 "/>
<text text-anchor="middle" x="1129.76" y="-329.8" font-family="Times,serif" font-size="14.00">$41</text>
<text text-anchor="middle" x="1129.76" y="-314.8" font-family="Times,serif" font-size="14.00">$mux</text>
<polyline fill="none" stroke="black" points="1157.76,-291.5 1157.76,-360.5 "/>
<text text-anchor="middle" x="1170.76" y="-322.3" font-family="Times,serif" font-size="14.00">Y</text>
</g>
<!-- n10&#45;&gt;c26 -->
<g id="edge5" class="edge">
<title>n10:e&#45;&gt;c26:w</title>
<path fill="none" stroke="black" d="M90.98,-277C142.2,-277 106.6,-205.25 149.97,-178 235.16,-124.47 274.85,-158 375.47,-158 375.47,-158 375.47,-158 842.26,-158 944.13,-158 954.23,-219.14 1038.76,-276 1051.98,-284.9 1054.29,-296.76 1064.8,-301.21"/>
<polygon fill="black" stroke="black" points="1064.3,-304.68 1074.76,-303 1065.53,-297.79 1064.3,-304.68"/>
</g>
<!-- n11 -->
<g id="node6" class="node">
<title>n11</title>
<polygon fill="none" stroke="black" points="415.35,-252.54 415.35,-267.46 392.57,-278 360.36,-278 337.58,-267.46 337.58,-252.54 360.36,-242 392.57,-242 415.35,-252.54"/>
<text text-anchor="middle" x="376.47" y="-256.3" font-family="Times,serif" font-size="14.00">res_n</text>
</g>
<!-- n11&#45;&gt;c22 -->
<g id="edge7" class="edge">
<title>n11:e&#45;&gt;c22:w</title>
<path fill="none" stroke="black" d="M416.47,-260C450.25,-260 455.68,-286.87 483.93,-292.12"/>
<polygon fill="black" stroke="black" points="483.7,-295.61 493.97,-293 484.31,-288.64 483.7,-295.61"/>
</g>
<!-- n12 -->
<g id="node7" class="node">
<title>n12</title>
<polygon fill="none" stroke="black" points="1011.26,-295.54 1011.26,-310.46 995.44,-321 973.07,-321 957.26,-310.46 957.26,-295.54 973.07,-285 995.44,-285 1011.26,-295.54"/>
<text text-anchor="middle" x="984.26" y="-299.3" font-family="Times,serif" font-size="14.00">set</text>
</g>
<!-- n12&#45;&gt;c26 -->
<g id="edge8" class="edge">
<title>n12:e&#45;&gt;c26:w</title>
<path fill="none" stroke="black" stroke-width="3" d="M1012.26,-303C1038.16,-303 1043.92,-320.61 1064.79,-325.01"/>
<polygon fill="black" stroke="black" stroke-width="3" points="1064.46,-328.5 1074.76,-326 1065.15,-321.53 1064.46,-328.5"/>
</g>
<!-- c16&#45;&gt;c25 -->
<g id="edge4" class="edge">
<title>c16:e&#45;&gt;c25:w</title>
<path fill="none" stroke="black" stroke-width="3" d="M893.76,-291C954.11,-291 876.14,-414.56 919.74,-429.52"/>
<polygon fill="black" stroke="black" stroke-width="3" points="919.35,-433 929.76,-431 920.37,-426.08 919.35,-433"/>
</g>
<!-- x0 -->
<g id="node9" class="node">
<title>x0</title>
<path fill="none" stroke="black" d="M687.86,-213C687.86,-213 738.86,-213 738.86,-213 744.86,-213 750.86,-219 750.86,-225 750.86,-225 750.86,-237 750.86,-237 750.86,-243 744.86,-249 738.86,-249 738.86,-249 687.86,-249 687.86,-249 681.86,-249 675.86,-243 675.86,-237 675.86,-237 675.86,-225 675.86,-225 675.86,-219 681.86,-213 687.86,-213"/>
<text text-anchor="middle" x="713.36" y="-227.3" font-family="Times,serif" font-size="14.00">2:0 &#45; 2:0</text>
</g>
<!-- x0&#45;&gt;c16 -->
<g id="edge1" class="edge">
<title>x0:e&#45;&gt;c16:w</title>
<path fill="none" stroke="black" stroke-width="3" d="M763.68,-235.78C771.58,-244.98 769.54,-265.06 777.46,-274.24"/>
<polygon fill="none" stroke="black" stroke-width="3" points="763.42,-235.67 756.33,-237.02 752.36,-231 759.44,-229.65 763.42,-235.67"/>
<polygon fill="none" stroke="black" stroke-width="3" points="777.7,-274.34 784.78,-272.98 788.76,-279 781.67,-280.36 777.7,-274.34"/>
</g>
<!-- c22&#45;&gt;n7 -->
<g id="edge16" class="edge">
<title>c22:e&#45;&gt;n7:w</title>
<path fill="none" stroke="black" stroke-width="3" d="M637.97,-328C653.34,-328 654.74,-312.43 664.21,-305.87"/>
<polygon fill="black" stroke="black" stroke-width="3" points="665.36,-309.18 673.97,-303 663.38,-302.46 665.36,-309.18"/>
</g>
<!-- c23 -->
<g id="node11" class="node">
<title>c23</title>
<polygon fill="none" stroke="black" points="294.97,-297 294.97,-335 457.97,-335 457.97,-297 294.97,-297"/>
<text text-anchor="middle" x="307.97" y="-312.3" font-family="Times,serif" font-size="14.00">A</text>
<polyline fill="none" stroke="black" points="320.97,-297 320.97,-335 "/>
<text text-anchor="middle" x="376.47" y="-319.8" font-family="Times,serif" font-size="14.00">$50</text>
<text text-anchor="middle" x="376.47" y="-304.8" font-family="Times,serif" font-size="14.00">$reduce_bool</text>
<polyline fill="none" stroke="black" points="431.97,-297 431.97,-335 "/>
<text text-anchor="middle" x="444.97" y="-312.3" font-family="Times,serif" font-size="14.00">Y</text>
</g>
<!-- c23&#45;&gt;c22 -->
<g id="edge9" class="edge">
<title>c23:e&#45;&gt;c22:w</title>
<path fill="none" stroke="black" d="M457.97,-316C469.97,-316 475.22,-316 483.84,-316"/>
<polygon fill="black" stroke="black" points="483.97,-319.5 493.97,-316 483.97,-312.5 483.97,-319.5"/>
</g>
<!-- x1&#45;&gt;c23 -->
<g id="edge2" class="edge">
<title>x1:e&#45;&gt;c23:w</title>
<path fill="none" stroke="black" stroke-width="3" d="M255.58,-316C265.83,-316 272.51,-316 282.73,-316"/>
<polygon fill="none" stroke="black" stroke-width="3" points="255.47,-316 249.47,-320 243.47,-316 249.47,-312 255.47,-316"/>
<polygon fill="none" stroke="black" stroke-width="3" points="282.97,-316 288.97,-312 294.97,-316 288.97,-320 282.97,-316"/>
</g>
<!-- v2 -->
<g id="node13" class="node">
<title>v2</title>
<ellipse fill="none" stroke="black" cx="841.26" cy="-464" rx="27" ry="18"/>
<text text-anchor="middle" x="841.26" y="-460.3" font-family="Times,serif" font-size="14.00">3&#39;x</text>
</g>
<!-- v2&#45;&gt;c25 -->
<g id="edge21" class="edge">
<title>v2:e&#45;&gt;c25:w</title>
<path fill="none" stroke="black" stroke-width="3" d="M869.26,-464C892.78,-464 900.47,-456.55 919.66,-454.51"/>
<polygon fill="black" stroke="black" stroke-width="3" points="919.95,-458 929.76,-454 919.59,-451.01 919.95,-458"/>
</g>
<!-- c25&#45;&gt;c26 -->
<g id="edge10" class="edge">
<title>c25:e&#45;&gt;c26:w</title>
<path fill="none" stroke="black" stroke-width="3" d="M1038.76,-431C1074.52,-431 1042.95,-364.81 1065.04,-351.37"/>
<polygon fill="black" stroke="black" stroke-width="3" points="1065.87,-354.77 1074.76,-349 1064.21,-347.96 1065.87,-354.77"/>
</g>
<!-- c26&#45;&gt;c22 -->
<g id="edge11" class="edge">
<title>c26:e&#45;&gt;c22:w</title>
<path fill="none" stroke="black" stroke-width="3" d="M1185.26,-326C1200.82,-326 1195.28,-350.02 1184.26,-361 1141.24,-403.85 698.68,-373.75 637.97,-374.5 573.97,-375.29 539.87,-419.09 493.97,-374.5 486.23,-366.98 481.29,-352.98 484.38,-345.33"/>
<polygon fill="black" stroke="black" stroke-width="3" points="486.31,-348.25 492.97,-340 482.62,-342.3 486.31,-348.25"/>
</g>
<!-- v3 -->
<g id="node16" class="node">
<title>v3</title>
<ellipse fill="none" stroke="black" cx="56.98" cy="-149" rx="36.29" ry="18"/>
<text text-anchor="middle" x="56.98" y="-145.3" font-family="Times,serif" font-size="14.00">3&#39;111</text>
</g>
<!-- v3&#45;&gt;c27 -->
<g id="edge22" class="edge">
<title>v3:e&#45;&gt;c27:w</title>
<path fill="none" stroke="black" stroke-width="3" d="M94.98,-149C119.09,-149 121.65,-126.11 139.7,-119.67"/>
<polygon fill="black" stroke="black" stroke-width="3" points="140.66,-123.06 149.97,-118 139.53,-116.15 140.66,-123.06"/>
</g>
<!-- v4 -->
<g id="node17" class="node">
<title>v4</title>
<ellipse fill="none" stroke="black" cx="56.98" cy="-95" rx="36.29" ry="18"/>
<text text-anchor="middle" x="56.98" y="-91.3" font-family="Times,serif" font-size="14.00">3&#39;001</text>
</g>
<!-- v4&#45;&gt;c27 -->
<g id="edge23" class="edge">
<title>v4:e&#45;&gt;c27:w</title>
<path fill="none" stroke="black" stroke-width="3" d="M94.98,-95C115.6,-95 123.17,-95 139.71,-95"/>
<polygon fill="black" stroke="black" stroke-width="3" points="139.97,-98.5 149.97,-95 139.97,-91.5 139.97,-98.5"/>
</g>
<!-- x5 -->
<g id="node19" class="node">
<title>x5</title>
<path fill="none" stroke="black" d="M350.97,-85C350.97,-85 401.97,-85 401.97,-85 407.97,-85 413.97,-91 413.97,-97 413.97,-97 413.97,-109 413.97,-109 413.97,-115 407.97,-121 401.97,-121 401.97,-121 350.97,-121 350.97,-121 344.97,-121 338.97,-115 338.97,-109 338.97,-109 338.97,-97 338.97,-97 338.97,-91 344.97,-85 350.97,-85"/>
<text text-anchor="middle" x="376.47" y="-99.3" font-family="Times,serif" font-size="14.00">2:0 &#45; 2:0</text>
</g>
<!-- c27&#45;&gt;x5 -->
<g id="edge3" class="edge">
<title>c27:e&#45;&gt;x5:w</title>
<path fill="none" stroke="black" stroke-width="3" d="M270.97,-95.34C292.85,-96.65 303.5,-101.33 325.33,-102.65"/>
<polygon fill="none" stroke="black" stroke-width="3" points="270.96,-95.34 264.85,-99.17 258.97,-95 265.08,-91.17 270.96,-95.34"/>
<polygon fill="none" stroke="black" stroke-width="3" points="325.47,-102.65 331.58,-98.83 337.47,-103 331.35,-106.82 325.47,-102.65"/>
</g>
<!-- n5 -->
<g id="node22" class="node">
<title>n5</title>
<ellipse fill="black" stroke="black" cx="565.97" cy="-205" rx="1.8" ry="1.8"/>
</g>
<!-- x5&#45;&gt;n5 -->
<g id="edge12" class="edge">
<title>x5:e&#45;&gt;n5:w</title>
<path fill="none" stroke="black" stroke-width="3" d="M415.47,-103C491.59,-103 484.15,-196.04 552.76,-204.4"/>
<polygon fill="black" stroke="black" stroke-width="3" points="552.78,-207.91 562.97,-205 553.19,-200.92 552.78,-207.91"/>
</g>
<!-- v6 -->
<g id="node20" class="node">
<title>v6</title>
<ellipse fill="none" stroke="black" cx="204.47" cy="-205" rx="30.59" ry="18"/>
<text text-anchor="middle" x="204.47" y="-201.3" font-family="Times,serif" font-size="14.00">29&#39;x</text>
</g>
<!-- x7 -->
<g id="node21" class="node">
<title>x7</title>
<path fill="none" stroke="black" d="M341.97,-187C341.97,-187 410.97,-187 410.97,-187 416.97,-187 422.97,-193 422.97,-199 422.97,-199 422.97,-211 422.97,-211 422.97,-217 416.97,-223 410.97,-223 410.97,-223 341.97,-223 341.97,-223 335.97,-223 329.97,-217 329.97,-211 329.97,-211 329.97,-199 329.97,-199 329.97,-193 335.97,-187 341.97,-187"/>
<text text-anchor="middle" x="376.47" y="-201.3" font-family="Times,serif" font-size="14.00">28:0 &#45; 31:3</text>
</g>
<!-- v6&#45;&gt;x7 -->
<g id="edge24" class="edge">
<title>v6:e&#45;&gt;x7:w</title>
<path fill="none" stroke="black" stroke-width="3" d="M236.47,-205C273.68,-205 285.49,-205 318.14,-205"/>
<polygon fill="black" stroke="black" stroke-width="3" points="318.47,-208.5 328.47,-205 318.47,-201.5 318.47,-208.5"/>
</g>
<!-- x7&#45;&gt;n5 -->
<g id="edge13" class="edge">
<title>x7:e&#45;&gt;n5:w</title>
<path fill="none" stroke="black" stroke-width="3" d="M424.47,-205C482.53,-205 499.52,-205 552.93,-205"/>
<polygon fill="black" stroke="black" stroke-width="3" points="552.97,-208.5 562.97,-205 552.97,-201.5 552.97,-208.5"/>
</g>
<!-- n5&#45;&gt;x0 -->
<g id="edge14" class="edge">
<title>n5:e&#45;&gt;x0:w</title>
<path fill="none" stroke="black" stroke-width="3" d="M568.97,-205C613.63,-205 624.58,-227.28 664.24,-230.59"/>
<polygon fill="black" stroke="black" stroke-width="3" points="664.23,-234.09 674.36,-231 664.51,-227.1 664.23,-234.09"/>
</g>
</g>
</svg>
