<?xml version="1.0" encoding="UTF-8" standalone="no"?>
<!DOCTYPE svg PUBLIC "-//W3C//DTD SVG 1.1//EN"
 "http://www.w3.org/Graphics/SVG/1.1/DTD/svg11.dtd">
<!-- Generated by graphviz version 2.43.20190912.0211 (20190912.0211)
 -->
<!-- Title: counter_tff_async Pages: 1 -->
<svg width="1235pt" height="506pt"
 viewBox="0.00 0.00 1235.21 506.05" xmlns="http://www.w3.org/2000/svg" xmlns:xlink="http://www.w3.org/1999/xlink">
<g id="graph0" class="graph" transform="scale(1 1) rotate(0) translate(4 502.05)">
<title>counter_tff_async</title>
<polygon fill="white" stroke="transparent" points="-4,4 -4,-502.05 1231.21,-502.05 1231.21,4 -4,4"/>
<text text-anchor="middle" x="613.6" y="-7.8" font-family="Times,serif" font-size="14.00">counter_tff_async</text>
<!-- n5 -->
<g id="node1" class="node">
<title>n5</title>
<polygon fill="none" stroke="black" points="65.69,-225.6 65.69,-240.51 49.88,-251.05 27.51,-251.05 11.69,-240.51 11.69,-225.6 27.51,-215.05 49.88,-215.05 65.69,-225.6"/>
<text text-anchor="middle" x="38.69" y="-229.35" font-family="Times,serif" font-size="14.00">clk</text>
</g>
<!-- c20 -->
<g id="node14" class="node">
<title>c20</title>
<polygon fill="none" stroke="black" points="113.38,-198.55 113.38,-267.55 238.38,-267.55 238.38,-198.55 113.38,-198.55"/>
<text text-anchor="middle" x="140.88" y="-252.35" font-family="Times,serif" font-size="14.00">T</text>
<polyline fill="none" stroke="black" points="113.38,-244.55 168.38,-244.55 "/>
<text text-anchor="middle" x="140.88" y="-229.35" font-family="Times,serif" font-size="14.00">clk</text>
<polyline fill="none" stroke="black" points="113.38,-221.55 168.38,-221.55 "/>
<text text-anchor="middle" x="140.88" y="-206.35" font-family="Times,serif" font-size="14.00">res_n</text>
<polyline fill="none" stroke="black" points="168.38,-198.55 168.38,-267.55 "/>
<text text-anchor="middle" x="189.38" y="-236.85" font-family="Times,serif" font-size="14.00">ff_0</text>
<text text-anchor="middle" x="189.38" y="-221.85" font-family="Times,serif" font-size="14.00">ff_t</text>
<polyline fill="none" stroke="black" points="210.38,-198.55 210.38,-267.55 "/>
<text text-anchor="middle" x="224.38" y="-229.35" font-family="Times,serif" font-size="14.00">Q</text>
</g>
<!-- n5&#45;&gt;c20 -->
<g id="edge12" class="edge">
<title>n5:e&#45;&gt;c20:w</title>
<path fill="none" stroke="black" d="M66.69,-233.05C83.55,-233.05 90.14,-233.05 103.15,-233.05"/>
<polygon fill="black" stroke="black" points="103.38,-236.55 113.38,-233.05 103.38,-229.55 103.38,-236.55"/>
</g>
<!-- n6 -->
<g id="node2" class="node">
<title>n6</title>
<polygon fill="none" stroke="black" points="464.07,-225.6 464.07,-240.51 441.05,-251.05 408.5,-251.05 385.49,-240.51 385.49,-225.6 408.5,-215.05 441.05,-215.05 464.07,-225.6"/>
<text text-anchor="middle" x="424.78" y="-229.35" font-family="Times,serif" font-size="14.00">count</text>
</g>
<!-- x0 -->
<g id="node7" class="node">
<title>x0</title>
<path fill="none" stroke="black" d="M512.18,-90.05C512.18,-90.05 563.18,-90.05 563.18,-90.05 569.18,-90.05 575.18,-96.05 575.18,-102.05 575.18,-102.05 575.18,-114.05 575.18,-114.05 575.18,-120.05 569.18,-126.05 563.18,-126.05 563.18,-126.05 512.18,-126.05 512.18,-126.05 506.18,-126.05 500.18,-120.05 500.18,-114.05 500.18,-114.05 500.18,-102.05 500.18,-102.05 500.18,-96.05 506.18,-90.05 512.18,-90.05"/>
<text text-anchor="middle" x="537.68" y="-104.35" font-family="Times,serif" font-size="14.00">0:0 &#45; 0:0</text>
</g>
<!-- n6&#45;&gt;x0 -->
<g id="edge16" class="edge">
<title>n6:e&#45;&gt;x0:w</title>
<path fill="none" stroke="black" d="M464.18,-233.05C517.92,-233.05 452.88,-125.01 489.92,-109.82"/>
<polygon fill="black" stroke="black" points="490.92,-113.2 500.18,-108.05 489.73,-106.3 490.92,-113.2"/>
</g>
<!-- x1 -->
<g id="node9" class="node">
<title>x1</title>
<path fill="none" stroke="black" d="M512.18,-259.05C512.18,-259.05 563.18,-259.05 563.18,-259.05 569.18,-259.05 575.18,-265.05 575.18,-271.05 575.18,-271.05 575.18,-283.05 575.18,-283.05 575.18,-289.05 569.18,-295.05 563.18,-295.05 563.18,-295.05 512.18,-295.05 512.18,-295.05 506.18,-295.05 500.18,-289.05 500.18,-283.05 500.18,-283.05 500.18,-271.05 500.18,-271.05 500.18,-265.05 506.18,-259.05 512.18,-259.05"/>
<text text-anchor="middle" x="537.68" y="-273.35" font-family="Times,serif" font-size="14.00">1:1 &#45; 0:0</text>
</g>
<!-- n6&#45;&gt;x1 -->
<g id="edge17" class="edge">
<title>n6:e&#45;&gt;x1:w</title>
<path fill="none" stroke="black" d="M464.18,-233.05C485.3,-233.05 478.61,-263.8 490.6,-273.89"/>
<polygon fill="black" stroke="black" points="489.58,-277.24 500.18,-277.05 491.78,-270.59 489.58,-277.24"/>
</g>
<!-- x2 -->
<g id="node11" class="node">
<title>x2</title>
<path fill="none" stroke="black" d="M512.18,-145.05C512.18,-145.05 563.18,-145.05 563.18,-145.05 569.18,-145.05 575.18,-151.05 575.18,-157.05 575.18,-157.05 575.18,-169.05 575.18,-169.05 575.18,-175.05 569.18,-181.05 563.18,-181.05 563.18,-181.05 512.18,-181.05 512.18,-181.05 506.18,-181.05 500.18,-175.05 500.18,-169.05 500.18,-169.05 500.18,-157.05 500.18,-157.05 500.18,-151.05 506.18,-145.05 512.18,-145.05"/>
<text text-anchor="middle" x="537.68" y="-159.35" font-family="Times,serif" font-size="14.00">0:0 &#45; 0:0</text>
</g>
<!-- n6&#45;&gt;x2 -->
<g id="edge18" class="edge">
<title>n6:e&#45;&gt;x2:w</title>
<path fill="none" stroke="black" d="M464.18,-233.05C495.06,-233.05 472.21,-178.5 490.5,-165.71"/>
<polygon fill="black" stroke="black" points="491.46,-169.08 500.18,-163.05 489.61,-162.33 491.46,-169.08"/>
</g>
<!-- x3 -->
<g id="node13" class="node">
<title>x3</title>
<path fill="none" stroke="black" d="M642.66,-335.05C642.66,-335.05 693.66,-335.05 693.66,-335.05 699.66,-335.05 705.66,-341.05 705.66,-347.05 705.66,-347.05 705.66,-359.05 705.66,-359.05 705.66,-365.05 699.66,-371.05 693.66,-371.05 693.66,-371.05 642.66,-371.05 642.66,-371.05 636.66,-371.05 630.66,-365.05 630.66,-359.05 630.66,-359.05 630.66,-347.05 630.66,-347.05 630.66,-341.05 636.66,-335.05 642.66,-335.05"/>
<text text-anchor="middle" x="668.16" y="-349.35" font-family="Times,serif" font-size="14.00">1:1 &#45; 0:0</text>
</g>
<!-- n6&#45;&gt;x3 -->
<g id="edge19" class="edge">
<title>n6:e&#45;&gt;x3:w</title>
<path fill="none" stroke="black" d="M464.18,-233.05C499.95,-233.05 473.56,-281.15 500.18,-305.05 543.11,-343.61 565.39,-352.14 619.13,-352.98"/>
<polygon fill="black" stroke="black" points="619.13,-356.48 629.16,-353.05 619.18,-349.48 619.13,-356.48"/>
</g>
<!-- n7 -->
<g id="node3" class="node">
<title>n7</title>
<polygon fill="none" stroke="black" points="725.12,-233.6 725.12,-248.51 691.75,-259.05 644.56,-259.05 611.19,-248.51 611.19,-233.6 644.56,-223.05 691.75,-223.05 725.12,-233.6"/>
<text text-anchor="middle" x="668.16" y="-237.35" font-family="Times,serif" font-size="14.00">count_up</text>
</g>
<!-- c16 -->
<g id="node10" class="node">
<title>c16</title>
<polygon fill="none" stroke="black" points="761.14,-93.55 761.14,-162.55 870.14,-162.55 870.14,-93.55 761.14,-93.55"/>
<text text-anchor="middle" x="774.64" y="-147.35" font-family="Times,serif" font-size="14.00">A</text>
<polyline fill="none" stroke="black" points="761.14,-139.55 788.14,-139.55 "/>
<text text-anchor="middle" x="774.64" y="-124.35" font-family="Times,serif" font-size="14.00">B</text>
<polyline fill="none" stroke="black" points="761.14,-116.55 788.14,-116.55 "/>
<text text-anchor="middle" x="774.64" y="-101.35" font-family="Times,serif" font-size="14.00">S</text>
<polyline fill="none" stroke="black" points="788.14,-93.55 788.14,-162.55 "/>
<text text-anchor="middle" x="816.14" y="-131.85" font-family="Times,serif" font-size="14.00">$15</text>
<text text-anchor="middle" x="816.14" y="-116.85" font-family="Times,serif" font-size="14.00">$mux</text>
<polyline fill="none" stroke="black" points="844.14,-93.55 844.14,-162.55 "/>
<text text-anchor="middle" x="857.14" y="-124.35" font-family="Times,serif" font-size="14.00">Y</text>
</g>
<!-- n7&#45;&gt;c16 -->
<g id="edge20" class="edge">
<title>n7:e&#45;&gt;c16:w</title>
<path fill="none" stroke="black" d="M725.14,-241.05C783.76,-241.05 709.15,-121.52 751.12,-106.58"/>
<polygon fill="black" stroke="black" points="751.78,-110.02 761.14,-105.05 750.73,-103.1 751.78,-110.02"/>
</g>
<!-- c17 -->
<g id="node12" class="node">
<title>c17</title>
<polygon fill="none" stroke="black" points="761.14,-279.55 761.14,-348.55 870.14,-348.55 870.14,-279.55 761.14,-279.55"/>
<text text-anchor="middle" x="774.64" y="-333.35" font-family="Times,serif" font-size="14.00">A</text>
<polyline fill="none" stroke="black" points="761.14,-325.55 788.14,-325.55 "/>
<text text-anchor="middle" x="774.64" y="-310.35" font-family="Times,serif" font-size="14.00">B</text>
<polyline fill="none" stroke="black" points="761.14,-302.55 788.14,-302.55 "/>
<text text-anchor="middle" x="774.64" y="-287.35" font-family="Times,serif" font-size="14.00">S</text>
<polyline fill="none" stroke="black" points="788.14,-279.55 788.14,-348.55 "/>
<text text-anchor="middle" x="816.14" y="-317.85" font-family="Times,serif" font-size="14.00">$17</text>
<text text-anchor="middle" x="816.14" y="-302.85" font-family="Times,serif" font-size="14.00">$mux</text>
<polyline fill="none" stroke="black" points="844.14,-279.55 844.14,-348.55 "/>
<text text-anchor="middle" x="857.14" y="-310.35" font-family="Times,serif" font-size="14.00">Y</text>
</g>
<!-- n7&#45;&gt;c17 -->
<g id="edge21" class="edge">
<title>n7:e&#45;&gt;c17:w</title>
<path fill="none" stroke="black" d="M725.14,-241.05C748.25,-241.05 738.5,-276.65 751.33,-287.77"/>
<polygon fill="black" stroke="black" points="750.55,-291.2 761.14,-291.05 752.77,-284.56 750.55,-291.2"/>
</g>
<!-- n8 -->
<g id="node4" class="node">
<title>n8</title>
<polygon fill="none" stroke="black" points="65.69,-288.6 65.69,-303.51 49.88,-314.05 27.51,-314.05 11.69,-303.51 11.69,-288.6 27.51,-278.05 49.88,-278.05 65.69,-288.6"/>
<text text-anchor="middle" x="38.69" y="-292.35" font-family="Times,serif" font-size="14.00">en</text>
</g>
<!-- n8&#45;&gt;c20 -->
<g id="edge22" class="edge">
<title>n8:e&#45;&gt;c20:w</title>
<path fill="none" stroke="black" d="M66.69,-296.05C89.96,-296.05 87.64,-267.05 103.32,-258.44"/>
<polygon fill="black" stroke="black" points="104.46,-261.76 113.38,-256.05 102.85,-254.95 104.46,-261.76"/>
</g>
<!-- c21 -->
<g id="node16" class="node">
<title>c21</title>
<polygon fill="none" stroke="black" points="906.14,-52.55 906.14,-121.55 1108.14,-121.55 1108.14,-52.55 906.14,-52.55"/>
<text text-anchor="middle" x="933.64" y="-106.35" font-family="Times,serif" font-size="14.00">T</text>
<polyline fill="none" stroke="black" points="906.14,-98.55 961.14,-98.55 "/>
<text text-anchor="middle" x="933.64" y="-83.35" font-family="Times,serif" font-size="14.00">clk</text>
<polyline fill="none" stroke="black" points="906.14,-75.55 961.14,-75.55 "/>
<text text-anchor="middle" x="933.64" y="-60.35" font-family="Times,serif" font-size="14.00">res_n</text>
<polyline fill="none" stroke="black" points="961.14,-52.55 961.14,-121.55 "/>
<text text-anchor="middle" x="1020.64" y="-90.85" font-family="Times,serif" font-size="14.00">genblk1[1].ff_i</text>
<text text-anchor="middle" x="1020.64" y="-75.85" font-family="Times,serif" font-size="14.00">ff_t</text>
<polyline fill="none" stroke="black" points="1080.14,-52.55 1080.14,-121.55 "/>
<text text-anchor="middle" x="1094.14" y="-83.35" font-family="Times,serif" font-size="14.00">Q</text>
</g>
<!-- n8&#45;&gt;c21 -->
<g id="edge23" class="edge">
<title>n8:e&#45;&gt;c21:w</title>
<path fill="none" stroke="black" d="M66.69,-296.05C143.47,-296.05 175.28,-320.77 238.38,-277.05 267.47,-256.91 249.87,-231.56 274.38,-206.05 354.01,-123.2 388.96,-108.99 500.18,-80.05 659.32,-38.66 714.39,-31.31 870.14,-84.05 884.89,-89.05 886.49,-102.35 896.2,-107.74"/>
<polygon fill="black" stroke="black" points="895.61,-111.19 906.14,-110.05 897.2,-104.38 895.61,-111.19"/>
</g>
<!-- c22 -->
<g id="node18" class="node">
<title>c22</title>
<polygon fill="none" stroke="black" points="906.14,-428.55 906.14,-497.55 1108.14,-497.55 1108.14,-428.55 906.14,-428.55"/>
<text text-anchor="middle" x="933.64" y="-482.35" font-family="Times,serif" font-size="14.00">T</text>
<polyline fill="none" stroke="black" points="906.14,-474.55 961.14,-474.55 "/>
<text text-anchor="middle" x="933.64" y="-459.35" font-family="Times,serif" font-size="14.00">clk</text>
<polyline fill="none" stroke="black" points="906.14,-451.55 961.14,-451.55 "/>
<text text-anchor="middle" x="933.64" y="-436.35" font-family="Times,serif" font-size="14.00">res_n</text>
<polyline fill="none" stroke="black" points="961.14,-428.55 961.14,-497.55 "/>
<text text-anchor="middle" x="1020.64" y="-466.85" font-family="Times,serif" font-size="14.00">genblk1[2].ff_i</text>
<text text-anchor="middle" x="1020.64" y="-451.85" font-family="Times,serif" font-size="14.00">ff_t</text>
<polyline fill="none" stroke="black" points="1080.14,-428.55 1080.14,-497.55 "/>
<text text-anchor="middle" x="1094.14" y="-459.35" font-family="Times,serif" font-size="14.00">Q</text>
</g>
<!-- n8&#45;&gt;c22 -->
<g id="edge24" class="edge">
<title>n8:e&#45;&gt;c22:w</title>
<path fill="none" stroke="black" d="M66.69,-296.05C134.11,-296.05 243.47,-476.05 310.88,-476.05 310.88,-476.05 310.88,-476.05 669.16,-476.05 771.08,-476.05 798.9,-485.4 895.9,-486.02"/>
<polygon fill="black" stroke="black" points="896.13,-489.52 906.14,-486.05 896.15,-482.52 896.13,-489.52"/>
</g>
<!-- n9 -->
<g id="node5" class="node">
<title>n9</title>
<polygon fill="none" stroke="black" points="77.58,-162.6 77.58,-177.51 54.8,-188.05 22.59,-188.05 -0.19,-177.51 -0.19,-162.6 22.59,-152.05 54.8,-152.05 77.58,-162.6"/>
<text text-anchor="middle" x="38.69" y="-166.35" font-family="Times,serif" font-size="14.00">res_n</text>
</g>
<!-- n9&#45;&gt;c20 -->
<g id="edge25" class="edge">
<title>n9:e&#45;&gt;c20:w</title>
<path fill="none" stroke="black" d="M77.38,-170.05C97.19,-170.05 92.48,-197.49 103.86,-206.92"/>
<polygon fill="black" stroke="black" points="102.79,-210.25 113.38,-210.05 104.98,-203.6 102.79,-210.25"/>
</g>
<!-- n9&#45;&gt;c21 -->
<g id="edge26" class="edge">
<title>n9:e&#45;&gt;c21:w</title>
<path fill="none" stroke="black" d="M77.38,-170.05C108.04,-170.05 280.23,-23.05 310.88,-23.05 310.88,-23.05 310.88,-23.05 669.16,-23.05 759.12,-23.05 783.68,-22.19 870.14,-47.05 883.29,-50.84 887.05,-58.94 896.27,-62.41"/>
<polygon fill="black" stroke="black" points="895.7,-65.87 906.14,-64.05 896.85,-58.96 895.7,-65.87"/>
</g>
<!-- n9&#45;&gt;c22 -->
<g id="edge27" class="edge">
<title>n9:e&#45;&gt;c22:w</title>
<path fill="none" stroke="black" d="M77.38,-170.05C149.44,-170.05 179.42,-147.64 238.38,-189.05 267.66,-209.62 249.09,-235.75 274.38,-261.05 390.23,-376.94 450.91,-376.92 611.18,-411.05 736.62,-437.77 772.53,-439.95 895.92,-440.05"/>
<polygon fill="black" stroke="black" points="896.14,-443.55 906.14,-440.05 896.14,-436.55 896.14,-443.55"/>
</g>
<!-- c12 -->
<g id="node6" class="node">
<title>c12</title>
<polygon fill="none" stroke="black" points="617.66,-90.05 617.66,-128.05 718.66,-128.05 718.66,-90.05 617.66,-90.05"/>
<text text-anchor="middle" x="630.66" y="-105.35" font-family="Times,serif" font-size="14.00">A</text>
<polyline fill="none" stroke="black" points="643.66,-90.05 643.66,-128.05 "/>
<text text-anchor="middle" x="668.16" y="-112.85" font-family="Times,serif" font-size="14.00">$14</text>
<text text-anchor="middle" x="668.16" y="-97.85" font-family="Times,serif" font-size="14.00">$not</text>
<polyline fill="none" stroke="black" points="692.66,-90.05 692.66,-128.05 "/>
<text text-anchor="middle" x="705.66" y="-105.35" font-family="Times,serif" font-size="14.00">Y</text>
</g>
<!-- c12&#45;&gt;c16 -->
<g id="edge8" class="edge">
<title>c12:e&#45;&gt;c16:w</title>
<path fill="none" stroke="black" d="M720.16,-109.05C736.31,-109.05 740.01,-121.36 751.29,-126.16"/>
<polygon fill="black" stroke="black" points="750.66,-129.6 761.14,-128.05 751.98,-122.73 750.66,-129.6"/>
</g>
<!-- x0&#45;&gt;c12 -->
<g id="edge1" class="edge">
<title>x0:e&#45;&gt;c12:w</title>
<path fill="none" stroke="black" d="M587.31,-108.23C593.37,-108.41 598.02,-108.7 604.09,-108.88"/>
<polygon fill="none" stroke="black" points="587.17,-108.23 581.12,-112.14 575.18,-108.05 581.23,-104.14 587.17,-108.23"/>
<polygon fill="none" stroke="black" points="604.16,-108.88 610.22,-104.97 616.16,-109.05 610.1,-112.97 604.16,-108.88"/>
</g>
<!-- c13 -->
<g id="node8" class="node">
<title>c13</title>
<polygon fill="none" stroke="black" points="617.66,-278.05 617.66,-316.05 718.66,-316.05 718.66,-278.05 617.66,-278.05"/>
<text text-anchor="middle" x="630.66" y="-293.35" font-family="Times,serif" font-size="14.00">A</text>
<polyline fill="none" stroke="black" points="643.66,-278.05 643.66,-316.05 "/>
<text text-anchor="middle" x="668.16" y="-300.85" font-family="Times,serif" font-size="14.00">$16</text>
<text text-anchor="middle" x="668.16" y="-285.85" font-family="Times,serif" font-size="14.00">$not</text>
<polyline fill="none" stroke="black" points="692.66,-278.05 692.66,-316.05 "/>
<text text-anchor="middle" x="705.66" y="-293.35" font-family="Times,serif" font-size="14.00">Y</text>
</g>
<!-- c13&#45;&gt;c17 -->
<g id="edge9" class="edge">
<title>c13:e&#45;&gt;c17:w</title>
<path fill="none" stroke="black" d="M720.16,-297.05C735.87,-297.05 740.04,-307.85 751.07,-312.23"/>
<polygon fill="black" stroke="black" points="750.68,-315.72 761.14,-314.05 751.92,-308.83 750.68,-315.72"/>
</g>
<!-- x1&#45;&gt;c13 -->
<g id="edge2" class="edge">
<title>x1:e&#45;&gt;c13:w</title>
<path fill="none" stroke="black" d="M586.98,-280C593.59,-283.74 597.56,-290.15 604.11,-293.96"/>
<polygon fill="none" stroke="black" points="586.82,-279.97 580.03,-282.39 575.18,-277.05 581.97,-274.63 586.82,-279.97"/>
<polygon fill="none" stroke="black" points="604.54,-294.07 611.34,-291.69 616.16,-297.05 609.35,-299.44 604.54,-294.07"/>
</g>
<!-- c16&#45;&gt;c21 -->
<g id="edge10" class="edge">
<title>c16:e&#45;&gt;c21:w</title>
<path fill="none" stroke="black" d="M870.14,-128.05C890.22,-128.05 885.1,-99.94 896.52,-90.27"/>
<polygon fill="black" stroke="black" points="897.77,-93.54 906.14,-87.05 895.55,-86.91 897.77,-93.54"/>
</g>
<!-- x2&#45;&gt;c16 -->
<g id="edge3" class="edge">
<title>x2:e&#45;&gt;c16:w</title>
<path fill="none" stroke="black" d="M587.33,-162.96C656.24,-161.93 679.93,-152.21 748.73,-151.15"/>
<polygon fill="none" stroke="black" points="587.18,-162.97 581.2,-167.01 575.18,-163.05 581.15,-159.01 587.18,-162.97"/>
<polygon fill="none" stroke="black" points="749.14,-151.14 755.11,-147.1 761.14,-151.05 755.17,-155.1 749.14,-151.14"/>
</g>
<!-- c17&#45;&gt;c22 -->
<g id="edge11" class="edge">
<title>c17:e&#45;&gt;c22:w</title>
<path fill="none" stroke="black" d="M870.14,-314.05C934.41,-314.05 848.83,-446.65 896.12,-461.67"/>
<polygon fill="black" stroke="black" points="895.76,-465.16 906.14,-463.05 896.71,-458.22 895.76,-465.16"/>
</g>
<!-- x3&#45;&gt;c17 -->
<g id="edge4" class="edge">
<title>x3:e&#45;&gt;c17:w</title>
<path fill="none" stroke="black" d="M719.29,-351.58C730.98,-348.51 737.46,-341.5 749.2,-338.48"/>
<polygon fill="none" stroke="black" points="719.07,-351.6 713.6,-356.3 707.16,-353.05 712.63,-348.36 719.07,-351.6"/>
<polygon fill="none" stroke="black" points="749.23,-338.48 754.71,-333.79 761.14,-337.05 755.66,-341.74 749.23,-338.48"/>
</g>
<!-- x4 -->
<g id="node15" class="node">
<title>x4</title>
<path fill="none" stroke="black" d="M286.38,-215.05C286.38,-215.05 337.38,-215.05 337.38,-215.05 343.38,-215.05 349.38,-221.05 349.38,-227.05 349.38,-227.05 349.38,-239.05 349.38,-239.05 349.38,-245.05 343.38,-251.05 337.38,-251.05 337.38,-251.05 286.38,-251.05 286.38,-251.05 280.38,-251.05 274.38,-245.05 274.38,-239.05 274.38,-239.05 274.38,-227.05 274.38,-227.05 274.38,-221.05 280.38,-215.05 286.38,-215.05"/>
<text text-anchor="middle" x="311.88" y="-229.35" font-family="Times,serif" font-size="14.00">0:0 &#45; 0:0</text>
</g>
<!-- c20&#45;&gt;x4 -->
<g id="edge5" class="edge">
<title>c20:e&#45;&gt;x4:w</title>
<path fill="none" stroke="black" d="M250.6,-233.05C254.68,-233.05 258.12,-233.05 262.2,-233.05"/>
<polygon fill="none" stroke="black" points="250.38,-233.05 244.38,-237.05 238.38,-233.05 244.38,-229.05 250.38,-233.05"/>
<polygon fill="none" stroke="black" points="262.38,-233.05 268.38,-229.05 274.38,-233.05 268.38,-237.05 262.38,-233.05"/>
</g>
<!-- x4&#45;&gt;n6 -->
<g id="edge13" class="edge">
<title>x4:e&#45;&gt;n6:w</title>
<path fill="none" stroke="black" d="M349.38,-233.05C361.38,-233.05 366.63,-233.05 375.26,-233.05"/>
<polygon fill="black" stroke="black" points="375.38,-236.55 385.38,-233.05 375.38,-229.55 375.38,-236.55"/>
</g>
<!-- x5 -->
<g id="node17" class="node">
<title>x5</title>
<path fill="none" stroke="black" d="M1156.14,-144.05C1156.14,-144.05 1207.14,-144.05 1207.14,-144.05 1213.14,-144.05 1219.14,-150.05 1219.14,-156.05 1219.14,-156.05 1219.14,-168.05 1219.14,-168.05 1219.14,-174.05 1213.14,-180.05 1207.14,-180.05 1207.14,-180.05 1156.14,-180.05 1156.14,-180.05 1150.14,-180.05 1144.14,-174.05 1144.14,-168.05 1144.14,-168.05 1144.14,-156.05 1144.14,-156.05 1144.14,-150.05 1150.14,-144.05 1156.14,-144.05"/>
<text text-anchor="middle" x="1181.64" y="-158.35" font-family="Times,serif" font-size="14.00">0:0 &#45; 1:1</text>
</g>
<!-- c21&#45;&gt;x5 -->
<g id="edge6" class="edge">
<title>c21:e&#45;&gt;x5:w</title>
<path fill="none" stroke="black" d="M1119.71,-91.09C1133.26,-104.11 1119.03,-144.95 1132.55,-158"/>
<polygon fill="none" stroke="black" points="1119.47,-91 1112.49,-92.81 1108.14,-87.05 1115.12,-85.25 1119.47,-91"/>
<polygon fill="none" stroke="black" points="1132.81,-158.09 1139.8,-156.3 1144.14,-162.05 1137.16,-163.85 1132.81,-158.09"/>
</g>
<!-- x5&#45;&gt;n6 -->
<g id="edge14" class="edge">
<title>x5:e&#45;&gt;n6:w</title>
<path fill="none" stroke="black" d="M1220.64,-162.05C1228.88,-162.05 1225.46,-174.73 1219.64,-180.55 1028.22,-372.16 878.94,-173.37 611.18,-214.05 544.57,-224.17 531.04,-242.77 464.18,-251.05 429.6,-255.34 411.09,-275 385.78,-251.05 383.42,-248.82 381.48,-245.43 380.56,-242.19"/>
<polygon fill="black" stroke="black" points="383.77,-243.6 384.78,-233.05 377.41,-240.67 383.77,-243.6"/>
</g>
<!-- x6 -->
<g id="node19" class="node">
<title>x6</title>
<path fill="none" stroke="black" d="M1156.14,-413.05C1156.14,-413.05 1207.14,-413.05 1207.14,-413.05 1213.14,-413.05 1219.14,-419.05 1219.14,-425.05 1219.14,-425.05 1219.14,-437.05 1219.14,-437.05 1219.14,-443.05 1213.14,-449.05 1207.14,-449.05 1207.14,-449.05 1156.14,-449.05 1156.14,-449.05 1150.14,-449.05 1144.14,-443.05 1144.14,-437.05 1144.14,-437.05 1144.14,-425.05 1144.14,-425.05 1144.14,-419.05 1150.14,-413.05 1156.14,-413.05"/>
<text text-anchor="middle" x="1181.64" y="-427.35" font-family="Times,serif" font-size="14.00">0:0 &#45; 2:2</text>
</g>
<!-- c22&#45;&gt;x6 -->
<g id="edge7" class="edge">
<title>c22:e&#45;&gt;x6:w</title>
<path fill="none" stroke="black" d="M1119.53,-458.33C1125.29,-452.21 1127.09,-441.61 1132.93,-435.59"/>
<polygon fill="none" stroke="black" points="1119.23,-458.46 1115.22,-464.45 1108.14,-463.05 1112.15,-457.06 1119.23,-458.46"/>
<polygon fill="none" stroke="black" points="1133.02,-435.55 1137.08,-429.6 1144.14,-431.05 1140.08,-437.01 1133.02,-435.55"/>
</g>
<!-- x6&#45;&gt;n6 -->
<g id="edge15" class="edge">
<title>x6:e&#45;&gt;n6:w</title>
<path fill="none" stroke="black" d="M1220.64,-431.05C1237.53,-431.05 1224.96,-479.19 1144.14,-449.55 1124.45,-442.33 1127.58,-426.91 1108.14,-419.05 987.76,-370.42 946.47,-400.05 816.64,-400.05 667.16,-400.05 667.16,-400.05 667.16,-400.05 588.3,-400.05 569.1,-378.38 500.18,-340.05 400.27,-284.5 375.03,-251.7 376.61,-239.07"/>
<polygon fill="black" stroke="black" points="378.8,-241.8 384.78,-233.05 374.65,-236.16 378.8,-241.8"/>
</g>
</g>
</svg>
