<?xml version="1.0" encoding="UTF-8" standalone="no"?>
<!DOCTYPE svg PUBLIC "-//W3C//DTD SVG 1.1//EN"
 "http://www.w3.org/Graphics/SVG/1.1/DTD/svg11.dtd">
<!-- Generated by graphviz version 2.43.20190912.0211 (20190912.0211)
 -->
<!-- Title: counter_jkff Pages: 1 -->
<svg width="3179pt" height="1138pt"
 viewBox="0.00 0.00 3179.34 1138.00" xmlns="http://www.w3.org/2000/svg" xmlns:xlink="http://www.w3.org/1999/xlink">
<g id="graph0" class="graph" transform="scale(1 1) rotate(0) translate(4 1134)">
<title>counter_jkff</title>
<polygon fill="white" stroke="transparent" points="-4,4 -4,-1134 3175.34,-1134 3175.34,4 -4,4"/>
<text text-anchor="middle" x="1585.67" y="-7.8" font-family="Times,serif" font-size="14.00">counter_jkff</text>
<!-- n7 -->
<g id="node1" class="node">
<title>n7</title>
<polygon fill="none" stroke="black" points="418.38,-202 391.38,-184 418.38,-166 445.38,-184 418.38,-202"/>
<text text-anchor="middle" x="418.38" y="-180.3" font-family="Times,serif" font-size="14.00">J</text>
</g>
<!-- c23 -->
<g id="node17" class="node">
<title>c23</title>
<polygon fill="none" stroke="black" points="481.38,-559 481.38,-605 578.38,-605 578.38,-559 481.38,-559"/>
<text text-anchor="middle" x="494.88" y="-589.8" font-family="Times,serif" font-size="14.00">A</text>
<polyline fill="none" stroke="black" points="481.38,-582 508.38,-582 "/>
<text text-anchor="middle" x="494.88" y="-566.8" font-family="Times,serif" font-size="14.00">B</text>
<polyline fill="none" stroke="black" points="508.38,-559 508.38,-605 "/>
<text text-anchor="middle" x="530.38" y="-585.8" font-family="Times,serif" font-size="14.00">$41</text>
<text text-anchor="middle" x="530.38" y="-570.8" font-family="Times,serif" font-size="14.00">$ne</text>
<polyline fill="none" stroke="black" points="552.38,-559 552.38,-605 "/>
<text text-anchor="middle" x="565.38" y="-578.3" font-family="Times,serif" font-size="14.00">Y</text>
</g>
<!-- n7&#45;&gt;c23 -->
<g id="edge77" class="edge">
<title>n7:e&#45;&gt;c23:w</title>
<path fill="none" stroke="black" d="M445.38,-184C533.09,-184 401.57,-561.06 471.3,-591.99"/>
<polygon fill="black" stroke="black" points="470.89,-595.47 481.38,-594 472.26,-588.61 470.89,-595.47"/>
</g>
<!-- c31 -->
<g id="node28" class="node">
<title>c31</title>
<polygon fill="none" stroke="black" points="653.98,-293.5 653.98,-362.5 762.98,-362.5 762.98,-293.5 653.98,-293.5"/>
<text text-anchor="middle" x="667.48" y="-347.3" font-family="Times,serif" font-size="14.00">A</text>
<polyline fill="none" stroke="black" points="653.98,-339.5 680.98,-339.5 "/>
<text text-anchor="middle" x="667.48" y="-324.3" font-family="Times,serif" font-size="14.00">B</text>
<polyline fill="none" stroke="black" points="653.98,-316.5 680.98,-316.5 "/>
<text text-anchor="middle" x="667.48" y="-301.3" font-family="Times,serif" font-size="14.00">S</text>
<polyline fill="none" stroke="black" points="680.98,-293.5 680.98,-362.5 "/>
<text text-anchor="middle" x="708.98" y="-331.8" font-family="Times,serif" font-size="14.00">$26</text>
<text text-anchor="middle" x="708.98" y="-316.8" font-family="Times,serif" font-size="14.00">$mux</text>
<polyline fill="none" stroke="black" points="736.98,-293.5 736.98,-362.5 "/>
<text text-anchor="middle" x="749.98" y="-324.3" font-family="Times,serif" font-size="14.00">Y</text>
</g>
<!-- n7&#45;&gt;c31 -->
<g id="edge78" class="edge">
<title>n7:e&#45;&gt;c31:w</title>
<path fill="none" stroke="black" d="M445.38,-184C466.79,-184 464.36,-203.03 481.38,-216 515.27,-241.82 596.14,-316.74 644.01,-326.86"/>
<polygon fill="black" stroke="black" points="643.65,-330.35 653.98,-328 644.44,-323.39 643.65,-330.35"/>
</g>
<!-- c32 -->
<g id="node30" class="node">
<title>c32</title>
<polygon fill="none" stroke="black" points="2424.74,-39.5 2424.74,-108.5 2533.74,-108.5 2533.74,-39.5 2424.74,-39.5"/>
<text text-anchor="middle" x="2438.24" y="-93.3" font-family="Times,serif" font-size="14.00">A</text>
<polyline fill="none" stroke="black" points="2424.74,-85.5 2451.74,-85.5 "/>
<text text-anchor="middle" x="2438.24" y="-70.3" font-family="Times,serif" font-size="14.00">B</text>
<polyline fill="none" stroke="black" points="2424.74,-62.5 2451.74,-62.5 "/>
<text text-anchor="middle" x="2438.24" y="-47.3" font-family="Times,serif" font-size="14.00">S</text>
<polyline fill="none" stroke="black" points="2451.74,-39.5 2451.74,-108.5 "/>
<text text-anchor="middle" x="2479.74" y="-77.8" font-family="Times,serif" font-size="14.00">$33</text>
<text text-anchor="middle" x="2479.74" y="-62.8" font-family="Times,serif" font-size="14.00">$mux</text>
<polyline fill="none" stroke="black" points="2507.74,-39.5 2507.74,-108.5 "/>
<text text-anchor="middle" x="2520.74" y="-70.3" font-family="Times,serif" font-size="14.00">Y</text>
</g>
<!-- n7&#45;&gt;c32 -->
<g id="edge79" class="edge">
<title>n7:e&#45;&gt;c32:w</title>
<path fill="none" stroke="black" d="M445.38,-184C486,-184 454.4,-130.36 481.38,-100 526.97,-48.72 546.57,-23 615.18,-23 615.18,-23 615.18,-23 2151.24,-23 2271.39,-23 2299.53,-71.15 2414.47,-73.88"/>
<polygon fill="black" stroke="black" points="2414.7,-77.38 2424.74,-74 2414.78,-70.38 2414.7,-77.38"/>
</g>
<!-- c33 -->
<g id="node33" class="node">
<title>c33</title>
<polygon fill="none" stroke="black" points="2424.74,-165.5 2424.74,-234.5 2533.74,-234.5 2533.74,-165.5 2424.74,-165.5"/>
<text text-anchor="middle" x="2438.24" y="-219.3" font-family="Times,serif" font-size="14.00">A</text>
<polyline fill="none" stroke="black" points="2424.74,-211.5 2451.74,-211.5 "/>
<text text-anchor="middle" x="2438.24" y="-196.3" font-family="Times,serif" font-size="14.00">B</text>
<polyline fill="none" stroke="black" points="2424.74,-188.5 2451.74,-188.5 "/>
<text text-anchor="middle" x="2438.24" y="-173.3" font-family="Times,serif" font-size="14.00">S</text>
<polyline fill="none" stroke="black" points="2451.74,-165.5 2451.74,-234.5 "/>
<text text-anchor="middle" x="2479.74" y="-203.8" font-family="Times,serif" font-size="14.00">$40</text>
<text text-anchor="middle" x="2479.74" y="-188.8" font-family="Times,serif" font-size="14.00">$mux</text>
<polyline fill="none" stroke="black" points="2507.74,-165.5 2507.74,-234.5 "/>
<text text-anchor="middle" x="2520.74" y="-196.3" font-family="Times,serif" font-size="14.00">Y</text>
</g>
<!-- n7&#45;&gt;c33 -->
<g id="edge80" class="edge">
<title>n7:e&#45;&gt;c33:w</title>
<path fill="none" stroke="black" d="M445.38,-184C464.37,-184 464.73,-170.12 481.38,-161 538.86,-129.51 549.64,-99 615.18,-99 615.18,-99 615.18,-99 1882.24,-99 2124.02,-99 2177.98,-197.16 2414.44,-199.94"/>
<polygon fill="black" stroke="black" points="2414.72,-203.44 2424.74,-200 2414.76,-196.44 2414.72,-203.44"/>
</g>
<!-- n8 -->
<g id="node2" class="node">
<title>n8</title>
<polygon fill="none" stroke="black" points="418.38,-1050 391.38,-1032 418.38,-1014 445.38,-1032 418.38,-1050"/>
<text text-anchor="middle" x="418.38" y="-1028.3" font-family="Times,serif" font-size="14.00">K</text>
</g>
<!-- n8&#45;&gt;c23 -->
<g id="edge82" class="edge">
<title>n8:e&#45;&gt;c23:w</title>
<path fill="none" stroke="black" d="M445.38,-1032C544.74,-1032 390.02,-601.91 471.51,-571.67"/>
<polygon fill="black" stroke="black" points="472.11,-575.12 481.38,-570 470.94,-568.22 472.11,-575.12"/>
</g>
<!-- c34 -->
<g id="node36" class="node">
<title>c34</title>
<polygon fill="none" stroke="black" points="653.98,-1060.5 653.98,-1129.5 762.98,-1129.5 762.98,-1060.5 653.98,-1060.5"/>
<text text-anchor="middle" x="667.48" y="-1114.3" font-family="Times,serif" font-size="14.00">A</text>
<polyline fill="none" stroke="black" points="653.98,-1106.5 680.98,-1106.5 "/>
<text text-anchor="middle" x="667.48" y="-1091.3" font-family="Times,serif" font-size="14.00">B</text>
<polyline fill="none" stroke="black" points="653.98,-1083.5 680.98,-1083.5 "/>
<text text-anchor="middle" x="667.48" y="-1068.3" font-family="Times,serif" font-size="14.00">S</text>
<polyline fill="none" stroke="black" points="680.98,-1060.5 680.98,-1129.5 "/>
<text text-anchor="middle" x="708.98" y="-1098.8" font-family="Times,serif" font-size="14.00">$28</text>
<text text-anchor="middle" x="708.98" y="-1083.8" font-family="Times,serif" font-size="14.00">$mux</text>
<polyline fill="none" stroke="black" points="736.98,-1060.5 736.98,-1129.5 "/>
<text text-anchor="middle" x="749.98" y="-1091.3" font-family="Times,serif" font-size="14.00">Y</text>
</g>
<!-- n8&#45;&gt;c34 -->
<g id="edge83" class="edge">
<title>n8:e&#45;&gt;c34:w</title>
<path fill="none" stroke="black" d="M445.38,-1032C462.55,-1032 465.11,-1040.54 481.38,-1046 553.59,-1070.23 572.57,-1092.87 643.6,-1094.86"/>
<polygon fill="black" stroke="black" points="643.94,-1098.36 653.98,-1095 644.03,-1091.36 643.94,-1098.36"/>
</g>
<!-- c35 -->
<g id="node38" class="node">
<title>c35</title>
<polygon fill="none" stroke="black" points="2424.74,-747.5 2424.74,-816.5 2533.74,-816.5 2533.74,-747.5 2424.74,-747.5"/>
<text text-anchor="middle" x="2438.24" y="-801.3" font-family="Times,serif" font-size="14.00">A</text>
<polyline fill="none" stroke="black" points="2424.74,-793.5 2451.74,-793.5 "/>
<text text-anchor="middle" x="2438.24" y="-778.3" font-family="Times,serif" font-size="14.00">B</text>
<polyline fill="none" stroke="black" points="2424.74,-770.5 2451.74,-770.5 "/>
<text text-anchor="middle" x="2438.24" y="-755.3" font-family="Times,serif" font-size="14.00">S</text>
<polyline fill="none" stroke="black" points="2451.74,-747.5 2451.74,-816.5 "/>
<text text-anchor="middle" x="2479.74" y="-785.8" font-family="Times,serif" font-size="14.00">$35</text>
<text text-anchor="middle" x="2479.74" y="-770.8" font-family="Times,serif" font-size="14.00">$mux</text>
<polyline fill="none" stroke="black" points="2507.74,-747.5 2507.74,-816.5 "/>
<text text-anchor="middle" x="2520.74" y="-778.3" font-family="Times,serif" font-size="14.00">Y</text>
</g>
<!-- n8&#45;&gt;c35 -->
<g id="edge84" class="edge">
<title>n8:e&#45;&gt;c35:w</title>
<path fill="none" stroke="black" d="M445.38,-1032C586.77,-1032 473.8,-763 615.18,-763 615.18,-763 615.18,-763 709.48,-763 865.07,-763 901.9,-725 1057.48,-725 1057.48,-725 1057.48,-725 2025.24,-725 2201.18,-725 2243.78,-779.85 2414.64,-781.94"/>
<polygon fill="black" stroke="black" points="2414.72,-785.44 2424.74,-782 2414.76,-778.44 2414.72,-785.44"/>
</g>
<!-- c36 -->
<g id="node41" class="node">
<title>c36</title>
<polygon fill="none" stroke="black" points="2424.74,-949.5 2424.74,-1018.5 2533.74,-1018.5 2533.74,-949.5 2424.74,-949.5"/>
<text text-anchor="middle" x="2438.24" y="-1003.3" font-family="Times,serif" font-size="14.00">A</text>
<polyline fill="none" stroke="black" points="2424.74,-995.5 2451.74,-995.5 "/>
<text text-anchor="middle" x="2438.24" y="-980.3" font-family="Times,serif" font-size="14.00">B</text>
<polyline fill="none" stroke="black" points="2424.74,-972.5 2451.74,-972.5 "/>
<text text-anchor="middle" x="2438.24" y="-957.3" font-family="Times,serif" font-size="14.00">S</text>
<polyline fill="none" stroke="black" points="2451.74,-949.5 2451.74,-1018.5 "/>
<text text-anchor="middle" x="2479.74" y="-987.8" font-family="Times,serif" font-size="14.00">$42</text>
<text text-anchor="middle" x="2479.74" y="-972.8" font-family="Times,serif" font-size="14.00">$mux</text>
<polyline fill="none" stroke="black" points="2507.74,-949.5 2507.74,-1018.5 "/>
<text text-anchor="middle" x="2520.74" y="-980.3" font-family="Times,serif" font-size="14.00">Y</text>
</g>
<!-- n8&#45;&gt;c36 -->
<g id="edge85" class="edge">
<title>n8:e&#45;&gt;c36:w</title>
<path fill="none" stroke="black" d="M445.38,-1032C788.34,-1032 874.03,-1041 1216.98,-1041 1216.98,-1041 1216.98,-1041 2251.74,-1041 2289.14,-1041 2370.54,-992.35 2414.64,-984.94"/>
<polygon fill="black" stroke="black" points="2415.11,-988.41 2424.74,-984 2414.46,-981.44 2415.11,-988.41"/>
</g>
<!-- n9 -->
<g id="node3" class="node">
<title>n9</title>
<polygon fill="none" stroke="black" points="1085.48,-831.54 1085.48,-846.46 1069.67,-857 1047.3,-857 1031.48,-846.46 1031.48,-831.54 1047.3,-821 1069.67,-821 1085.48,-831.54"/>
<text text-anchor="middle" x="1058.48" y="-835.3" font-family="Times,serif" font-size="14.00">clk</text>
</g>
<!-- c38 -->
<g id="node44" class="node">
<title>c38</title>
<polygon fill="none" stroke="black" points="1131.98,-867.5 1131.98,-936.5 1303.98,-936.5 1303.98,-867.5 1131.98,-867.5"/>
<text text-anchor="middle" x="1150.48" y="-921.3" font-family="Times,serif" font-size="14.00">J</text>
<polyline fill="none" stroke="black" points="1131.98,-913.5 1168.98,-913.5 "/>
<text text-anchor="middle" x="1150.48" y="-898.3" font-family="Times,serif" font-size="14.00">K</text>
<polyline fill="none" stroke="black" points="1131.98,-890.5 1168.98,-890.5 "/>
<text text-anchor="middle" x="1150.48" y="-875.3" font-family="Times,serif" font-size="14.00">clk</text>
<polyline fill="none" stroke="black" points="1168.98,-867.5 1168.98,-936.5 "/>
<text text-anchor="middle" x="1222.48" y="-905.8" font-family="Times,serif" font-size="14.00">genblk1[0].ff</text>
<text text-anchor="middle" x="1222.48" y="-890.8" font-family="Times,serif" font-size="14.00">ff_jk</text>
<polyline fill="none" stroke="black" points="1275.98,-867.5 1275.98,-936.5 "/>
<text text-anchor="middle" x="1289.98" y="-898.3" font-family="Times,serif" font-size="14.00">Q</text>
</g>
<!-- n9&#45;&gt;c38 -->
<g id="edge86" class="edge">
<title>n9:e&#45;&gt;c38:w</title>
<path fill="none" stroke="black" d="M1086.48,-839C1109.41,-839 1106.76,-868.01 1122.09,-876.62"/>
<polygon fill="black" stroke="black" points="1121.44,-880.06 1131.98,-879 1123.08,-873.26 1121.44,-880.06"/>
</g>
<!-- c39 -->
<g id="node48" class="node">
<title>c39</title>
<polygon fill="none" stroke="black" points="2881.74,-868.5 2881.74,-937.5 3053.74,-937.5 3053.74,-868.5 2881.74,-868.5"/>
<text text-anchor="middle" x="2900.24" y="-922.3" font-family="Times,serif" font-size="14.00">J</text>
<polyline fill="none" stroke="black" points="2881.74,-914.5 2918.74,-914.5 "/>
<text text-anchor="middle" x="2900.24" y="-899.3" font-family="Times,serif" font-size="14.00">K</text>
<polyline fill="none" stroke="black" points="2881.74,-891.5 2918.74,-891.5 "/>
<text text-anchor="middle" x="2900.24" y="-876.3" font-family="Times,serif" font-size="14.00">clk</text>
<polyline fill="none" stroke="black" points="2918.74,-868.5 2918.74,-937.5 "/>
<text text-anchor="middle" x="2972.24" y="-906.8" font-family="Times,serif" font-size="14.00">genblk1[1].ff</text>
<text text-anchor="middle" x="2972.24" y="-891.8" font-family="Times,serif" font-size="14.00">ff_jk</text>
<polyline fill="none" stroke="black" points="3025.74,-868.5 3025.74,-937.5 "/>
<text text-anchor="middle" x="3039.74" y="-899.3" font-family="Times,serif" font-size="14.00">Q</text>
</g>
<!-- n9&#45;&gt;c39 -->
<g id="edge87" class="edge">
<title>n9:e&#45;&gt;c39:w</title>
<path fill="none" stroke="black" d="M1086.48,-839C1215.37,-839 1247.6,-839 1376.48,-839 1376.48,-839 1376.48,-839 1491.38,-839 2059.99,-839 2202.14,-837.44 2770.74,-837 2804.07,-836.97 2815.54,-822.9 2845.74,-837 2864.44,-845.73 2859.77,-869.49 2871.76,-877.4"/>
<polygon fill="black" stroke="black" points="2871.18,-880.87 2881.74,-880 2872.95,-874.09 2871.18,-880.87"/>
</g>
<!-- c40 -->
<g id="node52" class="node">
<title>c40</title>
<polygon fill="none" stroke="black" points="2881.74,-656.5 2881.74,-725.5 3053.74,-725.5 3053.74,-656.5 2881.74,-656.5"/>
<text text-anchor="middle" x="2900.24" y="-710.3" font-family="Times,serif" font-size="14.00">J</text>
<polyline fill="none" stroke="black" points="2881.74,-702.5 2918.74,-702.5 "/>
<text text-anchor="middle" x="2900.24" y="-687.3" font-family="Times,serif" font-size="14.00">K</text>
<polyline fill="none" stroke="black" points="2881.74,-679.5 2918.74,-679.5 "/>
<text text-anchor="middle" x="2900.24" y="-664.3" font-family="Times,serif" font-size="14.00">clk</text>
<polyline fill="none" stroke="black" points="2918.74,-656.5 2918.74,-725.5 "/>
<text text-anchor="middle" x="2972.24" y="-694.8" font-family="Times,serif" font-size="14.00">genblk1[2].ff</text>
<text text-anchor="middle" x="2972.24" y="-679.8" font-family="Times,serif" font-size="14.00">ff_jk</text>
<polyline fill="none" stroke="black" points="3025.74,-656.5 3025.74,-725.5 "/>
<text text-anchor="middle" x="3039.74" y="-687.3" font-family="Times,serif" font-size="14.00">Q</text>
</g>
<!-- n9&#45;&gt;c40 -->
<g id="edge88" class="edge">
<title>n9:e&#45;&gt;c40:w</title>
<path fill="none" stroke="black" d="M1086.48,-839C1118.98,-839 1343.99,-801 1376.48,-801 1376.48,-801 1376.48,-801 1734.76,-801 2244.56,-801 2366.95,-669.75 2871.64,-668.02"/>
<polygon fill="black" stroke="black" points="2871.75,-671.52 2881.74,-668 2871.74,-664.52 2871.75,-671.52"/>
</g>
<!-- n10 -->
<g id="node4" class="node">
<title>n10</title>
<polygon fill="none" stroke="black" points="1529.67,-534.54 1529.67,-549.46 1506.65,-560 1474.1,-560 1451.09,-549.46 1451.09,-534.54 1474.1,-524 1506.65,-524 1529.67,-534.54"/>
<text text-anchor="middle" x="1490.38" y="-538.3" font-family="Times,serif" font-size="14.00">count</text>
</g>
<!-- x3 -->
<g id="node20" class="node">
<title>x3</title>
<path fill="none" stroke="black" d="M1577.78,-524C1577.78,-524 1628.78,-524 1628.78,-524 1634.78,-524 1640.78,-530 1640.78,-536 1640.78,-536 1640.78,-548 1640.78,-548 1640.78,-554 1634.78,-560 1628.78,-560 1628.78,-560 1577.78,-560 1577.78,-560 1571.78,-560 1565.78,-554 1565.78,-548 1565.78,-548 1565.78,-536 1565.78,-536 1565.78,-530 1571.78,-524 1577.78,-524"/>
<text text-anchor="middle" x="1603.28" y="-538.3" font-family="Times,serif" font-size="14.00">0:0 &#45; 0:0</text>
</g>
<!-- n10&#45;&gt;x3 -->
<g id="edge37" class="edge">
<title>n10:e&#45;&gt;x3:w</title>
<path fill="none" stroke="black" d="M1529.78,-542C1541.78,-542 1547.03,-542 1555.65,-542"/>
<polygon fill="black" stroke="black" points="1555.78,-545.5 1565.78,-542 1555.78,-538.5 1555.78,-545.5"/>
</g>
<!-- x4 -->
<g id="node22" class="node">
<title>x4</title>
<path fill="none" stroke="black" d="M1577.78,-414C1577.78,-414 1628.78,-414 1628.78,-414 1634.78,-414 1640.78,-420 1640.78,-426 1640.78,-426 1640.78,-438 1640.78,-438 1640.78,-444 1634.78,-450 1628.78,-450 1628.78,-450 1577.78,-450 1577.78,-450 1571.78,-450 1565.78,-444 1565.78,-438 1565.78,-438 1565.78,-426 1565.78,-426 1565.78,-420 1571.78,-414 1577.78,-414"/>
<text text-anchor="middle" x="1603.28" y="-428.3" font-family="Times,serif" font-size="14.00">1:1 &#45; 0:0</text>
</g>
<!-- n10&#45;&gt;x4 -->
<g id="edge38" class="edge">
<title>n10:e&#45;&gt;x4:w</title>
<path fill="none" stroke="black" d="M1529.78,-542C1577.2,-542 1524.06,-448.52 1555.77,-433.91"/>
<polygon fill="black" stroke="black" points="1556.61,-437.31 1565.78,-432 1555.3,-430.44 1556.61,-437.31"/>
</g>
<!-- x5 -->
<g id="node25" class="node">
<title>x5</title>
<path fill="none" stroke="black" d="M1577.78,-469C1577.78,-469 1628.78,-469 1628.78,-469 1634.78,-469 1640.78,-475 1640.78,-481 1640.78,-481 1640.78,-493 1640.78,-493 1640.78,-499 1634.78,-505 1628.78,-505 1628.78,-505 1577.78,-505 1577.78,-505 1571.78,-505 1565.78,-499 1565.78,-493 1565.78,-493 1565.78,-481 1565.78,-481 1565.78,-475 1571.78,-469 1577.78,-469"/>
<text text-anchor="middle" x="1603.28" y="-483.3" font-family="Times,serif" font-size="14.00">0:0 &#45; 0:0</text>
</g>
<!-- n10&#45;&gt;x5 -->
<g id="edge39" class="edge">
<title>n10:e&#45;&gt;x5:w</title>
<path fill="none" stroke="black" d="M1529.78,-542C1554.65,-542 1542.08,-502.12 1555.84,-490.28"/>
<polygon fill="black" stroke="black" points="1557.37,-493.46 1565.78,-487 1555.18,-486.81 1557.37,-493.46"/>
</g>
<!-- x6 -->
<g id="node27" class="node">
<title>x6</title>
<path fill="none" stroke="black" d="M1708.26,-372C1708.26,-372 1759.26,-372 1759.26,-372 1765.26,-372 1771.26,-378 1771.26,-384 1771.26,-384 1771.26,-396 1771.26,-396 1771.26,-402 1765.26,-408 1759.26,-408 1759.26,-408 1708.26,-408 1708.26,-408 1702.26,-408 1696.26,-402 1696.26,-396 1696.26,-396 1696.26,-384 1696.26,-384 1696.26,-378 1702.26,-372 1708.26,-372"/>
<text text-anchor="middle" x="1733.76" y="-386.3" font-family="Times,serif" font-size="14.00">1:1 &#45; 0:0</text>
</g>
<!-- n10&#45;&gt;x6 -->
<g id="edge40" class="edge">
<title>n10:e&#45;&gt;x6:w</title>
<path fill="none" stroke="black" d="M1529.78,-542C1592.73,-542 1518.23,-446.27 1565.78,-405 1606.72,-369.46 1633.64,-387.46 1684.6,-389.77"/>
<polygon fill="black" stroke="black" points="1684.68,-393.27 1694.76,-390 1684.84,-386.27 1684.68,-393.27"/>
</g>
<!-- n11 -->
<g id="node5" class="node">
<title>n11</title>
<polygon fill="none" stroke="black" points="1790.72,-327.54 1790.72,-342.46 1757.35,-353 1710.16,-353 1676.79,-342.46 1676.79,-327.54 1710.16,-317 1757.35,-317 1790.72,-327.54"/>
<text text-anchor="middle" x="1733.76" y="-331.3" font-family="Times,serif" font-size="14.00">count_up</text>
</g>
<!-- c29 -->
<g id="node24" class="node">
<title>c29</title>
<polygon fill="none" stroke="black" points="1826.74,-459.5 1826.74,-528.5 1935.74,-528.5 1935.74,-459.5 1826.74,-459.5"/>
<text text-anchor="middle" x="1840.24" y="-513.3" font-family="Times,serif" font-size="14.00">A</text>
<polyline fill="none" stroke="black" points="1826.74,-505.5 1853.74,-505.5 "/>
<text text-anchor="middle" x="1840.24" y="-490.3" font-family="Times,serif" font-size="14.00">B</text>
<polyline fill="none" stroke="black" points="1826.74,-482.5 1853.74,-482.5 "/>
<text text-anchor="middle" x="1840.24" y="-467.3" font-family="Times,serif" font-size="14.00">S</text>
<polyline fill="none" stroke="black" points="1853.74,-459.5 1853.74,-528.5 "/>
<text text-anchor="middle" x="1881.74" y="-497.8" font-family="Times,serif" font-size="14.00">$30</text>
<text text-anchor="middle" x="1881.74" y="-482.8" font-family="Times,serif" font-size="14.00">$mux</text>
<polyline fill="none" stroke="black" points="1909.74,-459.5 1909.74,-528.5 "/>
<text text-anchor="middle" x="1922.74" y="-490.3" font-family="Times,serif" font-size="14.00">Y</text>
</g>
<!-- n11&#45;&gt;c29 -->
<g id="edge41" class="edge">
<title>n11:e&#45;&gt;c29:w</title>
<path fill="none" stroke="black" d="M1790.74,-335C1849.36,-335 1774.75,-454.53 1816.72,-469.47"/>
<polygon fill="black" stroke="black" points="1816.33,-472.95 1826.74,-471 1817.38,-466.03 1816.33,-472.95"/>
</g>
<!-- c30 -->
<g id="node26" class="node">
<title>c30</title>
<polygon fill="none" stroke="black" points="1826.74,-351.5 1826.74,-420.5 1935.74,-420.5 1935.74,-351.5 1826.74,-351.5"/>
<text text-anchor="middle" x="1840.24" y="-405.3" font-family="Times,serif" font-size="14.00">A</text>
<polyline fill="none" stroke="black" points="1826.74,-397.5 1853.74,-397.5 "/>
<text text-anchor="middle" x="1840.24" y="-382.3" font-family="Times,serif" font-size="14.00">B</text>
<polyline fill="none" stroke="black" points="1826.74,-374.5 1853.74,-374.5 "/>
<text text-anchor="middle" x="1840.24" y="-359.3" font-family="Times,serif" font-size="14.00">S</text>
<polyline fill="none" stroke="black" points="1853.74,-351.5 1853.74,-420.5 "/>
<text text-anchor="middle" x="1881.74" y="-389.8" font-family="Times,serif" font-size="14.00">$37</text>
<text text-anchor="middle" x="1881.74" y="-374.8" font-family="Times,serif" font-size="14.00">$mux</text>
<polyline fill="none" stroke="black" points="1909.74,-351.5 1909.74,-420.5 "/>
<text text-anchor="middle" x="1922.74" y="-382.3" font-family="Times,serif" font-size="14.00">Y</text>
</g>
<!-- n11&#45;&gt;c30 -->
<g id="edge42" class="edge">
<title>n11:e&#45;&gt;c30:w</title>
<path fill="none" stroke="black" d="M1790.74,-335C1806.89,-335 1807.29,-352.78 1817.04,-360"/>
<polygon fill="black" stroke="black" points="1816.15,-363.39 1826.74,-363 1818.22,-356.7 1816.15,-363.39"/>
</g>
<!-- n12 -->
<g id="node6" class="node">
<title>n12</title>
<polygon fill="none" stroke="black" points="2250.74,-500 2223.74,-482 2250.74,-464 2277.74,-482 2250.74,-500"/>
<text text-anchor="middle" x="2250.74" y="-478.3" font-family="Times,serif" font-size="14.00">d</text>
</g>
<!-- x1 -->
<g id="node15" class="node">
<title>x1</title>
<path fill="none" stroke="black" d="M2325.74,-440C2325.74,-440 2376.74,-440 2376.74,-440 2382.74,-440 2388.74,-446 2388.74,-452 2388.74,-452 2388.74,-464 2388.74,-464 2388.74,-470 2382.74,-476 2376.74,-476 2376.74,-476 2325.74,-476 2325.74,-476 2319.74,-476 2313.74,-470 2313.74,-464 2313.74,-464 2313.74,-452 2313.74,-452 2313.74,-446 2319.74,-440 2325.74,-440"/>
<text text-anchor="middle" x="2351.24" y="-454.3" font-family="Times,serif" font-size="14.00">1:1 &#45; 0:0</text>
</g>
<!-- n12&#45;&gt;x1 -->
<g id="edge49" class="edge">
<title>n12:e&#45;&gt;x1:w</title>
<path fill="none" stroke="black" d="M2277.74,-482C2292.91,-482 2294.58,-467.06 2304.06,-460.75"/>
<polygon fill="black" stroke="black" points="2305.08,-464.1 2313.74,-458 2303.17,-457.37 2305.08,-464.1"/>
</g>
<!-- x8 -->
<g id="node31" class="node">
<title>x8</title>
<path fill="none" stroke="black" d="M2325.74,-330C2325.74,-330 2376.74,-330 2376.74,-330 2382.74,-330 2388.74,-336 2388.74,-342 2388.74,-342 2388.74,-354 2388.74,-354 2388.74,-360 2382.74,-366 2376.74,-366 2376.74,-366 2325.74,-366 2325.74,-366 2319.74,-366 2313.74,-360 2313.74,-354 2313.74,-354 2313.74,-342 2313.74,-342 2313.74,-336 2319.74,-330 2325.74,-330"/>
<text text-anchor="middle" x="2351.24" y="-344.3" font-family="Times,serif" font-size="14.00">1:1 &#45; 0:0</text>
</g>
<!-- n12&#45;&gt;x8 -->
<g id="edge50" class="edge">
<title>n12:e&#45;&gt;x8:w</title>
<path fill="none" stroke="black" d="M2277.74,-482C2335.55,-482 2262.41,-364.23 2303.85,-349.5"/>
<polygon fill="black" stroke="black" points="2304.38,-352.96 2313.74,-348 2303.33,-346.04 2304.38,-352.96"/>
</g>
<!-- x10 -->
<g id="node34" class="node">
<title>x10</title>
<path fill="none" stroke="black" d="M2325.74,-385C2325.74,-385 2376.74,-385 2376.74,-385 2382.74,-385 2388.74,-391 2388.74,-397 2388.74,-397 2388.74,-409 2388.74,-409 2388.74,-415 2382.74,-421 2376.74,-421 2376.74,-421 2325.74,-421 2325.74,-421 2319.74,-421 2313.74,-415 2313.74,-409 2313.74,-409 2313.74,-397 2313.74,-397 2313.74,-391 2319.74,-385 2325.74,-385"/>
<text text-anchor="middle" x="2351.24" y="-399.3" font-family="Times,serif" font-size="14.00">2:2 &#45; 0:0</text>
</g>
<!-- n12&#45;&gt;x10 -->
<g id="edge46" class="edge">
<title>n12:e&#45;&gt;x10:w</title>
<path fill="none" stroke="black" d="M2277.74,-482C2312.26,-482 2282.95,-418.79 2304.01,-405.45"/>
<polygon fill="black" stroke="black" points="2304.9,-408.84 2313.74,-403 2303.19,-402.05 2304.9,-408.84"/>
</g>
<!-- x13 -->
<g id="node39" class="node">
<title>x13</title>
<path fill="none" stroke="black" d="M2325.74,-534C2325.74,-534 2376.74,-534 2376.74,-534 2382.74,-534 2388.74,-540 2388.74,-546 2388.74,-546 2388.74,-558 2388.74,-558 2388.74,-564 2382.74,-570 2376.74,-570 2376.74,-570 2325.74,-570 2325.74,-570 2319.74,-570 2313.74,-564 2313.74,-558 2313.74,-558 2313.74,-546 2313.74,-546 2313.74,-540 2319.74,-534 2325.74,-534"/>
<text text-anchor="middle" x="2351.24" y="-548.3" font-family="Times,serif" font-size="14.00">1:1 &#45; 0:0</text>
</g>
<!-- n12&#45;&gt;x13 -->
<g id="edge47" class="edge">
<title>n12:e&#45;&gt;x13:w</title>
<path fill="none" stroke="black" d="M2277.74,-482C2308.63,-482 2285.77,-536.56 2304.06,-549.34"/>
<polygon fill="black" stroke="black" points="2303.17,-552.73 2313.74,-552 2305.03,-545.98 2303.17,-552.73"/>
</g>
<!-- x15 -->
<g id="node42" class="node">
<title>x15</title>
<path fill="none" stroke="black" d="M2325.74,-666C2325.74,-666 2376.74,-666 2376.74,-666 2382.74,-666 2388.74,-672 2388.74,-678 2388.74,-678 2388.74,-690 2388.74,-690 2388.74,-696 2382.74,-702 2376.74,-702 2376.74,-702 2325.74,-702 2325.74,-702 2319.74,-702 2313.74,-696 2313.74,-690 2313.74,-690 2313.74,-678 2313.74,-678 2313.74,-672 2319.74,-666 2325.74,-666"/>
<text text-anchor="middle" x="2351.24" y="-680.3" font-family="Times,serif" font-size="14.00">2:2 &#45; 0:0</text>
</g>
<!-- n12&#45;&gt;x15 -->
<g id="edge48" class="edge">
<title>n12:e&#45;&gt;x15:w</title>
<path fill="none" stroke="black" d="M2277.74,-482C2365.19,-482 2234.16,-667.77 2303.69,-683.01"/>
<polygon fill="black" stroke="black" points="2303.45,-686.5 2313.74,-684 2304.13,-679.54 2303.45,-686.5"/>
</g>
<!-- n13 -->
<g id="node7" class="node">
<title>n13</title>
<polygon fill="none" stroke="black" points="190.88,-295.54 190.88,-310.46 175.07,-321 152.7,-321 136.88,-310.46 136.88,-295.54 152.7,-285 175.07,-285 190.88,-295.54"/>
<text text-anchor="middle" x="163.88" y="-299.3" font-family="Times,serif" font-size="14.00">en</text>
</g>
<!-- c20 -->
<g id="node11" class="node">
<title>c20</title>
<polygon fill="none" stroke="black" points="250.38,-161 250.38,-207 355.38,-207 355.38,-161 250.38,-161"/>
<text text-anchor="middle" x="263.88" y="-191.8" font-family="Times,serif" font-size="14.00">A</text>
<polyline fill="none" stroke="black" points="250.38,-184 277.38,-184 "/>
<text text-anchor="middle" x="263.88" y="-168.8" font-family="Times,serif" font-size="14.00">B</text>
<polyline fill="none" stroke="black" points="277.38,-161 277.38,-207 "/>
<text text-anchor="middle" x="303.38" y="-187.8" font-family="Times,serif" font-size="14.00">$22</text>
<text text-anchor="middle" x="303.38" y="-172.8" font-family="Times,serif" font-size="14.00">$and</text>
<polyline fill="none" stroke="black" points="329.38,-161 329.38,-207 "/>
<text text-anchor="middle" x="342.38" y="-180.3" font-family="Times,serif" font-size="14.00">Y</text>
</g>
<!-- n13&#45;&gt;c20 -->
<g id="edge51" class="edge">
<title>n13:e&#45;&gt;c20:w</title>
<path fill="none" stroke="black" d="M191.88,-303C242.27,-303 202.69,-210.52 240.42,-197.51"/>
<polygon fill="black" stroke="black" points="241.02,-200.96 250.38,-196 239.97,-194.04 241.02,-200.96"/>
</g>
<!-- c21 -->
<g id="node12" class="node">
<title>c21</title>
<polygon fill="none" stroke="black" points="1971.74,-483 1971.74,-529 2076.74,-529 2076.74,-483 1971.74,-483"/>
<text text-anchor="middle" x="1985.24" y="-513.8" font-family="Times,serif" font-size="14.00">A</text>
<polyline fill="none" stroke="black" points="1971.74,-506 1998.74,-506 "/>
<text text-anchor="middle" x="1985.24" y="-490.8" font-family="Times,serif" font-size="14.00">B</text>
<polyline fill="none" stroke="black" points="1998.74,-483 1998.74,-529 "/>
<text text-anchor="middle" x="2024.74" y="-509.8" font-family="Times,serif" font-size="14.00">$31</text>
<text text-anchor="middle" x="2024.74" y="-494.8" font-family="Times,serif" font-size="14.00">$and</text>
<polyline fill="none" stroke="black" points="2050.74,-483 2050.74,-529 "/>
<text text-anchor="middle" x="2063.74" y="-502.3" font-family="Times,serif" font-size="14.00">Y</text>
</g>
<!-- n13&#45;&gt;c21 -->
<g id="edge52" class="edge">
<title>n13:e&#45;&gt;c21:w</title>
<path fill="none" stroke="black" d="M191.88,-303C292.93,-303 316.34,-274 417.38,-274 417.38,-274 417.38,-274 530.88,-274 666.32,-274 700.05,-265 835.48,-265 835.48,-265 835.48,-265 948.48,-265 1013.74,-265 1388.21,-551.19 1450.98,-569 1596.26,-610.22 1640.68,-587.86 1790.74,-571 1856.42,-563.62 1874.01,-561.62 1935.74,-538 1948.96,-532.94 1952.32,-523.74 1961.63,-519.84"/>
<polygon fill="black" stroke="black" points="1962.53,-523.23 1971.74,-518 1961.28,-516.34 1962.53,-523.23"/>
</g>
<!-- c27 -->
<g id="node23" class="node">
<title>c27</title>
<polygon fill="none" stroke="black" points="254.38,-1058 254.38,-1104 351.38,-1104 351.38,-1058 254.38,-1058"/>
<text text-anchor="middle" x="267.88" y="-1088.8" font-family="Times,serif" font-size="14.00">A</text>
<polyline fill="none" stroke="black" points="254.38,-1081 281.38,-1081 "/>
<text text-anchor="middle" x="267.88" y="-1065.8" font-family="Times,serif" font-size="14.00">B</text>
<polyline fill="none" stroke="black" points="281.38,-1058 281.38,-1104 "/>
<text text-anchor="middle" x="303.38" y="-1084.8" font-family="Times,serif" font-size="14.00">$24</text>
<text text-anchor="middle" x="303.38" y="-1069.8" font-family="Times,serif" font-size="14.00">$or</text>
<polyline fill="none" stroke="black" points="325.38,-1058 325.38,-1104 "/>
<text text-anchor="middle" x="338.38" y="-1077.3" font-family="Times,serif" font-size="14.00">Y</text>
</g>
<!-- n13&#45;&gt;c27 -->
<g id="edge53" class="edge">
<title>n13:e&#45;&gt;c27:w</title>
<path fill="none" stroke="black" d="M191.88,-303C276.48,-303 173.53,-1032.49 243.47,-1089.48"/>
<polygon fill="black" stroke="black" points="242.29,-1092.77 252.88,-1093 244.75,-1086.22 242.29,-1092.77"/>
</g>
<!-- n13&#45;&gt;c31 -->
<g id="edge54" class="edge">
<title>n13:e&#45;&gt;c31:w</title>
<path fill="none" stroke="black" d="M191.88,-303C292.93,-303 316.34,-332 417.38,-332 417.38,-332 417.38,-332 530.88,-332 582.68,-332 596.85,-348.63 643.79,-350.77"/>
<polygon fill="black" stroke="black" points="643.91,-354.28 653.98,-351 644.06,-347.28 643.91,-354.28"/>
</g>
<!-- n13&#45;&gt;c34 -->
<g id="edge55" class="edge">
<title>n13:e&#45;&gt;c34:w</title>
<path fill="none" stroke="black" d="M191.88,-303C365.64,-303 266.27,-938.43 391.38,-1059 475.08,-1139.65 531.12,-1119.27 643.97,-1118.05"/>
<polygon fill="black" stroke="black" points="644,-1121.55 653.98,-1118 643.97,-1114.55 644,-1121.55"/>
</g>
<!-- x26 -->
<g id="node56" class="node">
<title>x26</title>
<path fill="none" stroke="black" d="M504.38,-171C504.38,-171 555.38,-171 555.38,-171 561.38,-171 567.38,-177 567.38,-183 567.38,-183 567.38,-195 567.38,-195 567.38,-201 561.38,-207 555.38,-207 555.38,-207 504.38,-207 504.38,-207 498.38,-207 492.38,-201 492.38,-195 492.38,-195 492.38,-183 492.38,-183 492.38,-177 498.38,-171 504.38,-171"/>
<text text-anchor="middle" x="529.88" y="-185.3" font-family="Times,serif" font-size="14.00">0:0 &#45; 0:0</text>
</g>
<!-- n13&#45;&gt;x26 -->
<g id="edge56" class="edge">
<title>n13:e&#45;&gt;x26:w</title>
<path fill="none" stroke="black" d="M191.88,-303C224.15,-303 221.19,-273.74 250.38,-260 331.23,-221.94 361.39,-241.5 445.38,-211 462.87,-204.65 467.19,-193.73 480.92,-190.16"/>
<polygon fill="black" stroke="black" points="481.36,-193.64 490.88,-189 480.55,-186.68 481.36,-193.64"/>
</g>
<!-- n14 -->
<g id="node8" class="node">
<title>n14</title>
<polygon fill="none" stroke="black" points="947.48,-450 920.48,-432 947.48,-414 974.48,-432 947.48,-450"/>
<text text-anchor="middle" x="947.48" y="-428.3" font-family="Times,serif" font-size="14.00">j</text>
</g>
<!-- x17 -->
<g id="node45" class="node">
<title>x17</title>
<path fill="none" stroke="black" d="M1032.98,-888C1032.98,-888 1083.98,-888 1083.98,-888 1089.98,-888 1095.98,-894 1095.98,-900 1095.98,-900 1095.98,-912 1095.98,-912 1095.98,-918 1089.98,-924 1083.98,-924 1083.98,-924 1032.98,-924 1032.98,-924 1026.98,-924 1020.98,-918 1020.98,-912 1020.98,-912 1020.98,-900 1020.98,-900 1020.98,-894 1026.98,-888 1032.98,-888"/>
<text text-anchor="middle" x="1058.48" y="-902.3" font-family="Times,serif" font-size="14.00">0:0 &#45; 0:0</text>
</g>
<!-- n14&#45;&gt;x17 -->
<g id="edge60" class="edge">
<title>n14:e&#45;&gt;x17:w</title>
<path fill="none" stroke="black" d="M975.48,-432C1077.68,-432 926.21,-874.15 1011.07,-904.38"/>
<polygon fill="black" stroke="black" points="1010.55,-907.84 1020.98,-906 1011.68,-900.93 1010.55,-907.84"/>
</g>
<!-- x20 -->
<g id="node49" class="node">
<title>x20</title>
<path fill="none" stroke="black" d="M1351.98,-938C1351.98,-938 1402.98,-938 1402.98,-938 1408.98,-938 1414.98,-944 1414.98,-950 1414.98,-950 1414.98,-962 1414.98,-962 1414.98,-968 1408.98,-974 1402.98,-974 1402.98,-974 1351.98,-974 1351.98,-974 1345.98,-974 1339.98,-968 1339.98,-962 1339.98,-962 1339.98,-950 1339.98,-950 1339.98,-944 1345.98,-938 1351.98,-938"/>
<text text-anchor="middle" x="1377.48" y="-952.3" font-family="Times,serif" font-size="14.00">1:1 &#45; 0:0</text>
</g>
<!-- n14&#45;&gt;x20 -->
<g id="edge61" class="edge">
<title>n14:e&#45;&gt;x20:w</title>
<path fill="none" stroke="black" d="M975.48,-432C1087.5,-432 942.47,-854.11 1020.98,-934 1037.58,-950.89 1236.19,-955.66 1329.9,-955.98"/>
<polygon fill="black" stroke="black" points="1329.98,-959.48 1339.98,-956 1329.99,-952.48 1329.98,-959.48"/>
</g>
<!-- x23 -->
<g id="node53" class="node">
<title>x23</title>
<path fill="none" stroke="black" d="M1192.48,-625C1192.48,-625 1243.48,-625 1243.48,-625 1249.48,-625 1255.48,-631 1255.48,-637 1255.48,-637 1255.48,-649 1255.48,-649 1255.48,-655 1249.48,-661 1243.48,-661 1243.48,-661 1192.48,-661 1192.48,-661 1186.48,-661 1180.48,-655 1180.48,-649 1180.48,-649 1180.48,-637 1180.48,-637 1180.48,-631 1186.48,-625 1192.48,-625"/>
<text text-anchor="middle" x="1217.98" y="-639.3" font-family="Times,serif" font-size="14.00">2:2 &#45; 0:0</text>
</g>
<!-- n14&#45;&gt;x23 -->
<g id="edge62" class="edge">
<title>n14:e&#45;&gt;x23:w</title>
<path fill="none" stroke="black" d="M975.48,-432C1102.21,-432 1051.68,-631.62 1168.71,-642.54"/>
<polygon fill="black" stroke="black" points="1168.84,-646.04 1178.98,-643 1169.15,-639.05 1168.84,-646.04"/>
</g>
<!-- n15 -->
<g id="node9" class="node">
<title>n15</title>
<polygon fill="none" stroke="black" points="2707.74,-921 2680.74,-903 2707.74,-885 2734.74,-903 2707.74,-921"/>
<text text-anchor="middle" x="2707.74" y="-899.3" font-family="Times,serif" font-size="14.00">k</text>
</g>
<!-- x18 -->
<g id="node46" class="node">
<title>x18</title>
<path fill="none" stroke="black" d="M2782.74,-999C2782.74,-999 2833.74,-999 2833.74,-999 2839.74,-999 2845.74,-1005 2845.74,-1011 2845.74,-1011 2845.74,-1023 2845.74,-1023 2845.74,-1029 2839.74,-1035 2833.74,-1035 2833.74,-1035 2782.74,-1035 2782.74,-1035 2776.74,-1035 2770.74,-1029 2770.74,-1023 2770.74,-1023 2770.74,-1011 2770.74,-1011 2770.74,-1005 2776.74,-999 2782.74,-999"/>
<text text-anchor="middle" x="2808.24" y="-1013.3" font-family="Times,serif" font-size="14.00">0:0 &#45; 0:0</text>
</g>
<!-- n15&#45;&gt;x18 -->
<g id="edge66" class="edge">
<title>n15:e&#45;&gt;x18:w</title>
<path fill="none" stroke="black" d="M2734.74,-903C2783.93,-903 2727.36,-1000.71 2760.85,-1015.21"/>
<polygon fill="black" stroke="black" points="2760.28,-1018.66 2770.74,-1017 2761.52,-1011.77 2760.28,-1018.66"/>
</g>
<!-- x21 -->
<g id="node50" class="node">
<title>x21</title>
<path fill="none" stroke="black" d="M2782.74,-901C2782.74,-901 2833.74,-901 2833.74,-901 2839.74,-901 2845.74,-907 2845.74,-913 2845.74,-913 2845.74,-925 2845.74,-925 2845.74,-931 2839.74,-937 2833.74,-937 2833.74,-937 2782.74,-937 2782.74,-937 2776.74,-937 2770.74,-931 2770.74,-925 2770.74,-925 2770.74,-913 2770.74,-913 2770.74,-907 2776.74,-901 2782.74,-901"/>
<text text-anchor="middle" x="2808.24" y="-915.3" font-family="Times,serif" font-size="14.00">1:1 &#45; 0:0</text>
</g>
<!-- n15&#45;&gt;x21 -->
<g id="edge67" class="edge">
<title>n15:e&#45;&gt;x21:w</title>
<path fill="none" stroke="black" d="M2734.74,-903C2748.15,-903 2751.86,-912.38 2760.73,-916.78"/>
<polygon fill="black" stroke="black" points="2760.22,-920.25 2770.74,-919 2761.74,-913.41 2760.22,-920.25"/>
</g>
<!-- x24 -->
<g id="node54" class="node">
<title>x24</title>
<path fill="none" stroke="black" d="M2782.74,-846C2782.74,-846 2833.74,-846 2833.74,-846 2839.74,-846 2845.74,-852 2845.74,-858 2845.74,-858 2845.74,-870 2845.74,-870 2845.74,-876 2839.74,-882 2833.74,-882 2833.74,-882 2782.74,-882 2782.74,-882 2776.74,-882 2770.74,-876 2770.74,-870 2770.74,-870 2770.74,-858 2770.74,-858 2770.74,-852 2776.74,-846 2782.74,-846"/>
<text text-anchor="middle" x="2808.24" y="-860.3" font-family="Times,serif" font-size="14.00">2:2 &#45; 0:0</text>
</g>
<!-- n15&#45;&gt;x24 -->
<g id="edge68" class="edge">
<title>n15:e&#45;&gt;x24:w</title>
<path fill="none" stroke="black" d="M2734.74,-903C2754.09,-903 2750.05,-876.76 2760.99,-867.33"/>
<polygon fill="black" stroke="black" points="2762.41,-870.54 2770.74,-864 2760.15,-863.91 2762.41,-870.54"/>
</g>
<!-- n16 -->
<g id="node10" class="node">
<title>n16</title>
<polygon fill="none" stroke="black" points="77.58,-272.54 77.58,-287.46 54.8,-298 22.59,-298 -0.19,-287.46 -0.19,-272.54 22.59,-262 54.8,-262 77.58,-272.54"/>
<text text-anchor="middle" x="38.69" y="-276.3" font-family="Times,serif" font-size="14.00">res_n</text>
</g>
<!-- n16&#45;&gt;c20 -->
<g id="edge69" class="edge">
<title>n16:e&#45;&gt;c20:w</title>
<path fill="none" stroke="black" d="M77.38,-280C164.49,-280 160.24,-180.27 240.2,-172.48"/>
<polygon fill="black" stroke="black" points="240.56,-175.97 250.38,-172 240.23,-168.98 240.56,-175.97"/>
</g>
<!-- c24 -->
<g id="node18" class="node">
<title>c24</title>
<polygon fill="none" stroke="black" points="113.38,-681 113.38,-719 214.38,-719 214.38,-681 113.38,-681"/>
<text text-anchor="middle" x="126.38" y="-696.3" font-family="Times,serif" font-size="14.00">A</text>
<polyline fill="none" stroke="black" points="139.38,-681 139.38,-719 "/>
<text text-anchor="middle" x="163.88" y="-703.8" font-family="Times,serif" font-size="14.00">$23</text>
<text text-anchor="middle" x="163.88" y="-688.8" font-family="Times,serif" font-size="14.00">$not</text>
<polyline fill="none" stroke="black" points="188.38,-681 188.38,-719 "/>
<text text-anchor="middle" x="201.38" y="-696.3" font-family="Times,serif" font-size="14.00">Y</text>
</g>
<!-- n16&#45;&gt;c24 -->
<g id="edge70" class="edge">
<title>n16:e&#45;&gt;c24:w</title>
<path fill="none" stroke="black" d="M77.38,-280C167.4,-280 31.16,-667.83 103.5,-698.13"/>
<polygon fill="black" stroke="black" points="102.91,-701.58 113.38,-700 104.21,-694.7 102.91,-701.58"/>
</g>
<!-- c20&#45;&gt;n7 -->
<g id="edge76" class="edge">
<title>c20:e&#45;&gt;n7:w</title>
<path fill="none" stroke="black" d="M355.38,-184C367.38,-184 372.63,-184 381.26,-184"/>
<polygon fill="black" stroke="black" points="381.38,-187.5 391.38,-184 381.38,-180.5 381.38,-187.5"/>
</g>
<!-- x0 -->
<g id="node13" class="node">
<title>x0</title>
<path fill="none" stroke="black" d="M2124.74,-488C2124.74,-488 2175.74,-488 2175.74,-488 2181.74,-488 2187.74,-494 2187.74,-500 2187.74,-500 2187.74,-512 2187.74,-512 2187.74,-518 2181.74,-524 2175.74,-524 2175.74,-524 2124.74,-524 2124.74,-524 2118.74,-524 2112.74,-518 2112.74,-512 2112.74,-512 2112.74,-500 2112.74,-500 2112.74,-494 2118.74,-488 2124.74,-488"/>
<text text-anchor="middle" x="2150.24" y="-502.3" font-family="Times,serif" font-size="14.00">0:0 &#45; 1:1</text>
</g>
<!-- c21&#45;&gt;x0 -->
<g id="edge1" class="edge">
<title>c21:e&#45;&gt;x0:w</title>
<path fill="none" stroke="black" d="M2088.96,-506C2093.03,-506 2096.48,-506 2100.56,-506"/>
<polygon fill="none" stroke="black" points="2088.74,-506 2082.74,-510 2076.74,-506 2082.74,-502 2088.74,-506"/>
<polygon fill="none" stroke="black" points="2100.74,-506 2106.74,-502 2112.74,-506 2106.74,-510 2100.74,-506"/>
</g>
<!-- x0&#45;&gt;n12 -->
<g id="edge43" class="edge">
<title>x0:e&#45;&gt;n12:w</title>
<path fill="none" stroke="black" d="M2187.74,-506C2202.91,-506 2204.58,-491.06 2214.06,-484.75"/>
<polygon fill="black" stroke="black" points="2215.08,-488.1 2223.74,-482 2213.17,-481.37 2215.08,-488.1"/>
</g>
<!-- c22 -->
<g id="node14" class="node">
<title>c22</title>
<polygon fill="none" stroke="black" points="2426.74,-423 2426.74,-469 2531.74,-469 2531.74,-423 2426.74,-423"/>
<text text-anchor="middle" x="2440.24" y="-453.8" font-family="Times,serif" font-size="14.00">A</text>
<polyline fill="none" stroke="black" points="2426.74,-446 2453.74,-446 "/>
<text text-anchor="middle" x="2440.24" y="-430.8" font-family="Times,serif" font-size="14.00">B</text>
<polyline fill="none" stroke="black" points="2453.74,-423 2453.74,-469 "/>
<text text-anchor="middle" x="2479.74" y="-449.8" font-family="Times,serif" font-size="14.00">$38</text>
<text text-anchor="middle" x="2479.74" y="-434.8" font-family="Times,serif" font-size="14.00">$and</text>
<polyline fill="none" stroke="black" points="2505.74,-423 2505.74,-469 "/>
<text text-anchor="middle" x="2518.74" y="-442.3" font-family="Times,serif" font-size="14.00">Y</text>
</g>
<!-- x2 -->
<g id="node16" class="node">
<title>x2</title>
<path fill="none" stroke="black" d="M2581.74,-457C2581.74,-457 2632.74,-457 2632.74,-457 2638.74,-457 2644.74,-463 2644.74,-469 2644.74,-469 2644.74,-481 2644.74,-481 2644.74,-487 2638.74,-493 2632.74,-493 2632.74,-493 2581.74,-493 2581.74,-493 2575.74,-493 2569.74,-487 2569.74,-481 2569.74,-481 2569.74,-469 2569.74,-469 2569.74,-463 2575.74,-457 2581.74,-457"/>
<text text-anchor="middle" x="2607.24" y="-471.3" font-family="Times,serif" font-size="14.00">0:0 &#45; 2:2</text>
</g>
<!-- c22&#45;&gt;x2 -->
<g id="edge3" class="edge">
<title>c22:e&#45;&gt;x2:w</title>
<path fill="none" stroke="black" d="M2544.51,-450.28C2550.26,-455.7 2552.59,-465 2558.26,-470.51"/>
<polygon fill="none" stroke="black" points="2544.46,-450.26 2537.43,-451.87 2533.24,-446 2540.27,-444.39 2544.46,-450.26"/>
<polygon fill="none" stroke="black" points="2558.56,-470.63 2565.61,-469.09 2569.74,-475 2562.7,-476.54 2558.56,-470.63"/>
</g>
<!-- x1&#45;&gt;c22 -->
<g id="edge2" class="edge">
<title>x1:e&#45;&gt;c22:w</title>
<path fill="none" stroke="black" d="M2400.87,-458C2405.2,-458 2408.8,-458 2413.13,-458"/>
<polygon fill="none" stroke="black" points="2400.74,-458 2394.74,-462 2388.74,-458 2394.74,-454 2400.74,-458"/>
<polygon fill="none" stroke="black" points="2413.24,-458 2419.24,-454 2425.24,-458 2419.24,-462 2413.24,-458"/>
</g>
<!-- x2&#45;&gt;n12 -->
<g id="edge45" class="edge">
<title>x2:e&#45;&gt;n12:w</title>
<path fill="none" stroke="black" d="M2646.24,-475C2654.48,-475 2651.17,-487.78 2645.24,-493.5 2527.65,-606.9 2441.09,-498.56 2277.74,-500 2253.74,-500.21 2241.18,-516.49 2223.74,-500 2221.38,-497.76 2219.45,-494.37 2218.52,-491.14"/>
<polygon fill="black" stroke="black" points="2221.73,-492.55 2222.74,-482 2215.37,-489.61 2221.73,-492.55"/>
</g>
<!-- n1 -->
<g id="node57" class="node">
<title>n1</title>
<ellipse fill="black" stroke="black" cx="616.18" cy="-582" rx="1.8" ry="1.8"/>
</g>
<!-- c23&#45;&gt;n1 -->
<g id="edge27" class="edge">
<title>c23:e&#45;&gt;n1:w</title>
<path fill="none" stroke="black" d="M578.38,-582C590.38,-582 595.63,-582 604.26,-582"/>
<polygon fill="black" stroke="black" points="604.38,-585.5 614.38,-582 604.38,-578.5 604.38,-585.5"/>
</g>
<!-- c24&#45;&gt;c27 -->
<g id="edge71" class="edge">
<title>c24:e&#45;&gt;c27:w</title>
<path fill="none" stroke="black" d="M214.38,-700C293.13,-700 181.37,-1036.59 243,-1066.83"/>
<polygon fill="black" stroke="black" points="242.37,-1070.28 252.88,-1069 243.87,-1063.44 242.37,-1070.28"/>
</g>
<!-- c25 -->
<g id="node19" class="node">
<title>c25</title>
<polygon fill="none" stroke="black" points="1683.26,-523 1683.26,-561 1784.26,-561 1784.26,-523 1683.26,-523"/>
<text text-anchor="middle" x="1696.26" y="-538.3" font-family="Times,serif" font-size="14.00">A</text>
<polyline fill="none" stroke="black" points="1709.26,-523 1709.26,-561 "/>
<text text-anchor="middle" x="1733.76" y="-545.8" font-family="Times,serif" font-size="14.00">$29</text>
<text text-anchor="middle" x="1733.76" y="-530.8" font-family="Times,serif" font-size="14.00">$not</text>
<polyline fill="none" stroke="black" points="1758.26,-523 1758.26,-561 "/>
<text text-anchor="middle" x="1771.26" y="-538.3" font-family="Times,serif" font-size="14.00">Y</text>
</g>
<!-- c25&#45;&gt;c29 -->
<g id="edge72" class="edge">
<title>c25:e&#45;&gt;c29:w</title>
<path fill="none" stroke="black" d="M1785.76,-542C1803.09,-542 1805.23,-525.5 1816.86,-519.31"/>
<polygon fill="black" stroke="black" points="1817.8,-522.68 1826.74,-517 1816.21,-515.87 1817.8,-522.68"/>
</g>
<!-- x3&#45;&gt;c25 -->
<g id="edge4" class="edge">
<title>x3:e&#45;&gt;c25:w</title>
<path fill="none" stroke="black" d="M1652.91,-542C1658.97,-542 1663.62,-542 1669.69,-542"/>
<polygon fill="none" stroke="black" points="1652.78,-542 1646.78,-546 1640.78,-542 1646.78,-538 1652.78,-542"/>
<polygon fill="none" stroke="black" points="1669.76,-542 1675.76,-538 1681.76,-542 1675.76,-546 1669.76,-542"/>
</g>
<!-- c26 -->
<g id="node21" class="node">
<title>c26</title>
<polygon fill="none" stroke="black" points="1683.26,-427 1683.26,-465 1784.26,-465 1784.26,-427 1683.26,-427"/>
<text text-anchor="middle" x="1696.26" y="-442.3" font-family="Times,serif" font-size="14.00">A</text>
<polyline fill="none" stroke="black" points="1709.26,-427 1709.26,-465 "/>
<text text-anchor="middle" x="1733.76" y="-449.8" font-family="Times,serif" font-size="14.00">$36</text>
<text text-anchor="middle" x="1733.76" y="-434.8" font-family="Times,serif" font-size="14.00">$not</text>
<polyline fill="none" stroke="black" points="1758.26,-427 1758.26,-465 "/>
<text text-anchor="middle" x="1771.26" y="-442.3" font-family="Times,serif" font-size="14.00">Y</text>
</g>
<!-- c26&#45;&gt;c30 -->
<g id="edge73" class="edge">
<title>c26:e&#45;&gt;c30:w</title>
<path fill="none" stroke="black" d="M1785.76,-446C1806.27,-446 1803.98,-420.14 1817.01,-411.66"/>
<polygon fill="black" stroke="black" points="1818.02,-415.01 1826.74,-409 1816.17,-408.26 1818.02,-415.01"/>
</g>
<!-- x4&#45;&gt;c26 -->
<g id="edge5" class="edge">
<title>x4:e&#45;&gt;c26:w</title>
<path fill="none" stroke="black" d="M1652.59,-434.19C1658.97,-436.77 1663.32,-441.05 1669.64,-443.69"/>
<polygon fill="none" stroke="black" points="1652.57,-434.18 1645.95,-437.03 1640.78,-432 1647.4,-429.16 1652.57,-434.18"/>
<polygon fill="none" stroke="black" points="1669.97,-443.75 1676.61,-440.95 1681.76,-446 1675.11,-448.8 1669.97,-443.75"/>
</g>
<!-- c27&#45;&gt;n8 -->
<g id="edge81" class="edge">
<title>c27:e&#45;&gt;n8:w</title>
<path fill="none" stroke="black" d="M352.88,-1081C376.47,-1081 367.72,-1045.47 381.71,-1034.92"/>
<polygon fill="black" stroke="black" points="382.82,-1038.24 391.38,-1032 380.8,-1031.54 382.82,-1038.24"/>
</g>
<!-- c29&#45;&gt;c21 -->
<g id="edge74" class="edge">
<title>c29:e&#45;&gt;c21:w</title>
<path fill="none" stroke="black" d="M1935.74,-494C1947.74,-494 1952.99,-494 1961.62,-494"/>
<polygon fill="black" stroke="black" points="1961.74,-497.5 1971.74,-494 1961.74,-490.5 1961.74,-497.5"/>
</g>
<!-- x5&#45;&gt;c29 -->
<g id="edge6" class="edge">
<title>x5:e&#45;&gt;c29:w</title>
<path fill="none" stroke="black" d="M1652.91,-487.05C1721.75,-487.66 1745.62,-493.33 1814.35,-493.95"/>
<polygon fill="none" stroke="black" points="1652.78,-487.05 1646.76,-491.03 1640.78,-487 1646.79,-483.03 1652.78,-487.05"/>
<polygon fill="none" stroke="black" points="1814.74,-493.95 1820.76,-489.97 1826.74,-494 1820.72,-497.97 1814.74,-493.95"/>
</g>
<!-- c30&#45;&gt;c22 -->
<g id="edge75" class="edge">
<title>c30:e&#45;&gt;c22:w</title>
<path fill="none" stroke="black" d="M1935.74,-386C2037.87,-386 2047.11,-301 2149.24,-301 2149.24,-301 2149.24,-301 2251.74,-301 2313.28,-301 2341.74,-281.28 2388.74,-321 2426.06,-352.54 2380.33,-422.53 2415.21,-432.75"/>
<polygon fill="black" stroke="black" points="2414.88,-436.23 2425.24,-434 2415.75,-429.29 2414.88,-436.23"/>
</g>
<!-- x6&#45;&gt;c30 -->
<g id="edge7" class="edge">
<title>x6:e&#45;&gt;c30:w</title>
<path fill="none" stroke="black" d="M1785.04,-389.6C1796.23,-388.84 1803.29,-387.16 1814.48,-386.4"/>
<polygon fill="none" stroke="black" points="1784.75,-389.61 1778.88,-393.8 1772.76,-390 1778.63,-385.81 1784.75,-389.61"/>
<polygon fill="none" stroke="black" points="1814.75,-386.39 1820.61,-382.2 1826.74,-386 1820.87,-390.19 1814.75,-386.39"/>
</g>
<!-- x7 -->
<g id="node29" class="node">
<title>x7</title>
<path fill="none" stroke="black" d="M810.98,-394C810.98,-394 861.98,-394 861.98,-394 867.98,-394 873.98,-400 873.98,-406 873.98,-406 873.98,-418 873.98,-418 873.98,-424 867.98,-430 861.98,-430 861.98,-430 810.98,-430 810.98,-430 804.98,-430 798.98,-424 798.98,-418 798.98,-418 798.98,-406 798.98,-406 798.98,-400 804.98,-394 810.98,-394"/>
<text text-anchor="middle" x="836.48" y="-408.3" font-family="Times,serif" font-size="14.00">0:0 &#45; 0:0</text>
</g>
<!-- c31&#45;&gt;x7 -->
<g id="edge8" class="edge">
<title>c31:e&#45;&gt;x7:w</title>
<path fill="none" stroke="black" d="M774.53,-331.61C790.8,-345.3 771.32,-393.97 787.13,-408.12"/>
<polygon fill="none" stroke="black" points="774.44,-331.58 767.52,-333.61 762.98,-328 769.9,-325.97 774.44,-331.58"/>
<polygon fill="none" stroke="black" points="787.58,-408.27 794.53,-406.33 798.98,-412 792.04,-413.93 787.58,-408.27"/>
</g>
<!-- x7&#45;&gt;n14 -->
<g id="edge58" class="edge">
<title>x7:e&#45;&gt;n14:w</title>
<path fill="none" stroke="black" d="M873.98,-412C892.1,-412 896.25,-425.46 909.35,-430.29"/>
<polygon fill="black" stroke="black" points="909.04,-433.79 919.48,-432 910.2,-426.89 909.04,-433.79"/>
</g>
<!-- x9 -->
<g id="node32" class="node">
<title>x9</title>
<path fill="none" stroke="black" d="M2581.74,-88C2581.74,-88 2632.74,-88 2632.74,-88 2638.74,-88 2644.74,-94 2644.74,-100 2644.74,-100 2644.74,-112 2644.74,-112 2644.74,-118 2638.74,-124 2632.74,-124 2632.74,-124 2581.74,-124 2581.74,-124 2575.74,-124 2569.74,-118 2569.74,-112 2569.74,-112 2569.74,-100 2569.74,-100 2569.74,-94 2575.74,-88 2581.74,-88"/>
<text text-anchor="middle" x="2607.24" y="-102.3" font-family="Times,serif" font-size="14.00">0:0 &#45; 1:1</text>
</g>
<!-- c32&#45;&gt;x9 -->
<g id="edge10" class="edge">
<title>c32:e&#45;&gt;x9:w</title>
<path fill="none" stroke="black" d="M2545.13,-78.72C2550.89,-84.84 2552.69,-95.44 2558.53,-101.47"/>
<polygon fill="none" stroke="black" points="2544.83,-78.6 2537.75,-79.99 2533.74,-74 2540.82,-72.6 2544.83,-78.6"/>
<polygon fill="none" stroke="black" points="2558.62,-101.5 2565.68,-100.04 2569.74,-106 2562.68,-107.46 2558.62,-101.5"/>
</g>
<!-- x8&#45;&gt;c32 -->
<g id="edge9" class="edge">
<title>x8:e&#45;&gt;c32:w</title>
<path fill="none" stroke="black" d="M2400.07,-343.21C2430.41,-311.63 2383.11,-133.58 2413.36,-101.84"/>
<polygon fill="none" stroke="black" points="2399.79,-343.33 2395.83,-349.35 2388.74,-348 2392.71,-341.98 2399.79,-343.33"/>
<polygon fill="none" stroke="black" points="2413.7,-101.7 2417.65,-95.67 2424.74,-97 2420.79,-103.03 2413.7,-101.7"/>
</g>
<!-- x9&#45;&gt;n14 -->
<g id="edge59" class="edge">
<title>x9:e&#45;&gt;n14:w</title>
<path fill="none" stroke="black" d="M2646.24,-106C2654.48,-106 2651.1,-118.71 2645.24,-124.5 2598.9,-170.32 2417.41,-137 2352.24,-137 2023.24,-137 2023.24,-137 2023.24,-137 1834,-137 1793.52,-213 1604.28,-213 1489.38,-213 1489.38,-213 1489.38,-213 1261.24,-213 1224,-318.91 1020.98,-423 999.72,-433.9 997.56,-443.79 974.48,-450 951.31,-456.24 937.92,-466.49 920.48,-450 918.12,-447.76 916.19,-444.37 915.27,-441.14"/>
<polygon fill="black" stroke="black" points="918.47,-442.55 919.48,-432 912.12,-439.61 918.47,-442.55"/>
</g>
<!-- x11 -->
<g id="node35" class="node">
<title>x11</title>
<path fill="none" stroke="black" d="M2581.74,-213C2581.74,-213 2632.74,-213 2632.74,-213 2638.74,-213 2644.74,-219 2644.74,-225 2644.74,-225 2644.74,-237 2644.74,-237 2644.74,-243 2638.74,-249 2632.74,-249 2632.74,-249 2581.74,-249 2581.74,-249 2575.74,-249 2569.74,-243 2569.74,-237 2569.74,-237 2569.74,-225 2569.74,-225 2569.74,-219 2575.74,-213 2581.74,-213"/>
<text text-anchor="middle" x="2607.24" y="-227.3" font-family="Times,serif" font-size="14.00">0:0 &#45; 2:2</text>
</g>
<!-- c33&#45;&gt;x11 -->
<g id="edge12" class="edge">
<title>c33:e&#45;&gt;x11:w</title>
<path fill="none" stroke="black" d="M2545.05,-204.57C2550.69,-210.37 2552.67,-220.31 2558.22,-226.2"/>
<polygon fill="none" stroke="black" points="2544.87,-204.5 2537.8,-205.96 2533.74,-200 2540.8,-198.54 2544.87,-204.5"/>
<polygon fill="none" stroke="black" points="2558.66,-226.39 2565.74,-225 2569.74,-231 2562.66,-232.39 2558.66,-226.39"/>
</g>
<!-- x10&#45;&gt;c33 -->
<g id="edge11" class="edge">
<title>x10:e&#45;&gt;c33:w</title>
<path fill="none" stroke="black" d="M2400.67,-401.33C2453.2,-384.29 2360.35,-241.88 2412.73,-224.69"/>
<polygon fill="none" stroke="black" points="2400.63,-401.34 2395.24,-406.13 2388.74,-403 2394.13,-398.21 2400.63,-401.34"/>
<polygon fill="none" stroke="black" points="2412.86,-224.68 2418.24,-219.88 2424.74,-223 2419.36,-227.8 2412.86,-224.68"/>
</g>
<!-- x11&#45;&gt;n14 -->
<g id="edge57" class="edge">
<title>x11:e&#45;&gt;n14:w</title>
<path fill="none" stroke="black" d="M2646.24,-231C2654.48,-231 2651.09,-243.7 2645.24,-249.5 2552.7,-341.31 2482.6,-263 2352.24,-263 2149.24,-263 2149.24,-263 2149.24,-263 1938.31,-263 1885.43,-277.06 1676.78,-308 1637.4,-313.84 1014.09,-446.04 974.48,-450 950.6,-452.39 937.92,-466.49 920.48,-450 918.12,-447.76 916.19,-444.37 915.27,-441.14"/>
<polygon fill="black" stroke="black" points="918.47,-442.55 919.48,-432 912.12,-439.61 918.47,-442.55"/>
</g>
<!-- x12 -->
<g id="node37" class="node">
<title>x12</title>
<path fill="none" stroke="black" d="M921.98,-1067C921.98,-1067 972.98,-1067 972.98,-1067 978.98,-1067 984.98,-1073 984.98,-1079 984.98,-1079 984.98,-1091 984.98,-1091 984.98,-1097 978.98,-1103 972.98,-1103 972.98,-1103 921.98,-1103 921.98,-1103 915.98,-1103 909.98,-1097 909.98,-1091 909.98,-1091 909.98,-1079 909.98,-1079 909.98,-1073 915.98,-1067 921.98,-1067"/>
<text text-anchor="middle" x="947.48" y="-1081.3" font-family="Times,serif" font-size="14.00">0:0 &#45; 0:0</text>
</g>
<!-- c34&#45;&gt;x12 -->
<g id="edge13" class="edge">
<title>c34:e&#45;&gt;x12:w</title>
<path fill="none" stroke="black" d="M775.06,-1094.88C826.83,-1093.83 846.01,-1086.19 897.68,-1085.12"/>
<polygon fill="none" stroke="black" points="774.98,-1094.88 769.02,-1098.94 762.98,-1095 768.94,-1090.94 774.98,-1094.88"/>
<polygon fill="none" stroke="black" points="897.98,-1085.12 903.94,-1081.06 909.98,-1085 904.02,-1089.06 897.98,-1085.12"/>
</g>
<!-- x12&#45;&gt;n15 -->
<g id="edge63" class="edge">
<title>x12:e&#45;&gt;n15:w</title>
<path fill="none" stroke="black" d="M984.98,-1085C1088.13,-1085 1113.84,-1079 1216.98,-1079 1216.98,-1079 1216.98,-1079 2251.74,-1079 2379.11,-1079 2418.75,-1082.76 2533.74,-1028 2542.21,-1023.97 2640.2,-931.29 2671.74,-908.18"/>
<polygon fill="black" stroke="black" points="2673.82,-911.02 2680.74,-903 2670.33,-904.96 2673.82,-911.02"/>
</g>
<!-- x14 -->
<g id="node40" class="node">
<title>x14</title>
<path fill="none" stroke="black" d="M2581.74,-768C2581.74,-768 2632.74,-768 2632.74,-768 2638.74,-768 2644.74,-774 2644.74,-780 2644.74,-780 2644.74,-792 2644.74,-792 2644.74,-798 2638.74,-804 2632.74,-804 2632.74,-804 2581.74,-804 2581.74,-804 2575.74,-804 2569.74,-798 2569.74,-792 2569.74,-792 2569.74,-780 2569.74,-780 2569.74,-774 2575.74,-768 2581.74,-768"/>
<text text-anchor="middle" x="2607.24" y="-782.3" font-family="Times,serif" font-size="14.00">0:0 &#45; 1:1</text>
</g>
<!-- c35&#45;&gt;x14 -->
<g id="edge15" class="edge">
<title>c35:e&#45;&gt;x14:w</title>
<path fill="none" stroke="black" d="M2545.73,-782.89C2549.99,-783.55 2553.51,-784.45 2557.77,-785.11"/>
<polygon fill="none" stroke="black" points="2545.71,-782.89 2539.43,-786.43 2533.74,-782 2540.02,-778.45 2545.71,-782.89"/>
<polygon fill="none" stroke="black" points="2557.77,-785.11 2564.05,-781.57 2569.74,-786 2563.46,-789.55 2557.77,-785.11"/>
</g>
<!-- x13&#45;&gt;c35 -->
<g id="edge14" class="edge">
<title>x13:e&#45;&gt;c35:w</title>
<path fill="none" stroke="black" d="M2400.15,-556.83C2430.69,-588.66 2382.83,-768.13 2413.28,-800.12"/>
<polygon fill="none" stroke="black" points="2399.79,-556.68 2392.71,-558.02 2388.74,-552 2395.83,-550.65 2399.79,-556.68"/>
<polygon fill="none" stroke="black" points="2413.7,-800.3 2420.79,-798.97 2424.74,-805 2417.65,-806.33 2413.7,-800.3"/>
</g>
<!-- x14&#45;&gt;n15 -->
<g id="edge64" class="edge">
<title>x14:e&#45;&gt;n15:w</title>
<path fill="none" stroke="black" d="M2644.74,-786C2695.11,-786 2636.44,-886.28 2670.63,-901.16"/>
<polygon fill="black" stroke="black" points="2670.28,-904.66 2680.74,-903 2671.53,-897.77 2670.28,-904.66"/>
</g>
<!-- x16 -->
<g id="node43" class="node">
<title>x16</title>
<path fill="none" stroke="black" d="M2581.74,-883C2581.74,-883 2632.74,-883 2632.74,-883 2638.74,-883 2644.74,-889 2644.74,-895 2644.74,-895 2644.74,-907 2644.74,-907 2644.74,-913 2638.74,-919 2632.74,-919 2632.74,-919 2581.74,-919 2581.74,-919 2575.74,-919 2569.74,-913 2569.74,-907 2569.74,-907 2569.74,-895 2569.74,-895 2569.74,-889 2575.74,-883 2581.74,-883"/>
<text text-anchor="middle" x="2607.24" y="-897.3" font-family="Times,serif" font-size="14.00">0:0 &#45; 2:2</text>
</g>
<!-- c36&#45;&gt;x16 -->
<g id="edge17" class="edge">
<title>c36:e&#45;&gt;x16:w</title>
<path fill="none" stroke="black" d="M2545.68,-980C2560.98,-965.88 2542.38,-918.52 2558.06,-904.77"/>
<polygon fill="none" stroke="black" points="2545.12,-980.19 2540.7,-985.88 2533.74,-984 2538.16,-978.3 2545.12,-980.19"/>
<polygon fill="none" stroke="black" points="2558.32,-904.69 2562.8,-899.04 2569.74,-901 2565.26,-906.65 2558.32,-904.69"/>
</g>
<!-- x15&#45;&gt;c36 -->
<g id="edge16" class="edge">
<title>x15:e&#45;&gt;c36:w</title>
<path fill="none" stroke="black" d="M2400.25,-687.63C2444.94,-720.76 2368.52,-970.39 2413.27,-1003.4"/>
<polygon fill="none" stroke="black" points="2400.19,-687.61 2393.26,-689.62 2388.74,-684 2395.67,-681.99 2400.19,-687.61"/>
<polygon fill="none" stroke="black" points="2413.29,-1003.41 2420.21,-1001.39 2424.74,-1007 2417.82,-1009.02 2413.29,-1003.41"/>
</g>
<!-- x16&#45;&gt;n15 -->
<g id="edge65" class="edge">
<title>x16:e&#45;&gt;n15:w</title>
<path fill="none" stroke="black" d="M2644.74,-901C2656.76,-901 2661.99,-902.12 2670.61,-902.69"/>
<polygon fill="black" stroke="black" points="2670.64,-906.19 2680.74,-903 2670.85,-899.19 2670.64,-906.19"/>
</g>
<!-- x19 -->
<g id="node47" class="node">
<title>x19</title>
<path fill="none" stroke="black" d="M1351.98,-563C1351.98,-563 1402.98,-563 1402.98,-563 1408.98,-563 1414.98,-569 1414.98,-575 1414.98,-575 1414.98,-587 1414.98,-587 1414.98,-593 1408.98,-599 1402.98,-599 1402.98,-599 1351.98,-599 1351.98,-599 1345.98,-599 1339.98,-593 1339.98,-587 1339.98,-587 1339.98,-575 1339.98,-575 1339.98,-569 1345.98,-563 1351.98,-563"/>
<text text-anchor="middle" x="1377.48" y="-577.3" font-family="Times,serif" font-size="14.00">0:0 &#45; 0:0</text>
</g>
<!-- c38&#45;&gt;x19 -->
<g id="edge20" class="edge">
<title>c38:e&#45;&gt;x19:w</title>
<path fill="none" stroke="black" d="M1315.72,-898.17C1359.44,-864.43 1284.47,-618.27 1328.32,-584.77"/>
<polygon fill="none" stroke="black" points="1315.39,-898.28 1310.93,-903.94 1303.98,-902 1308.45,-896.34 1315.39,-898.28"/>
<polygon fill="none" stroke="black" points="1328.57,-584.69 1333.04,-579.04 1339.98,-581 1335.51,-586.65 1328.57,-584.69"/>
</g>
<!-- x17&#45;&gt;c38 -->
<g id="edge18" class="edge">
<title>x17:e&#45;&gt;c38:w</title>
<path fill="none" stroke="black" d="M1107.47,-909.48C1112.27,-912.83 1115.44,-917.86 1120.16,-921.28"/>
<polygon fill="none" stroke="black" points="1107.47,-909.48 1100.56,-911.57 1095.98,-906 1102.89,-903.91 1107.47,-909.48"/>
<polygon fill="none" stroke="black" points="1120.54,-921.4 1127.46,-919.38 1131.98,-925 1125.06,-927.01 1120.54,-921.4"/>
</g>
<!-- x18&#45;&gt;c38 -->
<g id="edge19" class="edge">
<title>x18:e&#45;&gt;c38:w</title>
<path fill="none" stroke="black" d="M2850.78,-1028.7C2849.71,-1031.26 2848.11,-1033.73 2846.24,-1035.5 2834.06,-1047.04 2787.26,-1038.43 2770.74,-1035.5 2677.08,-1018.91 2655.41,-1003.34 2569.74,-962 2552.85,-953.85 2551.5,-946.01 2533.74,-940 2456.92,-913.99 2433.35,-921 2352.24,-921 1732.76,-921 1732.76,-921 1732.76,-921 1558.16,-921 1513.34,-908.18 1339.98,-929 1323.71,-930.95 1320.28,-935.21 1303.98,-937 1284.99,-939.09 1145.69,-950.32 1131.98,-937 1124.83,-930.05 1120.05,-917.64 1121.62,-909.62"/>
<polygon fill="none" stroke="black" points="2850.72,-1028.49 2845.15,-1023.9 2847.24,-1017 2852.81,-1021.58 2850.72,-1028.49"/>
<polygon fill="none" stroke="black" points="1121.68,-909.58 1123.81,-902.69 1130.98,-902 1128.86,-908.89 1121.68,-909.58"/>
</g>
<!-- x19&#45;&gt;n10 -->
<g id="edge34" class="edge">
<title>x19:e&#45;&gt;n10:w</title>
<path fill="none" stroke="black" d="M1414.98,-581C1434.33,-581 1430.29,-554.76 1441.23,-545.33"/>
<polygon fill="black" stroke="black" points="1442.65,-548.54 1450.98,-542 1440.39,-541.91 1442.65,-548.54"/>
</g>
<!-- x22 -->
<g id="node51" class="node">
<title>x22</title>
<path fill="none" stroke="black" d="M3101.74,-916C3101.74,-916 3152.74,-916 3152.74,-916 3158.74,-916 3164.74,-922 3164.74,-928 3164.74,-928 3164.74,-940 3164.74,-940 3164.74,-946 3158.74,-952 3152.74,-952 3152.74,-952 3101.74,-952 3101.74,-952 3095.74,-952 3089.74,-946 3089.74,-940 3089.74,-940 3089.74,-928 3089.74,-928 3089.74,-922 3095.74,-916 3101.74,-916"/>
<text text-anchor="middle" x="3127.24" y="-930.3" font-family="Times,serif" font-size="14.00">0:0 &#45; 1:1</text>
</g>
<!-- c39&#45;&gt;x22 -->
<g id="edge23" class="edge">
<title>c39:e&#45;&gt;x22:w</title>
<path fill="none" stroke="black" d="M3065.05,-907.57C3070.69,-913.37 3072.67,-923.31 3078.22,-929.2"/>
<polygon fill="none" stroke="black" points="3064.87,-907.5 3057.8,-908.96 3053.74,-903 3060.8,-901.54 3064.87,-907.5"/>
<polygon fill="none" stroke="black" points="3078.66,-929.39 3085.74,-928 3089.74,-934 3082.66,-935.39 3078.66,-929.39"/>
</g>
<!-- x20&#45;&gt;c39 -->
<g id="edge21" class="edge">
<title>x20:e&#45;&gt;c39:w</title>
<path fill="none" stroke="black" d="M1427.21,-956.07C1500.58,-956.89 1523.17,-965 1602.28,-965 1602.28,-965 1602.28,-965 2251.74,-965 2333.57,-965 2347.24,-1001.73 2424.74,-1028 2504.82,-1055.14 2521.69,-1085 2606.24,-1085 2606.24,-1085 2606.24,-1085 2708.74,-1085 2772.17,-1085 2800.67,-1089.63 2845.74,-1045 2881.47,-1009.61 2836.21,-940.06 2869.45,-927.85"/>
<polygon fill="none" stroke="black" points="1426.98,-956.07 1420.96,-960.03 1414.98,-956 1421.01,-952.03 1426.98,-956.07"/>
<polygon fill="none" stroke="black" points="2869.88,-927.79 2875.21,-922.94 2881.74,-926 2876.4,-930.85 2869.88,-927.79"/>
</g>
<!-- x21&#45;&gt;c39 -->
<g id="edge22" class="edge">
<title>x21:e&#45;&gt;c39:w</title>
<path fill="none" stroke="black" d="M2857.58,-915.76C2862.1,-912.99 2865.38,-909.01 2869.91,-906.23"/>
<polygon fill="none" stroke="black" points="2857.32,-915.83 2852.58,-921.28 2845.74,-919 2850.47,-913.56 2857.32,-915.83"/>
<polygon fill="none" stroke="black" points="2870.17,-906.16 2874.9,-900.72 2881.74,-903 2877.01,-908.44 2870.17,-906.16"/>
</g>
<!-- x22&#45;&gt;n10 -->
<g id="edge35" class="edge">
<title>x22:e&#45;&gt;n10:w</title>
<path fill="none" stroke="black" d="M3166.24,-934C3174.48,-934 3171.22,-946.84 3165.24,-952.5 3140.88,-975.58 3123.3,-952.79 3089.74,-952.5 2858.4,-950.51 2795.62,-979.02 2569.74,-929 2553.13,-925.32 2550.17,-920.43 2533.74,-916 2454.58,-894.67 2434.23,-883 2352.24,-883 1732.76,-883 1732.76,-883 1732.76,-883 1688.18,-883 1452.08,-602.94 1444.82,-550.43"/>
<polygon fill="black" stroke="black" points="1447.8,-552.28 1450.38,-542 1441.95,-548.42 1447.8,-552.28"/>
</g>
<!-- x25 -->
<g id="node55" class="node">
<title>x25</title>
<path fill="none" stroke="black" d="M3101.74,-613C3101.74,-613 3152.74,-613 3152.74,-613 3158.74,-613 3164.74,-619 3164.74,-625 3164.74,-625 3164.74,-637 3164.74,-637 3164.74,-643 3158.74,-649 3152.74,-649 3152.74,-649 3101.74,-649 3101.74,-649 3095.74,-649 3089.74,-643 3089.74,-637 3089.74,-637 3089.74,-625 3089.74,-625 3089.74,-619 3095.74,-613 3101.74,-613"/>
<text text-anchor="middle" x="3127.24" y="-627.3" font-family="Times,serif" font-size="14.00">0:0 &#45; 2:2</text>
</g>
<!-- c40&#45;&gt;x25 -->
<g id="edge26" class="edge">
<title>c40:e&#45;&gt;x25:w</title>
<path fill="none" stroke="black" d="M3065.28,-686.29C3075.04,-675.02 3068.42,-646.6 3078.37,-635.52"/>
<polygon fill="none" stroke="black" points="3064.85,-686.47 3060.81,-692.44 3053.74,-691 3057.79,-685.03 3064.85,-686.47"/>
<polygon fill="none" stroke="black" points="3078.59,-635.43 3082.69,-629.5 3089.74,-631 3085.64,-636.93 3078.59,-635.43"/>
</g>
<!-- x23&#45;&gt;c40 -->
<g id="edge24" class="edge">
<title>x23:e&#45;&gt;c40:w</title>
<path fill="none" stroke="black" d="M1269.08,-643.11C1362.89,-644.8 1389.74,-666 1489.38,-666 1489.38,-666 1489.38,-666 1734.76,-666 2025.44,-666 2098.54,-640.28 2388.74,-657 2604.86,-669.45 2659.17,-712.37 2869.63,-713.95"/>
<polygon fill="none" stroke="black" points="1268.98,-643.11 1262.95,-647.05 1256.98,-643 1263.02,-639.05 1268.98,-643.11"/>
<polygon fill="none" stroke="black" points="2869.74,-713.96 2875.76,-709.98 2881.74,-714 2875.73,-717.98 2869.74,-713.96"/>
</g>
<!-- x24&#45;&gt;c40 -->
<g id="edge25" class="edge">
<title>x24:e&#45;&gt;c40:w</title>
<path fill="none" stroke="black" d="M2857.9,-862.17C2906.97,-844.88 2820.52,-710.12 2869.58,-692.83"/>
<polygon fill="none" stroke="black" points="2857.61,-862.22 2852.27,-867.06 2845.74,-864 2851.08,-859.15 2857.61,-862.22"/>
<polygon fill="none" stroke="black" points="2869.87,-692.78 2875.21,-687.94 2881.74,-691 2876.4,-695.85 2869.87,-692.78"/>
</g>
<!-- x25&#45;&gt;n10 -->
<g id="edge36" class="edge">
<title>x25:e&#45;&gt;n10:w</title>
<path fill="none" stroke="black" d="M3166.24,-631C3174.48,-631 3171.22,-643.84 3165.24,-649.5 3140.88,-672.58 3123.16,-652.48 3089.74,-649.5 2963.57,-638.23 2935.91,-599 2809.24,-599 2350.24,-599 2350.24,-599 2350.24,-599 2001.35,-599 1913.99,-591.64 1565.78,-570 1514.84,-566.83 1486.89,-596.66 1451.38,-560 1449.2,-557.75 1447.35,-554.51 1446.38,-551.4"/>
<polygon fill="black" stroke="black" points="1449.69,-552.57 1450.38,-542 1443.24,-549.83 1449.69,-552.57"/>
</g>
<!-- x26&#45;&gt;n12 -->
<g id="edge44" class="edge">
<title>x26:e&#45;&gt;n12:w</title>
<path fill="none" stroke="black" d="M568.88,-189C630.48,-189 645.88,-189 707.48,-189 707.48,-189 707.48,-189 1059.48,-189 1252.53,-189 1296.34,-251 1489.38,-251 1489.38,-251 1489.38,-251 1604.28,-251 1757.04,-251 1792.78,-288.15 1935.74,-342 1999.34,-365.96 2139.25,-471.86 2213.69,-481.32"/>
<polygon fill="black" stroke="black" points="2213.53,-484.82 2223.74,-482 2214,-477.84 2213.53,-484.82"/>
</g>
<!-- n1&#45;&gt;c31 -->
<g id="edge28" class="edge">
<title>n1:e&#45;&gt;c31:w</title>
<path fill="none" stroke="black" d="M617.98,-582C676.3,-582 602.03,-337.53 644.29,-307.92"/>
<polygon fill="black" stroke="black" points="645.42,-311.24 653.98,-305 643.4,-304.54 645.42,-311.24"/>
</g>
<!-- n1&#45;&gt;c32 -->
<g id="edge29" class="edge">
<title>n1:e&#45;&gt;c32:w</title>
<path fill="none" stroke="black" d="M617.98,-582C693.48,-582 605.33,-473.72 653.98,-416 687.65,-376.05 720.55,-402.48 762.98,-372 782.95,-357.66 780.76,-346.5 798.98,-330 888.19,-249.23 907.75,-215.72 1020.98,-175 1217.52,-104.32 1280.52,-137 1489.38,-137 1489.38,-137 1489.38,-137 1604.28,-137 1793.52,-137 1834,-61 2023.24,-61 2023.24,-61 2023.24,-61 2151.24,-61 2269.43,-61 2301.32,-51.56 2414.62,-51.02"/>
<polygon fill="black" stroke="black" points="2414.75,-54.52 2424.74,-51 2414.73,-47.52 2414.75,-54.52"/>
</g>
<!-- n1&#45;&gt;c33 -->
<g id="edge30" class="edge">
<title>n1:e&#45;&gt;c33:w</title>
<path fill="none" stroke="black" d="M617.98,-582C736.88,-582 701.81,-453.51 798.98,-385 1061.11,-200.19 1168.66,-175 1489.38,-175 1489.38,-175 1489.38,-175 2251.74,-175 2325.18,-175 2346,-176.82 2414.72,-176.99"/>
<polygon fill="black" stroke="black" points="2414.74,-180.49 2424.74,-177 2414.75,-173.49 2414.74,-180.49"/>
</g>
<!-- n1&#45;&gt;c34 -->
<g id="edge31" class="edge">
<title>n1:e&#45;&gt;c34:w</title>
<path fill="none" stroke="black" d="M617.98,-582C669.27,-582 607.79,-1014.46 645.42,-1066.83"/>
<polygon fill="black" stroke="black" points="643.61,-1069.83 653.98,-1072 647.23,-1063.84 643.61,-1069.83"/>
</g>
<!-- n1&#45;&gt;c35 -->
<g id="edge32" class="edge">
<title>n1:e&#45;&gt;c35:w</title>
<path fill="none" stroke="black" d="M617.98,-582C829.23,-582 846.23,-763 1057.48,-763 1057.48,-763 1057.48,-763 1734.76,-763 1976.09,-763 2036.42,-761.49 2277.74,-760 2339.5,-759.62 2357.47,-759.06 2414.45,-759.01"/>
<polygon fill="black" stroke="black" points="2414.74,-762.51 2424.74,-759 2414.74,-755.51 2414.74,-762.51"/>
</g>
<!-- n1&#45;&gt;c36 -->
<g id="edge33" class="edge">
<title>n1:e&#45;&gt;c36:w</title>
<path fill="none" stroke="black" d="M617.98,-582C618.46,-582 1020.57,-953.77 1020.98,-954 1099.99,-996.67 1127.19,-1003 1216.98,-1003 1216.98,-1003 1216.98,-1003 2251.74,-1003 2327.31,-1003 2344.16,-964.69 2414.46,-961.25"/>
<polygon fill="black" stroke="black" points="2414.83,-964.74 2424.74,-961 2414.66,-957.74 2414.83,-964.74"/>
</g>
</g>
</svg>
