<?xml version="1.0" encoding="UTF-8" standalone="no"?>
<!DOCTYPE svg PUBLIC "-//W3C//DTD SVG 1.1//EN"
 "http://www.w3.org/Graphics/SVG/1.1/DTD/svg11.dtd">
<!-- Generated by graphviz version 2.43.20190912.0211 (20190912.0211)
 -->
<!-- Title: counter Pages: 1 -->
<svg width="1202pt" height="490pt"
 viewBox="0.00 0.00 1201.73 490.00" xmlns="http://www.w3.org/2000/svg" xmlns:xlink="http://www.w3.org/1999/xlink">
<g id="graph0" class="graph" transform="scale(1 1) rotate(0) translate(4 486)">
<title>counter</title>
<polygon fill="white" stroke="transparent" points="-4,4 -4,-486 1197.73,-486 1197.73,4 -4,4"/>
<text text-anchor="middle" x="596.86" y="-7.8" font-family="Times,serif" font-size="14.00">counter</text>
<!-- n6 -->
<g id="node1" class="node">
<title>n6</title>
<polygon fill="none" stroke="black" points="402.06,-364.54 402.06,-379.46 386.24,-390 363.88,-390 348.06,-379.46 348.06,-364.54 363.88,-354 386.24,-354 402.06,-364.54"/>
<text text-anchor="middle" x="375.06" y="-368.3" font-family="Times,serif" font-size="14.00">clk</text>
</g>
<!-- c22 -->
<g id="node10" class="node">
<title>c22</title>
<polygon fill="none" stroke="black" points="492.56,-282 492.56,-374 636.56,-374 636.56,-282 492.56,-282"/>
<text text-anchor="middle" x="520.56" y="-358.8" font-family="Times,serif" font-size="14.00">CLK</text>
<polyline fill="none" stroke="black" points="492.56,-351 548.56,-351 "/>
<text text-anchor="middle" x="520.56" y="-335.8" font-family="Times,serif" font-size="14.00">D</text>
<polyline fill="none" stroke="black" points="492.56,-328 548.56,-328 "/>
<text text-anchor="middle" x="520.56" y="-312.8" font-family="Times,serif" font-size="14.00">EN</text>
<polyline fill="none" stroke="black" points="492.56,-305 548.56,-305 "/>
<text text-anchor="middle" x="520.56" y="-289.8" font-family="Times,serif" font-size="14.00">SRST</text>
<polyline fill="none" stroke="black" points="548.56,-282 548.56,-374 "/>
<text text-anchor="middle" x="578.56" y="-331.8" font-family="Times,serif" font-size="14.00">$15</text>
<text text-anchor="middle" x="578.56" y="-316.8" font-family="Times,serif" font-size="14.00">$sdffe</text>
<polyline fill="none" stroke="black" points="608.56,-282 608.56,-374 "/>
<text text-anchor="middle" x="622.56" y="-324.3" font-family="Times,serif" font-size="14.00">Q</text>
</g>
<!-- n6&#45;&gt;c22 -->
<g id="edge14" class="edge">
<title>n6:e&#45;&gt;c22:w</title>
<path fill="none" stroke="black" d="M403.06,-372C439.45,-372 450.62,-364.54 482.48,-363.2"/>
<polygon fill="black" stroke="black" points="482.63,-366.7 492.56,-363 482.49,-359.7 482.63,-366.7"/>
</g>
<!-- n7 -->
<g id="node2" class="node">
<title>n7</title>
<polygon fill="none" stroke="black" points="751.25,-295.54 751.25,-310.46 728.23,-321 695.68,-321 672.66,-310.46 672.66,-295.54 695.68,-285 728.23,-285 751.25,-295.54"/>
<text text-anchor="middle" x="711.95" y="-299.3" font-family="Times,serif" font-size="14.00">count</text>
</g>
<!-- c16 -->
<g id="node8" class="node">
<title>c16</title>
<polygon fill="none" stroke="black" points="787.35,-268 787.35,-314 892.35,-314 892.35,-268 787.35,-268"/>
<text text-anchor="middle" x="800.85" y="-298.8" font-family="Times,serif" font-size="14.00">A</text>
<polyline fill="none" stroke="black" points="787.35,-291 814.35,-291 "/>
<text text-anchor="middle" x="800.85" y="-275.8" font-family="Times,serif" font-size="14.00">B</text>
<polyline fill="none" stroke="black" points="814.35,-268 814.35,-314 "/>
<text text-anchor="middle" x="840.35" y="-294.8" font-family="Times,serif" font-size="14.00">$4</text>
<text text-anchor="middle" x="840.35" y="-279.8" font-family="Times,serif" font-size="14.00">$add</text>
<polyline fill="none" stroke="black" points="866.35,-268 866.35,-314 "/>
<text text-anchor="middle" x="879.35" y="-287.3" font-family="Times,serif" font-size="14.00">Y</text>
</g>
<!-- n7&#45;&gt;c16 -->
<g id="edge16" class="edge">
<title>n7:e&#45;&gt;c16:w</title>
<path fill="none" stroke="black" stroke-width="3" d="M751.35,-303C763.35,-303 768.6,-303 777.22,-303"/>
<polygon fill="black" stroke="black" stroke-width="3" points="777.35,-306.5 787.35,-303 777.35,-299.5 777.35,-306.5"/>
</g>
<!-- n8 -->
<g id="node3" class="node">
<title>n8</title>
<polygon fill="none" stroke="black" points="101.33,-346.54 101.33,-361.46 74.94,-372 37.62,-372 11.23,-361.46 11.23,-346.54 37.62,-336 74.94,-336 101.33,-346.54"/>
<text text-anchor="middle" x="56.28" y="-350.3" font-family="Times,serif" font-size="14.00">enable</text>
</g>
<!-- x1 -->
<g id="node12" class="node">
<title>x1</title>
<path fill="none" stroke="black" d="M177.56,-293C177.56,-293 228.56,-293 228.56,-293 234.56,-293 240.56,-299 240.56,-305 240.56,-305 240.56,-327 240.56,-327 240.56,-333 234.56,-339 228.56,-339 228.56,-339 177.56,-339 177.56,-339 171.56,-339 165.56,-333 165.56,-327 165.56,-327 165.56,-305 165.56,-305 165.56,-299 171.56,-293 177.56,-293"/>
<text text-anchor="middle" x="203.06" y="-323.8" font-family="Times,serif" font-size="14.00">0:0 &#45; 1:1</text>
<polyline fill="none" stroke="black" points="165.56,-316 240.56,-316 "/>
<text text-anchor="middle" x="203.06" y="-300.8" font-family="Times,serif" font-size="14.00">0:0 &#45; 0:0</text>
</g>
<!-- n8&#45;&gt;x1 -->
<g id="edge18" class="edge">
<title>n8:e&#45;&gt;x1:w</title>
<path fill="none" stroke="black" d="M102.28,-354C133.74,-354 130.15,-314.34 153.94,-305.66"/>
<polygon fill="black" stroke="black" points="154.76,-309.08 164.06,-304 153.62,-302.17 154.76,-309.08"/>
</g>
<!-- c25 -->
<g id="node14" class="node">
<title>c25</title>
<polygon fill="none" stroke="black" points="928.35,-396.5 928.35,-465.5 1037.35,-465.5 1037.35,-396.5 928.35,-396.5"/>
<text text-anchor="middle" x="941.85" y="-450.3" font-family="Times,serif" font-size="14.00">A</text>
<polyline fill="none" stroke="black" points="928.35,-442.5 955.35,-442.5 "/>
<text text-anchor="middle" x="941.85" y="-427.3" font-family="Times,serif" font-size="14.00">B</text>
<polyline fill="none" stroke="black" points="928.35,-419.5 955.35,-419.5 "/>
<text text-anchor="middle" x="941.85" y="-404.3" font-family="Times,serif" font-size="14.00">S</text>
<polyline fill="none" stroke="black" points="955.35,-396.5 955.35,-465.5 "/>
<text text-anchor="middle" x="983.35" y="-434.8" font-family="Times,serif" font-size="14.00">$5</text>
<text text-anchor="middle" x="983.35" y="-419.8" font-family="Times,serif" font-size="14.00">$mux</text>
<polyline fill="none" stroke="black" points="1011.35,-396.5 1011.35,-465.5 "/>
<text text-anchor="middle" x="1024.35" y="-427.3" font-family="Times,serif" font-size="14.00">Y</text>
</g>
<!-- n8&#45;&gt;c25 -->
<g id="edge17" class="edge">
<title>n8:e&#45;&gt;c25:w</title>
<path fill="none" stroke="black" d="M102.28,-354C226.37,-354 249.96,-418 374.06,-418 374.06,-418 374.06,-418 712.95,-418 805.33,-418 830.71,-408.71 918.24,-408.04"/>
<polygon fill="black" stroke="black" points="918.36,-411.54 928.35,-408 918.34,-404.54 918.36,-411.54"/>
</g>
<!-- n9 -->
<g id="node4" class="node">
<title>n9</title>
<polygon fill="none" stroke="black" points="89.41,-269.54 89.41,-284.46 70,-295 42.56,-295 23.15,-284.46 23.15,-269.54 42.56,-259 70,-259 89.41,-269.54"/>
<text text-anchor="middle" x="56.28" y="-273.3" font-family="Times,serif" font-size="14.00">load</text>
</g>
<!-- n9&#45;&gt;x1 -->
<g id="edge20" class="edge">
<title>n9:e&#45;&gt;x1:w</title>
<path fill="none" stroke="black" d="M90.28,-277C126.4,-277 124.91,-318.89 153.98,-326.74"/>
<polygon fill="black" stroke="black" points="153.7,-330.23 164.06,-328 154.57,-323.29 153.7,-330.23"/>
</g>
<!-- c26 -->
<g id="node15" class="node">
<title>c26</title>
<polygon fill="none" stroke="black" points="1073.35,-291.5 1073.35,-360.5 1182.35,-360.5 1182.35,-291.5 1073.35,-291.5"/>
<text text-anchor="middle" x="1086.85" y="-345.3" font-family="Times,serif" font-size="14.00">A</text>
<polyline fill="none" stroke="black" points="1073.35,-337.5 1100.35,-337.5 "/>
<text text-anchor="middle" x="1086.85" y="-322.3" font-family="Times,serif" font-size="14.00">B</text>
<polyline fill="none" stroke="black" points="1073.35,-314.5 1100.35,-314.5 "/>
<text text-anchor="middle" x="1086.85" y="-299.3" font-family="Times,serif" font-size="14.00">S</text>
<polyline fill="none" stroke="black" points="1100.35,-291.5 1100.35,-360.5 "/>
<text text-anchor="middle" x="1128.35" y="-329.8" font-family="Times,serif" font-size="14.00">$8</text>
<text text-anchor="middle" x="1128.35" y="-314.8" font-family="Times,serif" font-size="14.00">$mux</text>
<polyline fill="none" stroke="black" points="1156.35,-291.5 1156.35,-360.5 "/>
<text text-anchor="middle" x="1169.35" y="-322.3" font-family="Times,serif" font-size="14.00">Y</text>
</g>
<!-- n9&#45;&gt;c26 -->
<g id="edge19" class="edge">
<title>n9:e&#45;&gt;c26:w</title>
<path fill="none" stroke="black" d="M90.28,-277C141.34,-277 105.4,-205.28 148.56,-178 233.61,-124.25 273.44,-158 374.06,-158 374.06,-158 374.06,-158 840.85,-158 942.72,-158 952.82,-219.14 1037.35,-276 1050.57,-284.9 1052.88,-296.76 1063.4,-301.21"/>
<polygon fill="black" stroke="black" points="1062.89,-304.68 1073.35,-303 1064.13,-297.79 1062.89,-304.68"/>
</g>
<!-- n10 -->
<g id="node5" class="node">
<title>n10</title>
<polygon fill="none" stroke="black" points="413.94,-252.54 413.94,-267.46 391.17,-278 358.95,-278 336.17,-267.46 336.17,-252.54 358.95,-242 391.17,-242 413.94,-252.54"/>
<text text-anchor="middle" x="375.06" y="-256.3" font-family="Times,serif" font-size="14.00">res_n</text>
</g>
<!-- n10&#45;&gt;c22 -->
<g id="edge5" class="edge">
<title>n10:e&#45;&gt;c22:w</title>
<path fill="none" stroke="black" d="M415.06,-260C448.84,-260 454.28,-286.87 482.52,-292.12"/>
<polygon fill="black" stroke="black" points="482.29,-295.61 492.56,-293 482.9,-288.64 482.29,-295.61"/>
</g>
<!-- n11 -->
<g id="node6" class="node">
<title>n11</title>
<polygon fill="none" stroke="black" points="1009.85,-295.54 1009.85,-310.46 994.03,-321 971.67,-321 955.85,-310.46 955.85,-295.54 971.67,-285 994.03,-285 1009.85,-295.54"/>
<text text-anchor="middle" x="982.85" y="-299.3" font-family="Times,serif" font-size="14.00">set</text>
</g>
<!-- n11&#45;&gt;c26 -->
<g id="edge6" class="edge">
<title>n11:e&#45;&gt;c26:w</title>
<path fill="none" stroke="black" stroke-width="3" d="M1010.85,-303C1036.75,-303 1042.51,-320.61 1063.38,-325.01"/>
<polygon fill="black" stroke="black" stroke-width="3" points="1063.05,-328.5 1073.35,-326 1063.74,-321.53 1063.05,-328.5"/>
</g>
<!-- n12 -->
<g id="node7" class="node">
<title>n12</title>
<polygon fill="none" stroke="black" points="112.34,-33.54 112.34,-48.46 79.5,-59 33.06,-59 0.22,-48.46 0.22,-33.54 33.06,-23 79.5,-23 112.34,-33.54"/>
<text text-anchor="middle" x="56.28" y="-37.3" font-family="Times,serif" font-size="14.00">up_down</text>
</g>
<!-- c27 -->
<g id="node18" class="node">
<title>c27</title>
<polygon fill="none" stroke="black" points="148.56,-60.5 148.56,-129.5 257.56,-129.5 257.56,-60.5 148.56,-60.5"/>
<text text-anchor="middle" x="162.06" y="-114.3" font-family="Times,serif" font-size="14.00">A</text>
<polyline fill="none" stroke="black" points="148.56,-106.5 175.56,-106.5 "/>
<text text-anchor="middle" x="162.06" y="-91.3" font-family="Times,serif" font-size="14.00">B</text>
<polyline fill="none" stroke="black" points="148.56,-83.5 175.56,-83.5 "/>
<text text-anchor="middle" x="162.06" y="-68.3" font-family="Times,serif" font-size="14.00">S</text>
<polyline fill="none" stroke="black" points="175.56,-60.5 175.56,-129.5 "/>
<text text-anchor="middle" x="203.56" y="-98.8" font-family="Times,serif" font-size="14.00">$3</text>
<text text-anchor="middle" x="203.56" y="-83.8" font-family="Times,serif" font-size="14.00">$mux</text>
<polyline fill="none" stroke="black" points="231.56,-60.5 231.56,-129.5 "/>
<text text-anchor="middle" x="244.56" y="-91.3" font-family="Times,serif" font-size="14.00">Y</text>
</g>
<!-- n12&#45;&gt;c27 -->
<g id="edge7" class="edge">
<title>n12:e&#45;&gt;c27:w</title>
<path fill="none" stroke="black" d="M112.56,-41C129.55,-41 128.83,-61.07 138.91,-68.91"/>
<polygon fill="black" stroke="black" points="137.97,-72.29 148.56,-72 140.1,-65.62 137.97,-72.29"/>
</g>
<!-- c16&#45;&gt;c25 -->
<g id="edge4" class="edge">
<title>c16:e&#45;&gt;c25:w</title>
<path fill="none" stroke="black" stroke-width="3" d="M892.35,-291C952.71,-291 874.73,-414.56 918.33,-429.52"/>
<polygon fill="black" stroke="black" stroke-width="3" points="917.95,-433 928.35,-431 918.97,-426.08 917.95,-433"/>
</g>
<!-- x0 -->
<g id="node9" class="node">
<title>x0</title>
<path fill="none" stroke="black" d="M686.45,-213C686.45,-213 737.45,-213 737.45,-213 743.45,-213 749.45,-219 749.45,-225 749.45,-225 749.45,-237 749.45,-237 749.45,-243 743.45,-249 737.45,-249 737.45,-249 686.45,-249 686.45,-249 680.45,-249 674.45,-243 674.45,-237 674.45,-237 674.45,-225 674.45,-225 674.45,-219 680.45,-213 686.45,-213"/>
<text text-anchor="middle" x="711.95" y="-227.3" font-family="Times,serif" font-size="14.00">2:0 &#45; 2:0</text>
</g>
<!-- x0&#45;&gt;c16 -->
<g id="edge1" class="edge">
<title>x0:e&#45;&gt;c16:w</title>
<path fill="none" stroke="black" stroke-width="3" d="M762.27,-235.78C770.18,-244.98 768.13,-265.06 776.05,-274.24"/>
<polygon fill="none" stroke="black" stroke-width="3" points="762.01,-235.67 754.93,-237.02 750.95,-231 758.04,-229.65 762.01,-235.67"/>
<polygon fill="none" stroke="black" stroke-width="3" points="776.29,-274.34 783.37,-272.98 787.35,-279 780.27,-280.36 776.29,-274.34"/>
</g>
<!-- c22&#45;&gt;n7 -->
<g id="edge15" class="edge">
<title>c22:e&#45;&gt;n7:w</title>
<path fill="none" stroke="black" stroke-width="3" d="M636.56,-328C651.93,-328 653.33,-312.43 662.81,-305.87"/>
<polygon fill="black" stroke="black" stroke-width="3" points="663.95,-309.18 672.56,-303 661.98,-302.46 663.95,-309.18"/>
</g>
<!-- c23 -->
<g id="node11" class="node">
<title>c23</title>
<polygon fill="none" stroke="black" points="293.56,-297 293.56,-335 456.56,-335 456.56,-297 293.56,-297"/>
<text text-anchor="middle" x="306.56" y="-312.3" font-family="Times,serif" font-size="14.00">A</text>
<polyline fill="none" stroke="black" points="319.56,-297 319.56,-335 "/>
<text text-anchor="middle" x="375.06" y="-319.8" font-family="Times,serif" font-size="14.00">$17</text>
<text text-anchor="middle" x="375.06" y="-304.8" font-family="Times,serif" font-size="14.00">$reduce_bool</text>
<polyline fill="none" stroke="black" points="430.56,-297 430.56,-335 "/>
<text text-anchor="middle" x="443.56" y="-312.3" font-family="Times,serif" font-size="14.00">Y</text>
</g>
<!-- c23&#45;&gt;c22 -->
<g id="edge8" class="edge">
<title>c23:e&#45;&gt;c22:w</title>
<path fill="none" stroke="black" d="M456.56,-316C468.56,-316 473.81,-316 482.43,-316"/>
<polygon fill="black" stroke="black" points="482.56,-319.5 492.56,-316 482.56,-312.5 482.56,-319.5"/>
</g>
<!-- x1&#45;&gt;c23 -->
<g id="edge2" class="edge">
<title>x1:e&#45;&gt;c23:w</title>
<path fill="none" stroke="black" stroke-width="3" d="M254.17,-316C264.42,-316 271.11,-316 281.33,-316"/>
<polygon fill="none" stroke="black" stroke-width="3" points="254.06,-316 248.06,-320 242.06,-316 248.06,-312 254.06,-316"/>
<polygon fill="none" stroke="black" stroke-width="3" points="281.56,-316 287.56,-312 293.56,-316 287.56,-320 281.56,-316"/>
</g>
<!-- v2 -->
<g id="node13" class="node">
<title>v2</title>
<ellipse fill="none" stroke="black" cx="839.85" cy="-464" rx="27" ry="18"/>
<text text-anchor="middle" x="839.85" y="-460.3" font-family="Times,serif" font-size="14.00">3&#39;x</text>
</g>
<!-- v2&#45;&gt;c25 -->
<g id="edge21" class="edge">
<title>v2:e&#45;&gt;c25:w</title>
<path fill="none" stroke="black" stroke-width="3" d="M867.85,-464C891.38,-464 899.06,-456.55 918.26,-454.51"/>
<polygon fill="black" stroke="black" stroke-width="3" points="918.54,-458 928.35,-454 918.19,-451.01 918.54,-458"/>
</g>
<!-- c25&#45;&gt;c26 -->
<g id="edge9" class="edge">
<title>c25:e&#45;&gt;c26:w</title>
<path fill="none" stroke="black" stroke-width="3" d="M1037.35,-431C1073.11,-431 1041.54,-364.81 1063.63,-351.37"/>
<polygon fill="black" stroke="black" stroke-width="3" points="1064.46,-354.77 1073.35,-349 1062.81,-347.96 1064.46,-354.77"/>
</g>
<!-- c26&#45;&gt;c22 -->
<g id="edge10" class="edge">
<title>c26:e&#45;&gt;c22:w</title>
<path fill="none" stroke="black" stroke-width="3" d="M1183.85,-326C1199.41,-326 1193.88,-350.02 1182.85,-361 1139.83,-403.85 697.27,-373.75 636.56,-374.5 572.56,-375.29 538.46,-419.09 492.56,-374.5 484.82,-366.98 479.89,-352.98 482.97,-345.33"/>
<polygon fill="black" stroke="black" stroke-width="3" points="484.91,-348.25 491.56,-340 481.22,-342.3 484.91,-348.25"/>
</g>
<!-- v3 -->
<g id="node16" class="node">
<title>v3</title>
<ellipse fill="none" stroke="black" cx="56.28" cy="-149" rx="36.29" ry="18"/>
<text text-anchor="middle" x="56.28" y="-145.3" font-family="Times,serif" font-size="14.00">3&#39;111</text>
</g>
<!-- v3&#45;&gt;c27 -->
<g id="edge22" class="edge">
<title>v3:e&#45;&gt;c27:w</title>
<path fill="none" stroke="black" stroke-width="3" d="M94.28,-149C118.15,-149 120.56,-126.11 138.4,-119.67"/>
<polygon fill="black" stroke="black" stroke-width="3" points="139.26,-123.07 148.56,-118 138.12,-116.17 139.26,-123.07"/>
</g>
<!-- v4 -->
<g id="node17" class="node">
<title>v4</title>
<ellipse fill="none" stroke="black" cx="56.28" cy="-95" rx="36.29" ry="18"/>
<text text-anchor="middle" x="56.28" y="-91.3" font-family="Times,serif" font-size="14.00">3&#39;001</text>
</g>
<!-- v4&#45;&gt;c27 -->
<g id="edge23" class="edge">
<title>v4:e&#45;&gt;c27:w</title>
<path fill="none" stroke="black" stroke-width="3" d="M94.28,-95C114.63,-95 122.11,-95 138.44,-95"/>
<polygon fill="black" stroke="black" stroke-width="3" points="138.56,-98.5 148.56,-95 138.56,-91.5 138.56,-98.5"/>
</g>
<!-- x5 -->
<g id="node19" class="node">
<title>x5</title>
<path fill="none" stroke="black" d="M349.56,-85C349.56,-85 400.56,-85 400.56,-85 406.56,-85 412.56,-91 412.56,-97 412.56,-97 412.56,-109 412.56,-109 412.56,-115 406.56,-121 400.56,-121 400.56,-121 349.56,-121 349.56,-121 343.56,-121 337.56,-115 337.56,-109 337.56,-109 337.56,-97 337.56,-97 337.56,-91 343.56,-85 349.56,-85"/>
<text text-anchor="middle" x="375.06" y="-99.3" font-family="Times,serif" font-size="14.00">2:0 &#45; 2:0</text>
</g>
<!-- c27&#45;&gt;x5 -->
<g id="edge3" class="edge">
<title>c27:e&#45;&gt;x5:w</title>
<path fill="none" stroke="black" stroke-width="3" d="M269.56,-95.34C291.44,-96.65 302.09,-101.33 323.93,-102.65"/>
<polygon fill="none" stroke="black" stroke-width="3" points="269.55,-95.34 263.44,-99.17 257.56,-95 263.67,-91.17 269.55,-95.34"/>
<polygon fill="none" stroke="black" stroke-width="3" points="324.06,-102.65 330.18,-98.83 336.06,-103 329.95,-106.82 324.06,-102.65"/>
</g>
<!-- n5 -->
<g id="node22" class="node">
<title>n5</title>
<ellipse fill="black" stroke="black" cx="564.56" cy="-205" rx="1.8" ry="1.8"/>
</g>
<!-- x5&#45;&gt;n5 -->
<g id="edge11" class="edge">
<title>x5:e&#45;&gt;n5:w</title>
<path fill="none" stroke="black" stroke-width="3" d="M414.06,-103C490.18,-103 482.74,-196.04 551.36,-204.4"/>
<polygon fill="black" stroke="black" stroke-width="3" points="551.37,-207.91 561.56,-205 551.78,-200.92 551.37,-207.91"/>
</g>
<!-- v6 -->
<g id="node20" class="node">
<title>v6</title>
<ellipse fill="none" stroke="black" cx="203.06" cy="-205" rx="30.59" ry="18"/>
<text text-anchor="middle" x="203.06" y="-201.3" font-family="Times,serif" font-size="14.00">29&#39;x</text>
</g>
<!-- x7 -->
<g id="node21" class="node">
<title>x7</title>
<path fill="none" stroke="black" d="M340.56,-187C340.56,-187 409.56,-187 409.56,-187 415.56,-187 421.56,-193 421.56,-199 421.56,-199 421.56,-211 421.56,-211 421.56,-217 415.56,-223 409.56,-223 409.56,-223 340.56,-223 340.56,-223 334.56,-223 328.56,-217 328.56,-211 328.56,-211 328.56,-199 328.56,-199 328.56,-193 334.56,-187 340.56,-187"/>
<text text-anchor="middle" x="375.06" y="-201.3" font-family="Times,serif" font-size="14.00">28:0 &#45; 31:3</text>
</g>
<!-- v6&#45;&gt;x7 -->
<g id="edge24" class="edge">
<title>v6:e&#45;&gt;x7:w</title>
<path fill="none" stroke="black" stroke-width="3" d="M235.06,-205C272.27,-205 284.09,-205 316.74,-205"/>
<polygon fill="black" stroke="black" stroke-width="3" points="317.06,-208.5 327.06,-205 317.06,-201.5 317.06,-208.5"/>
</g>
<!-- x7&#45;&gt;n5 -->
<g id="edge12" class="edge">
<title>x7:e&#45;&gt;n5:w</title>
<path fill="none" stroke="black" stroke-width="3" d="M423.06,-205C481.13,-205 498.11,-205 551.53,-205"/>
<polygon fill="black" stroke="black" stroke-width="3" points="551.56,-208.5 561.56,-205 551.56,-201.5 551.56,-208.5"/>
</g>
<!-- n5&#45;&gt;x0 -->
<g id="edge13" class="edge">
<title>n5:e&#45;&gt;x0:w</title>
<path fill="none" stroke="black" stroke-width="3" d="M567.56,-205C612.22,-205 623.17,-227.28 662.83,-230.59"/>
<polygon fill="black" stroke="black" stroke-width="3" points="662.82,-234.09 672.95,-231 663.1,-227.1 662.82,-234.09"/>
</g>
</g>
</svg>
