<?xml version="1.0" encoding="UTF-8" standalone="no"?>
<!DOCTYPE svg PUBLIC "-//W3C//DTD SVG 1.1//EN"
 "http://www.w3.org/Graphics/SVG/1.1/DTD/svg11.dtd">
<!-- Generated by graphviz version 2.43.20190912.0211 (20190912.0211)
 -->
<!-- Title: ff_d Pages: 1 -->
<svg width="597pt" height="457pt"
 viewBox="0.00 0.00 597.26 457.00" xmlns="http://www.w3.org/2000/svg" xmlns:xlink="http://www.w3.org/1999/xlink">
<g id="graph0" class="graph" transform="scale(1 1) rotate(0) translate(4 453)">
<title>ff_d</title>
<polygon fill="white" stroke="transparent" points="-4,4 -4,-453 593.26,-453 593.26,4 -4,4"/>
<text text-anchor="middle" x="294.63" y="-7.8" font-family="Times,serif" font-size="14.00">ff_d</text>
<!-- n1 -->
<g id="node1" class="node">
<title>n1</title>
<polygon fill="none" stroke="black" points="589.26,-228.04 589.26,-242.96 573.44,-253.5 551.07,-253.5 535.26,-242.96 535.26,-228.04 551.07,-217.5 573.44,-217.5 589.26,-228.04"/>
<text text-anchor="middle" x="562.26" y="-231.8" font-family="Times,serif" font-size="14.00">Q</text>
</g>
<!-- n2 -->
<g id="node2" class="node">
<title>n2</title>
<polygon fill="none" stroke="black" points="156.56,-295.04 156.56,-309.96 140.75,-320.5 118.38,-320.5 102.56,-309.96 102.56,-295.04 118.38,-284.5 140.75,-284.5 156.56,-295.04"/>
<text text-anchor="middle" x="129.56" y="-298.8" font-family="Times,serif" font-size="14.00">clk</text>
</g>
<!-- c10 -->
<g id="node6" class="node">
<title>c10</title>
<polygon fill="none" stroke="black" points="204.26,-356.5 204.26,-448.5 388.26,-448.5 388.26,-356.5 204.26,-356.5"/>
<text text-anchor="middle" x="218.26" y="-433.3" font-family="Times,serif" font-size="14.00">C</text>
<polyline fill="none" stroke="black" points="204.26,-425.5 232.26,-425.5 "/>
<text text-anchor="middle" x="218.26" y="-410.3" font-family="Times,serif" font-size="14.00">D</text>
<polyline fill="none" stroke="black" points="204.26,-402.5 232.26,-402.5 "/>
<text text-anchor="middle" x="218.26" y="-387.3" font-family="Times,serif" font-size="14.00">E</text>
<polyline fill="none" stroke="black" points="204.26,-379.5 232.26,-379.5 "/>
<text text-anchor="middle" x="218.26" y="-364.3" font-family="Times,serif" font-size="14.00">R</text>
<polyline fill="none" stroke="black" points="232.26,-356.5 232.26,-448.5 "/>
<text text-anchor="middle" x="296.26" y="-406.3" font-family="Times,serif" font-size="14.00">$16</text>
<text text-anchor="middle" x="296.26" y="-391.3" font-family="Times,serif" font-size="14.00">$_DFFE_PN0P_</text>
<polyline fill="none" stroke="black" points="360.26,-356.5 360.26,-448.5 "/>
<text text-anchor="middle" x="374.26" y="-398.8" font-family="Times,serif" font-size="14.00">Q</text>
</g>
<!-- n2&#45;&gt;c10 -->
<g id="edge13" class="edge">
<title>n2:e&#45;&gt;c10:w</title>
<path fill="none" stroke="black" d="M157.56,-302.5C217.21,-302.5 149.96,-421.65 194.24,-436.08"/>
<polygon fill="black" stroke="black" points="193.86,-439.56 204.26,-437.5 194.85,-432.63 193.86,-439.56"/>
</g>
<!-- c11 -->
<g id="node9" class="node">
<title>c11</title>
<polygon fill="none" stroke="black" points="204.26,-134.5 204.26,-226.5 388.26,-226.5 388.26,-134.5 204.26,-134.5"/>
<text text-anchor="middle" x="218.26" y="-211.3" font-family="Times,serif" font-size="14.00">C</text>
<polyline fill="none" stroke="black" points="204.26,-203.5 232.26,-203.5 "/>
<text text-anchor="middle" x="218.26" y="-188.3" font-family="Times,serif" font-size="14.00">D</text>
<polyline fill="none" stroke="black" points="204.26,-180.5 232.26,-180.5 "/>
<text text-anchor="middle" x="218.26" y="-165.3" font-family="Times,serif" font-size="14.00">E</text>
<polyline fill="none" stroke="black" points="204.26,-157.5 232.26,-157.5 "/>
<text text-anchor="middle" x="218.26" y="-142.3" font-family="Times,serif" font-size="14.00">R</text>
<polyline fill="none" stroke="black" points="232.26,-134.5 232.26,-226.5 "/>
<text text-anchor="middle" x="296.26" y="-184.3" font-family="Times,serif" font-size="14.00">$17</text>
<text text-anchor="middle" x="296.26" y="-169.3" font-family="Times,serif" font-size="14.00">$_DFFE_PN0P_</text>
<polyline fill="none" stroke="black" points="360.26,-134.5 360.26,-226.5 "/>
<text text-anchor="middle" x="374.26" y="-176.8" font-family="Times,serif" font-size="14.00">Q</text>
</g>
<!-- n2&#45;&gt;c11 -->
<g id="edge14" class="edge">
<title>n2:e&#45;&gt;c11:w</title>
<path fill="none" stroke="black" d="M157.56,-302.5C197.51,-302.5 167.07,-230.43 194.36,-217.48"/>
<polygon fill="black" stroke="black" points="195.14,-220.89 204.26,-215.5 193.76,-214.03 195.14,-220.89"/>
</g>
<!-- c12 -->
<g id="node12" class="node">
<title>c12</title>
<polygon fill="none" stroke="black" points="204.26,-245.5 204.26,-337.5 388.26,-337.5 388.26,-245.5 204.26,-245.5"/>
<text text-anchor="middle" x="218.26" y="-322.3" font-family="Times,serif" font-size="14.00">C</text>
<polyline fill="none" stroke="black" points="204.26,-314.5 232.26,-314.5 "/>
<text text-anchor="middle" x="218.26" y="-299.3" font-family="Times,serif" font-size="14.00">D</text>
<polyline fill="none" stroke="black" points="204.26,-291.5 232.26,-291.5 "/>
<text text-anchor="middle" x="218.26" y="-276.3" font-family="Times,serif" font-size="14.00">E</text>
<polyline fill="none" stroke="black" points="204.26,-268.5 232.26,-268.5 "/>
<text text-anchor="middle" x="218.26" y="-253.3" font-family="Times,serif" font-size="14.00">R</text>
<polyline fill="none" stroke="black" points="232.26,-245.5 232.26,-337.5 "/>
<text text-anchor="middle" x="296.26" y="-295.3" font-family="Times,serif" font-size="14.00">$18</text>
<text text-anchor="middle" x="296.26" y="-280.3" font-family="Times,serif" font-size="14.00">$_DFFE_PN0P_</text>
<polyline fill="none" stroke="black" points="360.26,-245.5 360.26,-337.5 "/>
<text text-anchor="middle" x="374.26" y="-287.8" font-family="Times,serif" font-size="14.00">Q</text>
</g>
<!-- n2&#45;&gt;c12 -->
<g id="edge15" class="edge">
<title>n2:e&#45;&gt;c12:w</title>
<path fill="none" stroke="black" d="M157.56,-302.5C176.89,-302.5 180.23,-318.96 194.05,-324.62"/>
<polygon fill="black" stroke="black" points="193.79,-328.13 204.26,-326.5 195.06,-321.24 193.79,-328.13"/>
</g>
<!-- c13 -->
<g id="node15" class="node">
<title>c13</title>
<polygon fill="none" stroke="black" points="204.26,-23.5 204.26,-115.5 388.26,-115.5 388.26,-23.5 204.26,-23.5"/>
<text text-anchor="middle" x="218.26" y="-100.3" font-family="Times,serif" font-size="14.00">C</text>
<polyline fill="none" stroke="black" points="204.26,-92.5 232.26,-92.5 "/>
<text text-anchor="middle" x="218.26" y="-77.3" font-family="Times,serif" font-size="14.00">D</text>
<polyline fill="none" stroke="black" points="204.26,-69.5 232.26,-69.5 "/>
<text text-anchor="middle" x="218.26" y="-54.3" font-family="Times,serif" font-size="14.00">E</text>
<polyline fill="none" stroke="black" points="204.26,-46.5 232.26,-46.5 "/>
<text text-anchor="middle" x="218.26" y="-31.3" font-family="Times,serif" font-size="14.00">R</text>
<polyline fill="none" stroke="black" points="232.26,-23.5 232.26,-115.5 "/>
<text text-anchor="middle" x="296.26" y="-73.3" font-family="Times,serif" font-size="14.00">$19</text>
<text text-anchor="middle" x="296.26" y="-58.3" font-family="Times,serif" font-size="14.00">$_DFFE_PN0P_</text>
<polyline fill="none" stroke="black" points="360.26,-23.5 360.26,-115.5 "/>
<text text-anchor="middle" x="374.26" y="-65.8" font-family="Times,serif" font-size="14.00">Q</text>
</g>
<!-- n2&#45;&gt;c13 -->
<g id="edge16" class="edge">
<title>n2:e&#45;&gt;c13:w</title>
<path fill="none" stroke="black" d="M157.56,-302.5C244.27,-302.5 124.47,-120.41 194.23,-105.47"/>
<polygon fill="black" stroke="black" points="194.64,-108.95 204.26,-104.5 193.97,-101.98 194.64,-108.95"/>
</g>
<!-- n3 -->
<g id="node3" class="node">
<title>n3</title>
<polygon fill="none" stroke="black" points="54.81,-241.04 54.81,-255.96 38.77,-266.5 16.1,-266.5 0.06,-255.96 0.06,-241.04 16.1,-230.5 38.77,-230.5 54.81,-241.04"/>
<text text-anchor="middle" x="27.44" y="-244.8" font-family="Times,serif" font-size="14.00">din</text>
</g>
<!-- x0 -->
<g id="node7" class="node">
<title>x0</title>
<path fill="none" stroke="black" d="M104.06,-395.5C104.06,-395.5 155.06,-395.5 155.06,-395.5 161.06,-395.5 167.06,-401.5 167.06,-407.5 167.06,-407.5 167.06,-419.5 167.06,-419.5 167.06,-425.5 161.06,-431.5 155.06,-431.5 155.06,-431.5 104.06,-431.5 104.06,-431.5 98.06,-431.5 92.06,-425.5 92.06,-419.5 92.06,-419.5 92.06,-407.5 92.06,-407.5 92.06,-401.5 98.06,-395.5 104.06,-395.5"/>
<text text-anchor="middle" x="129.56" y="-409.8" font-family="Times,serif" font-size="14.00">0:0 &#45; 0:0</text>
</g>
<!-- n3&#45;&gt;x0 -->
<g id="edge17" class="edge">
<title>n3:e&#45;&gt;x0:w</title>
<path fill="none" stroke="black" d="M54.87,-248.5C126.12,-248.5 26.92,-397.17 80.85,-412.27"/>
<polygon fill="black" stroke="black" points="80.52,-415.75 90.87,-413.5 81.37,-408.8 80.52,-415.75"/>
</g>
<!-- x2 -->
<g id="node10" class="node">
<title>x2</title>
<path fill="none" stroke="black" d="M104.06,-121.5C104.06,-121.5 155.06,-121.5 155.06,-121.5 161.06,-121.5 167.06,-127.5 167.06,-133.5 167.06,-133.5 167.06,-145.5 167.06,-145.5 167.06,-151.5 161.06,-157.5 155.06,-157.5 155.06,-157.5 104.06,-157.5 104.06,-157.5 98.06,-157.5 92.06,-151.5 92.06,-145.5 92.06,-145.5 92.06,-133.5 92.06,-133.5 92.06,-127.5 98.06,-121.5 104.06,-121.5"/>
<text text-anchor="middle" x="129.56" y="-135.8" font-family="Times,serif" font-size="14.00">1:1 &#45; 0:0</text>
</g>
<!-- n3&#45;&gt;x2 -->
<g id="edge18" class="edge">
<title>n3:e&#45;&gt;x2:w</title>
<path fill="none" stroke="black" d="M54.87,-248.5C101.9,-248.5 49.46,-155.87 80.95,-141.39"/>
<polygon fill="black" stroke="black" points="81.7,-144.81 90.87,-139.5 80.39,-137.93 81.7,-144.81"/>
</g>
<!-- x4 -->
<g id="node13" class="node">
<title>x4</title>
<path fill="none" stroke="black" d="M104.06,-339.5C104.06,-339.5 155.06,-339.5 155.06,-339.5 161.06,-339.5 167.06,-345.5 167.06,-351.5 167.06,-351.5 167.06,-363.5 167.06,-363.5 167.06,-369.5 161.06,-375.5 155.06,-375.5 155.06,-375.5 104.06,-375.5 104.06,-375.5 98.06,-375.5 92.06,-369.5 92.06,-363.5 92.06,-363.5 92.06,-351.5 92.06,-351.5 92.06,-345.5 98.06,-339.5 104.06,-339.5"/>
<text text-anchor="middle" x="129.56" y="-353.8" font-family="Times,serif" font-size="14.00">2:2 &#45; 0:0</text>
</g>
<!-- n3&#45;&gt;x4 -->
<g id="edge19" class="edge">
<title>n3:e&#45;&gt;x4:w</title>
<path fill="none" stroke="black" d="M54.87,-248.5C101.9,-248.5 49.46,-341.13 80.95,-355.61"/>
<polygon fill="black" stroke="black" points="80.39,-359.07 90.87,-357.5 81.7,-352.19 80.39,-359.07"/>
</g>
<!-- x6 -->
<g id="node16" class="node">
<title>x6</title>
<path fill="none" stroke="black" d="M104.06,-65.5C104.06,-65.5 155.06,-65.5 155.06,-65.5 161.06,-65.5 167.06,-71.5 167.06,-77.5 167.06,-77.5 167.06,-89.5 167.06,-89.5 167.06,-95.5 161.06,-101.5 155.06,-101.5 155.06,-101.5 104.06,-101.5 104.06,-101.5 98.06,-101.5 92.06,-95.5 92.06,-89.5 92.06,-89.5 92.06,-77.5 92.06,-77.5 92.06,-71.5 98.06,-65.5 104.06,-65.5"/>
<text text-anchor="middle" x="129.56" y="-79.8" font-family="Times,serif" font-size="14.00">3:3 &#45; 0:0</text>
</g>
<!-- n3&#45;&gt;x6 -->
<g id="edge20" class="edge">
<title>n3:e&#45;&gt;x6:w</title>
<path fill="none" stroke="black" d="M54.87,-248.5C126.12,-248.5 26.92,-99.83 80.85,-84.73"/>
<polygon fill="black" stroke="black" points="81.37,-88.2 90.87,-83.5 80.52,-81.25 81.37,-88.2"/>
</g>
<!-- n4 -->
<g id="node4" class="node">
<title>n4</title>
<polygon fill="none" stroke="black" points="156.56,-241.04 156.56,-255.96 140.75,-266.5 118.38,-266.5 102.56,-255.96 102.56,-241.04 118.38,-230.5 140.75,-230.5 156.56,-241.04"/>
<text text-anchor="middle" x="129.56" y="-244.8" font-family="Times,serif" font-size="14.00">en</text>
</g>
<!-- n4&#45;&gt;c10 -->
<g id="edge21" class="edge">
<title>n4:e&#45;&gt;c10:w</title>
<path fill="none" stroke="black" d="M157.56,-248.5C220.11,-248.5 147.4,-374.35 194.09,-389.09"/>
<polygon fill="black" stroke="black" points="193.87,-392.6 204.26,-390.5 194.83,-385.66 193.87,-392.6"/>
</g>
<!-- n4&#45;&gt;c11 -->
<g id="edge22" class="edge">
<title>n4:e&#45;&gt;c11:w</title>
<path fill="none" stroke="black" d="M157.56,-248.5C194.71,-248.5 169.32,-183.36 194.25,-170.64"/>
<polygon fill="black" stroke="black" points="195.21,-174.01 204.26,-168.5 193.75,-167.17 195.21,-174.01"/>
</g>
<!-- n4&#45;&gt;c12 -->
<g id="edge23" class="edge">
<title>n4:e&#45;&gt;c12:w</title>
<path fill="none" stroke="black" d="M157.56,-248.5C178.58,-248.5 179.64,-270.57 194.42,-277.47"/>
<polygon fill="black" stroke="black" points="193.76,-280.9 204.26,-279.5 195.17,-274.05 193.76,-280.9"/>
</g>
<!-- n4&#45;&gt;c13 -->
<g id="edge24" class="edge">
<title>n4:e&#45;&gt;c13:w</title>
<path fill="none" stroke="black" d="M157.56,-248.5C241.2,-248.5 127.48,-73.56 194.15,-58.53"/>
<polygon fill="black" stroke="black" points="194.66,-61.99 204.26,-57.5 193.95,-55.03 194.66,-61.99"/>
</g>
<!-- n5 -->
<g id="node5" class="node">
<title>n5</title>
<polygon fill="none" stroke="black" points="168.45,-187.04 168.45,-201.96 145.67,-212.5 113.46,-212.5 90.68,-201.96 90.68,-187.04 113.46,-176.5 145.67,-176.5 168.45,-187.04"/>
<text text-anchor="middle" x="129.56" y="-190.8" font-family="Times,serif" font-size="14.00">res_n</text>
</g>
<!-- n5&#45;&gt;c10 -->
<g id="edge25" class="edge">
<title>n5:e&#45;&gt;c10:w</title>
<path fill="none" stroke="black" d="M168.26,-194.5C242.96,-194.5 137.07,-351.02 194.13,-366.3"/>
<polygon fill="black" stroke="black" points="193.91,-369.8 204.26,-367.5 194.74,-362.85 193.91,-369.8"/>
</g>
<!-- n5&#45;&gt;c11 -->
<g id="edge26" class="edge">
<title>n5:e&#45;&gt;c11:w</title>
<path fill="none" stroke="black" d="M168.26,-194.5C191.06,-194.5 181.77,-159.62 194.55,-148.72"/>
<polygon fill="black" stroke="black" points="195.86,-151.97 204.26,-145.5 193.66,-145.32 195.86,-151.97"/>
</g>
<!-- n5&#45;&gt;c12 -->
<g id="edge27" class="edge">
<title>n5:e&#45;&gt;c12:w</title>
<path fill="none" stroke="black" d="M168.26,-194.5C195.89,-194.5 178.71,-241.12 194.44,-253.51"/>
<polygon fill="black" stroke="black" points="193.67,-256.94 204.26,-256.5 195.71,-250.24 193.67,-256.94"/>
</g>
<!-- n5&#45;&gt;c13 -->
<g id="edge28" class="edge">
<title>n5:e&#45;&gt;c13:w</title>
<path fill="none" stroke="black" d="M168.26,-194.5C237.3,-194.5 142.44,-50.93 194.2,-35.79"/>
<polygon fill="black" stroke="black" points="194.78,-39.24 204.26,-34.5 193.89,-32.3 194.78,-39.24"/>
</g>
<!-- x1 -->
<g id="node8" class="node">
<title>x1</title>
<path fill="none" stroke="black" d="M436.26,-356.5C436.26,-356.5 487.26,-356.5 487.26,-356.5 493.26,-356.5 499.26,-362.5 499.26,-368.5 499.26,-368.5 499.26,-380.5 499.26,-380.5 499.26,-386.5 493.26,-392.5 487.26,-392.5 487.26,-392.5 436.26,-392.5 436.26,-392.5 430.26,-392.5 424.26,-386.5 424.26,-380.5 424.26,-380.5 424.26,-368.5 424.26,-368.5 424.26,-362.5 430.26,-356.5 436.26,-356.5"/>
<text text-anchor="middle" x="461.76" y="-370.8" font-family="Times,serif" font-size="14.00">0:0 &#45; 0:0</text>
</g>
<!-- c10&#45;&gt;x1 -->
<g id="edge2" class="edge">
<title>c10:e&#45;&gt;x1:w</title>
<path fill="none" stroke="black" d="M399.58,-398.12C404.98,-392.96 407.37,-384.4 412.68,-379.12"/>
<polygon fill="none" stroke="black" points="399.45,-398.18 395.29,-404.07 388.26,-402.5 392.41,-396.61 399.45,-398.18"/>
<polygon fill="none" stroke="black" points="413.11,-378.95 417.2,-373.01 424.26,-374.5 420.17,-380.44 413.11,-378.95"/>
</g>
<!-- x0&#45;&gt;c10 -->
<g id="edge1" class="edge">
<title>x0:e&#45;&gt;c10:w</title>
<path fill="none" stroke="black" d="M180.47,-413.73C184.55,-413.89 187.99,-414.11 192.07,-414.27"/>
<polygon fill="none" stroke="black" points="180.25,-413.73 174.18,-417.61 168.26,-413.5 174.33,-409.61 180.25,-413.73"/>
<polygon fill="none" stroke="black" points="192.26,-414.27 198.33,-410.39 204.26,-414.5 198.18,-418.39 192.26,-414.27"/>
</g>
<!-- x1&#45;&gt;n1 -->
<g id="edge9" class="edge">
<title>x1:e&#45;&gt;n1:w</title>
<path fill="none" stroke="black" d="M499.26,-374.5C559.21,-374.5 481.97,-251.82 525.31,-236.97"/>
<polygon fill="black" stroke="black" points="525.87,-240.42 535.26,-235.5 524.85,-233.5 525.87,-240.42"/>
</g>
<!-- x3 -->
<g id="node11" class="node">
<title>x3</title>
<path fill="none" stroke="black" d="M436.26,-176.5C436.26,-176.5 487.26,-176.5 487.26,-176.5 493.26,-176.5 499.26,-182.5 499.26,-188.5 499.26,-188.5 499.26,-200.5 499.26,-200.5 499.26,-206.5 493.26,-212.5 487.26,-212.5 487.26,-212.5 436.26,-212.5 436.26,-212.5 430.26,-212.5 424.26,-206.5 424.26,-200.5 424.26,-200.5 424.26,-188.5 424.26,-188.5 424.26,-182.5 430.26,-176.5 436.26,-176.5"/>
<text text-anchor="middle" x="461.76" y="-190.8" font-family="Times,serif" font-size="14.00">0:0 &#45; 1:1</text>
</g>
<!-- c11&#45;&gt;x3 -->
<g id="edge4" class="edge">
<title>c11:e&#45;&gt;x3:w</title>
<path fill="none" stroke="black" d="M400.01,-183.33C404.56,-185.76 407.96,-189.24 412.51,-191.67"/>
<polygon fill="none" stroke="black" points="399.92,-183.31 393.15,-185.79 388.26,-180.5 395.03,-178.02 399.92,-183.31"/>
<polygon fill="none" stroke="black" points="412.59,-191.69 419.36,-189.21 424.26,-194.5 417.49,-196.98 412.59,-191.69"/>
</g>
<!-- x2&#45;&gt;c11 -->
<g id="edge3" class="edge">
<title>x2:e&#45;&gt;c11:w</title>
<path fill="none" stroke="black" d="M179.39,-144.02C188.3,-154.03 184.21,-177.99 193.13,-187.99"/>
<polygon fill="none" stroke="black" points="179.38,-144.01 172.31,-145.46 168.26,-139.5 175.32,-138.05 179.38,-144.01"/>
<polygon fill="none" stroke="black" points="193.13,-187.99 200.2,-186.54 204.26,-192.5 197.19,-193.95 193.13,-187.99"/>
</g>
<!-- x3&#45;&gt;n1 -->
<g id="edge10" class="edge">
<title>x3:e&#45;&gt;n1:w</title>
<path fill="none" stroke="black" d="M499.26,-194.5C519.34,-194.5 514.22,-222.62 525.64,-232.28"/>
<polygon fill="black" stroke="black" points="524.66,-235.65 535.26,-235.5 526.88,-229.01 524.66,-235.65"/>
</g>
<!-- x5 -->
<g id="node14" class="node">
<title>x5</title>
<path fill="none" stroke="black" d="M436.26,-259.5C436.26,-259.5 487.26,-259.5 487.26,-259.5 493.26,-259.5 499.26,-265.5 499.26,-271.5 499.26,-271.5 499.26,-283.5 499.26,-283.5 499.26,-289.5 493.26,-295.5 487.26,-295.5 487.26,-295.5 436.26,-295.5 436.26,-295.5 430.26,-295.5 424.26,-289.5 424.26,-283.5 424.26,-283.5 424.26,-271.5 424.26,-271.5 424.26,-265.5 430.26,-259.5 436.26,-259.5"/>
<text text-anchor="middle" x="461.76" y="-273.8" font-family="Times,serif" font-size="14.00">0:0 &#45; 2:2</text>
</g>
<!-- c12&#45;&gt;x5 -->
<g id="edge6" class="edge">
<title>c12:e&#45;&gt;x5:w</title>
<path fill="none" stroke="black" d="M400.01,-288.67C404.56,-286.24 407.96,-282.76 412.51,-280.33"/>
<polygon fill="none" stroke="black" points="399.92,-288.69 395.03,-293.98 388.26,-291.5 393.15,-286.21 399.92,-288.69"/>
<polygon fill="none" stroke="black" points="412.59,-280.31 417.49,-275.02 424.26,-277.5 419.36,-282.79 412.59,-280.31"/>
</g>
<!-- x4&#45;&gt;c12 -->
<g id="edge5" class="edge">
<title>x4:e&#45;&gt;c12:w</title>
<path fill="none" stroke="black" d="M179.5,-352.9C188.44,-342.69 184.08,-318.28 193.03,-308.09"/>
<polygon fill="none" stroke="black" points="179.36,-352.95 175.33,-358.93 168.26,-357.5 172.29,-351.52 179.36,-352.95"/>
<polygon fill="none" stroke="black" points="193.15,-308.04 197.19,-302.07 204.26,-303.5 200.22,-309.47 193.15,-308.04"/>
</g>
<!-- x5&#45;&gt;n1 -->
<g id="edge11" class="edge">
<title>x5:e&#45;&gt;n1:w</title>
<path fill="none" stroke="black" d="M499.26,-277.5C519.62,-277.5 514.08,-248.7 525.54,-238.8"/>
<polygon fill="black" stroke="black" points="526.91,-242.03 535.26,-235.5 524.66,-235.4 526.91,-242.03"/>
</g>
<!-- x7 -->
<g id="node17" class="node">
<title>x7</title>
<path fill="none" stroke="black" d="M436.26,-93.5C436.26,-93.5 487.26,-93.5 487.26,-93.5 493.26,-93.5 499.26,-99.5 499.26,-105.5 499.26,-105.5 499.26,-117.5 499.26,-117.5 499.26,-123.5 493.26,-129.5 487.26,-129.5 487.26,-129.5 436.26,-129.5 436.26,-129.5 430.26,-129.5 424.26,-123.5 424.26,-117.5 424.26,-117.5 424.26,-105.5 424.26,-105.5 424.26,-99.5 430.26,-93.5 436.26,-93.5"/>
<text text-anchor="middle" x="461.76" y="-107.8" font-family="Times,serif" font-size="14.00">0:0 &#45; 3:3</text>
</g>
<!-- c13&#45;&gt;x7 -->
<g id="edge8" class="edge">
<title>c13:e&#45;&gt;x7:w</title>
<path fill="none" stroke="black" d="M399.48,-74.32C406.45,-82.42 406.08,-98.67 413.08,-106.74"/>
<polygon fill="none" stroke="black" points="399.28,-74.23 392.19,-75.54 388.26,-69.5 395.35,-68.19 399.28,-74.23"/>
<polygon fill="none" stroke="black" points="413.22,-106.8 420.3,-105.47 424.26,-111.5 417.17,-112.83 413.22,-106.8"/>
</g>
<!-- x6&#45;&gt;c13 -->
<g id="edge7" class="edge">
<title>x6:e&#45;&gt;c13:w</title>
<path fill="none" stroke="black" d="M180.48,-83.04C184.55,-82.71 187.99,-82.28 192.07,-81.96"/>
<polygon fill="none" stroke="black" points="180.25,-83.04 174.4,-87.27 168.26,-83.5 174.1,-79.28 180.25,-83.04"/>
<polygon fill="none" stroke="black" points="192.27,-81.95 198.11,-77.73 204.26,-81.5 198.41,-85.72 192.27,-81.95"/>
</g>
<!-- x7&#45;&gt;n1 -->
<g id="edge12" class="edge">
<title>x7:e&#45;&gt;n1:w</title>
<path fill="none" stroke="black" d="M499.26,-111.5C552.61,-111.5 488.27,-218.68 525.08,-233.75"/>
<polygon fill="black" stroke="black" points="524.81,-237.25 535.26,-235.5 526,-230.35 524.81,-237.25"/>
</g>
</g>
</svg>
